<svg width="24" height="23" viewBox="0 0 24 23" fill="none" xmlns="http://www.w3.org/2000/svg">
<g clip-path="url(#clip0_296_15909)">
<path d="M10.0958 1.54585V21.4758C9.98019 21.4036 9.90795 21.3602 9.84294 21.3097C8.32598 20.1683 6.8018 19.0342 5.29206 17.8785C5.16204 17.7773 5.06091 17.5678 5.05368 17.4017C5.03923 13.4648 5.03923 9.52795 5.05368 5.5983C5.05368 5.44661 5.13314 5.23712 5.24872 5.15044C6.80902 3.95854 8.37655 2.78831 9.94407 1.61087C9.97297 1.58919 10.0163 1.57475 10.0958 1.54585Z" fill="#5A6B7C"/>
<path d="M14.1049 22.9928C13.462 22.9928 12.848 23.0072 12.234 22.9928C11.8294 22.9783 11.4683 22.581 11.4683 22.1765C11.4683 15.054 11.4683 7.93875 11.4683 0.816267C11.4683 0.411745 11.8294 0.0216693 12.2412 0.00722208C12.848 -0.00722515 13.462 0.00722208 14.1049 0.00722208V23V22.9928Z" fill="#5A6B7C"/>
<path d="M3.66677 17.0188H0.25V5.98838H3.66677V17.0188Z" fill="#5A6B7C"/>
<path d="M23.1922 11.984C22.3254 12.244 21.5163 12.5041 20.7001 12.728C20.5484 12.7714 20.3461 12.7136 20.1944 12.6413C19.6599 12.3813 19.1398 12.0779 18.598 11.8395C18.4102 11.7528 18.1357 11.7384 17.9406 11.8034C17.2761 12.0201 16.6332 12.2802 15.918 12.5474C15.7591 12.1212 15.6074 11.7239 15.4485 11.2905C16.3948 10.9366 17.3122 10.5826 18.2368 10.2575C18.3524 10.2142 18.5257 10.2792 18.6485 10.3442C19.1831 10.6043 19.696 10.9149 20.245 11.146C20.4761 11.2472 20.7867 11.2761 21.0323 11.2183C21.6102 11.0883 22.1737 10.8932 22.7949 10.7054C22.9249 11.1316 23.0477 11.5361 23.185 11.9912L23.1922 11.984Z" fill="#5A6B7C"/>
<path d="M17.8395 7.42588C17.1966 7.89541 16.6548 8.29271 16.0842 8.71168C15.8169 8.35773 15.5713 8.02544 15.2823 7.63536C16.1492 6.99969 17.0016 6.36401 17.919 5.68499C18.2296 6.06061 18.533 6.42902 18.8508 6.80465C19.5082 6.27732 20.0572 5.82946 20.6639 5.33825C20.9384 5.67776 21.2129 6.01005 21.5163 6.37845C20.6278 7.10082 19.7538 7.80873 18.8291 8.55999C18.4969 8.18436 18.179 7.81595 17.8395 7.42588Z" fill="#ECB6C3"/>
<path d="M20.6711 17.669C20.0788 17.1922 19.5226 16.7443 18.8869 16.2315C18.5691 16.5926 18.2585 16.9466 17.9334 17.3295C17.0232 16.6577 16.1708 16.0292 15.2896 15.3791C15.5496 15.0179 15.8024 14.6712 16.0769 14.2955C16.6476 14.7145 17.2038 15.1118 17.8106 15.5597C18.1429 15.1768 18.4607 14.8012 18.793 14.4183C19.7321 15.184 20.6061 15.892 21.5091 16.6288C21.2129 16.9899 20.9456 17.3222 20.6639 17.669H20.6711Z" fill="#ECB6C3"/>
</g>
<defs>
<clipPath id="clip0_296_15909">
<rect width="22.9422" height="23" fill="white" transform="translate(0.25)"/>
</clipPath>
</defs>
</svg>
