<svg width="24" height="23" viewBox="0 0 24 23" fill="none" xmlns="http://www.w3.org/2000/svg">
<g clip-path="url(#clip0_296_15902)">
<path d="M21.2673 11.9332C24.2571 15.3268 23.0782 19.7431 20.3294 21.7559C17.548 23.7882 13.4378 23.3973 11.1124 19.9581C10.207 21.0328 9.08014 21.6972 7.66665 21.8275C6.53978 21.9317 5.49758 21.6842 4.54006 21.0719C2.93768 20.0493 1.59585 17.8541 2.51429 14.9751C0.482005 13.5616 -0.469001 11.64 0.227969 9.18436C0.905398 6.81336 2.65108 5.65392 5.06767 5.47153C5.53015 1.50467 10.2461 0.0651345 12.7669 3.13962C16.0107 0.801186 19.3393 2.04531 20.9351 3.74539C22.759 5.693 23.4169 9.1062 21.2738 11.9397L21.2673 11.9332ZM11.7638 11.2036C11.7508 12.819 13.0144 14.1218 14.6298 14.1478C16.2322 14.1739 17.548 12.8842 17.574 11.2753C17.6001 9.67289 16.3104 8.35712 14.7015 8.33758C13.0796 8.32455 11.7768 9.59473 11.7638 11.2036ZM8.83913 14.1153C9.75756 14.1283 10.3764 13.9003 10.8714 13.3922C11.2166 13.047 11.2492 12.6497 10.9691 12.3631C10.6825 12.0634 10.3373 12.1025 9.93343 12.4087C9.71848 12.5715 9.4449 12.7213 9.18435 12.7539C8.51344 12.8386 7.90766 12.4477 7.6406 11.8355C7.38005 11.2297 7.52987 10.5197 8.0184 10.0637C8.51995 9.60124 9.19738 9.52308 9.84876 9.85528C10.3308 10.1028 10.7021 10.0442 10.904 9.69243C11.1189 9.31464 10.9626 8.93684 10.4871 8.66978C9.42536 8.07703 8.10308 8.21382 7.17812 9.01501C6.2662 9.80317 5.92749 11.0733 6.33134 12.2002C6.7417 13.3466 7.83601 14.1153 8.83261 14.1218L8.83913 14.1153ZM18.2515 17.6131C18.3296 17.4763 18.3883 17.3917 18.4339 17.307C18.6814 16.851 19.0071 16.4211 19.1699 15.9326C19.4305 15.1444 18.8377 14.2716 18.017 14.1022C17.1376 13.9198 16.2518 14.4931 16.128 15.3333C16.0759 15.672 16.2192 15.9326 16.5253 16.0629C16.851 16.1997 17.1441 16.115 17.3526 15.8088C17.3917 15.7502 17.3982 15.6525 17.4503 15.6134C17.5415 15.5418 17.6587 15.5027 17.7629 15.4571C17.7825 15.5743 17.8411 15.7046 17.8085 15.8023C17.7564 15.9521 17.6587 16.0889 17.561 16.2257C17.1962 16.7338 16.7924 17.2223 16.4667 17.763C16.3299 17.9844 16.2583 18.3622 16.356 18.5772C16.4407 18.7726 16.7924 18.9289 17.0399 18.9485C17.5871 19.0006 18.1473 18.9745 18.7009 18.9615C19.0983 18.9485 19.3588 18.6814 19.3718 18.3166C19.3849 17.9388 19.1178 17.6522 18.7009 17.6196C18.5706 17.6066 18.4404 17.6196 18.2515 17.6196V17.6131Z" fill="#FFF"/>
<path d="M4.24041 2.11696C4.24041 3.27641 3.2829 4.22741 2.12345 4.2209C0.957492 4.2209 0.0130005 3.2699 0.0130005 2.10394C0.0130005 0.944492 0.964006 0 2.12996 0C3.29592 0 4.24041 0.951005 4.2339 2.11696H4.24041Z" fill="#FFF"/>
<path d="M11.7703 11.2036C11.7833 9.59473 13.0861 8.32455 14.708 8.33758C16.3169 8.35061 17.6066 9.66638 17.5806 11.2753C17.5545 12.8842 16.2387 14.1739 14.6363 14.1478C13.0209 14.1218 11.7573 12.8255 11.7703 11.2036ZM14.6494 9.68592C13.77 9.69243 13.0991 10.3894 13.1121 11.2753C13.1252 12.1286 13.8091 12.806 14.6624 12.806C15.5352 12.806 16.2257 12.109 16.2257 11.2362C16.2257 10.3633 15.5287 9.68592 14.6429 9.69243L14.6494 9.68592Z" fill="#ECB6C3"/>
<path d="M8.84566 14.1153C7.84255 14.1153 6.75476 13.3401 6.34439 12.1937C5.94054 11.0668 6.27925 9.79666 7.19118 9.0085C8.11613 8.20731 9.43841 8.07052 10.5002 8.66327C10.9757 8.93034 11.132 9.30813 10.917 9.68593C10.7151 10.0377 10.3438 10.0963 9.86181 9.84877C9.21043 9.51657 8.533 9.59474 8.03145 10.0572C7.54292 10.5067 7.3931 11.2232 7.65365 11.8289C7.92071 12.4412 8.52649 12.8321 9.19741 12.7474C9.45796 12.7148 9.73153 12.565 9.94649 12.4022C10.3503 12.096 10.6956 12.0569 10.9822 12.3566C11.2557 12.6497 11.2232 13.0405 10.8845 13.3857C10.3829 13.8938 9.77061 14.1218 8.85218 14.1088L8.84566 14.1153Z" fill="#ECB6C3"/>
<path d="M18.258 17.6196C18.4469 17.6196 18.5772 17.6131 18.7074 17.6196C19.1178 17.6522 19.3914 17.9388 19.3784 18.3166C19.3653 18.6814 19.1048 18.9484 18.7074 18.9615C18.1538 18.981 17.5936 19.0071 17.0464 18.9484C16.7989 18.9224 16.4472 18.7661 16.3625 18.5772C16.2648 18.3622 16.3365 17.9844 16.4732 17.7629C16.7924 17.2288 17.2028 16.7403 17.5675 16.2257C17.6653 16.0954 17.7695 15.9521 17.8151 15.8023C17.8476 15.7046 17.789 15.5743 17.7695 15.4571C17.6653 15.5092 17.548 15.5483 17.4568 15.6134C17.4047 15.6525 17.3982 15.7502 17.3591 15.8088C17.1507 16.115 16.8575 16.1931 16.5319 16.0629C16.2257 15.9391 16.0824 15.672 16.1345 15.3333C16.2583 14.4931 17.1442 13.9198 18.0235 14.1022C18.8442 14.2716 19.437 15.1444 19.1764 15.9326C19.0136 16.4146 18.6944 16.851 18.4404 17.307C18.3948 17.3917 18.3362 17.4763 18.258 17.6131V17.6196Z" fill="#ECB6C3"/>
<path d="M14.6494 9.68593C15.5287 9.67941 16.2257 10.3568 16.2322 11.2297C16.2322 12.1025 15.5418 12.7995 14.6689 12.7995C13.8091 12.7995 13.1317 12.1286 13.1187 11.2688C13.1056 10.3829 13.7765 9.69244 14.6559 9.67941L14.6494 9.68593Z" fill="#FFF"/>
</g>
<defs>
<clipPath id="clip0_296_15902">
<rect width="23.0261" height="23" fill="white"/>
</clipPath>
</defs>
</svg>
