<svg width="23" height="23" viewBox="0 0 23 23" fill="none" xmlns="http://www.w3.org/2000/svg">
<g clip-path="url(#clip0_98_433)">
<path d="M11.5719 2.94353e-06C17.9328 0.0359404 23.0719 5.24688 23.0359 11.6078C22.9641 17.9328 17.7172 23.0719 11.3563 23C5.10313 22.9281 0 17.7891 0 11.5C0 5.13907 5.21094 -0.0359346 11.5719 2.94353e-06ZM11.6078 21.7422C17.2859 21.6703 21.85 17.0344 21.7781 11.3563C21.6703 5.75 17.1063 1.25782 11.5 1.25782C5.82187 1.25782 1.22187 5.89375 1.25781 11.5359C1.29375 17.2141 5.92969 21.8141 11.6078 21.7422Z" fill="white"/>
<path d="M16.9265 18.5437C16.8906 18.0406 16.8546 17.5734 16.8187 17.1422C16.639 14.95 15.5968 13.9437 13.3687 13.8359C12.2906 13.8 11.2125 13.8 10.1343 13.8359C7.36714 13.8718 6.36089 14.8422 6.21714 17.5734C6.21714 17.8609 6.1812 18.1484 6.14527 18.4718C3.41402 17.0343 1.83276 13.0453 2.62339 9.63122C3.52183 5.6781 6.93589 2.69529 10.8171 2.47966C15.0937 2.2281 18.7953 4.70779 20.125 8.66091C21.3468 12.3984 20.089 16.3875 16.9265 18.5437ZM11.5359 5.71404C9.77495 5.71404 8.30151 7.15154 8.37339 8.87654C8.40933 10.5297 9.81089 11.8953 11.5 11.8953C13.2609 11.8953 14.7343 10.4578 14.6625 8.73279C14.6265 7.07966 13.225 5.71404 11.5359 5.71404Z" fill="white"/>
</g>
<defs>
<clipPath id="clip0_98_433">
<rect width="23" height="23" fill="white"/>
</clipPath>
</defs>
</svg>
