<svg width="23" height="23" viewBox="0 0 23 23" fill="none" xmlns="http://www.w3.org/2000/svg">
<g clip-path="url(#clip0_98_428)">
<path d="M2.87384 2.90984C2.87384 3.29602 2.87384 3.65526 2.87384 4.01449C2.88282 5.53226 3.96053 6.68181 5.47829 6.70875C7.2565 6.74467 9.0437 6.74467 10.8219 6.70875C12.3217 6.67283 13.3815 5.55022 13.3994 4.04143C13.4084 3.67322 13.3994 3.29602 13.3994 2.93679C14.7106 2.72124 16.0937 3.7271 16.2284 5.07423C16.3272 6.08009 16.2464 7.10391 16.2464 8.12773C15.7524 8.19957 15.2674 8.25346 14.7825 8.35225C14.3873 8.43308 13.9742 8.50492 13.6239 8.69352C12.8606 9.08868 12.0613 9.1246 11.235 9.11562C8.79223 9.09766 6.35842 9.10664 3.91562 9.10664C3.72702 9.10664 3.52046 9.10664 3.34085 9.16951C3.00855 9.28626 2.82894 9.5467 2.87384 9.89696C2.90976 10.2472 3.12531 10.4717 3.47556 10.5166C3.61925 10.5346 3.77193 10.5346 3.9246 10.5346C5.96326 10.5346 7.99293 10.5346 10.0316 10.5346C10.1932 10.5346 10.3549 10.5346 10.5704 10.5346C10.1483 11.1004 9.77115 11.6213 9.36701 12.1242C9.29516 12.214 9.09758 12.214 8.95389 12.214C7.18466 12.223 5.42441 12.214 3.65518 12.223C3.17021 12.223 2.85588 12.5284 2.85588 12.9505C2.86486 13.3546 3.17021 13.633 3.62823 13.6599C3.736 13.6689 3.83479 13.6599 3.94256 13.6599C5.31664 13.6599 6.69969 13.6599 8.07376 13.6599C8.23542 13.6599 8.39707 13.6599 8.59465 13.6599C8.45096 14.2257 8.32523 14.7556 8.17255 15.3483C8.02886 15.3483 7.8672 15.3483 7.70555 15.3483C6.42128 15.3483 5.12804 15.3483 3.84377 15.3483C3.18817 15.3483 2.85588 15.5908 2.8469 16.0489C2.83792 16.5159 3.20613 16.7853 3.87072 16.7853C5.11008 16.7853 6.35842 16.7853 7.59778 16.7853C7.75943 16.7853 7.92109 16.7853 8.00192 16.7853C8.27134 17.9259 8.52281 19.0125 8.78325 20.1172C8.70242 20.1172 8.55873 20.1351 8.42402 20.1351C6.53803 20.1351 4.65205 20.1351 2.76607 20.1351C1.12257 20.1262 -3.68237e-05 19.0125 -3.68237e-05 17.3511C-3.68237e-05 13.4175 -0.00901769 9.47486 -3.68237e-05 5.54124C0.00894404 3.9606 1.28423 2.78411 2.87384 2.90984Z" fill="white"/>
<path d="M23 16.5428C23 20.1172 20.0723 23.009 16.4979 23C12.9504 22.9911 10.0586 20.0813 10.0586 16.5248C10.0586 12.9504 12.9774 10.0586 16.5607 10.0676C20.1082 10.0766 23 12.9864 23 16.5428ZM15.483 17.0996C15.0879 16.6685 14.7376 16.2644 14.3604 15.8872C13.9383 15.4741 13.3815 15.4741 12.9953 15.8513C12.6092 16.2285 12.5912 16.7943 12.9953 17.2164C13.615 17.863 14.2527 18.5006 14.8993 19.1203C15.3393 19.5334 15.8692 19.5065 16.2913 19.0754C16.5607 18.797 16.8122 18.4916 17.0637 18.2043C17.9079 17.2343 18.7611 16.2734 19.6053 15.2945C19.9825 14.8544 19.9645 14.2886 19.5783 13.9204C19.1832 13.5522 18.6174 13.5701 18.2132 13.9832C18.0336 14.1629 17.8719 14.3604 17.7103 14.558C16.9918 15.3753 16.2734 16.1925 15.483 17.0996Z" fill="white"/>
<path d="M8.13663 5.75676C7.28344 5.75676 6.43026 5.76575 5.57708 5.75676C4.55326 5.74778 3.86173 5.05626 3.84377 4.04142C3.83479 3.61034 3.83479 3.17027 3.84377 2.73919C3.85275 2.20034 4.1132 1.89499 4.63409 1.93092C5.27173 1.97582 5.62198 1.7962 5.98122 1.19448C7.023 -0.529842 9.61847 -0.350225 10.4896 1.48187C10.6692 1.85009 10.8578 1.96684 11.235 1.92193C11.3787 1.90397 11.5314 1.91295 11.6841 1.92193C12.1601 1.94888 12.4385 2.20932 12.4564 2.67633C12.4744 3.17027 12.4834 3.66422 12.4474 4.15817C12.3756 5.11014 11.6841 5.74778 10.7321 5.75676C9.86993 5.76575 8.99879 5.75676 8.13663 5.75676Z" fill="white"/>
</g>
<defs>
<clipPath id="clip0_98_428">
<rect width="23" height="23" fill="white"/>
</clipPath>
</defs>
</svg>
