<svg width="24" height="23" viewBox="0 0 24 23" fill="none" xmlns="http://www.w3.org/2000/svg">
<path d="M12.2579 0C18.6076 0 23.7657 5.17382 23.75 11.5235C23.7344 17.8419 18.5762 23 12.2422 23C5.8925 23 0.734357 17.8262 0.750036 11.4765C0.765714 5.14247 5.92386 0 12.2579 0ZM12.5244 21.0716C17.8707 20.8364 22.0411 16.4151 21.8216 11.2256C21.5864 5.86367 17.1495 1.67757 11.9443 1.91275C6.59803 2.1636 2.42761 6.60055 2.66278 11.7744C2.91363 17.1363 7.35058 21.3067 12.5244 21.0716Z" fill="#ECB6C3"/>
<path d="M17.6355 6.78857C17.6826 6.89832 17.7296 6.96104 17.761 7.02375C17.9648 7.52545 18.1529 8.01148 18.3724 8.56022C17.7139 8.82675 17.0868 9.0776 16.444 9.34413C15.7855 9.61066 15.1427 9.87719 14.4842 10.1124C14.2334 10.2064 14.155 10.3475 14.155 10.6141C14.1706 11.5077 14.155 12.4014 14.1706 13.3107C14.1706 13.5145 14.2177 13.7184 14.2961 13.9065C14.7821 15.0667 15.2995 16.2112 15.7855 17.3557C15.8482 17.5125 15.9109 17.6536 15.9893 17.8417C15.4092 18.0926 14.8448 18.3434 14.249 18.61C13.9668 17.9515 13.6846 17.3244 13.4024 16.6816C13.1202 16.0231 12.838 15.3646 12.5401 14.7218C12.4774 14.5963 12.3363 14.5023 12.2422 14.4082C12.1482 14.518 12.0227 14.5963 11.9757 14.7218C11.4426 15.929 10.9096 17.1519 10.3765 18.3748C10.3452 18.4375 10.3138 18.5002 10.2511 18.6257C9.68666 18.3748 9.12225 18.124 8.5108 17.8731C8.88707 17.0108 9.21632 16.1485 9.62395 15.3489C10.204 14.2357 10.4863 13.0756 10.3608 11.8213C10.3295 11.445 10.3295 11.0687 10.3608 10.7081C10.3922 10.3789 10.2511 10.2378 9.9532 10.128C8.69894 9.64202 7.46035 9.14031 6.15906 8.62293C6.39423 8.02716 6.61373 7.46274 6.8489 6.85129C7.00568 6.89832 7.14679 6.94536 7.27221 6.99239C8.55783 7.50977 9.84345 8.04283 11.1447 8.52886C11.8659 8.79539 12.6499 8.79539 13.3711 8.52886C14.7821 7.94877 16.1775 7.36867 17.6355 6.78857Z" fill="#43505F"/>
<path d="M12.2265 7.65093C11.1604 7.65093 10.3295 6.80431 10.3295 5.72251C10.3295 4.65639 11.1761 3.82544 12.2579 3.82544C13.324 3.82544 14.155 4.67207 14.155 5.75387C14.1393 6.83566 13.2927 7.66661 12.2265 7.65093Z" fill="#43505F"/>
</svg>
