<svg width="23" height="23" viewBox="0 0 23 23" fill="none" xmlns="http://www.w3.org/2000/svg">
<g clip-path="url(#clip0_98_438)">
<path d="M16.6477 16.7845C16.2918 16.5928 15.9906 16.4559 15.7168 16.2643C15.4977 16.1274 15.3608 16.1274 15.1144 16.2643C14.7037 16.5655 14.2656 16.8119 13.8001 17.0309C13.5537 17.1405 13.4715 17.25 13.4715 17.5238C13.4441 18.8654 13.4441 18.8928 12.0751 18.8928C11.4727 18.8928 10.8703 18.8928 10.268 18.8928C9.66557 18.8928 9.39176 18.6464 9.44653 18.0988C9.50129 17.4416 9.337 17.0309 8.65248 16.8393C8.40605 16.7845 8.187 16.6202 7.99533 16.4559C7.612 16.1 7.31081 16.1821 6.9001 16.4285C6.18819 16.894 5.94176 16.8119 5.50367 16.0726C5.14772 15.4428 4.76438 14.8131 4.40843 14.1559C4.10724 13.6357 4.18938 13.2797 4.70962 13.0607C5.312 12.7869 5.55843 12.4035 5.39414 11.7738C5.33938 11.5274 5.33938 11.2535 5.42153 11.0071C5.55843 10.5143 5.33938 10.2678 4.90129 10.0488C4.13462 9.66545 4.07986 9.39164 4.51795 8.67974C4.87391 8.04997 5.22986 7.44759 5.58581 6.81783C5.91438 6.27021 6.24295 6.13331 6.76319 6.48926C7.28343 6.87259 7.69414 6.84521 8.15962 6.4345C8.43343 6.21545 8.762 6.07855 9.11795 5.94164C9.36438 5.8595 9.41914 5.72259 9.41914 5.47616C9.44653 4.10712 9.44653 4.10712 10.843 4.10712C11.418 4.10712 12.0203 4.10712 12.5953 4.10712C13.2251 4.10712 13.4989 4.32616 13.4441 4.92855C13.3894 5.55831 13.5537 5.96902 14.2108 6.16069C14.5394 6.27021 14.8406 6.51664 15.1144 6.73569C15.306 6.89997 15.4703 6.87259 15.662 6.76307C16.8394 6.10593 16.8394 6.10593 17.5239 7.28331C17.8251 7.80355 18.1537 8.35116 18.4275 8.8714C18.7013 9.36426 18.6465 9.72021 18.1263 9.93926C17.4965 10.2131 17.2775 10.5964 17.4144 11.2809C17.4965 11.6095 17.4418 11.9655 17.387 12.294C17.3322 12.5405 17.4418 12.65 17.6334 12.7869C18.8108 13.4714 18.8108 13.4988 18.1263 14.6762C17.8251 15.2238 17.5239 15.7714 17.168 16.2916C17.0858 16.4833 16.8668 16.6202 16.6477 16.7845ZM13.4715 11.5C13.4715 10.3774 12.568 9.47378 11.4453 9.50116C10.3501 9.50116 9.47391 10.4047 9.44653 11.5C9.44653 12.6226 10.3227 13.5262 11.4453 13.5262C12.568 13.5262 13.4715 12.6226 13.4715 11.5Z" fill="white"/>
<path d="M18.4822 2.38212C18.4548 2.21783 18.4274 2.13569 18.4274 2.08093C18.4 1.69759 18.5643 1.42378 18.9203 1.34164C19.3036 1.2595 19.5774 1.3964 19.7143 1.75235C20.0429 2.71069 20.3715 3.66902 20.6727 4.65474C20.8369 5.17497 20.3715 5.64045 19.8512 5.47616C18.8655 5.17497 17.9072 4.87378 16.9762 4.49045C16.7846 4.40831 16.5655 4.07974 16.5381 3.86069C16.5108 3.50474 16.7846 3.28569 17.1953 3.20355C17.0858 3.1214 17.031 3.03926 16.9489 2.9845C10.7608 -0.985741 2.49171 2.73807 1.42385 10.0214C1.17743 11.719 1.36909 13.3619 1.97147 14.95C2.02624 15.0595 2.081 15.169 2.10838 15.2785C2.2179 15.6893 2.05362 16.0452 1.72505 16.1547C1.36909 16.2916 0.98576 16.1547 0.848855 15.744C0.547664 14.7857 0.191712 13.8547 0.0821882 12.869C-0.602336 6.81783 3.25838 1.47855 9.20004 0.246402C12.3762 -0.41074 15.3334 0.301164 18.0441 2.08093C18.1536 2.16307 18.2631 2.24521 18.4822 2.38212Z" fill="white"/>
<path d="M4.46315 20.6178C4.49053 20.8095 4.54529 20.9464 4.51791 21.0286C4.381 21.2476 4.2441 21.5214 4.02505 21.6309C3.72386 21.7678 3.39529 21.6309 3.28577 21.3297C2.92981 20.3167 2.57386 19.3036 2.27267 18.2631C2.13577 17.7976 2.60124 17.3595 3.0941 17.5238C4.07981 17.825 5.06553 18.1536 6.02386 18.5095C6.21553 18.5917 6.40719 18.8928 6.43457 19.1119C6.48934 19.4952 6.16077 19.6869 5.77743 19.7964C5.88696 19.8786 5.94172 19.9333 6.02386 19.9881C12.2393 24.0952 20.7001 20.0976 21.5215 12.65C21.6858 11.0619 21.4667 9.52856 20.9191 8.02261C20.8917 7.91308 20.837 7.83094 20.8096 7.72142C20.6727 7.3107 20.837 6.95475 21.1655 6.81784C21.5489 6.68094 21.9048 6.84522 22.0691 7.25594C22.562 8.4607 22.8631 9.69284 22.9179 11.0071C23.137 16.894 18.8929 22.0417 13.0608 22.8631C10.0489 23.3012 7.31077 22.5619 4.8191 20.8643C4.73696 20.8095 4.62743 20.7547 4.46315 20.6178Z" fill="white"/>
</g>
<defs>
<clipPath id="clip0_98_438">
<rect width="22.9452" height="23" fill="white"/>
</clipPath>
</defs>
</svg>
