<svg width="24" height="23" viewBox="0 0 24 23" fill="none" xmlns="http://www.w3.org/2000/svg">
<g clip-path="url(#clip0_296_15926)">
<path d="M12.2435 23C5.90405 23 0.743457 17.8263 0.750006 11.4738C0.756555 5.15404 5.9237 0 12.2566 0C18.6025 0 23.7631 5.17369 23.75 11.5262C23.7435 17.846 18.5763 23 12.2435 23ZM10.783 20.2429V2.75712C6.78161 2.99288 2.83258 6.49658 2.78674 11.4018C2.73435 16.3004 6.60479 19.9613 10.783 20.2429Z" fill="#5A6B7C"/>
<path d="M10.7895 20.2494C6.60475 19.9678 2.74086 16.3135 2.79325 11.4083C2.84564 6.49659 6.78813 2.99289 10.7895 2.76367V20.2494Z" fill="#ECB6C3"/>
</g>
<defs>
<clipPath id="clip0_296_15926">
<rect width="23" height="23" fill="white" transform="translate(0.75)"/>
</clipPath>
</defs>
</svg>
