<svg width="19" height="23" viewBox="0 0 19 23" fill="none" xmlns="http://www.w3.org/2000/svg">
<path d="M2.08551 7.26942C2.1451 3.39637 5.12437 0.29792 9.05701 -7.91159e-06C12.6321 -0.23835 15.9689 2.56217 16.5052 6.25647C16.7435 7.92486 16.3264 9.47408 15.6114 10.9637C14.3601 13.7642 12.5726 16.2668 10.6658 18.7098C10.4871 18.9482 10.3083 19.1865 10.07 19.4249C9.59328 20.0207 9.05701 20.0207 8.63991 19.4249C7.26945 17.5777 5.89898 15.7306 4.5881 13.8238C3.51556 12.2746 2.68137 10.5466 2.26427 8.69947C2.20468 8.16321 2.1451 7.68652 2.08551 7.26942ZM6.43525 7.20984C6.43525 8.81865 7.74613 10.1295 9.35494 10.1295C10.9637 10.1295 12.3342 8.81865 12.2746 7.15025C12.2746 5.54144 10.9637 4.23056 9.35494 4.23056C7.74613 4.29015 6.43525 5.60103 6.43525 7.20984Z" fill="#43505F"/>
<path d="M9.35493 23.0001C7.15027 22.9405 4.94561 22.7617 2.86012 21.9275C2.20468 21.6296 1.48965 21.2721 0.95338 20.7954C-0.297915 19.7824 -0.297915 18.2928 0.893795 17.2203C1.72799 16.4457 2.74095 16.0286 3.81348 15.7306C4.29017 15.6115 4.64768 15.8498 4.76685 16.2669C4.88602 16.684 4.70727 17.0415 4.29017 17.2799C3.57514 17.5778 2.86012 17.8757 2.20468 18.2928C1.43006 18.7695 1.48965 19.2462 2.20468 19.7824C3.27721 20.5571 4.46892 20.855 5.72022 21.0933C8.63991 21.6296 11.6192 21.57 14.4793 20.7358C15.2539 20.4975 15.9689 20.14 16.6244 19.7229C17.3394 19.3058 17.3394 18.7695 16.6244 18.2928C16.0285 17.8757 15.3135 17.5778 14.5985 17.3394C14.1814 17.1607 13.8834 16.9223 13.943 16.4457C13.943 15.969 14.4197 15.6115 14.956 15.7306C16.0285 16.0286 17.101 16.4457 17.9352 17.2203C19.0674 18.2928 19.0674 19.6633 17.9352 20.7358C17.101 21.4508 16.1477 21.8679 15.1347 22.1659C13.1684 22.8213 11.2617 23.0001 9.35493 23.0001Z" fill="#ECB6C3"/>
</svg>
