<svg width="23" height="23" viewBox="0 0 23 23" fill="none" xmlns="http://www.w3.org/2000/svg">
<path d="M10.2292 13.4984C10.2292 13.2379 10.2292 13.0852 10.2292 12.9236C10.2292 9.13365 10.2292 5.34372 10.2292 1.56278C10.2292 1.33826 10.2292 1.10475 10.2921 0.898194C10.4627 0.305456 11.0824 -0.07174 11.6841 0.0180687C12.2948 0.107877 12.7618 0.619787 12.7618 1.25743C12.7708 3.12545 12.7708 5.00245 12.7708 6.87047C12.7708 9.04384 12.7708 11.2082 12.7708 13.4714C12.9145 13.3457 13.0223 13.2828 13.1031 13.193C13.9293 12.3668 14.7556 11.5405 15.5818 10.7143C16.2015 10.0946 16.9918 10.0587 17.5217 10.6065C18.0426 11.1454 17.9977 11.9087 17.387 12.5194C15.7614 14.154 14.1269 15.7885 12.5014 17.414C11.8637 18.0516 11.1542 18.0606 10.5256 17.441C8.85513 15.7885 7.19367 14.118 5.54119 12.4566C5.08317 11.9985 4.99336 11.4507 5.24483 10.9388C5.48731 10.4449 6.02616 10.1305 6.58298 10.2563C6.87036 10.3191 7.16673 10.4987 7.38227 10.6963C8.21749 11.4866 9.01679 12.3219 9.83405 13.1301C9.94182 13.2379 10.0496 13.3277 10.2292 13.4984Z" fill="#ECB6C3"/>
<path d="M11.4956 23.0001C9.41203 23.0001 7.33745 23.0001 5.25389 23.0001C2.22734 23.0001 0.00906611 20.7818 8.52467e-05 17.7642C8.52467e-05 17.387 -0.00889562 17.0188 8.52467e-05 16.6416C0.018047 15.8872 0.547918 15.3484 1.26639 15.3484C1.99384 15.3484 2.51473 15.8513 2.55065 16.6237C2.56861 17.1446 2.54167 17.6744 2.59556 18.1953C2.71231 19.3808 3.62836 20.2879 4.82281 20.4226C5.01141 20.4405 5.20899 20.4585 5.40657 20.4585C9.4749 20.4585 13.5432 20.4585 17.6205 20.4675C18.5366 20.4675 19.3269 20.216 19.9107 19.4706C20.2968 18.9767 20.4495 18.4109 20.4495 17.7912C20.4495 17.3601 20.4316 16.92 20.4675 16.489C20.5214 15.8334 21.0423 15.3664 21.6979 15.3574C22.3445 15.3484 22.9462 15.7974 22.9731 16.4351C23.027 17.4589 23.0809 18.5007 22.7396 19.5065C22.0481 21.5721 20.1352 22.9821 17.9618 23.018C17.9349 23.018 17.899 23.018 17.872 23.018C15.7435 23.0001 13.6241 23.0001 11.4956 23.0001Z" fill="#43505F"/>
</svg>
