<svg width="23" height="23" viewBox="0 0 23 23" fill="none" xmlns="http://www.w3.org/2000/svg">
<g clip-path="url(#clip0_98_452)">
<path d="M-0.0061683 4.29486C7.67934 4.29486 15.3366 4.29486 22.9938 4.29486C22.9938 4.46439 22.9938 4.60567 22.9938 4.7752C22.9938 10.0872 22.9938 15.3993 22.9938 20.7113C22.9938 22.2089 22.2027 23 20.6769 23C14.5454 23 8.41398 23 2.25427 23C0.784987 23 -0.0344238 22.2089 -0.0344238 20.7396C-0.0344238 15.3993 -0.0344238 10.0872 -0.0344238 4.74695C-0.0061683 4.60567 -0.0061683 4.46439 -0.0061683 4.29486ZM11.4938 17.575C13.6695 17.575 15.8734 17.575 18.0491 17.575C18.812 17.575 19.0098 17.3772 19.0098 16.6143C19.0098 13.4497 19.0098 10.2568 19.0098 7.09216C19.0098 6.35751 18.812 6.15973 18.0774 6.15973C13.6978 6.15973 9.34641 6.15973 4.9668 6.15973C4.20391 6.15973 4.00612 6.35751 4.00612 7.12041C4.00612 10.285 4.00612 13.4214 4.00612 16.586C4.00612 17.3772 4.17565 17.5467 4.99506 17.5467C7.14248 17.575 9.31816 17.575 11.4938 17.575ZM5.36238 19.4963C5.27762 19.4116 5.19285 19.3551 5.13634 19.2703C4.82553 19.0442 4.42995 19.0442 4.20391 19.2985C3.94961 19.5528 3.97786 19.9484 4.23216 20.231C4.31693 20.3157 4.40169 20.4005 4.48646 20.4853C5.39064 21.3895 5.4754 21.3895 6.37958 20.457C6.83167 20.0049 6.91644 19.6094 6.63388 19.2985C6.35133 18.9877 5.95575 19.016 5.4754 19.4398C5.41889 19.4681 5.41889 19.4681 5.36238 19.4963ZM9.68548 20.7961C9.93978 20.7961 10.1941 20.8243 10.4484 20.7961C10.844 20.7678 11.0983 20.4853 11.07 20.118C11.0417 19.7506 10.844 19.4963 10.4766 19.4681C9.96803 19.4398 9.43118 19.4398 8.92258 19.4681C8.527 19.4963 8.32921 19.7506 8.32921 20.118C8.32921 20.4853 8.55526 20.7396 8.92258 20.7678C9.17688 20.7961 9.43118 20.7961 9.68548 20.7961ZM14.0086 20.7961C14.2629 20.7961 14.5454 20.8243 14.7997 20.7961C15.1671 20.7678 15.3648 20.5135 15.3648 20.1745C15.3648 19.8071 15.1671 19.5246 14.7997 19.4963C14.2629 19.4681 13.726 19.4681 13.1892 19.4963C12.8218 19.5246 12.6241 19.7789 12.6241 20.118C12.6241 20.4853 12.8218 20.7396 13.1892 20.7961C13.4717 20.7961 13.7543 20.7961 14.0086 20.7961Z" fill="white"/>
<path d="M-0.00611874 2.88206C-0.00611874 2.48649 -0.0343743 2.11916 -0.00611874 1.7801C0.106903 0.791155 0.982825 0 2.00002 0C8.32926 0 14.6585 0 20.9877 0C22.118 0 22.9656 0.875921 22.9939 2.00614C22.9939 2.2887 22.9939 2.57125 22.9939 2.88206C15.3366 2.88206 7.67939 2.88206 -0.00611874 2.88206Z" fill="white"/>
<path d="M5.36235 7.51599C9.45941 7.51599 13.5282 7.51599 17.597 7.51599C17.597 8.70272 17.597 9.8612 17.597 11.1044C17.1732 10.6241 16.8058 10.2285 16.4385 9.83294C16.2972 9.66341 16.156 9.52213 16.0147 9.3526C15.6191 8.92877 15.2518 8.90051 14.828 9.32434C13.8108 10.3133 12.8218 11.3305 11.8046 12.3477C11.6916 12.4607 11.6068 12.602 11.4655 12.7715C10.8439 12.2347 10.3071 11.7543 9.74196 11.274C9.54417 11.1044 9.34638 10.9067 9.12034 10.7371C8.66825 10.3698 8.3857 10.3698 7.93361 10.7654C7.19896 11.4435 6.43606 12.1216 5.70142 12.7998C5.5884 12.9128 5.44712 12.9976 5.27759 13.1671C5.36235 11.2457 5.36235 9.40911 5.36235 7.51599Z" fill="white"/>
<path d="M15.4213 10.6806C16.156 11.5 16.8341 12.2912 17.5405 13.0823C17.597 13.1388 17.6535 13.2519 17.6535 13.3084C17.6535 14.2691 17.6535 15.2015 17.6535 16.1904C13.5282 16.1904 9.48768 16.1904 5.39063 16.1904C5.33412 15.5688 5.24936 15.032 5.84272 14.5516C6.80341 13.7887 7.67933 12.9128 8.64002 12.0369C9.40292 12.715 10.1376 13.3649 10.9005 13.9865C11.4091 14.4386 11.6916 14.4103 12.172 13.93C13.2174 12.8845 14.2911 11.8108 15.4213 10.6806Z" fill="white"/>
</g>
<defs>
<clipPath id="clip0_98_452">
<rect width="23" height="23" fill="white" transform="translate(-0.00622559)"/>
</clipPath>
</defs>
</svg>
