<svg width="24" height="23" viewBox="0 0 24 23" fill="none" xmlns="http://www.w3.org/2000/svg">
<g clip-path="url(#clip0_98_475)">
<path d="M0.800171 7.1347C8.49813 7.1347 16.1022 7.1347 23.8002 7.1347C23.8002 7.32246 23.8002 7.51022 23.8002 7.60409C23.8002 11.8286 23.8002 16.0531 23.8002 20.2776C23.8002 21.9674 22.7675 23 21.0777 23C15.2573 23 9.34303 23 3.52262 23C1.83282 23 0.800171 21.9674 0.800171 20.2776C0.800171 16.0531 0.800171 11.8286 0.800171 7.60409C0.800171 7.51022 0.800171 7.32246 0.800171 7.1347ZM8.31038 11.4531C8.31038 10.9837 8.31038 10.5143 8.31038 10.1388C8.31038 9.6694 8.02874 9.38777 7.55935 9.38777C6.62058 9.38777 5.6818 9.38777 4.74303 9.38777C4.27364 9.38777 4.08589 9.6694 4.08589 10.1388C4.08589 11.0776 4.08589 12.0163 4.08589 12.9551C4.08589 13.4245 4.36752 13.7061 4.74303 13.7061C5.6818 13.7061 6.62058 13.7061 7.65323 13.7061C8.12262 13.7061 8.31038 13.4245 8.31038 12.9551C8.31038 12.3918 8.31038 11.9225 8.31038 11.4531ZM16.3838 11.5469C16.3838 12.0163 16.3838 12.4857 16.3838 12.8612C16.3838 13.3306 16.5716 13.6123 17.1349 13.6123C18.0736 13.6123 19.0124 13.6123 19.9512 13.6123C20.4206 13.6123 20.7022 13.3306 20.7022 12.8612C20.7022 11.9225 20.7022 11.0776 20.7022 10.1388C20.7022 9.6694 20.4206 9.38777 19.9512 9.38777C19.0124 9.38777 18.0736 9.38777 17.1349 9.38777C16.6655 9.38777 16.3838 9.6694 16.3838 10.1388C16.3838 10.6082 16.3838 11.0776 16.3838 11.5469ZM12.3471 15.2082C11.8777 15.2082 11.4083 15.2082 10.9389 15.2082C10.4696 15.2082 10.2818 15.4898 10.1879 15.8653C10.1879 16.8041 10.1879 17.7429 10.1879 18.6816C10.1879 19.151 10.4696 19.3388 10.9389 19.4327C11.8777 19.4327 12.8165 19.4327 13.7553 19.4327C14.2247 19.4327 14.5063 19.151 14.5063 18.6816C14.5063 17.7429 14.5063 16.8041 14.5063 15.8653C14.5063 15.3959 14.2247 15.1143 13.7553 15.1143C13.192 15.2082 12.8165 15.2082 12.3471 15.2082ZM6.24507 15.2082C5.77568 15.2082 5.30629 15.2082 4.83691 15.2082C4.36752 15.2082 4.08589 15.4898 4.08589 15.9592C4.08589 16.898 4.08589 17.7429 4.08589 18.6816C4.08589 19.151 4.36752 19.4327 4.83691 19.4327C5.77568 19.4327 6.71446 19.4327 7.65323 19.4327C8.12262 19.4327 8.40425 19.151 8.40425 18.6816C8.40425 17.7429 8.40425 16.8041 8.40425 15.8653C8.40425 15.3959 8.12262 15.2082 7.65323 15.1143C7.08997 15.2082 6.62058 15.2082 6.24507 15.2082ZM18.4492 15.2082C18.0736 15.2082 17.6043 15.2082 17.2287 15.2082H17.1349C16.6655 15.2082 16.3838 15.4898 16.3838 15.9592C16.3838 16.898 16.3838 17.7429 16.3838 18.6816C16.3838 19.151 16.6655 19.4327 17.1349 19.4327C18.0736 19.4327 18.9185 19.4327 19.8573 19.4327C20.3267 19.4327 20.6083 19.151 20.6083 18.6816C20.6083 17.7429 20.6083 16.8041 20.6083 15.8653C20.6083 15.3959 20.3267 15.1143 19.8573 15.1143C19.3879 15.2082 18.9185 15.2082 18.4492 15.2082ZM11.69 11.6408C11.5022 11.4531 11.4083 11.1714 11.3145 11.0776C11.0328 10.7959 10.5634 10.7021 10.2818 10.9837C10.0002 11.2653 10.0002 11.6408 10.2818 12.0163C10.5634 12.298 10.8451 12.5796 11.1267 12.8612C11.5961 13.3306 11.8777 13.3306 12.3471 12.8612C12.9104 12.298 13.5675 11.6408 14.1308 11.0776C14.5063 10.7021 14.5063 10.3265 14.2247 10.0449C13.943 9.76328 13.5675 9.76328 13.192 10.1388C12.8165 10.6082 12.3471 11.0776 11.69 11.6408Z" fill="white"/>
<path d="M0.800171 5.72654C0.800171 4.97552 0.800171 4.31837 0.800171 3.66123C0.894048 2.44082 1.9267 1.50205 3.24099 1.50205C3.80425 1.50205 4.4614 1.50205 5.11854 1.50205C5.11854 1.22041 5.11854 0.938781 5.11854 0.751026C5.21242 0.281638 5.49405 5.47907e-06 5.86956 5.47907e-06C6.24507 5.47907e-06 6.43282 0.281638 6.5267 0.751026C6.5267 1.6898 6.5267 2.62858 6.5267 3.56735C6.5267 4.03674 6.80833 4.31837 7.18384 4.31837C7.55935 4.31837 7.84099 4.03674 7.84099 3.56735C7.84099 3.3796 7.84099 3.28572 7.84099 3.09796C7.84099 2.62858 7.84099 2.06531 7.84099 1.50205C8.40425 1.50205 8.87364 1.50205 9.43691 1.50205C9.43691 1.22041 9.43691 0.938781 9.43691 0.751026C9.53078 0.281638 9.81242 5.47907e-06 10.1879 5.47907e-06C10.5634 5.47907e-06 10.8451 0.281638 10.8451 0.751026C10.8451 1.6898 10.8451 2.5347 10.8451 3.47347C10.8451 3.94286 11.1267 4.22449 11.5022 4.31837C11.8777 4.31837 12.1594 4.03674 12.1594 3.56735C12.1594 2.91021 12.1594 2.25307 12.1594 1.50205C12.7226 1.50205 13.2859 1.50205 13.8492 1.50205C13.8492 1.22041 13.8492 1.03266 13.8492 0.751026C13.8492 0.281638 14.1308 5.47907e-06 14.5063 5.47907e-06C14.8818 5.47907e-06 15.1634 0.281638 15.1634 0.751026C15.1634 1.59592 15.1634 2.5347 15.1634 3.3796C15.1634 3.56735 15.2573 3.84899 15.3512 4.03674C15.5389 4.13062 15.8206 4.2245 16.0083 4.13062C16.1961 4.03674 16.3838 3.75511 16.4777 3.47347C16.5716 2.91021 16.4777 2.25307 16.4777 1.59592C16.4777 1.50205 16.4777 1.50205 16.4777 1.40817C16.9471 1.40817 17.5104 1.40817 18.0736 1.40817C18.0736 1.12654 18.0736 0.938781 18.0736 0.657148C18.0736 0.187761 18.3553 -0.0938721 18.7308 -0.0938721C19.1063 -0.0938721 19.3879 0.187761 19.3879 0.657148C19.3879 1.40817 19.3879 2.25307 19.3879 3.00409C19.3879 3.09796 19.3879 3.28572 19.3879 3.3796C19.3879 3.84898 19.6696 4.03674 20.0451 4.13062C20.4206 4.13062 20.7022 3.84898 20.7022 3.47347C20.7022 2.91021 20.7022 2.34694 20.7022 1.6898C20.7022 1.59592 20.7022 1.50205 20.7022 1.40817C22.2043 1.12654 23.6124 2.25307 23.7063 3.75511C23.7063 4.41225 23.7063 4.97552 23.7063 5.63266C16.1961 5.72654 8.49813 5.72654 0.800171 5.72654Z" fill="white"/>
<path d="M6.90219 12.2979C6.4328 12.2979 5.86953 12.2979 5.40015 12.2979C5.40015 11.8286 5.40015 11.3592 5.40015 10.7959C5.86953 10.7959 6.33892 10.7959 6.90219 10.7959C6.90219 11.2653 6.90219 11.7347 6.90219 12.2979Z" fill="white"/>
<path d="M17.6981 10.7959C18.1675 10.7959 18.6369 10.7959 19.2002 10.7959C19.2002 11.2653 19.2002 11.8286 19.2002 12.2979C18.7308 12.2979 18.2614 12.2979 17.6981 12.2979C17.6981 11.7347 17.6981 11.2653 17.6981 10.7959Z" fill="white"/>
<path d="M11.5961 18.0245C11.5961 17.4612 11.5961 16.9918 11.5961 16.5225C12.0655 16.5225 12.6287 16.5225 13.0981 16.5225C13.0981 16.9918 13.0981 17.5551 13.0981 18.0245C12.5348 18.0245 12.0655 18.0245 11.5961 18.0245Z" fill="white"/>
<path d="M6.90219 16.5225C6.90219 16.9918 6.90219 17.4612 6.90219 18.0245C6.4328 18.0245 5.96341 18.0245 5.40015 18.0245C5.40015 17.5551 5.40015 17.0857 5.40015 16.5225C5.96341 16.5225 6.4328 16.5225 6.90219 16.5225Z" fill="white"/>
<path d="M17.6981 18.0245C17.6981 17.5551 17.6981 16.9918 17.6981 16.5225C18.1675 16.5225 18.6369 16.5225 19.2002 16.5225C19.2002 16.9918 19.2002 17.4612 19.2002 18.0245C18.7308 18.0245 18.2614 18.0245 17.6981 18.0245Z" fill="white"/>
</g>
<defs>
<clipPath id="clip0_98_475">
<rect width="23" height="23" fill="white" transform="translate(0.800171)"/>
</clipPath>
</defs>
</svg>
