<svg width="24" height="23" viewBox="0 0 24 23" fill="none" xmlns="http://www.w3.org/2000/svg">
<g clip-path="url(#clip0_373_31527)">
<path d="M2.80811 12.1745C3.59828 12.1745 4.39453 12.1806 5.1847 12.1745C5.4339 12.1745 5.55547 12.2231 5.60409 12.4966C6.1329 15.4689 8.55811 17.5416 11.5121 17.5598C14.4175 17.5841 16.9217 15.5236 17.4931 12.6121C17.56 12.2778 17.6633 12.1562 18.028 12.1623C19.5719 12.1866 21.1096 12.1806 22.6535 12.1623C22.9757 12.1623 23.0547 12.2474 23.0425 12.5574C23.0182 13.2139 22.9331 13.3597 22.3192 13.5664C21.6141 13.8034 20.903 14.0405 20.1979 14.2775C19.7117 14.4417 19.4077 15.1467 19.6326 15.6026C19.9669 16.2834 20.3073 16.9641 20.6477 17.651C20.9151 18.198 20.8908 18.3864 20.4775 18.8058C19.9487 19.3346 19.4077 19.8574 18.8972 20.3983C18.5629 20.7509 18.2225 20.8299 17.7788 20.5928C17.0798 20.2221 16.3686 19.8817 15.6575 19.5291C15.2685 19.3407 14.5269 19.6568 14.3932 20.0701C14.1318 20.8481 13.8705 21.6261 13.6273 22.4102C13.4936 22.8235 13.2323 23.012 12.8007 23.0059C11.9923 22.9937 11.1839 22.9876 10.3755 23.0059C9.91355 23.018 9.64611 22.8114 9.51239 22.3859C9.26926 21.62 9.02005 20.8542 8.77085 20.0883C8.62497 19.6446 7.8895 19.3286 7.47619 19.5352C6.75288 19.8938 6.02957 20.2403 5.31234 20.6171C4.92333 20.8177 4.60119 20.7569 4.30335 20.4469C3.74416 19.8817 3.18496 19.3225 2.61968 18.7633C2.29754 18.4472 2.24283 18.119 2.46165 17.7178C2.83242 17.0188 3.16672 16.3016 3.51926 15.5965C3.72592 15.1771 3.42201 14.4417 2.98438 14.2958C2.24891 14.0527 1.50737 13.8156 0.771905 13.5725C0.145847 13.3658 -0.0729686 12.9707 0.0546741 12.3325C0.0972216 12.1137 0.243099 12.1806 0.358585 12.1806C1.17915 12.1806 2.00578 12.1806 2.82634 12.1806L2.80811 12.1745Z" fill="#5A6B7C"/>
<path d="M11.5547 10.8253C10.1203 10.8253 8.68581 10.8253 7.25135 10.8253C6.96567 10.8253 6.86842 10.7949 6.94136 10.4606C7.39115 8.33931 9.36657 6.73466 11.5608 6.74074C13.7429 6.74074 15.7548 8.3697 16.1985 10.4606C16.2654 10.7767 16.1559 10.8314 15.8642 10.8314C14.4297 10.8192 12.9953 10.8314 11.5608 10.8314L11.5547 10.8253Z" fill="#ECB6C3"/>
<path d="M15.2017 6.61313C15.3111 6.52195 15.3901 6.46117 15.4691 6.38823C15.7912 6.09648 16.0708 6.03569 16.5206 6.27882C17.7667 6.95351 19.0492 6.90488 20.2831 6.19981C20.5444 6.05393 20.7146 6.05393 20.9517 6.22412C22.4408 7.30604 23.0973 8.7709 23.0426 10.5944C23.0426 10.7646 22.9879 10.8314 22.8116 10.8314C21.1522 10.8314 19.4929 10.8314 17.8275 10.8314C17.6633 10.8314 17.5843 10.7706 17.56 10.6065C17.3169 8.97756 16.5085 7.67681 15.2017 6.6192V6.61313Z" fill="#5A6B7C"/>
<path d="M2.75344 10.8253C1.94504 10.8253 1.13663 10.8253 0.334309 10.8253C0.145884 10.8253 0.0425545 10.8132 0.0364763 10.57C-0.0182277 8.72225 0.699003 7.27564 2.20032 6.19979C2.4313 6.03568 2.59541 6.05999 2.83246 6.19371C4.1332 6.9231 5.4461 6.9231 6.75291 6.21803C7.06898 6.04784 7.68288 6.23018 7.84092 6.55233C7.91993 6.71036 7.75582 6.74683 7.68288 6.81369C6.66174 7.68288 5.99314 8.7648 5.65883 10.0655C5.46433 10.8314 5.45825 10.8314 4.63769 10.8314C4.01164 10.8314 3.3795 10.8314 2.75344 10.8314V10.8253Z" fill="#5A6B7C"/>
<path d="M11.5608 2.31556e-05C13.056 0.0121796 14.2838 1.23998 14.2717 2.71091C14.2595 4.18792 13.0196 5.39141 11.5183 5.38533C10.0291 5.37925 8.8256 4.15145 8.84383 2.65013C8.86207 1.18528 10.0777 -0.00605507 11.5608 2.31556e-05Z" fill="#ECB6C3"/>
<path d="M4.81998 2.31555e-05C6.30914 0.00610138 7.51263 1.2339 7.4944 2.73522C7.47616 4.20615 6.26052 5.39749 4.78351 5.39141C3.29434 5.38533 2.09086 4.15753 2.10909 2.65621C2.12125 1.18528 3.34297 -0.00605507 4.81998 2.31555e-05Z" fill="#5A6B7C"/>
<path d="M18.3076 5.39138C16.8367 5.39138 15.6393 4.1879 15.6271 2.71089C15.621 1.21564 16.8367 0 18.3319 0C19.8028 0 21.0002 1.20349 21.0124 2.6805C21.0185 4.16966 19.8028 5.39138 18.3137 5.38531L18.3076 5.39138Z" fill="#5A6B7C"/>
<path d="M11.5486 16.2105C9.39693 16.2227 7.47013 14.7031 6.97172 12.6183C6.8927 12.2901 6.92917 12.1624 7.33033 12.1563C7.90169 12.1503 8.26638 12.1806 8.50343 12.8675C8.9593 14.1621 10.3026 14.9219 11.658 14.8611C13.0803 14.7943 14.3264 13.9129 14.7518 12.6C14.8673 12.2353 15.0254 12.1563 15.3718 12.1685C16.3443 12.1928 16.3443 12.1746 15.9979 13.1045C15.311 14.9705 13.5362 16.2105 11.5547 16.2166L11.5486 16.2105Z" fill="#ECB6C3"/>
<path d="M9.63403 12.1685C10.8679 12.1685 12.0167 12.1685 13.1655 12.1685C13.4451 12.1685 13.4815 12.2536 13.3418 12.4724C12.892 13.1957 12.2477 13.5604 11.3967 13.5057C10.564 13.451 10.0048 12.9951 9.64011 12.1745L9.63403 12.1685Z" fill="#ECB6C3"/>
</g>
<defs>
<clipPath id="clip0_373_31527">
<rect width="23.0425" height="23" fill="white"/>
</clipPath>
</defs>
</svg>
