<svg width="23" height="23" viewBox="0 0 23 23" fill="none" xmlns="http://www.w3.org/2000/svg">
<path d="M13.5613 5.46721C13.5613 6.56245 13.5613 7.64871 13.5613 8.74395C13.5613 9.36338 13.6332 9.4352 14.2708 9.4352C16.4442 9.4352 18.6086 9.4352 20.7819 9.4352C21.8147 9.4352 22.5781 9.95589 22.8835 10.8177C23.3594 12.1823 22.3805 13.5289 20.8628 13.5558C19.6683 13.5738 18.4649 13.5558 17.2704 13.5558C16.2556 13.5558 15.2318 13.5558 14.2169 13.5558C13.6511 13.5558 13.5613 13.6456 13.5613 14.2022C13.5613 16.3837 13.5613 18.5742 13.5613 20.7557C13.5613 21.788 13.0494 22.5601 12.1962 22.8653C10.8132 23.3501 9.46605 22.3626 9.44808 20.8185C9.43012 19.0948 9.44808 17.3802 9.44808 15.6565C9.44808 15.1628 9.44808 14.669 9.44808 14.1752C9.44808 13.6456 9.35828 13.5558 8.81044 13.5558C6.61013 13.5558 4.40982 13.5558 2.20951 13.5558C1.18569 13.5558 0.413332 13.0261 0.125945 12.1553C-0.33208 10.7818 0.655816 9.46213 2.17358 9.44418C3.71829 9.42622 5.25402 9.44418 6.79873 9.44418C7.47229 9.44418 8.14586 9.44418 8.81942 9.44418C9.35828 9.44418 9.44808 9.35441 9.44808 8.81576C9.44808 6.61631 9.44808 4.41686 9.44808 2.2174C9.44808 1.19398 9.96897 0.421931 10.8401 0.125678C12.1872 -0.332167 13.5164 0.62841 13.5703 2.10967C13.5703 2.13661 13.5703 2.17252 13.5703 2.19945C13.5613 3.28571 13.5613 4.38095 13.5613 5.46721Z" fill="white"/>
</svg>
