<svg width="22" height="28" viewBox="0 0 22 28" fill="none" xmlns="http://www.w3.org/2000/svg">
<path d="M10.5994 0.0163574C16.8596 0.0163574 21.7539 5.59359 21.014 11.7968C20.6157 14.9838 19.2498 17.7155 17.5425 20.3334C15.7783 23.0082 13.7295 25.3985 11.3961 27.5611C10.827 28.0733 10.4287 28.1302 9.91647 27.6749C6.38801 24.3741 3.25793 20.6749 1.32297 16.179C0.127852 13.4473 -0.384343 10.6017 0.469315 7.58546C1.77826 3.14644 5.93273 0.0163574 10.5994 0.0163574ZM4.73761 10.5448C4.73761 13.7887 7.35549 16.3497 10.5994 16.3497C13.7864 16.3497 16.4043 13.7887 16.4043 10.5448C16.4043 7.30091 13.8433 4.68302 10.5994 4.68302C7.35549 4.68302 4.73761 7.30091 4.73761 10.5448Z" fill="white"/>
</svg>
