<svg width="24" height="24" viewBox="0 0 24 24" fill="none" xmlns="http://www.w3.org/2000/svg">
<g clip-path="url(#clip0_204_2456)">
<path d="M9.08478 12.3273C10.1206 12.3273 11.1475 12.2919 12.1833 12.3362C13.5909 12.3892 14.8038 12.9554 15.8662 13.8665C16.2645 14.2115 16.2645 14.3265 15.8839 14.7158C14.4408 16.1665 13.0066 17.635 11.5459 19.0681C10.997 19.6077 10.7491 20.2092 10.7757 20.9612C10.7934 21.4477 10.7757 21.9342 10.7846 22.4208C10.7934 22.7746 10.6341 22.9427 10.2888 22.9338C8.02243 22.9073 5.74722 22.9338 3.48086 22.8542C1.65715 22.7835 0.391173 21.4388 0.222967 19.6254C0.0459078 17.6704 0.426585 15.8658 1.71912 14.3442C2.81689 13.0438 4.28648 12.4512 5.95969 12.3627C7.00434 12.3096 8.04899 12.3538 9.10249 12.3538C9.08478 12.3361 9.08478 12.3273 9.08478 12.3273Z" fill="white"/>
<path d="M9.023 9.94769C6.44679 9.95654 4.31323 7.85115 4.29552 5.27692C4.27781 2.65846 6.40253 0.5 9.01415 0.5C11.5992 0.5 13.7505 2.63192 13.7505 5.22385C13.7593 7.81577 11.6346 9.93885 9.023 9.94769Z" fill="white"/>
<path d="M12.5374 23.5C12.5374 22.5269 12.5285 21.6335 12.5462 20.7312C12.5462 20.625 12.617 20.5012 12.6879 20.4304C14.4231 18.7054 16.1671 16.9892 17.8934 15.2819C18.8407 16.2373 19.8145 17.2104 20.8326 18.2277C20.2483 18.8027 19.6374 19.3954 19.0354 19.9969C17.9465 21.0762 16.8665 22.1642 15.7687 23.2258C15.6182 23.3673 15.3703 23.4735 15.1578 23.4823C14.308 23.5177 13.4492 23.5 12.5374 23.5Z" fill="white"/>
<path d="M21.7357 17.3696C20.7088 16.3346 19.7349 15.3704 18.7788 14.415C19.186 13.9816 19.5756 13.495 20.0359 13.1058C20.452 12.7519 21.0629 12.8316 21.4878 13.2296C21.9482 13.6631 22.3997 14.1054 22.8335 14.5743C23.285 15.0608 23.285 15.7154 22.8512 16.2108C22.7803 16.2904 22.7095 16.3523 22.6387 16.4319C22.3377 16.7327 22.0456 17.0423 21.7357 17.3696Z" fill="white"/>
</g>
<defs>
<clipPath id="clip0_204_2456">
<rect width="23" height="23" fill="white" transform="translate(0.169922 0.5)"/>
</clipPath>
</defs>
</svg>
