<svg width="25" height="24" viewBox="0 0 25 24" fill="none" xmlns="http://www.w3.org/2000/svg">
<path d="M12.4658 23.5C9.65411 23.5 6.89861 23.5 4.08687 23.5C2.28736 23.5 0.937727 22.544 0.431614 20.9132C0.15044 19.9572 0.26291 19.0575 0.712788 18.1577C2.5123 14.7836 4.36804 11.4095 6.16756 8.09169C7.17978 6.23594 8.192 4.3802 9.20423 2.52445C9.93528 1.23105 11.0037 0.5 12.4658 0.5C13.9279 0.5 14.9964 1.23105 15.6712 2.52445C18.483 7.69804 21.2947 12.8716 24.1064 18.0452C25.2311 20.0134 24.3876 22.0379 22.9817 22.9377C22.3069 23.3875 21.5196 23.5 20.7323 23.5C18.0331 23.5 15.2213 23.5 12.4658 23.5ZM11.06 11.2971C11.06 12.478 11.06 13.6027 11.06 14.7836C11.06 15.6834 11.6786 16.3582 12.5221 16.3582C13.3656 16.3582 13.9279 15.6834 13.9279 14.7836C13.9279 12.478 13.9279 10.2286 13.9279 7.92298C13.9279 6.96699 13.3656 6.34841 12.4658 6.34841C11.6223 6.34841 11.06 6.96699 11.06 7.92298C11.06 9.04768 11.06 10.1724 11.06 11.2971ZM12.4658 17.8203C11.6786 17.8203 11.06 18.4389 11.06 19.2262C11.06 20.0134 11.7348 20.632 12.5221 20.632C13.3094 20.632 13.9279 19.9572 13.9279 19.1699C13.8717 18.4389 13.2531 17.8203 12.4658 17.8203Z" fill="white"/>
</svg>
