<svg width="26" height="20" viewBox="0 0 26 20" fill="none" xmlns="http://www.w3.org/2000/svg">
<g clip-path="url(#clip0_204_2480)">
<path d="M1.72998 14.5391C1.79885 9.63478 6.13769 3.72174 13.1281 3.72174C20.1528 3.72174 24.4573 9.66957 24.4917 14.5391C16.9159 14.5391 9.34017 14.5391 1.72998 14.5391Z" fill="white"/>
<path d="M13.1282 16.0348C16.9505 16.0348 20.7384 16.0348 24.5607 16.0348C25.4215 16.0348 25.697 16.3478 25.5593 17.2174C25.2838 18.9217 24.0097 19.9652 22.1846 19.9652C19.4642 19.9652 16.7094 19.9652 13.989 19.9652C10.6833 19.9652 7.34304 19.9652 4.03725 19.9652C2.79758 19.9652 1.76452 19.5478 1.11025 18.4696C0.834772 18.0174 0.697031 17.4957 0.593725 16.9739C0.490419 16.3478 0.800337 16.0348 1.45461 16C2.86645 16 4.2783 16 5.65571 16C8.20392 16.0348 10.6833 16.0348 13.1282 16.0348Z" fill="white"/>
<path d="M15.0566 2.29567C13.7481 2.29567 12.474 2.29567 11.1654 2.29567C11.0966 1.56524 11.3032 0.904368 11.9574 0.417411C12.6117 -0.0695455 13.3348 -0.104328 14.058 0.278281C14.85 0.695672 15.1255 1.39132 15.0566 2.29567Z" fill="white"/>
</g>
<defs>
<clipPath id="clip0_204_2480">
<rect width="25" height="20" fill="white" transform="translate(0.62793)"/>
</clipPath>
</defs>
</svg>
