<svg width="26" height="24" viewBox="0 0 26 24" fill="none" xmlns="http://www.w3.org/2000/svg">
<path d="M21.3551 3.98134C21.3274 4.12023 21.244 4.398 21.1607 4.67578C20.6607 6.37023 21.7162 8.17578 23.4107 8.59245C24.6885 8.898 24.9662 9.25912 25.1051 10.5647C25.2162 11.6758 25.1885 12.7869 24.994 13.898C24.8551 14.7036 24.4107 15.1758 23.6051 15.3147C21.6051 15.648 20.4385 17.5924 21.1051 19.4813C21.4385 20.4258 21.2996 20.9813 20.4662 21.5369C19.5774 22.148 18.6329 22.7036 17.6607 23.2036C16.8829 23.6202 16.2718 23.4258 15.6885 22.7313C14.3274 21.0647 11.9662 21.0924 10.6607 22.7869C10.1051 23.4813 9.5218 23.648 8.71624 23.3424C7.54958 22.898 6.46624 22.2591 5.46624 21.4813C4.79957 20.9258 4.63291 20.3702 4.96624 19.5369C5.7718 17.4813 4.54957 15.4258 2.35513 15.148C1.54958 15.0369 1.07735 14.4536 0.966242 13.4813C0.827353 12.2869 0.855131 11.1202 1.07735 9.92578C1.24402 9.06467 1.66069 8.62023 2.54958 8.50912C4.54957 8.23134 5.7718 6.25912 5.13291 4.34245C4.82735 3.39801 4.99402 2.87023 5.79958 2.28689C6.71624 1.59245 7.68846 1.06467 8.7718 0.648005C9.5218 0.370228 10.0774 0.509116 10.6051 1.12023C11.9662 2.67578 14.1607 2.70356 15.5218 1.12023C16.0774 0.509116 16.6051 0.370228 17.3551 0.648005C18.6051 1.12023 19.744 1.78689 20.7718 2.62023C21.1329 2.98134 21.3274 3.37023 21.3551 3.98134ZM13.0496 16.0924C15.2996 16.0924 17.1051 14.2869 17.1051 12.0369C17.1051 9.84245 15.2996 8.00912 13.1051 8.00912C10.8551 8.00912 9.0218 9.81467 9.0218 12.0369C8.99402 14.2591 10.8274 16.0924 13.0496 16.0924Z" fill="white"/>
</svg>
