<svg width="28" height="24" viewBox="0 0 28 24" fill="none" xmlns="http://www.w3.org/2000/svg">
<g clip-path="url(#clip0_204_2451)">
<path d="M13.955 19.1291C13.0506 18.9181 12.1463 18.7071 11.242 18.5262C11.031 18.4961 10.7898 18.4961 10.609 18.5865C10.0664 18.8277 9.58405 19.1894 9.04145 19.4305C8.8003 19.5511 8.37828 19.6114 8.25771 19.4908C8.07684 19.3401 8.01655 18.9482 8.0467 18.6769C8.10699 18.1343 8.22756 17.6219 8.37828 17.1094C8.46872 16.8381 8.40843 16.6573 8.22756 16.4463C5.51459 13.251 5.84617 8.42792 9.0716 5.71494C11.2721 3.87615 13.8042 3.45413 16.4871 4.35845C19.2 5.26278 20.858 7.22215 21.4006 10.0256C22.2446 14.3362 19.4713 18.2549 15.1306 18.9482C14.7387 19.0085 14.3468 19.0085 13.955 19.0085C13.9851 19.0387 13.955 19.0688 13.955 19.1291ZM11.5736 11.4423C11.5736 10.6586 10.9405 10.0256 10.1266 10.0256C9.37304 10.0256 8.70987 10.6586 8.70987 11.4122C8.67972 12.1658 9.37304 12.8591 10.1266 12.8591C10.9104 12.8893 11.5736 12.2261 11.5736 11.4423ZM17.8436 12.8893C18.6273 12.8893 19.2905 12.2261 19.2905 11.4725C19.2905 10.6887 18.6273 10.0557 17.8436 10.0557C17.0598 10.0557 16.4569 10.6887 16.4268 11.4423C16.3966 12.2261 17.0598 12.8591 17.8436 12.8893ZM12.5985 11.4122C12.5985 12.1959 13.2013 12.8591 13.9851 12.8591C14.7688 12.8591 15.4019 12.2261 15.4019 11.4423C15.4019 10.6586 14.799 10.0256 14.0454 10.0256C13.2315 9.99541 12.5985 10.6284 12.5985 11.4122Z" fill="white"/>
<path d="M13.593 20.7267C17.6926 20.6966 20.7372 18.9482 22.4554 15.1802C22.8774 14.2156 22.9679 13.1002 23.0884 12.0452C23.6612 7.97573 20.9181 3.87612 16.8486 2.61007C11.3021 0.891849 5.60482 4.44886 4.82107 10.2064C4.7005 11.0504 4.91151 11.9548 5.03208 12.8289C5.1828 14.0046 5.39381 15.1802 5.57468 16.3558C5.66511 16.8984 5.42396 17.2601 4.91151 17.4711C3.34401 18.1343 2.07796 17.7726 1.17363 16.3558C-0.0622802 14.4567 -0.182857 12.4069 0.691324 10.327C1.17363 9.24178 2.04781 8.54847 3.25358 8.33746C3.4043 8.30731 3.55502 8.12645 3.61531 8.00587C5.06223 4.02684 7.83549 1.55502 11.9954 0.710984C17.3309 -0.374206 22.6363 2.79093 24.3846 7.97573C24.4449 8.12645 24.6258 8.3676 24.7464 8.3676C26.344 8.51832 27.1579 9.54323 27.5799 10.9299C28.1225 12.7687 27.9718 14.5472 26.977 16.2051C26.4043 17.1396 25.6507 17.8329 24.4449 17.7726C24.1133 17.7424 23.7818 17.6219 23.4502 17.5616C23.2994 17.5314 23.0583 17.5917 22.9679 17.7123C21.4305 19.8224 19.4109 21.2392 16.9089 21.9626C16.6677 22.0229 16.5773 22.1435 16.5773 22.3846C16.5472 23.0478 16.1251 23.4397 15.462 23.4397C14.4974 23.4397 13.5327 23.4698 12.5681 23.4397C11.905 23.4397 11.4829 22.9875 11.4528 22.3244C11.4528 22.0531 11.4528 21.7516 11.4829 21.4803C11.5432 21.0583 11.9351 20.6966 12.3873 20.6664C12.7791 20.6966 13.171 20.7267 13.593 20.7267Z" fill="white"/>
</g>
<defs>
<clipPath id="clip0_204_2451">
<rect width="27.7929" height="23" fill="white" transform="translate(0.0883789 0.5)"/>
</clipPath>
</defs>
</svg>
