<svg width="24" height="28" viewBox="0 0 24 28" fill="none" xmlns="http://www.w3.org/2000/svg">
<g clip-path="url(#clip0_204_2492)">
<path d="M6.06735 25.0758C6.06735 25.5165 6.06735 25.9571 6.06735 26.3577C6.06735 27.4392 5.48359 28 4.43283 28C4.00474 28 3.61557 28 3.18748 28C2.33131 27.9599 1.74755 27.3591 1.74755 26.4778C1.74755 25.7167 1.74755 24.9557 1.74755 24.1946C1.74755 24.0343 1.66972 23.834 1.55296 23.7139C0.696788 22.8326 0.307617 21.7511 0.307617 20.5093C0.307617 15.6223 0.307617 10.7353 0.307617 5.84835C0.307617 3.32475 1.51405 1.6824 3.84907 0.881259C5.75601 0.240343 7.70186 0 9.68664 0C12.0217 0 14.3956 0.0801144 16.7306 0.200286C17.9371 0.280401 19.1046 0.600858 20.2332 1.08155C22.2958 2.00286 23.2687 3.60515 23.2687 5.88841C23.2687 7.17024 23.2687 8.45207 23.2687 9.7339C23.2687 13.1788 23.2687 16.5837 23.2687 20.0286C23.2687 21.4306 22.9574 22.7124 21.9455 23.7539C21.8677 23.834 21.8288 24.0343 21.8288 24.1946C21.8288 24.9156 21.8288 25.6366 21.8288 26.3977C21.8288 27.3991 21.245 27.9599 20.2721 28C19.844 28 19.4159 28 18.9878 28C18.1316 27.9599 17.5479 27.3991 17.509 26.5179C17.4701 26.0372 17.509 25.5565 17.509 25.0358C13.6951 25.0758 9.92014 25.0758 6.06735 25.0758ZM3.2264 13.1788C8.98613 13.1788 14.668 13.1788 20.3888 13.1788C20.3888 10.7353 20.3888 8.29185 20.3888 5.84835C14.668 5.84835 8.94721 5.84835 3.2264 5.84835C3.2264 8.3319 3.2264 10.7353 3.2264 13.1788ZM7.46836 19.9084C7.46836 18.6667 6.53435 17.7053 5.36684 17.7053C4.19933 17.7053 3.2264 18.6667 3.18748 19.8684C3.18748 21.1102 4.12149 22.1116 5.32792 22.1116C6.53435 22.0715 7.46836 21.1102 7.46836 19.9084ZM16.108 19.8684C16.108 21.1102 17.042 22.0715 18.2095 22.0715C19.377 22.0715 20.3499 21.1102 20.3499 19.8684C20.3499 18.6266 19.377 17.6252 18.2095 17.6252C17.0809 17.6652 16.108 18.6266 16.108 19.8684Z" fill="white"/>
</g>
<defs>
<clipPath id="clip0_204_2492">
<rect width="23" height="28" fill="white" transform="translate(0.307617)"/>
</clipPath>
</defs>
</svg>
