<svg width="22" height="24" viewBox="0 0 22 24" fill="none" xmlns="http://www.w3.org/2000/svg">
<g clip-path="url(#clip0_31_253)">
<path d="M17.617 3.53979C17.617 4.12702 17.617 4.81213 17.617 5.39936C17.617 6.28022 17.1277 6.86745 16.2468 6.86745C14.8766 6.86745 13.6043 6.86745 12.234 6.86745C11.3532 6.86745 10.8638 6.28022 10.8638 5.39936C10.8638 4.12702 10.8638 2.75681 10.8638 1.48447C10.8638 0.701492 11.3532 0.114258 12.234 0.114258C13.6043 0.114258 14.9745 0.114258 16.3447 0.114258C17.1277 0.114258 17.617 0.701492 17.617 1.48447C17.617 2.0717 17.5191 2.75681 17.617 3.53979Z" fill="white"/>
<path d="M4.11063 11.4673C4.11063 10.7822 4.11063 10.195 4.11063 9.50986C4.11063 8.72688 4.59999 8.13965 5.38297 8.13965C6.75318 8.13965 8.12339 8.13965 9.49361 8.13965C10.2766 8.13965 10.7659 8.72688 10.7659 9.60773C10.7659 10.8801 10.7659 12.2503 10.7659 13.5226C10.7659 14.3056 10.2766 14.8928 9.39574 14.8928C8.02552 14.8928 6.65531 14.8928 5.2851 14.8928C4.50212 14.8928 4.01276 14.3056 4.01276 13.5226C4.11063 12.8375 4.11063 12.1524 4.11063 11.4673Z" fill="white"/>
<path d="M17.5191 19.6892C17.5191 20.3743 17.5191 20.9615 17.5191 21.6467C17.5191 22.4296 17.0298 23.0169 16.1489 23.0169C14.7787 23.0169 13.4085 23.0169 12.1361 23.0169C11.2553 23.0169 10.7659 22.4296 10.7659 21.5488C10.7659 20.2764 10.7659 18.9062 10.7659 17.6339C10.7659 16.8509 11.2553 16.2637 12.1361 16.2637C13.5064 16.2637 14.8766 16.2637 16.1489 16.2637C17.0298 16.2637 17.5191 16.8509 17.5191 17.7318C17.617 18.319 17.617 19.0041 17.5191 19.6892Z" fill="white"/>
<path d="M9.39575 1.48459C9.39575 2.8548 9.39575 4.12714 9.39575 5.39948C9.2 5.39948 9.00426 5.39948 8.80851 5.39948C6.65532 5.39948 4.40426 5.39948 2.25106 5.39948C0.880851 5.39948 0 4.61651 0 3.44204C0 2.26757 0.880851 1.38672 2.25106 1.38672C4.6 1.38672 6.85106 1.38672 9.2 1.38672C9.29787 1.38672 9.29787 1.38672 9.39575 1.48459Z" fill="white"/>
<path d="M12.234 13.5225C12.234 12.1523 12.234 10.88 12.234 9.50977C12.4298 9.50977 12.6255 9.50977 12.8212 9.50977C14.9744 9.50977 17.2255 9.50977 19.3787 9.50977C20.7489 9.50977 21.6298 10.2927 21.6298 11.5651C21.6298 12.7396 20.7489 13.6204 19.3787 13.6204C17.0298 13.5225 14.6808 13.5225 12.234 13.5225Z" fill="white"/>
<path d="M9.39575 17.6338C9.39575 19.004 9.39575 20.2763 9.39575 21.6466C9.2 21.6466 9.00426 21.6466 8.80851 21.6466C6.65532 21.6466 4.40426 21.6466 2.25106 21.6466C0.880851 21.6466 0 20.8636 0 19.5912C0 18.4168 0.880851 17.6338 2.25106 17.6338C4.6 17.6338 6.85106 17.6338 9.2 17.6338C9.29787 17.6338 9.29787 17.6338 9.39575 17.6338Z" fill="white"/>
<path d="M18.9872 5.39955C18.9872 4.02934 18.9872 2.757 18.9872 1.38679C19.868 1.28892 20.7489 1.38679 21.2382 2.16977C21.7276 2.85487 21.7276 3.63785 21.3361 4.32296C20.8468 5.30168 19.9659 5.49743 18.9872 5.39955Z" fill="white"/>
<path d="M2.64253 9.51021C2.64253 10.8804 2.64253 12.1528 2.64253 13.523C1.66381 13.6208 0.88083 13.4251 0.293596 12.6421C-0.195766 11.957 -0.195766 11.174 0.293596 10.4889C0.88083 9.60808 1.66381 9.41234 2.64253 9.51021Z" fill="white"/>
<path d="M18.9872 17.6332C20.651 17.5354 21.6297 18.3183 21.6297 19.5907C21.6297 20.5694 20.7489 21.8417 18.9872 21.5481C18.9872 20.2758 18.9872 19.0034 18.9872 17.6332Z" fill="white"/>
</g>
<defs>
<clipPath id="clip0_31_253">
<rect width="21.6298" height="23" fill="white" transform="translate(0 0.0166016)"/>
</clipPath>
</defs>
</svg>
