<svg width="18" height="24" viewBox="0 0 18 24" fill="none" xmlns="http://www.w3.org/2000/svg">
<path d="M10.9103 0.115234C10.9103 1.09814 10.9103 2.08105 10.9103 2.96566C10.9103 3.55541 10.9103 4.14515 10.9103 4.83318C10.9103 6.01267 11.7949 6.799 12.9744 6.799C14.3504 6.799 15.7265 6.799 17.0043 6.799C17.2009 6.799 17.2991 6.799 17.4957 6.799C17.4957 6.99558 17.4957 7.09387 17.4957 7.29045C17.4957 11.7135 17.4957 16.2349 17.4957 20.658C17.4957 22.2306 16.7094 23.0169 15.1368 23.0169C10.812 23.0169 6.58547 23.0169 2.26068 23.0169C0.786325 23.0169 0 22.2306 0 20.7563C0.196581 14.6622 0.196581 8.56823 0.196581 2.37592C0.196581 0.901559 0.982906 0.115234 2.45726 0.115234C5.11111 0.115234 7.76496 0.115234 10.4188 0.115234C10.6154 0.115234 10.7137 0.115234 10.9103 0.115234ZM8.94444 10.9272C10.1239 10.9272 11.4017 10.9272 12.5812 10.9272C12.6795 10.9272 12.7778 10.9272 12.8761 10.9272C13.3675 10.9272 13.6624 10.6323 13.6624 10.2392C13.6624 9.846 13.3675 9.55113 12.8761 9.55113C12.7778 9.55113 12.6795 9.55113 12.5812 9.55113C10.2222 9.55113 7.76496 9.55113 5.40598 9.55113C5.2094 9.55113 5.11111 9.55113 4.91453 9.55113C4.52137 9.55113 4.2265 9.846 4.32479 10.2392C4.32479 10.6323 4.61966 10.8289 5.01282 10.9272C5.11111 10.9272 5.30769 10.9272 5.40598 10.9272C6.48718 10.9272 7.76496 10.9272 8.94444 10.9272ZM8.94444 12.3033C7.66667 12.3033 6.48718 12.3033 5.2094 12.3033C5.01282 12.3033 4.91453 12.3033 4.71795 12.3033C4.32479 12.4016 4.1282 12.5981 4.1282 12.9913C4.1282 13.3845 4.32479 13.581 4.71795 13.6793C4.81624 13.6793 5.01282 13.6793 5.11111 13.6793C7.56838 13.6793 10.1239 13.6793 12.5812 13.6793C12.7778 13.6793 12.9744 13.6793 13.0726 13.6793C13.2692 13.4828 13.5641 13.2862 13.5641 13.0896C13.5641 12.893 13.2692 12.5981 13.0726 12.4999C12.9744 12.4016 12.7778 12.4999 12.5812 12.4999C11.4017 12.3033 10.2222 12.3033 8.94444 12.3033ZM8.94444 16.3332C10.1239 16.3332 11.4017 16.3332 12.5812 16.3332C12.6795 16.3332 12.8761 16.3332 12.9744 16.3332C13.3675 16.3332 13.5641 16.0383 13.5641 15.6451C13.5641 15.252 13.3675 15.0554 12.9744 14.9571C12.8761 14.9571 12.6795 14.9571 12.5812 14.9571C10.1239 14.9571 7.66667 14.9571 5.2094 14.9571C5.01282 14.9571 4.81624 14.9571 4.71795 14.9571C4.52137 15.1537 4.32479 15.3503 4.2265 15.5469C4.1282 15.8417 4.32479 16.1366 4.71795 16.2349C4.91453 16.2349 5.01282 16.2349 5.2094 16.2349C6.48718 16.3332 7.66667 16.3332 8.94444 16.3332ZM7.56838 18.987C8.45299 18.987 9.33761 18.987 10.1239 18.987C10.6154 18.987 10.9103 18.6922 10.9103 18.299C10.9103 17.9058 10.6154 17.611 10.1239 17.611C8.3547 17.611 6.68376 17.611 4.91453 17.611C4.71795 17.611 4.42308 17.7093 4.32479 17.8075C4.2265 18.0041 4.1282 18.299 4.2265 18.4956C4.32479 18.6922 4.61966 18.8887 4.81624 18.8887C5.79914 18.987 6.68376 18.987 7.56838 18.987Z" fill="white"/>
<path d="M17.1026 5.52166C15.8248 5.52166 14.3505 5.52166 12.9744 5.52166C12.5812 5.52166 12.3846 5.32508 12.3846 4.93192C12.3846 3.55585 12.3846 2.08149 12.3846 0.803711C13.859 2.27807 15.5299 3.94901 17.1026 5.52166Z" fill="white"/>
</svg>
