<svg width="24" height="23" viewBox="0 0 24 23" fill="none" xmlns="http://www.w3.org/2000/svg">
<path d="M16.9811 16.7846C16.6251 16.5929 16.3239 16.456 16.0501 16.2643C15.8311 16.1274 15.6942 16.1274 15.4478 16.2643C15.037 16.5655 14.5989 16.8119 14.1335 17.031C13.887 17.1405 13.8049 17.25 13.8049 17.5238C13.7775 18.8655 13.7775 18.8929 12.4085 18.8929C11.8061 18.8929 11.2037 18.8929 10.6013 18.8929C9.99895 18.8929 9.72514 18.6465 9.7799 18.0988C9.83466 17.4417 9.67038 17.031 8.98585 16.8393C8.73942 16.7846 8.52038 16.6203 8.32871 16.456C7.94538 16.1 7.64419 16.1822 7.23347 16.4286C6.52157 16.8941 6.27514 16.8119 5.83704 16.0727C5.48109 15.4429 5.09776 14.8131 4.7418 14.156C4.44061 13.6357 4.52276 13.2798 5.04299 13.0607C5.64538 12.7869 5.8918 12.4036 5.72752 11.7738C5.67276 11.5274 5.67276 11.2536 5.7549 11.0072C5.8918 10.5143 5.67276 10.2679 5.23466 10.0488C4.46799 9.66551 4.41323 9.3917 4.85133 8.6798C5.20728 8.05003 5.56323 7.44765 5.91918 6.81789C6.24776 6.27027 6.57633 6.13337 7.09657 6.48932C7.6168 6.87265 8.02752 6.84527 8.49299 6.43456C8.7668 6.21551 9.09538 6.07861 9.45133 5.9417C9.69776 5.85956 9.75252 5.72265 9.75252 5.47623C9.7799 4.10718 9.7799 4.10718 11.1763 4.10718C11.7513 4.10718 12.3537 4.10718 12.9287 4.10718C13.5585 4.10718 13.8323 4.32623 13.7775 4.92861C13.7228 5.55837 13.887 5.96908 14.5442 6.16075C14.8728 6.27027 15.1739 6.5167 15.4478 6.73575C15.6394 6.90003 15.8037 6.87265 15.9954 6.76313C17.1728 6.10599 17.1728 6.10599 17.8573 7.28337C18.1585 7.80361 18.487 8.35123 18.7609 8.87146C19.0347 9.36432 18.9799 9.72027 18.4597 9.93932C17.8299 10.2131 17.6109 10.5965 17.7478 11.281C17.8299 11.6096 17.7751 11.9655 17.7204 12.2941C17.6656 12.5405 17.7751 12.65 17.9668 12.7869C19.1442 13.4715 19.1442 13.4988 18.4597 14.6762C18.1585 15.2238 17.8573 15.7715 17.5013 16.2917C17.4192 16.4834 17.2001 16.6203 16.9811 16.7846ZM13.8049 11.5C13.8049 10.3774 12.9013 9.47384 11.7787 9.50123C10.6835 9.50123 9.80728 10.4048 9.7799 11.5C9.7799 12.6227 10.6561 13.5262 11.7787 13.5262C12.9013 13.5262 13.8049 12.6227 13.8049 11.5Z" fill="#43505F"/>
<path d="M18.8156 2.38212C18.7882 2.21783 18.7608 2.13569 18.7608 2.08093C18.7334 1.69759 18.8977 1.42378 19.2537 1.34164C19.637 1.2595 19.9108 1.3964 20.0477 1.75235C20.3763 2.71069 20.7048 3.66902 21.006 4.65474C21.1703 5.17497 20.7048 5.64045 20.1846 5.47616C19.1989 5.17497 18.2406 4.87378 17.3096 4.49045C17.1179 4.40831 16.8989 4.07974 16.8715 3.86069C16.8441 3.50474 17.1179 3.28569 17.5287 3.20355C17.4191 3.1214 17.3644 3.03926 17.2822 2.9845C11.0941 -0.985741 2.82509 2.73807 1.75723 10.0214C1.5108 11.719 1.70247 13.3619 2.30485 14.95C2.35961 15.0595 2.41437 15.169 2.44175 15.2785C2.55128 15.6893 2.38699 16.0452 2.05842 16.1547C1.70247 16.2916 1.31913 16.1547 1.18223 15.744C0.881038 14.7857 0.525086 13.8547 0.415562 12.869C-0.268962 6.81783 3.59175 1.47855 9.53342 0.246402C12.7096 -0.41074 15.6668 0.301164 18.3775 2.08093C18.487 2.16307 18.5965 2.24521 18.8156 2.38212Z" fill="#ECB6C3"/>
<path d="M4.79652 20.6178C4.8239 20.8095 4.87866 20.9464 4.85128 21.0286C4.71438 21.2476 4.57747 21.5214 4.35842 21.6309C4.05723 21.7678 3.72866 21.6309 3.61914 21.3297C3.26319 20.3167 2.90723 19.3036 2.60604 18.2631C2.46914 17.7976 2.93462 17.3595 3.42747 17.5238C4.41319 17.825 5.3989 18.1536 6.35723 18.5095C6.5489 18.5917 6.74057 18.8928 6.76795 19.1119C6.82271 19.4952 6.49414 19.6869 6.11081 19.7964C6.22033 19.8786 6.27509 19.9333 6.35723 19.9881C12.5727 24.0952 21.0334 20.0976 21.8549 12.65C22.0191 11.0619 21.8001 9.52856 21.2525 8.02261C21.2251 7.91308 21.1703 7.83094 21.1429 7.72142C21.006 7.3107 21.1703 6.95475 21.4989 6.81784C21.8822 6.68094 22.2382 6.84522 22.4025 7.25594C22.8953 8.4607 23.1965 9.69284 23.2513 11.0071C23.4703 16.894 19.2263 22.0417 13.3941 22.8631C10.3822 23.3012 7.64414 22.5619 5.15247 20.8643C5.07033 20.8095 4.96081 20.7547 4.79652 20.6178Z" fill="#43505F"/>
</svg>
