<svg width="23" height="24" viewBox="0 0 23 24" fill="none" xmlns="http://www.w3.org/2000/svg">
<path d="M15.0049 17.4631C15.9043 16.3679 17.0105 15.7933 18.3955 15.8203C20.4731 15.8651 22.2178 17.5978 22.2987 19.6626C22.3797 21.8261 20.8058 23.6485 18.6563 23.8819C16.6148 24.1064 14.6452 22.652 14.3124 20.6231C14.2225 20.0755 14.3394 19.501 14.3394 18.9354C14.3394 18.8097 14.2765 18.6122 14.1775 18.5583C12.172 17.517 10.1574 16.4936 8.14284 15.4701C8.11586 15.4612 8.08888 15.4701 8.0529 15.4612C6.19123 17.7504 3.40322 17.3823 1.94626 15.9729C0.372377 14.4377 0.300429 11.9331 1.81135 10.3082C3.21435 8.79996 5.87645 8.40495 7.80108 10.4069C10.0135 9.09621 12.2349 7.75858 14.4833 6.41198C14.0426 5.14617 14.1326 3.93423 14.8431 2.80308C15.3557 1.98614 16.0752 1.42954 16.9925 1.11534C18.8362 0.495897 20.8688 1.30386 21.8131 3.00956C22.7484 4.70628 22.3347 6.86085 20.8238 8.08177C19.142 9.44633 17.1994 9.27576 15.1668 7.57904C14.3574 8.06381 13.539 8.55757 12.7206 9.05132C11.4345 9.82337 10.1574 10.5954 8.87132 11.3585C8.63749 11.4932 8.52956 11.6099 8.63749 11.9151C8.8983 12.7051 8.88031 13.0911 8.67346 14.2223C10.751 15.2906 12.8645 16.3679 15.0049 17.4631Z" fill="#DBDBDB"/>
</svg>
