<svg width="15" height="15" viewBox="0 0 15 15" fill="none" xmlns="http://www.w3.org/2000/svg">
<g clip-path="url(#clip0_91_509)">
<path d="M7.44511 9.45068C7.34511 9.55068 7.24511 9.65068 7.24511 9.75068C5.74511 11.3507 4.14511 12.8507 2.54511 14.4507C2.14511 14.8507 1.54511 14.9507 1.04511 14.8507C0.145108 14.6507 -0.254892 13.4507 0.445108 12.6507C0.545108 12.5507 0.645108 12.4507 0.645108 12.3507C2.14511 10.8507 3.74511 9.25068 5.24511 7.75068C5.34511 7.65068 5.44511 7.65068 5.54511 7.55068C5.54511 7.55068 5.54511 7.45068 5.64511 7.45068C5.54511 7.45068 5.44511 7.35068 5.34511 7.35068C3.64511 5.65068 2.14511 4.15068 0.545108 2.55068C0.0451083 2.05068 -0.0548916 1.25068 0.445108 0.750682C0.845108 0.150682 1.54511 -0.0493182 2.14511 0.350682C2.34511 0.450682 2.44511 0.550682 2.54511 0.650682C4.14511 2.15068 5.64511 3.75068 7.24511 5.25068C7.34511 5.35068 7.44511 5.35068 7.44511 5.45068C7.54511 5.35068 7.64511 5.35068 7.64511 5.25068C9.14511 3.75068 10.7451 2.15068 12.2451 0.650682C12.9451 -0.0493182 14.0451 0.150682 14.5451 0.950682C14.8451 1.55068 14.7451 2.15068 14.2451 2.55068C12.8451 4.15068 11.2451 5.65068 9.74511 7.25068C9.64511 7.25068 9.54511 7.35068 9.44511 7.45068C9.54511 7.55068 9.64511 7.65068 9.74511 7.75068C11.3451 9.35068 12.9451 10.8507 14.4451 12.4507C14.8451 12.8507 15.0451 13.2507 14.9451 13.7507C14.7451 14.7507 13.4451 15.2507 12.6451 14.5507C12.5451 14.4507 12.4451 14.3507 12.3451 14.2507C10.8451 12.7507 9.34511 11.2507 7.74511 9.65068C7.64511 9.65068 7.54511 9.55068 7.54511 9.45068C7.44511 9.45068 7.44511 9.45068 7.44511 9.45068Z" fill="#9A9A9A"/>
</g>
<defs>
<clipPath id="clip0_91_509">
<rect width="14.9" height="14.7" fill="white" transform="translate(0.045166 0.150391)"/>
</clipPath>
</defs>
</svg>
