<svg width="20" height="23" viewBox="0 0 20 23" fill="none" xmlns="http://www.w3.org/2000/svg">
<path d="M10.0578 8.20605C12.6005 8.20605 15.1432 8.20605 17.5703 8.20605C18.1482 8.20605 18.1482 8.20605 18.1482 8.78394C17.9171 12.8292 17.8015 16.7588 17.5703 20.804C17.4548 22.0754 16.6457 23 15.2588 23C11.6759 23 8.20853 23 4.62562 23C3.35426 23 2.42964 22.191 2.31406 20.804C2.19848 16.7588 2.0829 12.8292 1.85175 8.78394C1.85175 8.32163 1.96732 8.20605 2.42964 8.20605C4.97235 8.20605 7.51506 8.20605 10.0578 8.20605ZM7.16833 14.794C7.16833 13.2915 7.16833 11.789 7.16833 10.2865C7.16833 9.70857 6.93717 9.36183 6.47486 9.36183C6.01255 9.36183 5.78139 9.70857 5.78139 10.2865C5.78139 13.2915 5.78139 16.2965 5.78139 19.3015C5.78139 19.8794 6.01255 20.2262 6.47486 20.2262C6.93717 20.2262 7.16833 19.8794 7.16833 19.3015C7.16833 17.6834 7.16833 16.1809 7.16833 14.794ZM10.7512 14.794C10.7512 13.2915 10.7512 11.789 10.7512 10.2865C10.7512 9.70857 10.5201 9.36183 10.0578 9.36183C9.59547 9.36183 9.36431 9.70857 9.36431 10.2865C9.36431 13.2915 9.36431 16.2965 9.36431 19.3015C9.36431 19.8794 9.59547 20.2262 10.0578 20.2262C10.5201 20.2262 10.7512 19.8794 10.7512 19.3015C10.7512 17.6834 10.7512 16.1809 10.7512 14.794ZM14.3342 14.6784C14.3342 13.1759 14.3342 11.6734 14.3342 10.1709C14.3342 9.59299 14.103 9.24626 13.6407 9.24626C13.1784 9.24626 12.9472 9.59299 12.9472 10.1709C12.9472 13.1759 12.9472 16.0654 12.9472 19.0704C12.9472 19.6483 13.1784 19.995 13.6407 19.995C14.103 19.995 14.3342 19.6483 14.3342 19.0704C14.3342 17.6834 14.3342 16.1809 14.3342 14.6784Z" fill="#9A9A9A"/>
<path d="M6.3593 2.88945C6.3593 2.54271 6.3593 2.19598 6.47488 1.84925C6.70603 0.693467 7.51508 0 8.55528 0C9.4799 0 10.4045 0 11.3292 0C12.6005 0 13.5251 0.924623 13.5251 2.19598C13.5251 2.42714 13.5251 2.65829 13.5251 2.88945C13.7563 2.88945 13.9874 2.88945 14.3342 2.88945C15.3744 2.88945 16.4146 2.88945 17.4548 2.88945C18.6106 2.88945 19.304 3.69849 19.304 4.73869C19.304 5.08543 19.304 5.54774 19.304 5.89447C19.304 6.47236 19.0729 6.70352 18.495 6.70352C17.2236 6.70352 15.9523 6.70352 14.6809 6.70352C10.4045 6.70352 6.01257 6.70352 1.73618 6.70352C0.92714 6.8191 0.695984 6.58794 0.695984 5.77889C0.695984 5.43216 0.695984 5.08543 0.695984 4.73869C0.695984 3.69849 1.50503 2.88945 2.54523 2.88945C3.70101 2.88945 4.97237 2.88945 6.12815 2.88945C6.24372 2.88945 6.3593 2.88945 6.3593 2.88945ZM12.1382 2.88945C12.1382 2.65829 12.1382 2.54271 12.1382 2.31156C12.1382 1.73367 11.907 1.50251 11.3292 1.50251C10.4045 1.50251 9.59548 1.50251 8.67086 1.50251C8.32413 1.50251 7.97739 1.73367 7.86181 2.0804C7.74624 2.31156 7.86181 2.65829 7.86181 2.88945C9.36433 2.88945 10.7513 2.88945 12.1382 2.88945Z" fill="#9A9A9A"/>
</svg>
