<svg width="24" height="23" viewBox="0 0 24 23" fill="none" xmlns="http://www.w3.org/2000/svg">
<path d="M14.8499 3.94678C16.483 5.57991 18.1161 7.21305 19.8854 8.98228C19.7493 9.11837 19.6132 9.11838 19.4771 9.25447C15.5303 13.2012 11.4475 17.2841 7.50074 21.2308C7.22856 21.503 6.95637 21.6391 6.54808 21.7752C4.91495 22.1835 3.14572 22.5917 1.51258 23C0.832106 23.1361 0.559916 22.8639 0.696011 22.1835C1.1043 20.4142 1.51258 18.7811 2.05696 17.0119C2.05696 16.7397 2.19305 16.6036 2.32915 16.4675C6.41199 12.3846 10.4948 8.30181 14.5777 4.08287C14.7138 4.08287 14.8499 3.94678 14.8499 3.94678Z" fill="#9A9A9A"/>
<path d="M21.2463 7.34892C19.6131 5.71578 17.98 4.08264 16.483 2.5856C17.0273 1.90513 17.7078 1.22466 18.3883 0.680277C19.2049 -0.000196472 20.5658 -0.000196472 21.5185 0.680277C22.1989 1.22466 22.7433 1.90513 23.2877 2.44951C24.1043 3.26608 24.1043 4.62702 23.2877 5.57969C22.6072 6.12406 21.9268 6.66844 21.2463 7.34892Z" fill="#9A9A9A"/>
</svg>
