<svg width="24" height="23" viewBox="0 0 24 23" fill="none" xmlns="http://www.w3.org/2000/svg">
<path d="M9.94642 17.5238C9.94642 16.4285 9.94642 15.3333 9.94642 14.2381C9.94642 13.6904 9.80951 13.5535 9.26189 13.5535C7.07142 13.5535 4.88094 13.5535 2.69046 13.5535C1.59523 13.5535 0.910702 13.0059 0.636893 12.1845C0.226179 10.8154 1.18451 9.4464 2.69046 9.4464C3.92261 9.4464 5.01785 9.4464 6.24999 9.4464C7.34523 9.4464 8.30356 9.4464 9.3988 9.4464C9.94642 9.4464 10.0833 9.30949 10.0833 8.76188C10.0833 6.5714 10.0833 4.38092 10.0833 2.19045C10.0833 1.09521 10.6309 0.410684 11.4524 0.136875C12.8214 -0.410744 14.1905 0.684494 14.1905 2.19045C14.1905 3.8333 14.1905 5.61307 14.1905 7.25592C14.1905 7.80354 14.1905 8.35116 14.1905 8.76188C14.1905 9.30949 14.3274 9.4464 14.875 9.4464C17.0655 9.4464 19.2559 9.4464 21.4464 9.4464C22.4048 9.4464 23.2262 9.99402 23.5 10.8154C23.9107 12.1845 22.9524 13.5535 21.4464 13.5535C19.9405 13.5535 18.4345 13.5535 16.9286 13.5535C16.244 13.5535 15.5595 13.5535 14.875 13.5535C14.3274 13.5535 14.1905 13.6904 14.1905 14.2381C14.1905 16.4285 14.1905 18.619 14.1905 20.8095C14.1905 21.7678 13.6428 22.5893 12.8214 22.8631C11.4524 23.2738 10.0833 22.3154 10.0833 20.9464C9.94642 19.7143 9.94642 18.619 9.94642 17.5238Z" fill="#9A9A9A"/>
</svg>
