<svg width="24" height="23" viewBox="0 0 24 23" fill="none" xmlns="http://www.w3.org/2000/svg">
<path d="M11.5405 0C17.9011 0 23.0548 5.15369 23.0452 11.5144C23.0357 17.8463 17.8916 23 11.5596 23C5.20851 23 0.0452435 17.8463 0.0548229 11.4856C0.0644022 5.15369 5.20851 0 11.5405 0ZM10.2377 12.6735C9.47132 11.9742 8.72413 11.2749 7.96736 10.5948C7.76619 10.4223 7.53629 10.2499 7.28723 10.1637C6.76036 9.99125 6.20476 10.2403 5.93654 10.7193C5.65874 11.2078 5.74495 11.7826 6.19518 12.2041C7.21059 13.1524 8.23558 14.0816 9.26057 15.0204C9.97902 15.6814 10.5538 15.6718 11.2627 14.9917C13.0827 13.2482 14.9028 11.5048 16.7229 9.75177C16.8378 9.63682 16.9624 9.53144 17.0582 9.40691C17.4222 8.93753 17.3839 8.29571 16.9911 7.87422C16.5888 7.44315 15.9565 7.35694 15.468 7.69221C15.3147 7.79758 15.171 7.94127 15.0369 8.06581C13.4467 9.5985 11.8566 11.1216 10.2377 12.6735Z" fill="#9A9A9A"/>
</svg>
