<svg width="23" height="23" viewBox="0 0 23 23" fill="none" xmlns="http://www.w3.org/2000/svg">
<g clip-path="url(#clip0_262_14397)">
<path d="M10.4905 22.9999C10.3149 22.9999 10.0076 22.9999 9.70038 22.9999C7.47281 22.9999 5.2562 22.9999 3.02863 22.9999C1.2729 22.9999 0.0109733 21.7599 0 20.0042C0 15.0662 0 10.1173 0 5.16832C0 3.3687 1.23998 2.16164 3.0396 2.15067C3.3249 2.15067 3.61021 2.15067 3.95038 2.15067C3.95038 2.49084 3.93941 2.77615 3.95038 3.06145C4.01622 4.49895 5.00382 5.49752 6.45229 5.51947C8.77863 5.54141 11.105 5.54141 13.4313 5.51947C14.8907 5.49752 15.8893 4.44409 15.9113 2.99561C15.9113 2.74323 15.9113 2.49084 15.9113 2.23846C18.0401 1.71174 19.8287 3.07243 19.8507 5.21222C19.8726 7.24227 19.8507 9.2833 19.8507 11.3682C18.5997 11.5109 17.8645 12.4217 17.0525 13.2227C15.2529 15.0223 13.4532 16.8329 11.6427 18.6216C11.2147 19.0495 10.9513 19.5324 10.8745 20.1359C10.7538 21.0576 10.6112 21.9794 10.4685 22.9889L10.4905 22.9999ZM9.10783 8.64685C8.27386 8.64685 7.42891 8.64685 6.59494 8.64685C6.10115 8.64685 5.60735 8.62491 5.11355 8.65783C4.66365 8.67977 4.34542 9.01995 4.37834 9.41498C4.41126 9.85391 4.68559 10.0844 5.11355 10.1282C5.24523 10.1392 5.38788 10.1282 5.51956 10.1282C7.73616 10.1282 9.96374 10.1282 12.1803 10.1282C12.4656 10.1282 12.7619 10.1502 13.0472 10.1282C13.4752 10.0844 13.7495 9.83197 13.7605 9.39304C13.7605 8.95411 13.4862 8.71269 13.0582 8.65783C12.9265 8.63588 12.7839 8.65783 12.6522 8.65783C11.4781 8.65783 10.2929 8.65783 9.1188 8.65783L9.10783 8.64685ZM6.88025 12.8496C6.33158 12.8496 5.78292 12.8496 5.24523 12.8496C4.70754 12.8496 4.37834 13.1459 4.37834 13.5848C4.37834 14.0128 4.70754 14.32 5.23426 14.331C6.34256 14.331 7.45086 14.342 8.55916 14.331C9.09685 14.331 9.4041 14.0347 9.39313 13.5739C9.38216 13.1459 9.08588 12.8606 8.57013 12.8496C8.0105 12.8386 7.43989 12.8496 6.88025 12.8496Z" fill="black"/>
<path d="M9.94172 0C11.072 0 12.1912 0 13.3215 0C14.1994 0 14.6822 0.482824 14.6932 1.36069C14.6932 1.90935 14.6932 2.45802 14.6932 2.99571C14.6822 3.75286 14.2103 4.26861 13.4532 4.27958C11.1159 4.30153 8.77855 4.30153 6.43027 4.27958C5.69506 4.27958 5.22321 3.78578 5.19029 3.0396C5.16834 2.44704 5.16834 1.84351 5.19029 1.25095C5.23418 0.460878 5.71701 0 6.51806 0C7.65928 0 8.81147 0 9.95269 0H9.94172Z" fill="black"/>
<path d="M17.0634 14.9453C18.0071 15.889 18.9069 16.7888 19.8726 17.7545C19.3459 18.2592 18.7753 18.775 18.2376 19.3127C17.25 20.2893 16.2843 21.2769 15.2857 22.2425C15.0773 22.4401 14.781 22.5937 14.4957 22.6705C13.9141 22.8132 13.3215 22.89 12.729 22.9778C12.0925 23.0765 11.7304 22.7583 11.8182 22.1109C11.906 21.4305 12.0267 20.7612 12.1584 20.0918C12.1913 19.9382 12.29 19.7626 12.3998 19.6529C13.947 18.0837 15.5052 16.5145 17.0634 14.9563V14.9453Z" fill="black"/>
<path d="M18.073 13.9359C18.3473 13.6726 18.6436 13.3653 18.9618 13.08C19.7519 12.3777 20.8712 12.3997 21.6064 13.1129C22.3635 13.8372 22.4184 14.9894 21.7161 15.7904C21.4308 16.1196 21.1016 16.4269 20.8383 16.7122C19.9055 15.7794 19.0057 14.8796 18.062 13.9359H18.073Z" fill="black"/>
</g>
<defs>
<clipPath id="clip0_262_14397">
<rect width="22.2209" height="23" fill="white"/>
</clipPath>
</defs>
</svg>
