<svg width="26" height="23" viewBox="0 0 26 23" fill="none" xmlns="http://www.w3.org/2000/svg">
<path d="M18.3581 13.4058C19.2781 13.4058 20.1981 13.4058 21.1181 13.4058C21.1181 13.5372 21.1181 13.5372 21.1181 13.6687C21.1181 15.5087 21.1181 17.3487 21.1181 19.1887C21.1181 21.2915 19.4095 23.0001 17.3067 23.0001C12.9695 23.0001 8.63238 23.0001 4.29523 23.0001C2.06095 23.0001 0.352378 21.2915 0.352378 19.0572C0.352378 14.7201 0.352378 10.3829 0.352378 5.91438C0.220949 3.94295 1.79809 2.23438 3.90095 2.23438C5.74095 2.23438 7.58095 2.23438 9.42095 2.23438C9.42095 2.23438 9.55238 2.23438 9.68381 2.23438C9.68381 3.15438 9.68381 3.94295 9.68381 4.99437C9.42095 4.99437 9.28952 4.99437 9.15809 4.99437C7.58095 4.99437 5.87238 4.99437 4.29523 4.99437C3.50666 4.99437 2.98095 5.38866 2.98095 6.17723C2.98095 10.5144 2.98095 14.7201 2.98095 19.0572C2.98095 19.8458 3.50666 20.3715 4.29523 20.3715C8.50095 20.3715 12.8381 20.3715 17.0438 20.3715C17.8324 20.3715 18.3581 19.9772 18.3581 19.0572C18.3581 17.3487 18.3581 15.7715 18.3581 14.0629C18.3581 13.8001 18.3581 13.6687 18.3581 13.4058Z" fill="black"/>
<path d="M17.4382 9.06857C17.4382 10.3829 17.4382 11.5657 17.4382 13.0114C14.6782 10.7771 11.9182 8.67429 9.1582 6.57143C11.9182 4.33714 14.6782 2.23429 17.3068 0C17.3068 0.131429 17.3068 0.262857 17.3068 0.394286C17.3068 1.44571 17.3068 2.36571 17.3068 3.41714C17.3068 3.68 17.3068 3.94286 17.7011 3.94286C22.5639 4.99429 26.2439 9.98857 25.8496 14.9829C25.8496 15.2457 25.8496 15.3771 25.7182 15.64C25.1925 13.8 24.1411 12.2229 22.6953 11.04C21.2496 9.85714 19.4096 9.33143 17.4382 9.06857Z" fill="black"/>
</svg>
