<svg width="25" height="23" viewBox="0 0 25 23" fill="none" xmlns="http://www.w3.org/2000/svg">
<g clip-path="url(#clip0_11_431)">
<path d="M16.5852 14.6419C13.5024 14.6419 10.4813 14.6419 7.46025 14.6419C7.15198 13.2997 7.09032 10.3713 7.3986 8.35803C10.4197 8.35803 13.5024 8.35803 16.5235 8.35803C16.8935 9.70021 16.8935 12.6286 16.5852 14.6419Z" fill="white"/>
<path d="M16.2769 6.71091C13.4408 6.71091 10.6046 6.71091 7.70685 6.71091C8.13843 4.94168 8.69333 3.23346 9.80312 1.76927C11.2212 -0.121982 12.8242 -0.121982 14.3039 1.76927C15.1671 2.98942 16.0919 5.18571 16.2769 6.71091Z" fill="white"/>
<path d="M16.3386 16.2892C15.907 18.1194 15.3521 19.8887 14.119 21.4139C12.7626 23.0611 11.3445 23.0611 9.92643 21.4139C8.69333 19.9497 8.13843 18.1804 7.70685 16.2892C10.6046 16.2892 13.4408 16.2892 16.3386 16.2892Z" fill="white"/>
<path d="M5.73391 14.6419C4.00757 14.6419 2.28123 14.6419 0.493235 14.6419C-0.123315 12.5066 -0.123315 10.4323 0.493235 8.35803C2.28123 8.35803 4.06923 8.35803 5.73391 8.35803C5.73391 10.4323 5.73391 12.5066 5.73391 14.6419Z" fill="white"/>
<path d="M18.3732 8.35803C20.0995 8.35803 21.8259 8.35803 23.6138 8.35803C24.2304 10.4933 24.2304 12.5676 23.6138 14.6419C21.8259 14.6419 20.0379 14.6419 18.3732 14.6419C18.3732 12.5676 18.3732 10.4933 18.3732 8.35803Z" fill="white"/>
<path d="M1.04816 6.71087C2.40457 3.41645 5.98056 0.549072 9.24827 0C7.39862 1.89125 6.59711 4.27056 6.04221 6.71087C4.37753 6.71087 2.7745 6.71087 1.04816 6.71087Z" fill="white"/>
<path d="M22.9973 16.2892C21.7642 19.5226 18.1882 22.451 14.7972 23.0001C16.6468 21.1088 17.4483 18.7295 18.0032 16.2892C19.6679 16.2892 21.271 16.2892 22.9973 16.2892Z" fill="white"/>
<path d="M14.7972 0C17.4483 0 22.2574 3.96552 22.9356 6.71087C21.271 6.71087 19.6679 6.71087 17.9416 6.71087C17.4483 4.27056 16.6468 1.89125 14.7972 0Z" fill="white"/>
<path d="M1.1098 16.2892C2.77449 16.2892 4.37752 16.2892 6.10386 16.2892C6.65875 18.7295 7.39861 21.1088 9.24826 22.9391C6.72041 23.0611 1.84966 19.0956 1.1098 16.2892Z" fill="white"/>
</g>
<defs>
<clipPath id="clip0_11_431">
<rect width="24.0455" height="23" fill="white"/>
</clipPath>
</defs>
</svg>
