<svg width="18" height="23" viewBox="0 0 18 23" fill="none" xmlns="http://www.w3.org/2000/svg">
<path d="M8.66935 0C13.8116 0 17.8319 4.5813 17.2242 9.67683C16.897 12.2947 15.775 14.5386 14.3726 16.689C12.9234 18.8862 11.2405 20.8496 9.32382 22.626C8.85634 23.0467 8.5291 23.0935 8.10837 22.7195C5.21 20.0081 2.63886 16.9695 1.04943 13.2764C0.06772 11.0325 -0.353012 8.69512 0.348208 6.21748C1.42341 2.57114 4.83601 0 8.66935 0ZM3.85431 8.64837C3.85431 11.313 6.00471 13.4167 8.66935 13.4167C11.2872 13.4167 13.4376 11.313 13.4376 8.64837C13.4376 5.98374 11.334 3.83333 8.66935 3.83333C6.00471 3.83333 3.85431 5.98374 3.85431 8.64837Z" fill="white"/>
</svg>
