<svg width="11" height="24" viewBox="0 0 11 24" fill="none" xmlns="http://www.w3.org/2000/svg">
<path d="M4.04462 13.107C3.56168 13.107 3.13911 13.107 2.65617 13.107C2.65617 12.2015 2.65617 11.3563 2.65617 10.4508C1.75066 10.4508 0.905512 10.4508 0 10.4508C0 9.96789 0 9.60569 0 9.12275C0.422572 9.12275 0.845144 9.12275 1.26772 9.12275C1.32808 8.39834 1.26772 7.7343 1.38845 7.13062C1.69029 5.44034 2.71654 4.35372 4.34646 3.87078C4.64829 3.75005 4.76903 3.62931 4.70866 3.32748C4.70866 2.5427 4.70866 1.75792 4.70866 0.973145C5.1916 0.973145 5.55381 0.973145 6.03675 0.973145C6.03675 1.69755 6.03675 2.3616 6.03675 3.08601C6.03675 3.56894 6.09711 3.81041 6.64042 3.93115C8.27034 4.41409 9.35696 5.92328 9.41732 7.61356C9.41732 8.0965 9.41732 8.51908 9.41732 9.06238C9.90026 9.06238 10.3228 9.06238 10.7454 9.06238C10.7454 9.54532 10.7454 9.9679 10.7454 10.3905C9.8399 10.3905 8.99475 10.3905 8.08924 10.3905C8.08924 11.296 8.08924 12.1411 8.08924 13.0466C7.6063 13.0466 7.18373 13.0466 6.70079 13.0466C6.70079 12.2015 6.70079 11.296 6.70079 10.4508C5.79528 10.4508 4.88976 10.4508 3.98425 10.4508C4.04462 11.3563 4.04462 12.2015 4.04462 13.107Z" fill="white"/>
<path d="M6.09711 23.9732C5.61417 23.9732 5.1916 23.9732 4.76903 23.9732C4.76903 23.1884 4.76903 22.4036 4.76903 21.6188C4.76903 21.317 4.70866 21.1359 4.34646 21.0755C2.53543 20.5926 1.38845 19.023 1.32808 17.1517C1.32808 16.7291 1.32808 16.3065 1.32808 15.8236C0.845144 15.8236 0.422572 15.8236 0 15.8236C0 15.3406 0 14.9181 0 14.4955C3.56168 14.4955 7.12336 14.4955 10.7454 14.4955C10.7454 14.9181 10.7454 15.3406 10.7454 15.8236C10.3228 15.8236 9.90026 15.8236 9.41732 15.8236C9.41732 16.2461 9.41732 16.6687 9.41732 17.0913C9.41732 19.0834 8.27034 20.5926 6.39895 21.0755C6.15748 21.1359 6.09711 21.2566 6.09711 21.4981C6.09711 22.3433 6.09711 23.128 6.09711 23.9732Z" fill="white"/>
</svg>
