<svg width="24" height="20" viewBox="0 0 24 20" fill="none" xmlns="http://www.w3.org/2000/svg">
<g clip-path="url(#clip0_11_380)">
<path d="M0 13.6292C0.958631 13.6292 1.91726 13.6292 2.84165 13.6292C2.94437 14.234 3.04708 14.8389 3.18402 15.4438C3.21826 15.6217 3.28673 15.8352 3.35521 16.0131C3.49215 16.4045 3.86876 16.6179 4.21113 16.5112C4.58773 16.4045 4.79315 16.0131 4.69044 15.5861C4.55349 14.9812 4.38231 14.3408 4.31384 13.7359C3.83452 9.7509 6.36805 6.01495 10.1683 5.05427C14.3452 4.02244 18.5906 6.69098 19.5835 11.0318C19.9258 12.5262 19.8573 13.9494 19.4123 15.4082C19.3438 15.6217 19.3438 15.9775 19.4465 16.1554C19.5492 16.3333 19.8573 16.4756 20.097 16.5112C20.4051 16.5468 20.6448 16.2977 20.7133 16.0131C20.8845 15.3726 21.0214 14.6966 21.0899 14.0206C21.1241 13.7003 21.2268 13.5936 21.535 13.5936C22.3566 13.6292 23.1783 13.5936 24.0342 13.5936C24 14.7322 23.7603 15.7996 23.418 16.8314C23.281 17.1872 23.1441 17.543 23.0071 17.8988C22.5963 19.0018 21.8088 19.4288 20.7475 19.4288C17.8031 19.4288 14.8588 19.4288 11.8802 19.4288C9.07275 19.4288 6.26534 19.3932 3.49215 19.4288C2.25963 19.4288 1.47218 18.9307 0.992867 17.7209C0.445078 16.4756 0.0684736 15.1236 0 13.6292ZM12.0171 16.5468C12.7019 16.5468 13.2154 16.2266 13.6605 15.7284C15.2696 13.8782 16.8445 12.0281 18.4536 10.2134C18.7618 9.85764 18.796 9.50184 18.5563 9.18161C18.3167 8.86139 18.0086 8.79023 17.5977 9.00371C16.913 9.35952 16.2625 9.67974 15.5777 10.0355C14.0713 10.8183 12.5649 11.6011 11.0585 12.3839C10.1341 12.882 9.72325 13.8782 9.96291 14.9101C10.2026 15.8708 11.0585 16.5468 12.0171 16.5468Z" fill="white"/>
<path d="M6.02566 5.6236C5.37516 4.94757 4.72466 4.27154 4.07416 3.55993C6.12837 1.70974 8.52494 0.677903 11.2981 0.5C11.2981 1.49625 11.2981 2.42135 11.2981 3.38202C9.10697 3.73783 8.01139 4.09363 6.02566 5.6236Z" fill="white"/>
<path d="M12.7018 3.41766C12.7018 2.4214 12.7018 1.49631 12.7018 0.571216C14.7903 0.428894 18.4879 2.03002 19.8916 3.59556C19.2411 4.27159 18.5906 4.94762 17.9401 5.65923C16.4337 4.34275 14.6876 3.63114 12.7018 3.41766Z" fill="white"/>
<path d="M2.73894 12.1349C1.88302 12.1349 0.958631 12.1349 0 12.1349C0.205421 9.28843 1.23253 6.7978 3.01284 4.66296C3.66334 5.37457 4.31384 6.01502 4.9301 6.65547C4.48502 7.50941 3.93723 8.32776 3.56063 9.25285C3.18402 10.1424 3.01284 11.1386 2.73894 12.1349Z" fill="white"/>
<path d="M19.0014 6.76216C19.6861 6.05055 20.3024 5.37452 20.9871 4.69849C22.7675 6.83332 23.7946 9.28837 24 12.1704C23.0413 12.1704 22.117 12.1704 21.1583 12.1704C20.9871 10.1067 20.2682 8.29212 19.0014 6.76216Z" fill="white"/>
<path d="M14.8246 12.1704C14.0713 13.0599 13.3181 13.9139 12.5649 14.8034C12.3595 15.0524 12.0856 15.1236 11.7775 15.0168C11.5036 14.9101 11.3324 14.7322 11.2982 14.412C11.2639 14.0562 11.4351 13.8427 11.709 13.7004C12.7361 13.1667 13.7632 12.633 14.7561 12.0992C14.7903 12.0992 14.8246 12.1348 14.8246 12.1704Z" fill="white"/>
</g>
<defs>
<clipPath id="clip0_11_380">
<rect width="24" height="19" fill="white" transform="translate(0 0.5)"/>
</clipPath>
</defs>
</svg>
