<svg width="23" height="23" viewBox="0 0 23 23" fill="none" xmlns="http://www.w3.org/2000/svg">
<g clip-path="url(#clip0_319_16220)">
<path d="M2.71539 17.9068C2.01086 19.3159 1.29165 20.6956 1.08617 22.2661C1.08617 22.3542 1.07149 22.4422 1.05681 22.5303C0.983421 22.8385 0.807289 23.0294 0.484379 22.9853C0.176146 22.9413 -0.0293419 22.7211 0.029369 22.4276C0.161469 21.7084 0.264213 20.9745 0.513734 20.2993C1.55585 17.3931 3.22911 14.8392 5.16657 12.4614C7.57372 9.54052 10.3625 7.07466 13.753 5.35737C14.164 5.15188 14.2961 4.85833 14.12 4.57945C13.8998 4.21251 13.5916 4.2859 13.254 4.44735C9.34973 6.41417 6.2674 9.30568 3.6988 12.7843C3.05298 13.6503 2.5099 14.5897 1.89344 15.4703C1.76134 15.6611 1.48246 15.9107 1.29165 15.896C1.10084 15.896 0.836644 15.6171 0.748578 15.3969C-0.587096 12.2265 -0.088053 9.27632 1.84941 6.54627C3.25847 4.57945 5.25464 3.33184 7.44162 2.39247C9.84877 1.35035 12.388 0.733886 14.986 0.469687C17.4078 0.220166 19.859 0.1321 22.2808 0C22.501 0 22.8532 0.1321 22.9413 0.308232C23.0147 0.469687 22.8973 0.83663 22.7505 0.998085C19.9177 3.80153 18.3031 7.22144 17.5399 11.0964C17.173 13.0045 16.5271 14.8245 15.441 16.4537C14.0906 18.4793 12.2119 19.6241 9.79006 19.8149C7.55904 19.9911 5.43077 19.6241 3.49331 18.4205C3.36121 18.3472 3.24379 18.2591 3.12637 18.171C3.00895 18.083 2.89153 18.0096 2.73007 17.8921L2.71539 17.9068Z" fill="white"/>
</g>
<defs>
<clipPath id="clip0_319_16220">
<rect width="22.9706" height="23" fill="white"/>
</clipPath>
</defs>
</svg>
