<svg width="23" height="24" viewBox="0 0 23 24" fill="none" xmlns="http://www.w3.org/2000/svg">
<g clip-path="url(#clip0_11_457)">
<path d="M1.92814 19.0151C2.20359 18.6019 2.68563 18.1887 2.75449 17.7755C2.75449 17.2935 2.34132 16.8115 2.13473 16.3294C1.99701 15.9851 1.85928 15.5719 1.72156 15.1588C1.65269 15.021 1.44611 14.8145 1.30838 14.8145C0.895209 14.7456 0.413174 14.6767 0 14.6079C0 13.1618 0 11.7845 0 10.3384C0.413174 10.2696 0.895209 10.2007 1.30838 10.1318C1.51497 10.1318 1.65269 9.9941 1.72156 9.78752C1.99701 9.03003 2.34132 8.27255 2.68563 7.51506C2.75449 7.37734 2.75449 7.17075 2.68563 7.03303C2.41018 6.61985 2.13473 6.20668 1.85928 5.86237C2.89222 4.82943 3.85629 3.86536 4.88922 2.83243C5.23353 3.03901 5.57784 3.31446 5.92216 3.58991C6.05988 3.65877 6.26647 3.65877 6.40419 3.58991C7.16168 3.31446 7.91916 2.97015 8.67665 2.62584C8.81437 2.55698 9.02096 2.35039 9.02096 2.21267C9.15868 1.79949 9.15868 1.38632 9.22754 0.973145C10.6737 0.973145 12.0509 0.973145 13.497 0.973145C13.5659 1.31746 13.6347 1.73063 13.7036 2.07494C13.7725 2.41925 13.8413 2.55698 14.1856 2.6947C14.8743 2.90129 15.5629 3.2456 16.2515 3.52105C16.5269 3.65877 16.7335 3.65877 16.9401 3.45219C17.2844 3.17674 17.5599 2.97015 17.9042 2.76356C18.9371 3.7965 19.9012 4.76057 20.9341 5.7935C20.7275 6.13782 20.4521 6.48213 20.1766 6.82644C20.0389 7.03302 20.0389 7.17075 20.1078 7.4462C20.4521 8.13482 20.7275 8.89231 21.003 9.64979C21.1407 9.92524 21.2784 10.063 21.5539 10.063C21.9671 10.1318 22.3802 10.2007 22.7246 10.2696C22.7246 11.7157 22.7246 13.0929 22.7246 14.539C22.3114 14.6079 21.8982 14.6767 21.485 14.7456C21.2096 14.8145 21.1407 14.8833 21.003 15.1588C20.7275 15.9163 20.3832 16.6737 20.0389 17.3624C19.9701 17.569 19.9012 17.7067 20.0389 17.9133C20.3144 18.2576 20.521 18.6019 20.7964 18.9462C19.7635 19.9791 18.7994 21.0121 17.7665 21.9761C17.4222 21.7007 17.0778 21.4252 16.6647 21.2187C16.5269 21.1498 16.3204 21.1498 16.1826 21.2187C15.4251 21.4941 14.5988 21.8384 13.8413 22.1827C13.7036 22.2516 13.5659 22.3893 13.497 22.5959C13.3593 23.0091 13.3593 23.4222 13.2904 23.9043C11.8443 23.9043 10.4671 23.9043 9.02096 23.9043C8.9521 23.4911 8.88323 23.0779 8.81437 22.6648C8.74551 22.3893 8.67665 22.2516 8.4012 22.1827C7.64371 21.9073 6.95509 21.6318 6.1976 21.2875C5.99102 21.1498 5.78443 21.1498 5.57784 21.3564C5.23353 21.6318 4.88922 21.8384 4.61377 22.045C3.92515 21.0121 2.96108 20.048 1.92814 19.0151ZM19.6257 12.4731C19.6257 7.9971 16.0449 4.3474 11.5 4.3474C7.09281 4.27853 3.37425 7.92824 3.37425 12.4731C3.37425 16.9492 6.95509 20.5989 11.5 20.5989C15.9072 20.6678 19.6257 16.9492 19.6257 12.4731Z" fill="white"/>
<path d="M16.2515 11.7845C15.7695 11.7845 15.3563 11.7845 14.8743 11.7845C14.8743 12.2666 14.8743 12.6797 14.8743 13.1618C14.8743 13.3684 14.8054 13.575 14.6677 13.7127C13.6348 14.4013 13.3593 15.4342 13.497 16.6049C13.5659 17.2247 13.497 17.9133 13.497 18.533C13.497 18.8773 13.4282 19.0151 13.0839 19.0151C12.8084 19.0839 12.533 19.1528 12.1886 19.2217C12.1886 19.0151 12.1886 18.8773 12.1886 18.7396C12.1886 16.7426 12.1886 14.7456 12.1886 12.6797C12.1886 12.3354 12.3264 12.1977 12.6018 12.1288C13.7725 11.6468 14.3922 10.3384 14.1857 9.16777C13.9102 7.85938 12.8084 6.96417 11.5 6.96417C10.1916 6.96417 9.15871 7.85938 8.88326 9.16777C8.60781 10.3384 9.29643 11.6468 10.4671 12.1288C10.6737 12.1977 10.8803 12.2666 10.8803 12.6109C10.8803 14.7456 10.8803 16.8115 10.8803 18.9462C10.8803 19.0151 10.8803 19.0839 10.8803 19.2217C10.4671 19.1528 10.1228 19.0839 9.77847 18.9462C9.70961 18.9462 9.57188 18.6708 9.57188 18.533C9.57188 17.4312 9.57188 16.2606 9.57188 15.1588C9.57188 14.9522 9.50302 14.7456 9.3653 14.6079C8.47009 13.9193 7.98805 13.0929 8.19464 11.9223C8.19464 11.8534 8.19464 11.7845 8.19464 11.7157C7.78146 11.7157 7.36829 11.7157 6.88625 11.7157C6.88625 12.4732 6.88625 13.1618 6.88625 13.9193C6.88625 14.057 7.02398 14.1947 7.1617 14.2636C8.12577 14.8833 8.47009 15.7785 8.33236 16.9492C8.2635 17.3624 8.33236 17.7756 8.33236 18.1887C6.47308 17.7756 4.75152 14.4702 4.95811 11.7157C5.1647 8.61687 7.91919 5.86238 10.9491 5.65579C14.4611 5.38034 17.491 7.51507 18.3174 10.8893C19.006 13.7127 17.4222 17.2247 15.0809 18.2576C15.0809 17.2935 15.0809 16.3983 15.0809 15.5031C15.0809 15.3654 15.2875 15.1588 15.4252 15.0899C16.3204 14.4702 16.6647 13.6438 16.527 12.542C16.2515 12.3354 16.2515 12.1288 16.2515 11.7845Z" fill="white"/>
<path d="M11.5 11.0271C10.7425 11.0271 10.1916 10.4073 10.1916 9.64981C10.1916 8.89233 10.8113 8.34143 11.5688 8.34143C12.3263 8.34143 12.8772 8.96119 12.8772 9.71868C12.8084 10.4762 12.1886 11.0959 11.5 11.0271Z" fill="white"/>
</g>
<defs>
<clipPath id="clip0_11_457">
<rect width="23" height="23" fill="white" transform="translate(0 0.973145)"/>
</clipPath>
</defs>
</svg>
