<svg width="23" height="23" viewBox="0 0 23 23" fill="none" xmlns="http://www.w3.org/2000/svg">
<path d="M11.5271 18.9073C7.43446 18.9073 4.11975 15.5588 4.15358 11.4662C4.1874 7.40735 7.50211 4.12646 11.5609 4.12646C15.6536 4.12646 18.9683 7.44117 18.9683 11.5676C18.9345 15.5926 15.6198 18.9073 11.5271 18.9073ZM12.3727 9.13235C12.3727 8.55735 12.3727 8.01617 12.3727 7.44117C12.3727 6.89999 12.0006 6.56176 11.5609 6.56176C11.0874 6.56176 10.7492 6.89999 10.7492 7.40735C10.7492 8.76029 10.7492 10.0794 10.7492 11.4323C10.7492 11.6691 10.8506 11.9735 11.0198 12.075C11.8653 12.6838 12.7448 13.2588 13.6242 13.8338C13.9962 14.0706 14.4359 13.9015 14.6727 13.5632C14.9095 13.1912 14.8418 12.7515 14.5036 12.4809C14.3345 12.3456 14.1315 12.2103 13.9286 12.075C13.4212 11.7368 12.7109 11.5 12.4403 10.9926C12.1698 10.5191 12.3727 9.80882 12.3389 9.16617C12.3727 9.19999 12.3727 9.16617 12.3727 9.13235Z" fill="white"/>
<path d="M6.28456 3.28088C6.41986 3.28088 6.58898 3.28088 6.72427 3.28088C7.13015 3.34852 7.43456 3.68676 7.43456 4.09264C7.43456 4.49852 7.13015 4.87058 6.72427 4.90441C5.84486 4.93823 4.93162 4.93823 4.05221 4.90441C3.64633 4.90441 3.34192 4.53235 3.34192 4.09264C3.34192 3.28088 3.34192 2.46911 3.34192 1.65735C3.34192 1.14999 3.68015 0.811759 4.15368 0.811759C4.59339 0.811759 4.96545 1.14999 4.96545 1.65735C4.96545 1.75882 4.96545 1.86029 4.96545 1.99558C5.54045 1.69117 6.0478 1.38676 6.58898 1.11617C13.1507 -2.02942 21.0654 1.79264 22.689 8.82794C24.0419 14.6794 20.761 20.6662 14.9434 22.4926C8.99045 24.3529 2.73309 21.1059 0.669859 15.2544C0.263976 14.1044 0.0610352 12.8868 0.0610352 11.6691C0.0610352 11.0603 0.365447 10.6882 0.8728 10.6882C1.38015 10.6882 1.68456 11.0603 1.71839 11.6353C1.81986 16.4721 5.13456 20.4294 9.93751 21.2412C14.9434 22.1206 19.6787 19.1103 21.0654 14.2397C22.5199 9.09852 19.814 3.95735 14.8081 2.19852C11.8993 1.18382 9.05809 1.52205 6.41986 3.11176C6.38603 3.14558 6.31839 3.17941 6.28456 3.21323C6.28456 3.24705 6.28456 3.28088 6.28456 3.28088Z" fill="white"/>
</svg>
