<svg width="14" height="24" viewBox="0 0 14 24" fill="none" xmlns="http://www.w3.org/2000/svg">
<path d="M0 12.4731C0 9.29635 0 6.11955 0 2.94276C0 1.92618 0.444751 1.22729 1.33425 1.03668C1.52486 0.973145 1.71547 0.973145 1.90608 0.973145C5.01934 0.973145 8.06906 0.973145 11.1823 0.973145C12.3895 0.973145 13.0884 1.6085 13.0884 2.81569C13.0884 9.23281 13.0884 15.7135 13.0884 22.1306C13.0884 23.3378 12.3895 23.9731 11.1823 23.9731C8.1326 23.9731 5.01934 23.9731 1.96961 23.9731C0.698895 23.9731 0.0635359 23.3378 0.0635359 22.0671C0 18.8267 0 15.6499 0 12.4731ZM1.27072 18.6361C4.76519 18.6361 8.25967 18.6361 11.6906 18.6361C11.6906 13.6803 11.6906 8.78806 11.6906 3.83226C8.19613 3.83226 4.70166 3.83226 1.27072 3.83226C1.27072 8.78806 1.27072 13.6803 1.27072 18.6361ZM6.5442 2.81569C7.24309 2.81569 8.00552 2.81569 8.70442 2.81569C9.0221 2.81569 9.14917 2.75215 9.14917 2.43447C9.14917 2.11679 9.0221 2.05326 8.70442 2.05326C7.24309 2.05326 5.8453 2.05326 4.38398 2.05326C4.0663 2.05326 3.93923 2.18033 3.93923 2.43447C3.93923 2.75215 4.12983 2.81569 4.38398 2.81569C5.08287 2.75215 5.78177 2.81569 6.5442 2.81569ZM7.56077 21.2411C7.56077 20.6693 7.11602 20.161 6.48066 20.161C5.90884 20.161 5.40055 20.6057 5.40055 21.1776C5.40055 21.7494 5.90884 22.2577 6.48066 22.2577C7.11602 22.3212 7.56077 21.8129 7.56077 21.2411Z" fill="white"/>
</svg>
