<svg width="21" height="23" viewBox="0 0 21 23" fill="none" xmlns="http://www.w3.org/2000/svg">
<path d="M9.53101 1.97168C9.53101 1.64845 9.52383 1.32521 9.53101 1.00198C9.54538 0.405789 9.93326 0.00354004 10.4792 0.00354004C11.0251 0.00354004 11.413 0.405789 11.4273 1.00198C11.4345 1.32521 11.4273 1.64127 11.4273 1.97887C12.5048 2.17281 13.4889 2.52478 14.3508 3.16406C16.1035 4.45701 17.0804 6.18093 17.1666 8.37175C17.2097 9.52103 17.1666 10.6703 17.2312 11.8196C17.3246 13.5579 18.1003 14.9729 19.3789 16.1366C20.0757 16.7615 20.2481 17.5804 19.853 18.2987C19.4867 18.9595 18.8905 19.1822 18.1722 19.1822C14.6381 19.1822 11.1041 19.1822 7.57723 19.1822C5.96105 19.1822 4.34488 19.1894 2.7287 19.1822C1.55787 19.175 0.810836 18.3633 0.932948 17.2571C0.983229 16.7902 1.24182 16.4383 1.5866 16.1366C2.54194 15.289 3.23151 14.2618 3.5332 13.0192C3.68404 12.387 3.74869 11.7262 3.7846 11.0726C3.84207 9.90173 3.74869 8.71653 3.89235 7.56007C4.2084 4.9239 6.45668 2.60379 9.05693 2.0938C9.20059 2.05788 9.34425 2.01478 9.53101 1.97168Z" fill="white"/>
<path d="M13.9844 20.1447C13.5965 21.8543 12.1527 23.0107 10.4432 22.9964C8.77671 22.982 7.32574 21.7968 6.98096 20.1447C9.30825 20.1447 11.6355 20.1447 13.9844 20.1447Z" fill="white"/>
</svg>
