<svg width="20" height="23" viewBox="0 0 20 23" fill="none" xmlns="http://www.w3.org/2000/svg">
<g clip-path="url(#clip0_11_402)">
<path d="M9.85713 0C10.3583 0.22276 10.9152 0.27845 11.3608 0.556901C13.7554 2.06053 16.1501 3.56416 18.5448 5.0678C19.6029 5.73608 19.9927 6.84988 19.4915 7.8523C19.3244 8.13075 19.1017 8.46489 18.8232 8.63196C16.1501 10.3584 13.4213 12.0291 10.7482 13.6998C10.1356 14.0896 9.52298 14.0896 8.91039 13.6998C6.29296 12.0291 3.67553 10.414 1.0024 8.74334C-0.111398 8.01937 -0.334158 6.62712 0.501193 5.6247C0.668263 5.40194 0.946714 5.17918 1.16947 5.0678C3.56415 3.56416 5.90313 2.06053 8.2978 0.612591C8.74332 0.33414 9.30023 0.22276 9.85713 0ZM15.3148 7.07264C15.092 6.79419 14.9806 6.40436 14.7579 6.29298C14.5351 6.1816 14.1453 6.1816 13.8668 6.34867C12.6416 7.07264 11.4164 7.8523 10.1913 8.63196C9.91282 8.79903 9.74574 8.79903 9.46729 8.63196C8.24211 7.8523 7.01693 7.07264 5.79175 6.34867C5.29054 6.07022 4.90071 6.12591 4.62226 6.57143C4.34381 7.01695 4.45519 7.46247 4.90071 7.74092C6.34865 8.68765 7.85228 9.57869 9.35591 10.5254C9.69005 10.7482 10.0242 10.7482 10.3583 10.5254C11.862 9.57869 13.3099 8.68765 14.8135 7.74092C14.9806 7.62954 15.092 7.35109 15.3148 7.07264Z" fill="white"/>
<path d="M19.2688 10.3584C19.9927 11.4165 19.7143 12.7531 18.5448 13.477C16.2058 14.925 13.9225 16.3729 11.5835 17.8766C11.2494 18.0993 10.9153 18.2664 10.5811 18.4891C10.0799 18.8233 9.523 18.8233 9.02179 18.4891C6.34867 16.8184 3.67554 15.1477 1.05811 13.477C-3.02121e-06 12.8088 -0.278453 11.5279 0.389827 10.4141C0.556898 10.5255 0.723968 10.5812 0.891038 10.6925C3.23002 12.1405 5.62469 13.6441 7.96368 15.1477C9.24455 15.9831 10.5254 15.9831 11.8063 15.1477C14.2567 13.477 16.7627 11.9177 19.2688 10.3584Z" fill="white"/>
<path d="M0.334132 14.9806C2.78449 16.5399 5.23486 18.0435 7.62953 19.5472C7.74091 19.6029 7.90798 19.7142 8.01936 19.8256C9.18885 20.5496 10.414 20.5496 11.5835 19.8256C13.9782 18.322 16.3729 16.8184 18.7675 15.3147C18.9346 15.2034 19.1017 15.092 19.2688 15.0363C19.8257 15.7046 19.77 16.707 19.2131 17.431C18.9903 17.7094 18.7119 17.9322 18.3777 18.1549C16.0944 19.6029 13.7554 21.0508 11.4721 22.4988C10.3583 23.167 9.30023 23.167 8.24212 22.4988C5.90314 20.9951 3.56416 19.5472 1.16948 18.0435C-8.7386e-06 17.3196 -0.334149 16.0944 0.334132 14.9806Z" fill="white"/>
</g>
<defs>
<clipPath id="clip0_11_402">
<rect width="19.6586" height="23" fill="white"/>
</clipPath>
</defs>
</svg>
