<svg width="24" height="23" viewBox="0 0 24 23" fill="none" xmlns="http://www.w3.org/2000/svg">
<g clip-path="url(#clip0_319_16249)">
<path d="M0.00592041 7.13324H23.0119V7.63298C23.0119 11.8391 23.0119 16.0512 23.0119 20.2574C23.0119 21.9827 22.0064 23 20.2871 23C14.433 23 8.57886 23 2.72475 23C1.0292 23 0.0118697 21.9827 0.0118697 20.2931C0.0118697 16.0691 0.0118697 11.8451 0.0118697 7.62703C0.0118697 7.4783 0.0118697 7.32957 0.0118697 7.13919L0.00592041 7.13324ZM7.47824 11.5179C7.47824 11.0538 7.48419 10.5898 7.47824 10.1257C7.46634 9.64385 7.24622 9.39397 6.77028 9.38803C5.84218 9.37018 4.91409 9.37018 3.99195 9.38803C3.52196 9.39397 3.26614 9.65574 3.26019 10.1138C3.24829 11.0419 3.24829 11.97 3.26019 12.8922C3.26614 13.3324 3.51601 13.6001 3.95626 13.612C4.89625 13.6299 5.84218 13.6299 6.78217 13.612C7.25812 13.6001 7.47229 13.3503 7.48419 12.8624C7.49609 12.4162 7.48419 11.9641 7.48419 11.5179H7.47824ZM15.5336 11.4524C15.5336 11.9165 15.5276 12.3805 15.5336 12.8446C15.5395 13.3562 15.7597 13.6061 16.2594 13.618C17.1875 13.6358 18.1156 13.6358 19.0377 13.618C19.5018 13.612 19.7517 13.3443 19.7576 12.8743C19.7695 11.9641 19.7695 11.0479 19.7576 10.1376C19.7576 9.66764 19.5077 9.39992 19.0437 9.38803C18.1037 9.37018 17.1578 9.37018 16.2178 9.38803C15.7656 9.39992 15.5455 9.64979 15.5336 10.1079C15.5217 10.5541 15.5336 11.0062 15.5336 11.4524ZM11.5238 15.1648C11.0597 15.1648 10.5957 15.1588 10.1316 15.1648C9.64974 15.1767 9.40582 15.3968 9.39392 15.8787C9.37607 16.8068 9.37607 17.7349 9.39392 18.657C9.39987 19.1211 9.66164 19.3829 10.1257 19.3888C11.0538 19.4007 11.9819 19.4007 12.904 19.3888C13.3443 19.3829 13.612 19.127 13.6179 18.6868C13.6358 17.7468 13.6358 16.8009 13.6179 15.8609C13.606 15.3849 13.3562 15.1707 12.8683 15.1648C12.4221 15.1529 11.97 15.1648 11.5238 15.1648ZM7.48419 17.259C7.48419 16.8425 7.48419 16.4201 7.48419 16.0036C7.48419 15.9739 7.48419 15.9442 7.48419 15.9144C7.46634 15.4087 7.24027 15.1767 6.73458 15.1707C5.82434 15.1648 4.90814 15.1588 3.9979 15.1707C3.50411 15.1707 3.26019 15.4266 3.25424 15.9263C3.24234 16.8247 3.24234 17.723 3.25424 18.6154C3.25424 19.133 3.51601 19.3888 4.0336 19.3947C4.93194 19.4066 5.83029 19.4066 6.72268 19.3947C7.23432 19.3888 7.47229 19.133 7.47824 18.6035C7.48419 18.1573 7.47824 17.7051 7.47824 17.259H7.48419ZM15.5395 17.2768C15.5395 17.723 15.5336 18.1751 15.5395 18.6213C15.5514 19.1389 15.7894 19.3888 16.313 19.3888C17.2113 19.4007 18.1096 19.4007 19.002 19.3888C19.4899 19.3829 19.7517 19.1211 19.7576 18.6392C19.7695 17.7289 19.7695 16.8128 19.7576 15.9025C19.7517 15.4266 19.5018 15.1767 19.0377 15.1707C18.1096 15.1588 17.1816 15.1588 16.2594 15.1707C15.7835 15.1707 15.5455 15.4147 15.5336 15.8906C15.5217 16.3547 15.5336 16.8187 15.5336 17.2827L15.5395 17.2768ZM10.9526 11.6488C10.7682 11.4108 10.6433 11.2204 10.4886 11.0657C10.1852 10.7742 9.79252 10.7623 9.5248 11.0122C9.24518 11.274 9.24518 11.6904 9.5486 12.0057C9.83417 12.3091 10.1316 12.6006 10.435 12.8922C10.8515 13.2908 11.1728 13.2908 11.5892 12.8803C12.2079 12.2734 12.8207 11.6607 13.4275 11.0419C13.7726 10.6909 13.8023 10.2983 13.5287 10.0127C13.2312 9.70334 12.8445 9.72714 12.4697 10.1019C11.9938 10.5779 11.5297 11.0598 10.9526 11.6428V11.6488Z" fill="white"/>
<path d="M0.0178411 5.73512C0.0178411 5.02716 -0.023804 4.34894 0.0237904 3.68262C0.11303 2.45111 1.16606 1.48137 2.42136 1.44568C3.03414 1.42783 3.64692 1.44568 4.33109 1.44568C4.33109 1.20771 4.32514 0.987582 4.33109 0.773407C4.34893 0.291513 4.62855 -0.011901 5.02715 -2.37854e-06C5.41386 0.0118962 5.66968 0.303412 5.67563 0.761508C5.68158 1.67175 5.67563 2.58794 5.67563 3.49819C5.67563 3.86704 5.85411 4.13476 6.22891 4.2121C6.56207 4.27755 6.81789 4.12881 6.95473 3.81945C7.01422 3.68856 7.00827 3.52793 7.00827 3.3792C7.00827 2.75452 7.00827 2.1239 7.00827 1.45163H8.64433C8.64433 1.19581 8.63838 0.993531 8.64433 0.791255C8.68002 0.303412 8.93584 -2.37854e-06 9.3404 -2.37854e-06C9.74495 -2.37854e-06 10.0067 0.291513 10.0127 0.785305C10.0186 1.62416 10.0127 2.46301 10.0186 3.30186C10.0186 3.48034 10.0246 3.67072 10.09 3.83135C10.2209 4.14666 10.4886 4.28349 10.8158 4.21805C11.149 4.15261 11.3394 3.92654 11.3453 3.58743C11.3572 3.04604 11.3513 2.5106 11.3513 1.96922C11.3513 1.80859 11.3513 1.64795 11.3513 1.45163H12.9992C12.9992 1.18986 12.9933 0.957835 12.9992 0.725812C13.0171 0.291513 13.2669 0.0178455 13.6417 -2.37854e-06C14.0284 -0.0178503 14.3319 0.267716 14.3438 0.713914C14.3616 1.58251 14.3438 2.45111 14.3557 3.31971C14.3557 3.48034 14.3497 3.65882 14.4092 3.80755C14.5341 4.11691 14.79 4.2716 15.1291 4.21805C15.492 4.15856 15.6824 3.90869 15.6943 3.56363C15.7121 2.96275 15.7002 2.36782 15.7061 1.76694C15.7061 1.6777 15.718 1.58846 15.7299 1.45163H17.3422C17.3422 1.18391 17.3422 0.963784 17.3422 0.74366C17.3541 0.297463 17.6159 -2.37854e-06 18.0026 -2.37854e-06C18.3893 -2.37854e-06 18.6749 0.291513 18.6808 0.737711C18.6927 1.52897 18.6808 2.32617 18.6808 3.11743C18.6808 3.25427 18.6808 3.38515 18.6808 3.52198C18.7046 3.94438 18.9604 4.21805 19.3412 4.224C19.7219 4.224 20.0015 3.96223 20.0194 3.53388C20.0372 2.9806 20.0194 2.42731 20.0253 1.87403C20.0253 1.74314 20.0372 1.61226 20.0432 1.48732C21.6376 1.23745 22.9702 2.34402 23 3.91464C23.0119 4.50957 23 5.1045 23 5.73512H0.0178411Z" fill="white"/>
<path d="M4.61664 10.7504H6.10396V12.2496H4.61664V10.7504Z" fill="white"/>
<path d="M18.3953 12.2496H16.9139V10.7563H18.3953V12.2496Z" fill="white"/>
<path d="M10.7623 18.0145V16.5331H12.2436V18.0145H10.7623Z" fill="white"/>
<path d="M6.10992 16.5391V18.0145H4.62854V16.5391H6.10992Z" fill="white"/>
<path d="M16.9079 18.0204V16.5509H18.3833V18.0204H16.9079Z" fill="white"/>
</g>
<defs>
<clipPath id="clip0_319_16249">
<rect width="23.0119" height="23" fill="white"/>
</clipPath>
</defs>
</svg>
