<svg width="23" height="23" viewBox="0 0 23 23" fill="none" xmlns="http://www.w3.org/2000/svg">
<g clip-path="url(#clip0_11_411)">
<path d="M2.44051 11.2333C3.32797 11.2333 4.28939 11.2333 5.17685 11.2333C6.06431 11.2333 6.95177 11.2333 7.83923 11.2333C9.39228 11.2333 10.3537 10.1979 10.4277 8.71885C10.4277 6.94393 10.4277 5.16901 10.4277 3.32013C10.4277 1.84103 9.39228 0.805664 7.91318 0.805664C6.13826 0.805664 4.28939 0.805664 2.51447 0.805664C1.03537 0.805664 0 1.76708 0 3.24618C0 5.09505 0 6.86997 0 8.71885C0 10.124 1.03537 11.1594 2.44051 11.2333Z" fill="white"/>
<path d="M8.06109 12.5723C6.13826 12.5723 4.28939 12.5723 2.36656 12.5723C1.03537 12.5723 0 13.6076 0 15.0128C0 16.8617 0 18.7845 0 20.6334C0 22.0385 1.03537 23.0739 2.44051 23.0739C4.28939 23.0739 6.13826 23.0739 7.98714 23.0739C9.39228 23.0739 10.4277 22.0385 10.4277 20.6334C10.4277 19.7459 10.4277 18.7845 10.4277 17.897C10.4277 17.0096 10.4277 16.0482 10.4277 15.1607V15.0867C10.4277 13.6076 9.39228 12.5723 8.06109 12.5723Z" fill="white"/>
<path d="M20.0577 12.5724C18.2088 12.5724 16.3599 12.5724 14.5111 12.5724C13.1059 12.5724 12.0706 13.6078 12.0706 15.0129C12.0706 16.8618 12.0706 18.7107 12.0706 20.5595C12.0706 21.9647 13.1059 23 14.5111 23C15.3985 23 16.3599 23 17.2474 23C18.1349 23 19.0223 23 19.9837 23C21.4628 23 22.4982 21.9647 22.4982 20.4856C22.4982 18.6367 22.4982 16.8618 22.4982 15.0129C22.4982 13.6078 21.4628 12.5724 20.0577 12.5724Z" fill="white"/>
<path d="M15.2982 11.0116C15.7419 11.4553 16.3335 11.7511 16.9991 11.7511C17.6647 11.7511 18.2564 11.5293 18.7741 11.0116C19.8834 9.90226 20.9927 8.79294 22.102 7.68361C23.0635 6.64824 23.0635 5.2431 22.102 4.20773C20.9927 3.0984 19.8834 1.98908 18.7741 0.879752C17.7387 -0.0816623 16.3336 -0.0816623 15.2982 0.879752C14.1889 1.98908 13.0795 3.0984 11.9702 4.20773C11.0088 5.2431 11.0088 6.64824 11.9702 7.68361C13.0795 8.79294 14.1889 9.90226 15.2982 11.0116Z" fill="white"/>
</g>
<defs>
<clipPath id="clip0_11_411">
<rect width="23" height="23" fill="white"/>
</clipPath>
</defs>
</svg>
