<svg width="23" height="23" viewBox="0 0 23 23" fill="none" xmlns="http://www.w3.org/2000/svg">
<g clip-path="url(#clip0_30_63)">
<path d="M8.2117 11.5C8.2117 8.06797 8.2117 4.64492 8.2117 1.21289C8.2117 0.224609 8.43631 0 9.42459 0C10.8801 0 12.3265 0 13.782 0C14.4918 0 14.7972 0.296484 14.7972 1.01523C14.7972 8.00508 14.7972 14.9949 14.7972 21.9848C14.7972 22.7215 14.4918 23 13.7371 23C12.2547 23 10.7722 23 9.28982 23C8.49021 23 8.2117 22.7215 8.2117 21.9219C8.20271 18.4449 8.2117 14.977 8.2117 11.5Z" fill="white"/>
<path d="M23 14.8152C23 17.1961 23 19.577 23 21.9488C23 22.7215 22.7215 23 21.9399 23C20.4574 23 18.975 23 17.4926 23C16.702 23 16.4235 22.7305 16.4235 21.9578C16.4235 17.1691 16.4235 12.3805 16.4235 7.5918C16.4235 6.84609 16.702 6.55859 17.4567 6.55859C18.966 6.55859 20.4754 6.55859 21.9938 6.55859C22.7035 6.55859 23 6.86406 23 7.58281C23 9.99063 23 12.3984 23 14.8152Z" fill="white"/>
<path d="M6.56758 16.0371C6.56758 18.0137 6.56758 19.9903 6.56758 21.9578C6.56758 22.7125 6.28906 22.991 5.54336 22.991C4.03398 22.991 2.52461 22.991 1.00625 22.991C0.2875 22.991 0 22.6946 0 21.9758C0 17.9957 0 14.0156 0 10.0356C0 9.32581 0.2875 9.02932 1.00625 9.02932C2.53359 9.02034 4.06094 9.02034 5.58828 9.02932C6.28008 9.02932 6.56758 9.32581 6.56758 10.0176C6.56758 12.0301 6.56758 14.0336 6.56758 16.0371Z" fill="white"/>
</g>
<defs>
<clipPath id="clip0_30_63">
<rect width="23" height="23" fill="white"/>
</clipPath>
</defs>
</svg>
