<svg width="24" height="23" viewBox="0 0 24 23" fill="none" xmlns="http://www.w3.org/2000/svg">
<g clip-path="url(#clip0_7_7665)">
<path d="M10.8686 0C10.8686 0.198431 10.8686 0.360784 10.8686 0.514118C10.8686 3.94157 10.8686 7.36 10.8777 10.7874C10.8777 11.1302 10.7784 11.3827 10.562 11.6353C8.45138 14.2329 6.34981 16.8396 4.23922 19.4463C4.10393 19.6176 3.95961 19.789 3.8153 19.9604C0.865887 17.489 -0.929015 12.7898 0.505103 8.14471C1.91216 3.56275 6.25961 0.126274 10.8686 0Z" fill="white"/>
<path d="M12.2487 22.964C12.2487 19.3923 12.2487 15.8205 12.2487 12.2126C15.8385 12.2126 19.4373 12.2126 23.0271 12.2126C22.8918 17.7958 17.8498 22.8197 12.2487 22.964Z" fill="white"/>
<path d="M10.8326 13.4392C10.8326 16.7043 10.8326 19.8251 10.8326 23C8.62277 22.8647 6.65649 22.1431 4.83453 20.8533C6.82787 18.4 8.79414 15.9737 10.8326 13.4392Z" fill="white"/>
<path d="M16.9298 10.7875C16.3887 10.7875 15.8475 10.7875 15.2883 10.7875C15.2883 7.80202 15.2883 4.82555 15.2883 1.82202C15.8385 1.82202 16.3796 1.82202 16.9298 1.82202C16.9298 4.82555 16.9298 7.793 16.9298 10.7875Z" fill="white"/>
<path d="M12.2576 5.07812C12.7898 5.07812 13.3129 5.07812 13.8721 5.07812C13.8721 6.97224 13.8721 8.86636 13.8721 10.7875C13.34 10.7875 12.8259 10.7875 12.2576 10.7875C12.2576 8.89342 12.2576 6.9993 12.2576 5.07812Z" fill="white"/>
<path d="M19.9513 10.7964C19.3921 10.7964 18.869 10.7964 18.3278 10.7964C18.3278 9.34424 18.3278 7.91012 18.3278 6.43091C18.851 6.43091 19.3831 6.43091 19.9513 6.43091C19.9513 7.86503 19.9513 9.30816 19.9513 10.7964Z" fill="white"/>
<path d="M23.0721 8.23486C23.0721 9.09173 23.0721 9.91251 23.0721 10.7784C22.5129 10.7784 21.9537 10.7784 21.3674 10.7784C21.3674 9.93957 21.3674 9.10075 21.3674 8.23486C21.9357 8.23486 22.4859 8.23486 23.0721 8.23486Z" fill="white"/>
</g>
<defs>
<clipPath id="clip0_7_7665">
<rect width="23.0722" height="23" fill="white"/>
</clipPath>
</defs>
</svg>
