<svg width="24" height="20" viewBox="0 0 24 20" fill="none" xmlns="http://www.w3.org/2000/svg">
<g clip-path="url(#clip0_7_7646)">
<path d="M6.25298 10.1012C4.94985 11.3879 3.68423 12.6379 2.4186 13.8787C1.77173 14.5129 1.08735 14.5037 0.449852 13.8695C-0.159523 13.2629 -0.159523 12.6012 0.477977 11.9762C2.06235 10.4137 3.6561 8.85116 5.24985 7.29785C5.96235 6.60851 6.59048 6.60851 7.31235 7.31623C8.48423 8.46513 9.6561 9.61403 10.828 10.7537C10.8467 10.7721 10.8749 10.7905 10.8561 10.7721C13.6686 8.02395 16.4717 5.27579 19.3686 2.4541C19.0874 2.20594 18.7405 1.90263 18.403 1.59013C18.1499 1.35116 17.9249 1.103 18.0655 0.707776C18.2155 0.303364 18.553 0.220644 18.928 0.19307C20.3155 0.119541 21.703 0.0460115 23.0905 5.56078e-05C23.7186 -0.0183267 24.0186 0.284982 23.9999 0.900791C23.953 2.25189 23.878 3.59381 23.8124 4.93572C23.7936 5.31256 23.6155 5.61586 23.2405 5.75373C22.8749 5.8916 22.6124 5.69859 22.3686 5.45962C22.0405 5.12873 21.7311 4.78866 21.3936 4.4302C21.2155 4.59564 21.0936 4.69675 20.9811 4.81623C18.0092 7.72984 15.0374 10.6434 12.0655 13.557C11.2311 14.3751 10.6592 14.3751 9.83423 13.5662C8.77485 12.5276 7.71548 11.489 6.6561 10.4504C6.53423 10.3493 6.42173 10.2482 6.25298 10.1012Z" fill="white"/>
<path d="M21.4032 6.38794C21.5063 6.65448 21.6282 6.83831 21.6282 7.02213C21.6375 11.1214 21.6375 15.2299 21.6375 19.3291C21.6375 19.853 21.4969 19.9909 20.9813 20.0001C20.1188 20.0093 19.2657 20.0093 18.4032 20.0001C17.8969 20.0001 17.7469 19.8622 17.7469 19.3751C17.7375 16.342 17.7469 13.3089 17.7469 10.285C17.7469 10.1563 17.7657 9.98169 17.85 9.90816C19.0032 8.75007 20.1563 7.61037 21.4032 6.38794Z" fill="white"/>
<path d="M16.2469 11.5349C16.2469 12.9963 16.2469 14.3934 16.2469 15.7812C16.2469 16.9577 16.2469 18.1434 16.2469 19.3198C16.2469 19.8805 16.125 19.9908 15.5625 19.9908C14.7187 20 13.875 20 13.0312 19.9908C12.525 19.9908 12.3844 19.8437 12.3844 19.3658C12.375 18.0606 12.3844 16.7647 12.3844 15.4595C12.3844 15.3309 12.4125 15.1654 12.4969 15.0919C13.6781 13.9338 14.8781 12.7941 16.0687 11.6452C16.0969 11.6176 16.1344 11.5993 16.2469 11.5349Z" fill="white"/>
<path d="M5.52191 12.9965C5.52191 14.1821 5.52191 15.377 5.52191 16.5626C5.52191 17.4818 5.52191 18.4009 5.52191 19.3108C5.52191 19.8531 5.38128 19.9818 4.82816 19.991C3.98441 20.0001 3.14066 20.0001 2.29691 19.991C1.78128 19.991 1.63128 19.8531 1.63128 19.3751C1.62191 18.2722 1.62191 17.1693 1.64066 16.0755C1.64066 15.9468 1.80003 15.7354 1.91253 15.7079C2.53128 15.5884 3.03753 15.2759 3.46878 14.8439C4.11566 14.2005 4.76253 13.5663 5.40941 12.9321C5.44691 12.9597 5.48441 12.9781 5.52191 12.9965Z" fill="white"/>
<path d="M7.14375 12.877C7.64062 13.3825 8.1375 13.8788 8.625 14.3843C9.23438 15.0277 9.9 15.5608 10.8844 15.5792C10.8844 16.9119 10.8844 18.217 10.8844 19.513C10.8844 19.8347 10.6781 19.9909 10.3781 19.9909C9.43125 20.0001 8.475 20.0001 7.52813 19.9909C7.21875 19.9909 7.03125 19.8255 7.03125 19.5038C7.03125 17.3163 7.03125 15.138 7.03125 12.9505C7.05938 12.9229 7.09687 12.9045 7.14375 12.877Z" fill="white"/>
</g>
<defs>
<clipPath id="clip0_7_7646">
<rect width="24" height="20" fill="white"/>
</clipPath>
</defs>
</svg>
