<svg width="23" height="23" viewBox="0 0 23 23" fill="none" xmlns="http://www.w3.org/2000/svg">
<g clip-path="url(#clip0_7_7658)">
<path d="M1.38966 21.6221C1.38966 21.4219 1.38966 21.2452 1.38966 21.0804C1.38966 18.8781 1.38966 16.6759 1.38966 14.4736C1.38966 13.6492 1.57809 13.4726 2.39068 13.4726C3.10907 13.4726 3.82745 13.4726 4.54583 13.4726C5.20533 13.4726 5.42909 13.6963 5.42909 14.3676C5.42909 16.5934 5.42909 18.831 5.42909 21.0568C5.42909 21.2335 5.42909 21.4101 5.42909 21.6221C5.8766 21.6221 6.28879 21.6221 6.74808 21.6221C6.75986 21.469 6.77164 21.3041 6.77164 21.151C6.77164 19.8085 6.77164 18.4541 6.77164 17.1116C6.77164 16.3814 6.98362 16.1812 7.702 16.1812C8.45571 16.1812 9.19765 16.1812 9.95136 16.1812C10.5873 16.1812 10.8111 16.405 10.8111 17.0527C10.8228 18.3835 10.8111 19.7143 10.8111 21.045C10.8111 21.2217 10.8111 21.3983 10.8111 21.6221C11.2586 21.6221 11.6825 21.6221 12.1536 21.6221C12.1536 21.4337 12.1536 21.2688 12.1536 21.0921C12.1536 17.9948 12.1536 14.8976 12.1536 11.7885C12.1536 10.9641 12.342 10.7875 13.1546 10.7875C13.873 10.7875 14.5914 10.7875 15.3098 10.7875C15.9693 10.7875 16.193 11.0112 16.193 11.6825C16.193 14.6974 16.193 17.7004 16.193 20.7153C16.193 21.0097 16.193 21.3159 16.193 21.6339C16.6406 21.6339 17.0527 21.6339 17.5356 21.6339C17.5356 21.4454 17.5356 21.257 17.5356 21.0686C17.5356 16.6523 17.5356 12.236 17.5356 7.81973C17.5356 6.90114 17.6887 6.74805 18.6073 6.74805C19.2785 6.74805 19.9498 6.74805 20.6329 6.74805C21.3866 6.74805 21.5868 6.94825 21.5868 7.70196C21.5868 12.1536 21.5868 16.5934 21.5868 21.045C21.5868 21.2335 21.5868 21.4219 21.5868 21.6574C21.8577 21.6574 22.0814 21.6456 22.3052 21.6574C22.7174 21.681 22.9882 21.9754 22.9764 22.3522C22.9647 22.7055 22.6938 22.9764 22.3052 23C22.1874 23.0117 22.0696 23 21.9401 23C14.9683 23 7.98464 23 1.0128 23C0.317976 23 3.74205e-06 22.7998 -0.0235498 22.3522C-0.0353265 21.8812 0.282646 21.6692 1.0128 21.6574C1.13057 21.6456 1.23656 21.6339 1.38966 21.6221Z" fill="white"/>
<path d="M17.6769 2.24937C17.512 1.27189 18.0302 0.435745 18.8899 0.117773C19.7378 -0.200199 20.68 0.0824427 21.2099 0.812601C21.7399 1.53098 21.7281 2.53201 21.1864 3.23861C20.6211 3.96877 19.6672 4.22786 18.8192 3.86278C18.5484 3.74501 18.3717 3.75679 18.1362 3.93344C17.5827 4.38096 16.9821 4.79314 16.4286 5.24066C16.299 5.34665 16.1812 5.58219 16.193 5.74706C16.3226 7.33692 15.0978 8.37328 13.555 7.98464C13.4255 7.94931 13.2371 7.99642 13.1428 8.09063C12.3656 8.83257 11.6001 9.59806 10.8582 10.3753C10.7522 10.4813 10.7051 10.7169 10.7404 10.8699C10.9288 11.6825 10.7639 12.3891 10.1398 12.9544C9.52738 13.4962 8.809 13.6257 8.04351 13.3195C7.26625 13.0015 6.84228 12.4009 6.80695 11.553C6.79518 11.2939 6.72451 11.1526 6.48898 11.0466C6.04146 10.8464 5.59395 10.6226 5.16998 10.3871C4.93445 10.2576 4.76957 10.2693 4.53404 10.4342C3.56834 11.0937 2.28468 10.7993 1.68406 9.79826C1.107 8.82079 1.44853 7.56068 2.44955 7.00717C3.47413 6.44189 4.73424 6.8423 5.22887 7.90221C5.33486 8.12597 5.4173 8.38505 5.40552 8.63237C5.39374 8.96212 5.54684 9.10344 5.81771 9.2212C6.26522 9.42141 6.68918 9.6805 7.14848 9.86893C7.27802 9.92781 7.50178 9.91603 7.61955 9.83359C8.19661 9.45674 8.79722 9.35075 9.45672 9.53918C9.57449 9.57451 9.77469 9.5274 9.86891 9.43318C10.6462 8.67947 11.3999 7.92576 12.1536 7.14849C12.2478 7.0425 12.3067 6.83052 12.2831 6.6892C12.0712 5.86483 12.236 5.13467 12.8838 4.56939C13.5433 3.99232 14.297 3.90989 15.1096 4.25141C15.2391 4.3103 15.4629 4.28674 15.5689 4.20431C16.2048 3.75679 16.829 3.2975 17.4296 2.80287C17.5591 2.67333 17.5945 2.43779 17.6769 2.24937Z" fill="white"/>
</g>
<defs>
<clipPath id="clip0_7_7658">
<rect width="23" height="23" fill="white"/>
</clipPath>
</defs>
</svg>
