<svg width="28" height="23" viewBox="0 0 28 23" fill="none" xmlns="http://www.w3.org/2000/svg">
<path d="M13.9276 18.6291C13.0233 18.4181 12.119 18.2071 11.2146 18.0262C11.0036 17.9961 10.7625 17.9961 10.5816 18.0865C10.039 18.3277 9.55671 18.6894 9.01411 18.9305C8.77296 19.0511 8.35094 19.1114 8.23036 18.9908C8.0495 18.8401 7.98921 18.4482 8.01935 18.1769C8.07964 17.6343 8.20022 17.1219 8.35094 16.6094C8.44137 16.3381 8.38108 16.1573 8.20022 15.9463C5.48724 12.751 5.81883 7.92792 9.04425 5.21494C11.2448 3.37615 13.7769 2.95413 16.4597 3.85845C19.1727 4.76278 20.8306 6.72215 21.3732 9.52556C22.2173 13.8362 19.444 17.7549 15.1032 18.4482C14.7114 18.5085 14.3195 18.5085 13.9276 18.5085C13.9578 18.5387 13.9276 18.5688 13.9276 18.6291ZM11.5462 10.9423C11.5462 10.1586 10.9132 9.52556 10.0993 9.52556C9.3457 9.52556 8.68252 10.1586 8.68252 10.9122C8.65238 11.6658 9.3457 12.3591 10.0993 12.3591C10.883 12.3893 11.5462 11.7261 11.5462 10.9423ZM17.8162 12.3893C18.6 12.3893 19.2631 11.7261 19.2631 10.9725C19.2631 10.1887 18.6 9.5557 17.8162 9.5557C17.0325 9.5557 16.4296 10.1887 16.3994 10.9423C16.3693 11.7261 17.0325 12.3591 17.8162 12.3893ZM12.5711 10.9122C12.5711 11.6959 13.174 12.3591 13.9578 12.3591C14.7415 12.3591 15.3745 11.7261 15.3745 10.9423C15.3745 10.1586 14.7716 9.52556 14.018 9.52556C13.2041 9.49541 12.5711 10.1284 12.5711 10.9122Z" fill="white"/>
<path d="M13.5657 20.2267C17.6653 20.1966 20.7099 18.4482 22.4281 14.6802C22.8501 13.7156 22.9405 12.6003 23.0611 11.5452C23.6338 7.47576 20.8907 3.37615 16.8213 2.1101C11.2747 0.39188 5.57748 3.94889 4.79373 9.70643C4.67315 10.5505 4.88416 11.4548 5.00474 12.329C5.15546 13.5046 5.36647 14.6802 5.54734 15.8558C5.63777 16.3984 5.39661 16.7602 4.88416 16.9712C3.31667 17.6343 2.05061 17.2726 1.14629 15.8558C-0.089624 13.9568 -0.210201 11.907 0.66398 9.827C1.14629 8.74181 2.02047 8.0485 3.22623 7.83749C3.37696 7.80734 3.52768 7.62648 3.58796 7.5059C5.03488 3.52687 7.80815 1.05505 11.968 0.211015C17.3036 -0.874175 22.6089 2.29096 24.3573 7.47576C24.4176 7.62648 24.5984 7.86763 24.719 7.86763C26.3167 8.01835 27.1306 9.04326 27.5526 10.4299C28.0952 12.2687 27.9445 14.0472 26.9497 15.7051C26.377 16.6396 25.6234 17.3329 24.4176 17.2726C24.086 17.2425 23.7544 17.1219 23.4228 17.0616C23.2721 17.0315 23.031 17.0917 22.9405 17.2123C21.4032 19.3224 19.3835 20.7392 16.8815 21.4627C16.6404 21.5229 16.55 21.6435 16.55 21.8847C16.5198 22.5478 16.0978 22.9397 15.4346 22.9397C14.47 22.9397 13.5054 22.9699 12.5408 22.9397C11.8776 22.9397 11.4556 22.4876 11.4254 21.8244C11.4254 21.5531 11.4254 21.2516 11.4556 20.9803C11.5159 20.5583 11.9078 20.1966 12.3599 20.1665C12.7518 20.1966 13.1437 20.2267 13.5657 20.2267Z" fill="white"/>
</svg>
