<svg xmlns="http://www.w3.org/2000/svg" viewBox="0 0 24.48 20.88"><defs><style>.cls-1{fill:#013e17;}.cls-2{fill:#f2f2f1;}</style></defs><title>rain_1</title><g id="Layer_2" data-name="Layer 2"><g id="Layer_1-2" data-name="Layer 1"><circle class="cls-1" cx="16.79" cy="7.69" r="7.69"/><path class="cls-2" d="M18.16,9.52a3.07,3.07,0,0,0-.86.11,3.62,3.62,0,0,0-3.61-3.31,3.58,3.58,0,0,0-1.47.3,4.09,4.09,0,0,0-8.13.59,4,4,0,0,0,.14,1H4.09a4.09,4.09,0,1,0,0,8.18H19a3.37,3.37,0,0,0,2-1.32A3.42,3.42,0,0,0,21.67,13,3.51,3.51,0,0,0,18.16,9.52Zm-3,5.25.23.34A1.56,1.56,0,0,1,15.13,14.77Z"/><rect class="cls-1" x="10.55" y="9" width="1.35" height="5.1" rx="0.68" transform="translate(8.76 -4.37) rotate(35.37)"/><rect class="cls-1" x="11.89" y="12.12" width="1.35" height="4.22" rx="0.62" transform="translate(10.56 -4.65) rotate(35.37)"/><rect class="cls-1" x="8.97" y="16.24" width="1.35" height="4.22" rx="0.62" transform="matrix(0.82, 0.58, -0.58, 0.82, 12.4, -2.2)"/><rect class="cls-1" x="14.67" y="12.78" width="1.35" height="4.22" rx="0.62" transform="translate(11.45 -6.13) rotate(35.37)"/><rect class="cls-1" x="11.74" y="16.91" width="1.35" height="4.22" rx="0.62" transform="translate(13.3 -3.68) rotate(35.37)"/><rect class="cls-1" x="7.26" y="13.63" width="1.35" height="5.1" rx="0.68" transform="translate(10.83 -1.61) rotate(35.37)"/></g></g></svg>