<svg xmlns="http://www.w3.org/2000/svg" viewBox="0 0 15.99 17.51"><defs><style>.cls-1{fill:#013e17;}</style></defs><title>snow_1</title><g id="Layer_2" data-name="Layer 2"><g id="Layer_1-2" data-name="Layer 1"><path class="cls-1" d="M8.74,15v1.38c0,.14,0,.27,0,.41a.74.74,0,0,1-.76.72.73.73,0,0,1-.72-.75c0-.58,0-1.16,0-1.8a2.7,2.7,0,0,0-.22.18l-1,1a.75.75,0,1,1-1.06-1c.68-.68,1.36-1.35,2-2a1.69,1.69,0,0,0,.22-.53.34.34,0,0,0,0-.1c0-1.08,0-1.09-1-1.57a.77.77,0,0,0-.37,0l-.06,0a1.86,1.86,0,0,0-1.26,1.6c-.12.7-.35,1.39-.54,2.08a.74.74,0,0,1-1,.59.74.74,0,0,1-.49-1c.14-.53.28-1.05.45-1.67l-1.25.72-.42.23a.74.74,0,0,1-1-.32.72.72,0,0,1,.24-1c.43-.27.87-.51,1.3-.76l.33-.2L.71,10.75c-.53-.15-.79-.5-.69-.92s.52-.67,1.09-.52c.89.24,1.78.47,2.67.73A1,1,0,0,0,4.45,10a1.26,1.26,0,0,0,.89-1.63A1.44,1.44,0,0,0,5.12,8h0a1.83,1.83,0,0,0-2-.29A18.74,18.74,0,0,1,1,8.22a.72.72,0,0,1-1-.5.74.74,0,0,1,.58-.93L2.3,6.34c-.55-.32-1-.58-1.52-.89a1.16,1.16,0,0,1-.43-.57.6.6,0,0,1,.28-.71.68.68,0,0,1,.77-.06c.43.23.85.48,1.28.72L3,5c-.16-.59-.31-1.11-.44-1.64s.3-1.14.89-1A.75.75,0,0,1,4,3c.24.91.5,1.82.73,2.74a.93.93,0,0,0,.43.56,1.26,1.26,0,0,0,1.8,0,.58.58,0,0,0,.25-.42,2,2,0,0,0-.79-2A16.52,16.52,0,0,1,5,2.46a.75.75,0,0,1-.07-1.14A.73.73,0,0,1,6,1.41c.38.38.75.76,1.12,1.15l.08,0c0-.58,0-1.17,0-1.75A.76.76,0,0,1,7.86,0a.73.73,0,0,1,.79.41,1.42,1.42,0,0,1,.08.5c0,.53,0,1.07,0,1.6l.09.06c.37-.39.73-.81,1.13-1.17a1.15,1.15,0,0,1,.69-.28.64.64,0,0,1,.6.48.75.75,0,0,1-.2.79c-.67.68-1.34,1.36-2,2a1,1,0,0,0-.3.68,1.26,1.26,0,0,0,.89,1.54.68.68,0,0,0,.56,0,1.91,1.91,0,0,0,1.24-1.59,20.46,20.46,0,0,1,.52-2c.15-.54.52-.79,1-.66s.6.53.46,1.06-.26,1-.42,1.59c.59-.34,1.1-.64,1.62-.92a.69.69,0,0,1,.8,0,.63.63,0,0,1,.28.72,1.27,1.27,0,0,1-.44.56c-.46.31-1,.57-1.51.88l1.72.47a.75.75,0,0,1,.57.76.71.71,0,0,1-.6.69,1.45,1.45,0,0,1-.54-.06C14,8,13.08,7.73,12.21,7.48a1,1,0,0,0-.67.07,1.28,1.28,0,0,0-.91,1.6.57.57,0,0,0,.24.41A2,2,0,0,0,13,9.85a19.79,19.79,0,0,1,2-.56.73.73,0,0,1,1,.51.74.74,0,0,1-.58.93l-1.68.45c.54.31,1,.57,1.5.88a1.24,1.24,0,0,1,.45.56.63.63,0,0,1-.27.72.71.71,0,0,1-.8.06c-.41-.22-.81-.46-1.22-.7-.11-.06-.22-.11-.4-.22l.32,1.24c0,.17.1.35.13.53a.74.74,0,0,1-1.44.34c-.21-.76-.45-1.51-.6-2.28a1.74,1.74,0,0,0-1-1.38.9.9,0,0,0-.86,0,1.14,1.14,0,0,0-.74,1.3,1.34,1.34,0,0,0,.41,1c.66.61,1.28,1.26,1.92,1.9a.74.74,0,0,1,.2.78.61.61,0,0,1-.59.49,1.19,1.19,0,0,1-.7-.27c-.4-.35-.76-.77-1.14-1.16ZM6.8,8.73c0,.24,0,.58.13.7A1.88,1.88,0,0,0,8,10a1.8,1.8,0,0,0,1.08-.59c.16-.17.08-.57.08-.87s0-.41-.06-.48A2.38,2.38,0,0,0,8,7.49a2,2,0,0,0-1.06.57C6.8,8.18,6.84,8.5,6.8,8.73Z"/></g></g></svg>