<svg width="24" height="23" viewBox="0 0 24 23" fill="none" xmlns="http://www.w3.org/2000/svg">
<g clip-path="url(#clip0_373_31491)">
<path d="M3.60665 8.817C3.60665 8.6749 3.60665 8.5328 3.60665 8.3907C3.60665 6.47573 3.60665 4.56075 3.60665 2.64578C3.61342 1.04207 4.64195 0 6.24566 0C8.23507 0 10.2245 0 12.2139 0C13.7905 0 14.8326 1.04207 14.8326 2.61871C14.8326 7.13886 14.8326 11.659 14.8326 16.1792C14.8326 16.2265 14.8326 16.2671 14.8326 16.3145C14.8123 16.7679 14.5619 17.0588 14.1762 17.0724C13.777 17.0791 13.4928 16.7746 13.486 16.301C13.486 14.4604 13.486 12.6199 13.486 10.7793C13.486 8.0862 13.486 5.39306 13.486 2.69991C13.486 1.77287 13.0665 1.36011 12.1462 1.36011C10.1839 1.36011 8.2283 1.36011 6.26596 1.36011C5.39306 1.36011 4.95999 1.78641 4.95999 2.64578C4.95999 4.59459 4.95999 6.53663 4.95999 8.48544C4.95999 8.60047 4.95999 8.70874 4.95999 8.82377C5.00059 8.85084 5.04119 8.87114 5.08179 8.8982C5.24419 8.70874 5.39306 8.5125 5.56899 8.33657C5.89379 8.0253 6.28626 8.01853 6.5637 8.30274C6.8276 8.5734 6.8276 8.95911 6.52986 9.26361C5.95469 9.85231 5.37276 10.441 4.78406 11.0094C4.45925 11.3274 4.11415 11.3274 3.78935 11.0094C3.19388 10.441 2.61871 9.85231 2.04354 9.26361C1.74581 8.95234 1.73904 8.5734 2.00294 8.30274C2.27361 8.01177 2.66608 8.01853 2.99765 8.32304C3.18035 8.4922 3.34275 8.68167 3.51192 8.86437L3.61342 8.817H3.60665Z" fill="#5A6B7C"/>
<path d="M1.57667 18.5473C3.11948 20.2593 5.40662 20.2863 6.96973 18.5676C7.92383 19.2037 8.4584 20.0766 8.54637 21.2269C8.57343 21.572 8.5599 21.9171 8.54637 22.2554C8.53283 22.7223 8.28923 22.9862 7.82233 22.993C5.46075 22.9998 3.09918 22.993 0.730832 22.993C0.351897 22.993 0.0609293 22.8035 0.0270958 22.4314C-0.067638 21.2607 -0.00673768 20.1172 0.859399 19.1901C1.06917 18.9601 1.31953 18.7706 1.5699 18.5405L1.57667 18.5473Z" fill="#5A6B7C"/>
<path d="M16.0371 18.5477C17.634 20.3071 19.9279 20.2394 21.4301 18.568C22.3842 19.2041 22.9188 20.077 23.0068 21.2206C23.0338 21.5657 23.0203 21.9108 23.0068 22.2491C22.9932 22.7228 22.7496 22.9867 22.2895 22.9867C19.9279 22.9934 17.5663 22.9867 15.198 22.9867C14.8191 22.9867 14.5281 22.7972 14.4943 22.425C14.3928 21.2544 14.4604 20.1108 15.3266 19.1838C15.5363 18.9537 15.7867 18.7642 16.0371 18.5342V18.5477Z" fill="#5A6B7C"/>
<path d="M12.1259 3.59326V4.93983C11.6726 4.93983 11.2327 4.93983 10.7861 4.93983C9.98091 4.9466 9.54107 5.38644 9.54107 6.19844C9.54107 9.49382 9.54107 12.7824 9.54107 16.0778C9.54107 16.2267 9.5546 16.3823 9.52077 16.5244C9.4328 16.8695 9.20274 17.0725 8.8441 17.059C8.50577 17.0522 8.28923 16.8492 8.20803 16.5244C8.1742 16.3959 8.18773 16.2537 8.18773 16.1252C8.18773 12.8501 8.18773 9.56825 8.18773 6.29317C8.18773 4.6218 9.20274 3.60003 10.8606 3.59326C11.2666 3.59326 11.6658 3.59326 12.1192 3.59326H12.1259Z" fill="#ECB6C3"/>
<path d="M18.067 8.80327C18.067 7.8627 18.0873 6.92213 18.0603 5.98833C18.0467 5.41992 17.5866 4.98685 17.0182 4.95302C16.7678 4.93272 16.5107 4.95302 16.2197 4.95302V3.66058C17.9317 3.26811 19.4068 4.42522 19.4204 6.18456C19.4204 7.06423 19.4204 7.93713 19.4204 8.8168C19.461 8.84387 19.4948 8.87094 19.5354 8.89124C19.7113 8.695 19.867 8.48524 20.0564 8.3093C20.3677 8.0251 20.7534 8.0251 21.0173 8.29577C21.2812 8.56644 21.2947 8.95214 20.997 9.25664C20.4151 9.85888 19.8264 10.4543 19.2174 11.0295C18.9129 11.3272 18.5678 11.3205 18.2565 11.0227C17.6543 10.4408 17.0588 9.85211 16.4836 9.24987C16.1927 8.94537 16.2062 8.5529 16.4836 8.289C16.7543 8.0251 17.1332 8.0251 17.4445 8.31607C17.6272 8.492 17.7761 8.695 17.9385 8.89124C17.9791 8.86417 18.0264 8.8371 18.067 8.81004V8.80327Z" fill="#ECB6C3"/>
<path d="M6.2998 16.5245C6.2795 17.6343 5.3457 18.5342 4.22919 18.5072C3.11946 18.4801 2.22625 17.5463 2.26009 16.4298C2.28715 15.3403 3.20742 14.4539 4.30363 14.4674C5.42013 14.481 6.31334 15.408 6.2998 16.5245Z" fill="#ECB6C3"/>
<path d="M20.767 16.4905C20.767 17.607 19.8468 18.5137 18.7303 18.5069C17.6138 18.5002 16.7138 17.5731 16.7273 16.4566C16.7409 15.3604 17.6408 14.4672 18.7438 14.4604C19.8603 14.4604 20.7738 15.3672 20.7738 16.4837L20.767 16.4905Z" fill="#5A6B7C"/>
</g>
<defs>
<clipPath id="clip0_373_31491">
<rect width="23.0203" height="23" fill="white"/>
</clipPath>
</defs>
</svg>
