<svg width="24" height="23" viewBox="0 0 24 23" fill="none" xmlns="http://www.w3.org/2000/svg">
<path d="M12.2385 -5.80916e-05C18.5994 0.0358794 23.7385 5.24682 23.7026 11.6078C23.6307 17.9328 18.3838 23.0718 12.0229 22.9999C5.76975 22.9281 0.666626 17.789 0.666626 11.4999C0.666626 5.139 5.87756 -0.0359956 12.2385 -5.80916e-05ZM12.2744 21.7421C17.9526 21.6703 22.5166 17.0343 22.4447 11.3562C22.3369 5.74994 17.7729 1.25775 12.1666 1.25775C6.4885 1.25775 1.8885 5.89369 1.92444 11.5359C1.96038 17.214 6.59631 21.814 12.2744 21.7421Z" fill="#ECB6C3"/>
<path d="M17.5931 18.5437C17.5572 18.0406 17.5213 17.5734 17.4853 17.1422C17.3056 14.95 16.2635 13.9437 14.0353 13.8359C12.9572 13.8 11.8791 13.8 10.801 13.8359C8.03377 13.8718 7.02752 14.8422 6.88377 17.5734C6.88377 17.8609 6.84783 18.1484 6.81189 18.4718C4.08064 17.0343 2.49939 13.0453 3.29002 9.63122C4.18845 5.6781 7.60252 2.69529 11.4838 2.47966C15.7603 2.2281 19.4619 4.70779 20.7916 8.66091C22.0135 12.3984 20.7556 16.3875 17.5931 18.5437ZM12.2025 5.71404C10.4416 5.71404 8.96814 7.15154 9.04002 8.87654C9.07595 10.5297 10.4775 11.8953 12.1666 11.8953C13.9275 11.8953 15.401 10.4578 15.3291 8.73279C15.2931 7.07966 13.8916 5.71404 12.2025 5.71404Z" fill="#43505F"/>
<path d="M12.2026 5.71402C13.8917 5.71402 15.2932 7.07965 15.3292 8.73277C15.3651 10.4578 13.8917 11.8953 12.1667 11.8953C10.4776 11.8953 9.07606 10.5296 9.04012 8.87652C8.96825 7.15152 10.4417 5.67809 12.2026 5.71402Z" fill="white"/>
</svg>
