<svg width="24" height="23" viewBox="0 0 24 23" fill="none" xmlns="http://www.w3.org/2000/svg">
<path d="M12.5454 23.0001C6.00785 23.0217 0.980646 18.5338 0.398095 12.7515C-0.249185 6.32184 4.21704 0.77681 10.6251 0.0648029C10.9056 0.0432269 11.1645 0.0216509 11.445 7.49223e-05C11.7902 -0.0215011 12.0276 0.129531 12.157 0.431595C12.2865 0.77681 12.1354 1.03572 11.8765 1.25148C11.3371 1.70458 10.7546 2.11452 10.3015 2.65392C8.40279 4.87625 7.97127 7.42221 9.05007 10.1192C10.1073 12.8162 12.1786 14.3913 15.0698 14.7365C17.9609 15.0601 20.2264 13.9382 21.9525 11.6295C22.1035 11.4138 22.3409 11.198 22.5998 11.1333C23.0313 11.0254 23.3549 11.3922 23.3334 11.91C23.2471 13.6361 22.8371 15.2974 22.0172 16.8078C19.8165 20.8209 16.3643 22.8059 12.5454 23.0001Z" fill="#43505F"/>
<path d="M18.1336 2.65381C17.8531 2.65381 17.5726 2.65381 17.2921 2.65381C16.8175 2.63224 16.5586 2.3949 16.537 1.98496C16.537 1.59659 16.7959 1.3161 17.2706 1.29453C18.1336 1.27295 18.9751 1.25137 19.8381 1.3161C20.0754 1.33768 20.3775 1.51029 20.507 1.72604C20.6796 1.98496 20.5501 2.28702 20.3128 2.52436C19.8597 2.97745 19.385 3.40897 18.9319 3.86207C18.9535 3.90522 18.9535 3.94837 18.9751 3.99152C19.2556 3.99152 19.5145 3.99152 19.795 3.99152C20.2912 4.0131 20.5933 4.25044 20.5933 4.66038C20.5933 5.07032 20.3128 5.32923 19.8165 5.35081C18.9967 5.37239 18.1768 5.35081 17.3569 5.35081C17.0332 5.35081 16.7527 5.26451 16.6233 4.94087C16.4938 4.61723 16.6017 4.33674 16.8606 4.0994C17.3137 3.66788 17.7668 3.23636 18.2199 2.80484C18.1768 2.74012 18.1552 2.69696 18.1336 2.65381Z" fill="#ECB6C3"/>
<path d="M12.7611 8.04801C12.4591 8.04801 12.1786 8.06958 11.8765 8.04801C11.4234 8.02643 11.1429 7.74594 11.1645 7.35758C11.1861 6.99078 11.445 6.7103 11.8765 6.7103C12.7395 6.68872 13.6242 6.66714 14.4872 6.73187C14.7245 6.75345 15.0482 6.96921 15.1345 7.16339C15.2208 7.35758 15.0913 7.72437 14.9403 7.91855C14.5303 8.39322 14.0341 8.82474 13.581 9.27784C13.581 9.32099 13.6026 9.36414 13.6026 9.40729C13.8615 9.40729 14.142 9.40729 14.4009 9.40729C14.9187 9.42887 15.2208 9.68778 15.1992 10.0977C15.1776 10.5077 14.8971 10.745 14.4009 10.745C13.6026 10.745 12.7827 10.745 11.9844 10.745C11.6607 10.745 11.3803 10.6587 11.2508 10.3351C11.1213 10.0114 11.2292 9.73093 11.4666 9.4936C11.9197 9.06208 12.3727 8.60898 12.8258 8.17746C12.7827 8.13431 12.7611 8.09116 12.7611 8.04801Z" fill="#ECB6C3"/>
</svg>
