<svg width="25" height="23" viewBox="0 0 25 23" fill="none" xmlns="http://www.w3.org/2000/svg">
<path d="M16.801 21.6269C13.8487 23.4806 8.83678 23.6866 5.06066 20.803C1.21588 17.9194 -0.294564 12.8388 1.3532 8.3761C3.13827 3.57013 7.66961 1.16715 11.583 1.23581C11.583 1.44178 11.583 1.57909 11.583 1.78506C11.583 5.08058 11.583 8.30745 11.583 11.603C11.583 11.8776 11.6517 12.2209 11.789 12.4955C13.3681 15.3791 14.9472 18.2627 16.5263 21.0776C16.595 21.2836 16.7323 21.4209 16.801 21.6269Z" fill="#43505F"/>
<path d="M12.8188 10.7791C12.8188 7.14033 12.8188 3.57018 12.8188 3.12366e-05C17.5562 -0.343252 23.6666 3.91346 23.6666 10.7791C20.0278 10.7791 16.4577 10.7791 12.8188 10.7791Z" fill="#5A6B7C"/>
<path d="M24.0786 12.2896C24.3532 15.791 21.6756 20.2537 18.4487 21.7642C16.7323 18.606 15.0159 15.5164 13.2308 12.2896C16.8696 12.2896 20.4398 12.2896 24.0786 12.2896Z" fill="#ECB6C3"/>
</svg>
