<svg width="25" height="23" viewBox="0 0 25 23" fill="none" xmlns="http://www.w3.org/2000/svg">
<g clip-path="url(#clip0_373_31272)">
<path d="M13.5912 2.71208C13.5912 3.39015 13.616 4.06327 13.5813 4.73639C13.5615 5.1175 13.71 5.19174 14.0416 5.20659C15.8482 5.27093 17.5607 5.72133 19.1247 6.62707C22.2973 8.46826 24.1088 11.1756 24.0692 14.9174C24.0444 17.4713 22.8714 19.5649 21.0946 21.3417C20.5402 21.8961 19.9216 22.3762 19.2781 22.8266C19.0901 22.9602 18.902 23.0146 18.6793 22.9998C18.4813 22.9849 18.313 22.9156 18.2289 22.7276C18.1398 22.5296 18.2388 22.3712 18.3773 22.2326C18.7634 21.8565 19.1247 21.4605 19.4217 21.0101C20.951 18.7235 20.3373 16.0805 17.917 14.5363C16.6945 13.7592 15.3384 13.4276 13.908 13.3484C13.6308 13.3336 13.5813 13.4325 13.5863 13.68C13.5962 15.0609 13.5912 16.4418 13.5863 17.8276C13.5863 18.0553 13.6209 18.2978 13.3685 18.4364C13.0913 18.5898 12.9033 18.4018 12.7102 18.2632C8.7606 15.4272 4.8159 12.5862 0.871207 9.75016C0.376264 9.39381 0.376264 9.16613 0.871207 8.80482C4.82085 5.94405 8.77545 3.08328 12.7251 0.227462C12.9082 0.0938269 13.0765 -0.0843526 13.3438 0.049282C13.6209 0.187866 13.5912 0.445236 13.5912 0.687758C13.5912 1.36583 13.5912 2.03895 13.5912 2.71702V2.71208Z" fill="#5A6B7C"/>
</g>
<defs>
<clipPath id="clip0_373_31272">
<rect width="23.5692" height="23" fill="white" transform="translate(0.5)"/>
</clipPath>
</defs>
</svg>
