<svg width="23" height="23" viewBox="0 0 23 23" fill="none" xmlns="http://www.w3.org/2000/svg">
<g clip-path="url(#clip0_373_31520)">
<path d="M4.94141 16.1788C3.35186 16.1788 1.86599 16.1788 0.373197 16.1788C0.0414664 16.1788 0.0207332 16.006 0.0207332 15.7503C0.0207332 14.6653 0.0207332 13.5733 0.0207332 12.4883C0.0138221 8.54207 0.0207332 4.58203 0 0.621995C0 0.152043 0.0898438 0 0.601262 0C2.9372 0.0276442 5.28005 0.0207332 7.61599 0C7.94772 0 8.21725 0.0552885 8.41767 0.331731C8.46605 0.39393 8.53516 0.449219 8.59045 0.504507C9.20553 1.10577 9.72386 1.92819 10.4633 2.23918C11.1821 2.54327 12.1151 2.3152 12.9582 2.32212C15.4186 2.32212 17.8789 2.32212 20.3462 2.32212C20.6572 2.32212 20.8161 2.34285 20.8161 2.72987C20.8023 7.03546 20.8092 11.348 20.8023 15.6535C20.8023 15.6881 20.7746 15.7227 20.7332 15.8401C20.2563 15.3564 19.814 14.8933 19.3441 14.451C19.0607 14.1884 19.2888 13.9465 19.3441 13.7185C20.5189 9.47506 18.0862 5.04507 13.8912 3.80108C10.6845 2.84736 7.22897 3.96004 5.19021 6.58624C3.13762 9.23317 2.93029 12.7993 4.65805 15.695C4.73408 15.8194 4.80319 15.9438 4.9345 16.1719L4.94141 16.1788Z" fill="#5A6B7C"/>
<path d="M11.5829 5.77783C15.9093 5.78474 18.7013 10.4082 16.6557 14.2301C16.4276 14.6585 16.4829 14.8659 16.8077 15.1838C18.7843 17.1258 20.7194 19.1024 22.6959 21.0374C23.076 21.4037 23.0622 21.6111 22.6752 21.9221C22.3573 22.1778 22.067 22.4749 21.8044 22.7929C21.5556 23.09 21.3967 23.0486 21.1409 22.7929C19.1506 20.7817 17.1394 18.7983 15.1491 16.7802C14.8381 16.4623 14.6238 16.4416 14.2368 16.6489C12.0875 17.8031 9.55801 17.4852 7.71967 15.8611C5.95044 14.2992 5.32153 11.749 6.15777 9.52363C7.00092 7.28444 9.18481 5.77783 11.576 5.78474L11.5829 5.77783ZM15.0247 11.59C15.0385 9.64803 13.518 8.09995 11.5899 8.09304C9.6755 8.09304 8.13433 9.60656 8.12051 11.5002C8.10669 13.4353 9.64094 14.9972 11.5622 15.011C13.4558 15.0248 15.0108 13.4837 15.0316 11.59H15.0247Z" fill="#ECB6C3"/>
</g>
<defs>
<clipPath id="clip0_373_31520">
<rect width="22.9724" height="23" fill="white"/>
</clipPath>
</defs>
</svg>
