<svg width="23" height="23" viewBox="0 0 23 23" fill="none" xmlns="http://www.w3.org/2000/svg">
<g clip-path="url(#clip0_373_31374)">
<path d="M11.5029 5.42938C12.0134 5.42938 12.5238 5.45258 13.0285 5.42358C13.4055 5.40038 13.5912 5.48159 13.5274 5.90504C13.4867 6.18348 13.5216 6.47352 13.5216 6.75775C13.5216 7.48285 13.9682 7.73808 14.6063 7.37263C14.8905 7.21021 15.1922 7.06519 15.459 6.87957C15.7026 6.70555 15.7955 6.78676 15.9231 7.01299C16.4683 7.99331 17.031 8.96204 17.6053 9.92497C17.7503 10.1628 17.7213 10.2788 17.4777 10.4006C17.147 10.5689 16.8338 10.7835 16.5031 10.9517C16.2653 11.0677 16.2131 11.2185 16.2073 11.4738C16.1957 11.7928 16.3001 11.9494 16.567 12.1003C16.9672 12.3265 17.5995 12.4541 17.6749 12.8369C17.7387 13.1734 17.2978 13.6084 17.0774 13.9971C16.6888 14.67 16.2943 15.3371 15.9173 16.0216C15.8013 16.2362 15.7026 16.2884 15.4822 16.1434C15.198 15.952 14.8905 15.7953 14.5889 15.6271C13.9856 15.2791 13.5332 15.5401 13.5274 16.2362C13.5274 16.5784 13.5158 16.9265 13.5274 17.2687C13.539 17.495 13.4751 17.5878 13.2257 17.582C12.0714 17.5704 10.917 17.5704 9.76266 17.582C9.51323 17.582 9.46102 17.4834 9.46683 17.2629C9.47843 16.9323 9.44362 16.6016 9.47843 16.2768C9.51903 15.8939 9.39142 15.6677 9.04337 15.5053C8.86935 15.4241 8.75913 15.4125 8.60251 15.5053C8.24867 15.7257 7.87742 15.9229 7.51777 16.1376C7.33795 16.2478 7.23353 16.2826 7.10592 16.0506C6.53744 15.0296 5.95157 14.0203 5.35989 13.0168C5.24968 12.8253 5.27288 12.7383 5.4585 12.6397C5.76014 12.4831 6.05598 12.2975 6.35182 12.1235C6.9783 11.758 6.9841 11.2301 6.36922 10.8705C6.05598 10.6907 5.75434 10.505 5.4353 10.3368C5.26128 10.244 5.24968 10.157 5.35409 9.98877C5.95157 8.96784 6.54324 7.94691 7.12332 6.92018C7.23934 6.71135 7.34375 6.74615 7.50617 6.84477C7.86582 7.06519 8.22546 7.26822 8.59091 7.47125C8.94476 7.66847 9.46103 7.37263 9.47263 6.96658C9.47843 6.57793 9.49003 6.18928 9.47263 5.80063C9.45522 5.51059 9.53643 5.40038 9.84387 5.41778C10.3949 5.44098 10.9518 5.42358 11.5087 5.42358L11.5029 5.42938ZM11.4507 13.5156C12.5528 13.5562 13.4577 12.7093 13.5158 11.584C13.568 10.4586 12.7094 9.51891 11.5841 9.47831C10.4646 9.4377 9.52483 10.3136 9.48423 11.4332C9.44362 12.5469 10.3253 13.475 11.4565 13.5156H11.4507Z" fill="#5A6B7C"/>
<path d="M20.1344 3.92729C20.1344 3.56184 20.146 3.2486 20.1344 2.93536C20.1286 2.74974 20.1751 2.64532 20.3781 2.68013C20.3955 2.68013 20.4071 2.68013 20.4245 2.68013C21.1631 2.65306 21.5324 3.0069 21.5324 3.74167C21.5324 4.61178 21.5266 5.48189 21.5324 6.35201C21.5324 6.61884 21.5034 6.74646 21.1786 6.74066C20.0822 6.71745 18.9917 6.72325 17.8954 6.74066C17.6459 6.74066 17.5647 6.68265 17.5589 6.42162C17.5415 5.38328 17.5299 5.38328 18.5624 5.38328C18.8641 5.38328 19.1599 5.38328 19.4558 5.38328C19.5428 5.26726 19.4384 5.20926 19.3861 5.15125C16.7352 2.04204 13.394 0.818085 9.36244 1.57218C9.0376 1.63019 8.92738 1.58379 8.85197 1.25314C8.62574 0.301818 8.60834 0.301818 9.55387 0.156799C13.6028 -0.463882 17.0194 0.754277 19.856 3.67786C19.9198 3.74167 19.9778 3.81128 20.0416 3.87508C20.0474 3.88669 20.0648 3.88669 20.1344 3.92729Z" fill="#ECB6C3"/>
<path d="M3.88645 2.86576C3.60221 2.86576 3.30637 2.84255 3.01634 2.87156C2.7205 2.90056 2.67989 2.78455 2.67989 2.51771C2.67989 1.46777 2.66829 1.46777 3.71243 1.46777C4.61154 1.46777 5.51066 1.47357 6.40978 1.46777C6.65921 1.46777 6.74042 1.52578 6.74042 1.78681C6.72302 2.89476 6.72302 4.0027 6.74042 5.11065C6.74042 5.37168 6.65921 5.42969 6.40978 5.43549C5.38304 5.45289 5.38304 5.45869 5.38304 4.42036C5.38304 4.11872 5.38304 3.82288 5.38304 3.53284C5.26123 3.44003 5.20902 3.55024 5.15101 3.59665C2.04181 6.2592 0.82365 9.59463 1.57195 13.6262C1.63576 13.98 1.56035 14.0844 1.2239 14.1598C0.301582 14.3803 0.301582 14.3977 0.156563 13.4579C-0.464117 9.39741 0.754041 5.96916 3.70083 3.13259C3.76463 3.06878 3.83424 3.01077 3.89805 2.94697C3.89805 2.94697 3.89805 2.92376 3.88645 2.86576Z" fill="#5A6B7C"/>
<path d="M19.0264 20.1344C19.4441 20.1344 19.7515 20.146 20.0648 20.1344C20.2562 20.1228 20.3084 20.1866 20.32 20.3838C20.3838 21.5324 20.3896 21.5324 19.2527 21.5324C18.3825 21.5324 17.5124 21.5266 16.6481 21.5324C16.3813 21.5324 16.2537 21.5034 16.2595 21.1785C16.2827 20.0996 16.2769 19.0206 16.2595 17.9417C16.2595 17.7039 16.2943 17.611 16.5669 17.6052C17.611 17.5936 17.611 17.582 17.611 18.6378V19.4789C17.7851 19.5253 17.8431 19.3977 17.9243 19.3281C20.9929 16.6539 22.182 13.3185 21.4105 9.31017C21.3583 9.03173 21.3931 8.88091 21.7006 8.86351C21.776 8.86351 21.8456 8.8229 21.9152 8.8055C22.6867 8.60827 22.6925 8.60827 22.8201 9.42038C23.4756 13.5447 22.2632 17.0368 19.2527 19.9139C19.2004 19.9662 19.1482 20.0126 19.0206 20.1344H19.0264Z" fill="#5A6B7C"/>
<path d="M2.80752 19.1369C2.80752 19.4444 2.79592 19.7576 2.80752 20.0651C2.81912 20.2623 2.74372 20.3087 2.55229 20.3203C1.42114 20.3899 1.42114 20.3957 1.42114 19.2878C1.42114 18.3886 1.42694 17.4895 1.42114 16.5904C1.42114 16.3468 1.47335 16.2598 1.73438 16.2598C2.85973 16.2772 3.98508 16.2714 5.10462 16.2598C5.31345 16.2598 5.37726 16.3062 5.38886 16.5266C5.42947 17.6113 5.44107 17.6113 4.35052 17.6113C4.06629 17.6113 3.78785 17.6113 3.50361 17.6113C3.46301 17.8028 3.60803 17.8724 3.68344 17.9594C6.33438 20.9816 9.63501 22.1591 13.5911 21.4282C13.9682 21.3586 14.0784 21.434 14.1596 21.7879C14.3742 22.6986 14.3916 22.6928 13.4809 22.832C9.40298 23.4643 5.95153 22.2519 3.08016 19.311C3.01055 19.2414 2.97575 19.1311 2.79592 19.1311L2.80752 19.1369Z" fill="#ECB6C3"/>
</g>
<defs>
<clipPath id="clip0_373_31374">
<rect width="23" height="23" fill="white"/>
</clipPath>
</defs>
</svg>
