<svg width="23" height="23" viewBox="0 0 23 23" fill="none" xmlns="http://www.w3.org/2000/svg">
<path d="M2.8739 2.90984C2.8739 3.29602 2.8739 3.65526 2.8739 4.01449C2.88288 5.53226 3.96059 6.68181 5.47835 6.70875C7.25657 6.74467 9.04376 6.74467 10.822 6.70875C12.3218 6.67283 13.3815 5.55022 13.3995 4.04143C13.4085 3.67322 13.3995 3.29602 13.3995 2.93679C14.7107 2.72124 16.0937 3.7271 16.2285 5.07423C16.3272 6.08009 16.2464 7.10391 16.2464 8.12773C15.7525 8.19957 15.2675 8.25346 14.7825 8.35225C14.3874 8.43308 13.9743 8.50492 13.624 8.69352C12.8606 9.08868 12.0613 9.1246 11.2351 9.11562C8.79229 9.09766 6.35848 9.10664 3.91568 9.10664C3.72708 9.10664 3.52052 9.10664 3.34091 9.16951C3.00861 9.28626 2.829 9.5467 2.8739 9.89696C2.90983 10.2472 3.12537 10.4717 3.47562 10.5166C3.61931 10.5346 3.77199 10.5346 3.92466 10.5346C5.96332 10.5346 7.993 10.5346 10.0317 10.5346C10.1933 10.5346 10.355 10.5346 10.5705 10.5346C10.1484 11.1004 9.77121 11.6213 9.36707 12.1242C9.29522 12.214 9.09764 12.214 8.95395 12.214C7.18472 12.223 5.42447 12.214 3.65524 12.223C3.17027 12.223 2.85594 12.5284 2.85594 12.9505C2.86492 13.3546 3.17027 13.633 3.62829 13.6599C3.73607 13.6689 3.83485 13.6599 3.94263 13.6599C5.3167 13.6599 6.69975 13.6599 8.07382 13.6599C8.23548 13.6599 8.39713 13.6599 8.59471 13.6599C8.45102 14.2257 8.32529 14.7556 8.17261 15.3483C8.02892 15.3483 7.86726 15.3483 7.70561 15.3483C6.42134 15.3483 5.1281 15.3483 3.84384 15.3483C3.18823 15.3483 2.85594 15.5908 2.84696 16.0489C2.83798 16.5159 3.20619 16.7853 3.87078 16.7853C5.11014 16.7853 6.35848 16.7853 7.59784 16.7853C7.75949 16.7853 7.92115 16.7853 8.00198 16.7853C8.2714 17.9259 8.52287 19.0125 8.78331 20.1172C8.70248 20.1172 8.55879 20.1351 8.42408 20.1351C6.5381 20.1351 4.65211 20.1351 2.76613 20.1351C1.12263 20.1262 2.42116e-05 19.0125 2.42116e-05 17.3511C2.42116e-05 13.4175 -0.00895666 9.47486 2.42116e-05 5.54124C0.00900508 3.9606 1.28429 2.78411 2.8739 2.90984Z" fill="#43505F"/>
<path d="M23 16.5427C23 20.1171 20.0723 23.009 16.4979 23C12.9504 22.991 10.0586 20.0812 10.0586 16.5248C10.0586 12.9504 12.9774 10.0585 16.5607 10.0675C20.1082 10.0765 23 12.9863 23 16.5427ZM15.483 17.0995C15.0879 16.6685 14.7376 16.2643 14.3604 15.8871C13.9383 15.474 13.3815 15.474 12.9953 15.8512C12.6092 16.2284 12.5912 16.7942 12.9953 17.2163C13.615 17.8629 14.2527 18.5006 14.8993 19.1202C15.3393 19.5334 15.8692 19.5064 16.2913 19.0753C16.5607 18.7969 16.8122 18.4916 17.0637 18.2042C17.9079 17.2343 18.7611 16.2733 19.6053 15.2944C19.9825 14.8543 19.9645 14.2885 19.5783 13.9203C19.1832 13.5521 18.6174 13.5701 18.2132 13.9832C18.0336 14.1628 17.8719 14.3604 17.7103 14.558C16.9918 15.3752 16.2734 16.1925 15.483 17.0995Z" fill="#ECB6C3"/>
<path d="M8.13669 5.75676C7.2835 5.75676 6.43032 5.76575 5.57714 5.75676C4.55332 5.74778 3.86179 5.05626 3.84383 4.04142C3.83485 3.61034 3.83485 3.17027 3.84383 2.73919C3.85281 2.20034 4.11326 1.89499 4.63415 1.93092C5.27179 1.97582 5.62204 1.7962 5.98128 1.19448C7.02306 -0.529842 9.61853 -0.350225 10.4897 1.48187C10.6693 1.85009 10.8579 1.96684 11.2351 1.92193C11.3788 1.90397 11.5315 1.91295 11.6841 1.92193C12.1601 1.94888 12.4385 2.20932 12.4565 2.67633C12.4744 3.17027 12.4834 3.66422 12.4475 4.15817C12.3757 5.11014 11.6841 5.74778 10.7322 5.75676C9.86999 5.76575 8.99885 5.75676 8.13669 5.75676Z" fill="#43505F"/>
</svg>
