<svg width="24" height="23" viewBox="0 0 24 23" fill="none" xmlns="http://www.w3.org/2000/svg">
<path d="M0.5 12.5621C0.5 11.8312 0.5 11.1688 0.5 10.4608C1.20804 10.4608 1.91609 10.4608 2.60129 10.4608C3.46922 5.73287 6.25571 2.96922 10.9608 2.07845C10.9608 1.39325 10.9608 0.708044 10.9608 0C11.6688 0 12.354 0 13.0621 0C13.0621 0.708044 13.0621 1.39325 13.0621 2.07845C17.79 2.94638 20.5536 5.71003 21.4444 10.4379C22.1068 10.4379 22.8148 10.4379 23.5228 10.4379C23.5228 11.1688 23.5228 11.8312 23.5228 12.5392C22.8148 12.5392 22.1296 12.5392 21.4444 12.5392C20.5536 17.2671 17.79 20.0308 13.0849 20.9215C13.0849 21.6068 13.0849 22.292 13.0849 23C12.3769 23 11.6917 23 10.9836 23C10.9836 22.292 10.9836 21.6068 10.9836 20.9215C6.27855 20.0536 3.49206 17.29 2.60129 12.5621C1.93893 12.5621 1.23088 12.5621 0.5 12.5621ZM12.0343 18.8431C16.0998 18.8431 19.3659 15.5541 19.3659 11.5114C19.3659 7.44588 16.077 4.17974 12.0343 4.17974C7.96872 4.17974 4.70258 7.46872 4.70258 11.5114C4.70258 15.577 7.96872 18.8431 12.0343 18.8431Z" fill="#43505F"/>
<path d="M12.0114 7.30884C14.3182 7.30884 16.2368 9.20457 16.2139 11.5114C16.1911 13.8183 14.3411 15.6912 12.0342 15.6912C9.72735 15.6912 7.80878 13.7954 7.83162 11.4886C7.83162 9.18173 9.70451 7.30884 12.0114 7.30884Z" fill="#ECB6C3"/>
</svg>
