<svg width="18" height="23" viewBox="0 0 18 23" fill="none" xmlns="http://www.w3.org/2000/svg">
<g clip-path="url(#clip0_296_15916)">
<path d="M9.02709 23C4.21238 22.987 0.256506 19.0441 0.25 14.2424C0.25 12.8566 0.633876 11.5553 1.38861 10.4232C2.39059 8.92023 3.47716 7.47582 4.59625 6.05093C6.00163 4.26168 7.43303 2.49845 8.46103 0.455452C8.75382 -0.123615 9.32638 -0.156147 9.61917 0.396895C10.953 2.88233 12.8268 4.96436 14.5315 7.17653C15.2667 8.12646 15.9694 9.11542 16.607 10.1369C19.5674 14.8801 16.8412 20.417 12.5991 22.2518C11.4605 22.7463 10.2698 23 9.02709 23ZM12.2217 10.8461C12.0591 10.677 11.8899 10.3712 11.7467 10.3842C11.4735 10.4037 11.1091 10.5338 10.966 10.7485C9.3459 13.0713 7.75835 15.4136 6.15778 17.7494C5.91704 18.1007 5.7739 18.4521 6.18381 18.7514C6.63274 19.0767 6.91902 18.7774 7.16627 18.4195C8.75382 16.0968 10.3414 13.774 11.9224 11.4512C12.033 11.2886 12.1046 11.0999 12.2282 10.8526L12.2217 10.8461ZM14.2907 16.2985C14.3037 15.1273 13.3864 14.1904 12.2087 14.1774C11.0245 14.1709 10.0941 15.0753 10.0811 16.2529C10.0681 17.4175 11.005 18.374 12.1632 18.3935C13.3148 18.4065 14.2712 17.4631 14.2907 16.2985ZM5.93006 15.0557C7.10771 15.0492 8.02511 14.1123 8.01209 12.9347C7.99908 11.77 7.03614 10.8266 5.89102 10.8396C4.73289 10.8526 3.79597 11.8156 3.80898 12.9737C3.82199 14.1514 4.7524 15.0557 5.93006 15.0492V15.0557Z" fill="#5A6B7C"/>
<path d="M12.2217 10.8396C12.0981 11.0868 12.0265 11.2755 11.9159 11.4382C10.3348 13.761 8.74728 16.0837 7.15973 18.4065C6.91249 18.7644 6.62621 19.0702 6.17727 18.7383C5.76737 18.439 5.91701 18.0877 6.15124 17.7364C7.75181 15.4006 9.33936 13.0518 10.9594 10.7355C11.1091 10.5273 11.4669 10.3972 11.7402 10.3711C11.8834 10.3581 12.0525 10.6639 12.2152 10.8331L12.2217 10.8396Z" fill="#ECB6C3"/>
<path d="M14.2973 16.2919C14.2843 17.4566 13.3213 18.4 12.1697 18.387C11.0116 18.374 10.0812 17.411 10.0877 16.2464C10.1007 15.0752 11.0311 14.1644 12.2153 14.1709C13.3929 14.1774 14.3103 15.1208 14.2973 16.2919ZM13.0871 16.2464C13.0741 15.7324 12.6577 15.355 12.1372 15.381C11.6492 15.4071 11.2849 15.8105 11.2979 16.2984C11.3109 16.7734 11.7208 17.1768 12.1892 17.1833C12.6837 17.1833 13.1001 16.7474 13.0871 16.2464Z" fill="#ECB6C3"/>
<path d="M5.93652 15.0427C4.75236 15.0492 3.82195 14.1448 3.81544 12.9672C3.80243 11.8025 4.73935 10.8461 5.89748 10.8331C7.0491 10.8201 8.00554 11.7635 8.01855 12.9281C8.03157 14.0993 7.11417 15.0362 5.93652 15.0492V15.0427ZM5.93652 13.839C6.431 13.8325 6.80837 13.4552 6.81488 12.9607C6.82138 12.4597 6.39847 12.0303 5.90398 12.0368C5.43553 12.0498 5.03213 12.4597 5.02563 12.9281C5.01912 13.4421 5.41601 13.839 5.93652 13.8325V13.839Z" fill="#ECB6C3"/>
<path d="M13.0871 16.2399C13.1001 16.7409 12.6837 17.1768 12.1892 17.1768C11.7207 17.1768 11.3108 16.7669 11.2978 16.2919C11.2848 15.804 11.6492 15.4006 12.1371 15.3745C12.6577 15.342 13.0741 15.7259 13.0871 16.2399Z" fill="#5A6B7C"/>
<path d="M5.93001 13.839C5.4095 13.8455 5.01262 13.4487 5.01912 12.9347C5.02563 12.4597 5.42902 12.0498 5.89748 12.0433C6.38546 12.0303 6.81488 12.4662 6.80837 12.9672C6.80187 13.4617 6.4245 13.839 5.93001 13.8455V13.839Z" fill="#5A6B7C"/>
</g>
<defs>
<clipPath id="clip0_296_15916">
<rect width="17.5932" height="23" fill="white" transform="translate(0.25)"/>
</clipPath>
</defs>
</svg>
