<svg width="23" height="23" viewBox="0 0 23 23" fill="none" xmlns="http://www.w3.org/2000/svg">
<g clip-path="url(#clip0_373_31502)">
<path d="M13.3748 1.29443C14.0965 1.37288 14.7711 1.63959 15.4614 1.8357C15.9478 1.96906 16.4263 2.14164 16.9205 1.85924C17.1009 1.75726 17.1323 1.89846 17.1793 2.00828C17.5637 2.91824 17.9324 3.83604 18.3246 4.73816C18.4109 4.94211 18.3403 5.02056 18.1677 5.07547C17.2656 5.36572 16.6224 6.11879 15.6889 6.3855C15.3202 6.48748 15.0535 6.96599 14.7397 7.27977C14.1984 7.80535 13.6101 7.85241 13.163 7.40528C12.7158 6.95814 12.7629 6.36196 13.2885 5.82854C13.563 5.54614 13.8376 5.26374 14.1278 4.99703C14.3318 4.8166 14.2769 4.72247 14.0886 4.57342C13.4689 4.07138 12.8178 3.91449 12.0255 4.17336C10.9351 4.52636 9.82122 4.80091 8.723 5.11469C8.46413 5.18529 8.19742 5.20883 7.9307 5.20098C7.56986 5.19314 7.24039 5.099 7.06781 4.73816C6.91092 4.393 6.99721 4.06353 7.19332 3.7576C7.31884 3.55364 7.49926 3.38891 7.72675 3.30262C9.33487 2.68291 10.943 2.07104 12.5589 1.45917C12.8257 1.35719 13.1002 1.29443 13.3905 1.29443H13.3748Z" fill="#ECB6C3"/>
<path d="M6.07945 17.1008C5.98531 17.038 5.89118 16.9831 5.79705 16.9282C5.24009 16.5987 4.62822 16.8184 4.5184 17.4381C4.43995 17.8852 4.19677 17.9009 3.85946 17.8931C3.52215 17.8852 3.23975 17.9244 3.1613 17.4302C3.07501 16.8419 2.39254 16.5673 1.91403 16.9282C1.4669 17.2655 1.31001 16.9125 1.06683 16.7007C0.839337 16.4967 0.698137 16.332 0.941316 15.9947C1.31785 15.4613 1.03545 14.8102 0.392202 14.716C-0.0392438 14.6533 -0.0078659 14.3944 0.00782305 14.112C0.023512 13.8296 -0.133377 13.4766 0.368669 13.3903C1.05114 13.2727 1.32569 12.6373 0.925627 12.0803C0.643225 11.6881 0.925627 11.5469 1.12174 11.3508C1.31785 11.1547 1.4669 10.8644 1.85127 11.139C2.41608 11.5312 3.05932 11.2723 3.17699 10.5977C3.24759 10.1584 3.5143 10.2133 3.78886 10.2212C4.07911 10.229 4.40857 10.1035 4.49486 10.5977C4.62037 11.2802 5.24009 11.5233 5.82058 11.1311C6.24418 10.8409 6.36969 11.2017 6.58934 11.39C6.80114 11.5783 7.00509 11.7351 6.74623 12.0881C6.34616 12.6294 6.6364 13.257 7.31887 13.3982C7.59343 13.4531 7.67972 13.5786 7.67187 13.8453C7.65619 14.2689 7.7817 14.6925 7.09923 14.7866C6.58934 14.8572 6.43245 15.5476 6.73054 16.0261C6.81683 16.1673 6.98941 16.3006 6.82467 16.4732C6.60503 16.7085 6.4246 16.9988 6.07945 17.1165V17.1008ZM5.67153 14.065C5.67938 13.0295 4.86355 12.2058 3.83593 12.2058C2.83183 12.2058 2.00816 13.0138 1.99248 14.0179C1.97679 15.0298 2.82399 15.8849 3.83593 15.877C4.84002 15.877 5.66369 15.0612 5.67153 14.0571V14.065Z" fill="#5A6B7C"/>
<path d="M21.8782 10.7942C21.8311 10.8726 21.7605 10.9746 21.6978 11.0766C21.384 11.6179 21.6193 12.2454 22.239 12.3396C22.7175 12.418 22.6548 12.7083 22.6548 13.022C22.6548 13.3358 22.7097 13.6261 22.2233 13.681C21.6429 13.7516 21.3448 14.4419 21.6899 14.9126C22.0351 15.3754 21.6821 15.5323 21.4546 15.7911C21.2349 16.0422 21.0545 16.0971 20.7407 15.8853C20.2308 15.5323 19.5719 15.8068 19.4778 16.4344C19.4072 16.9286 19.1012 16.8423 18.7953 16.8501C18.4972 16.8501 18.2305 16.8972 18.1442 16.4501C18.0187 15.7676 17.4068 15.5323 16.8185 15.9323C16.3949 16.2226 16.2615 15.8617 16.0497 15.6656C15.8615 15.493 15.6418 15.344 15.8772 15.0067C16.2929 14.4183 16.0262 13.7908 15.3281 13.6653C15.0378 13.6104 14.9829 13.477 14.9829 13.2181C14.9829 12.7789 14.8966 12.3709 15.5634 12.2768C16.0497 12.2062 16.2537 11.4924 15.9321 11.0766C15.5791 10.6295 15.9478 10.4804 16.1596 10.2372C16.3635 10.0098 16.5283 9.86855 16.8656 10.1117C17.3755 10.4804 18.0344 10.2216 18.1364 9.60184C18.2227 9.09195 18.5364 9.18608 18.8581 9.17824C19.164 9.1704 19.415 9.14686 19.4856 9.60184C19.5798 10.2137 20.2308 10.449 20.7643 10.1353C21.0859 9.947 21.8547 10.3706 21.8703 10.7864L21.8782 10.7942ZM16.9911 13.0063C16.9911 14.034 17.8304 14.8733 18.8424 14.8576C19.8386 14.842 20.6623 14.0183 20.6701 13.022C20.6701 12.0023 19.8386 11.1786 18.811 11.1864C17.7991 11.1864 16.9911 11.9944 16.9911 13.0063Z" fill="#5A6B7C"/>
<path d="M13.0924 8.17398C13.6102 8.37793 14.0573 8.38578 14.528 8.22104C14.9751 8.06415 15.1634 8.23673 15.179 8.71525C15.1947 9.11531 15.234 9.46047 14.6378 9.54676C14.1122 9.61736 13.8847 10.3312 14.2299 10.794C14.528 11.1941 14.2377 11.351 14.0259 11.5706C13.822 11.7903 13.6572 12.0099 13.2885 11.7432C12.7551 11.3588 12.0962 11.6412 12.002 12.2845C11.9314 12.7395 11.649 12.6846 11.3509 12.6846C11.045 12.6846 10.7312 12.763 10.6606 12.2766C10.5665 11.6412 9.89972 11.3667 9.36629 11.7511C8.98976 12.0256 8.83287 11.7746 8.62891 11.5628C8.44065 11.3588 8.14256 11.2176 8.40927 10.8333C8.81718 10.2449 8.55047 9.65658 7.82878 9.50754C7.39733 9.42125 7.49146 9.12316 7.49146 8.85645C7.49146 8.59758 7.38949 8.2838 7.82093 8.19751C8.574 8.04062 8.80934 7.47582 8.39358 6.84042C8.12687 6.4325 8.48771 6.31484 8.66029 6.11873C8.82502 5.93046 8.97407 5.69512 9.31923 5.92261C9.92325 6.32268 10.4253 6.11872 10.6763 5.4441C10.8411 5.01265 11.2882 5.0911 11.6255 5.02834C11.9157 4.97343 11.8844 5.28721 12.002 5.4441C12.3315 5.89124 12.1825 6.34622 12.1903 6.80904C12.1903 7.09928 12.1668 7.18557 11.8295 7.09144C11.0921 6.88748 10.4253 7.06791 9.91541 7.67193C9.45258 8.22104 9.35845 8.85645 9.61732 9.52323C9.94678 10.3861 10.8489 10.8411 11.7589 10.6371C12.6139 10.441 13.2179 9.60167 13.1395 8.69956C13.1238 8.54267 13.1003 8.39362 13.0767 8.17398H13.0924Z" fill="#5A6B7C"/>
<path d="M5.66373 19.7132C6.18146 20.5683 6.96591 21.1096 7.84449 21.5018C10.3155 22.6157 12.8022 22.6 15.2732 21.5018C16.4263 20.9919 17.352 20.2153 17.8776 19.0308C17.9717 18.819 18.1129 18.6699 18.3482 18.7719C18.6228 18.8896 18.5679 19.1171 18.4738 19.3289C17.9874 20.38 17.2265 21.188 16.2302 21.7371C13.1552 23.408 10.0566 23.4237 6.96591 21.7842C6.18146 21.3684 5.5539 20.7644 4.99695 19.9878C4.90281 20.3173 4.83221 20.5683 4.75377 20.8193C4.69886 21.0076 4.57334 21.1252 4.36939 21.0782C4.15759 21.0311 4.06345 20.8664 4.12621 20.6467C4.26741 20.0976 4.40076 19.5563 4.55765 19.0072C4.6361 18.7405 4.84006 18.6935 5.08323 18.7562C5.58528 18.8896 6.07948 19.0229 6.58153 19.1641C6.80117 19.2269 6.96591 19.3445 6.89531 19.5956C6.82471 19.8466 6.62075 19.8623 6.40111 19.7995C6.17362 19.7368 5.94613 19.6897 5.71864 19.6348C5.67941 19.6348 5.6245 19.6113 5.60881 19.6348C5.57744 19.6819 5.6245 19.6975 5.65588 19.7054L5.66373 19.7132Z" fill="#ECB6C3"/>
<path d="M17.4382 0.878796C17.5481 0.313994 18.0893 0.361061 18.4502 0.164949C18.6933 0.0315931 18.9679 -0.125296 19.2189 0.164949C19.2974 0.259083 19.3444 0.384594 19.3915 0.494417C19.9092 1.73384 20.4348 2.98112 20.9526 4.22054C21.1487 4.69906 21.0859 4.87163 20.6074 5.0599C19.368 5.54626 19.4386 5.77375 18.8738 4.36959C18.458 3.34196 18.0187 2.31434 17.5873 1.29455C17.5324 1.16904 17.4931 1.02784 17.4461 0.894485L17.4382 0.878796Z" fill="#5A6B7C"/>
<path d="M5.66373 19.7133C5.66373 19.7133 5.57745 19.6898 5.61667 19.6427C5.62451 19.627 5.68727 19.6427 5.72649 19.6427C5.7108 19.6662 5.69511 19.6898 5.67158 19.7055L5.66373 19.7133Z" fill="#5A6B7C"/>
</g>
<defs>
<clipPath id="clip0_373_31502">
<rect width="22.6627" height="23" fill="white"/>
</clipPath>
</defs>
</svg>
