<svg width="24" height="23" viewBox="0 0 24 23" fill="none" xmlns="http://www.w3.org/2000/svg">
<path d="M11.9179 23C9.5265 23 7.13507 23 4.72018 23C2.25841 23 0.5 21.2416 0.5 18.7798C0.5 16.5525 0.5 14.3486 0.5 12.1213C0.5 9.65953 2.25841 7.90112 4.72018 7.90112C9.50306 7.90112 14.3094 7.90112 19.0923 7.90112C21.554 7.90112 23.3124 9.65953 23.3124 12.1213C23.3124 14.3486 23.3124 16.5525 23.3124 18.7798C23.3124 21.2416 21.554 23 19.0923 23C16.7008 23 14.3094 23 11.9179 23ZM10.9332 16.107C10.4878 15.6381 10.0423 15.1692 9.57339 14.7238C9.12793 14.2783 8.54179 14.2314 8.14322 14.63C7.7212 15.0285 7.74465 15.6147 8.21356 16.107C8.84659 16.7401 9.47961 17.3731 10.1126 18.0061C10.7222 18.6157 11.2146 18.6157 11.8007 18.0061C13.0199 16.787 14.2625 15.5443 15.4817 14.3252C15.5754 14.2314 15.6692 14.1376 15.7396 14.0204C16.0209 13.5984 15.974 13.106 15.6223 12.7543C15.2472 12.4027 14.7314 12.4027 14.3094 12.7309C14.1687 12.8481 14.028 13.0122 13.8874 13.1295C12.9495 14.1142 11.9648 15.0989 10.9332 16.107Z" fill="#43505F"/>
<path d="M11.871 6.18963C9.36235 6.18963 6.85368 6.18963 4.32157 6.18963C3.33686 6.18963 2.75073 5.34559 3.12585 4.54845C3.36031 4.05609 3.75888 3.86853 4.29813 3.86853C6.15032 3.86853 8.00251 3.86853 9.8547 3.86853C13.0667 3.86853 16.2788 3.86853 19.5142 3.86853C20.4755 3.86853 21.0851 4.73601 20.6631 5.53316C20.4052 6.02551 19.9831 6.18963 19.4439 6.18963C16.9118 6.18963 14.4031 6.18963 11.871 6.18963Z" fill="#ECB6C3"/>
<path d="M11.8944 0C13.9342 0 15.9739 0 18.0137 0C18.9281 0 19.5142 0.820591 19.1625 1.61774C18.9281 2.13354 18.5061 2.3211 17.9668 2.3211C16.3256 2.3211 14.7079 2.3211 13.0667 2.3211C10.6518 2.3211 8.23695 2.3211 5.84551 2.3211C4.90769 2.3211 4.32155 1.52396 4.64979 0.726809C4.8608 0.211009 5.28282 0 5.82206 0C7.86182 0 9.87813 0 11.8944 0Z" fill="#ECB6C3"/>
</svg>
