<svg width="24" height="23" viewBox="0 0 24 23" fill="none" xmlns="http://www.w3.org/2000/svg">
<path d="M12.1 19.2667C11.5 19.2667 10.9667 19.3334 10.4333 19.2667C9.63335 19.1334 8.83335 18.8667 8.23335 18.2667C7.36668 17.4667 6.50002 16.6667 5.63335 15.8C4.43335 14.6 3.90002 13.1334 4.16668 11.3334C3.76668 11.3334 3.36668 11.3334 2.96668 11.3334C1.90002 11.3334 1.10002 10.8667 0.63335 9.93337C0.23335 9.00004 0.43335 8.06671 1.23335 7.26671C1.96668 6.53337 2.70002 5.80004 3.43335 5.06671C4.36668 4.13337 5.50002 3.66671 6.83335 3.66671C7.96668 3.66671 9.16668 3.66671 10.3 3.66671C10.5667 3.66671 10.8334 3.60004 11.1 3.40004C13.5 1.80004 16.1 0.733372 18.9667 0.0667057C21.6334 -0.533294 23.9 1.73337 23.3 4.40004C22.7 7.20004 21.5667 9.86671 19.9667 12.2667C19.8334 12.4667 19.7667 12.8 19.7 13.0667C19.7 14.2 19.7 15.2667 19.7 16.4C19.7 17.8 19.2334 19 18.2334 20C17.5 20.7334 16.8333 21.4 16.1 22.1334C15.3 22.8667 14.3667 23.1334 13.4333 22.7334C12.5 22.2667 12.0333 21.5334 12.0333 20.4667C12.1 20.0667 12.1 19.7334 12.1 19.2667ZM15.9667 10.4C17.5667 10.4 18.9 9.13337 18.9 7.53337C18.9 5.93337 17.5667 4.66671 16.0333 4.66671C14.4333 4.66671 13.1667 5.93337 13.1667 7.53337C13.0333 9.06671 14.3 10.4 15.9667 10.4ZM11.9667 16.2C12.5 16.2 12.8334 16 12.9667 15.6667C13.1667 15.2667 13.1 14.9334 12.7667 14.6C11.5 13.2667 10.1667 12 8.90002 10.7334C8.50002 10.3334 7.96668 10.3334 7.56668 10.7334C7.16668 11.1334 7.16668 11.6667 7.56668 12.1334C8.83335 13.4 10.1 14.7334 11.4333 16C11.6334 16.0667 11.9 16.1334 11.9667 16.2ZM8.23335 5.60004C7.83335 5.60004 7.36668 5.60004 6.96668 5.60004C6.16668 5.60004 5.50002 5.86671 4.96668 6.40004C4.23335 7.13337 3.43335 7.93337 2.70002 8.66671C2.56668 8.80004 2.43335 9.06671 2.50002 9.13337C2.56668 9.26671 2.83335 9.40004 2.96668 9.40004C3.56668 9.46671 4.16668 9.40004 4.70002 9.40004C4.83335 9.40004 4.96668 9.33337 5.10002 9.20004C6.16668 8.06671 7.23335 6.80004 8.23335 5.60004ZM17.9 15.1334C17.4334 15.5334 17.0333 15.9334 16.6334 16.3334C16.2334 16.7334 15.8334 17.0667 15.3667 17.4667C14.9 17.8667 14.3 18.1334 14.0333 18.6667C13.8334 19.1334 13.9667 19.8667 13.9667 20.4667C13.9667 20.6667 14.1 20.9334 14.2334 21C14.3667 21.0667 14.6334 20.9334 14.8334 20.8C15.5667 20.1334 16.3 19.4 16.9667 18.6667C17.5 18.1334 17.7667 17.5334 17.8334 16.8C17.9 16.2 17.9 15.6667 17.9 15.1334Z" fill="#43505F"/>
<path d="M1.36662 23.0001C1.16662 22.8001 0.833285 22.6668 0.633285 22.4001C0.433285 22.0668 0.433285 21.6668 0.699952 21.4001C1.36662 20.6668 2.09995 19.9334 2.83329 19.2668C3.16662 18.9334 3.76662 19.0001 4.09995 19.3334C4.43329 19.6668 4.49995 20.2001 4.16662 20.5334C3.49995 21.2668 2.76662 22.0001 2.03329 22.6668C1.89995 22.8668 1.69995 22.8668 1.36662 23.0001Z" fill="#ECB6C3"/>
<path d="M8.23324 20.1999C8.16657 20.3333 8.0999 20.5999 7.8999 20.7333C7.2999 21.3333 6.6999 21.9333 6.0999 22.5333C5.63324 22.9333 5.0999 22.9999 4.6999 22.5999C4.2999 22.1999 4.2999 21.5999 4.6999 21.1999C5.2999 20.5333 5.96657 19.9333 6.56657 19.3333C6.8999 18.9999 7.23324 18.9333 7.63324 19.1333C8.03324 19.3333 8.23324 19.6666 8.23324 20.1999Z" fill="#ECB6C3"/>
<path d="M1.63338 19.0668C1.10005 19.0668 0.833379 18.8668 0.633379 18.5335C0.433379 18.2001 0.500045 17.8001 0.766712 17.5335C1.43338 16.8668 2.10005 16.1335 2.83338 15.4668C3.16671 15.1335 3.76671 15.1335 4.10005 15.4668C4.43338 15.8001 4.50005 16.4001 4.16671 16.8001C3.50005 17.5335 2.83338 18.2001 2.10005 18.8668C1.96671 19.0001 1.70005 19.0001 1.63338 19.0668Z" fill="#ECB6C3"/>
<path d="M16.9001 7.46678C16.9001 8.00011 16.5001 8.46678 15.9668 8.46678C15.4334 8.46678 15.0334 8.00011 15.0334 7.53345C15.0334 7.00011 15.4334 6.53345 16.0334 6.53345C16.5001 6.53345 16.9001 6.93345 16.9001 7.46678Z" fill="#ECB6C3"/>
</svg>
