<svg width="24" height="23" viewBox="0 0 24 23" fill="none" xmlns="http://www.w3.org/2000/svg">
<path d="M11.7233 0C12.2043 0.231603 12.7388 0.40976 13.1842 0.712626C13.7543 1.10457 14.2531 1.60341 14.7697 2.06662C15.2686 2.51201 15.8565 2.72579 16.5335 2.74361C17.1214 2.74361 17.7093 2.72579 18.2972 2.74361C19.5978 2.79706 20.4529 3.65221 20.5064 4.95275C20.5242 5.54067 20.5064 6.12858 20.5064 6.7165C20.5064 7.39349 20.7202 7.96359 21.1656 8.48025C21.6288 8.9969 22.0742 9.53137 22.5374 10.0658C23.3034 10.9923 23.3034 12.1859 22.5374 13.0945C22.1098 13.6112 21.6644 14.1278 21.2012 14.6445C20.738 15.1611 20.5064 15.749 20.5242 16.4438C20.5242 16.9783 20.542 17.5128 20.5242 18.0473C20.4886 19.4903 19.6156 20.3989 18.1725 20.3989C15.2151 20.3989 15.6962 20.292 13.5048 22.1805C12.1865 23.3029 11.171 23.3029 9.85263 22.1805C7.6613 20.3277 8.17796 20.3989 5.18493 20.4167C3.72404 20.4167 2.81545 19.5081 2.79763 18.0473C2.77981 15.1077 2.97579 15.6778 1.03388 13.3795C-0.0350569 12.0968 -0.0350569 11.0991 1.03388 9.81642C2.95797 7.5182 2.77981 8.0883 2.79763 5.13091C2.79763 3.68784 3.70623 2.76143 5.13148 2.76143C8.2314 2.76143 7.69693 2.8505 9.97733 0.872967C10.494 0.427576 11.0106 0.142525 11.7233 0ZM10.298 13.1479C9.60321 12.4353 8.96184 11.7761 8.32048 11.117C7.83946 10.6359 7.34062 10.5825 6.96649 10.9566C6.59236 11.3308 6.62799 11.8474 7.10902 12.3106C7.8929 13.1123 8.69461 13.8962 9.49631 14.6979C10.1377 15.3393 10.5118 15.3393 11.1532 14.6979C12.8457 13.0054 14.5381 11.3129 16.2306 9.62045C16.3375 9.51356 16.4444 9.42448 16.5157 9.29977C16.7829 8.90782 16.7651 8.51588 16.4266 8.17738C16.0881 7.83888 15.6962 7.83888 15.3042 8.12393C15.1795 8.21301 15.0726 8.33772 14.9479 8.46243C13.4158 9.99458 11.9014 11.5267 10.298 13.1479Z" fill="#43505F"/>
<path d="M10.2981 13.1478C11.9015 11.5444 13.4336 10.0123 14.9479 8.48012C15.0548 8.37322 15.1617 8.24851 15.3042 8.14162C15.6784 7.85657 16.0881 7.85657 16.4266 8.19507C16.7651 8.51575 16.7829 8.92551 16.5157 9.31745C16.4445 9.44216 16.3376 9.53124 16.2307 9.63813C14.5382 11.3306 12.8457 13.0231 11.1532 14.7156C10.5118 15.357 10.1377 15.357 9.49635 14.7156C8.69464 13.9139 7.91076 13.13 7.10905 12.3283C6.62803 11.8473 6.5924 11.3484 6.96653 10.9743C7.34066 10.6002 7.83949 10.6536 8.32052 11.1346C8.96188 11.776 9.60324 12.4352 10.2981 13.1478Z" fill="#ECB6C3"/>
</svg>
