<svg width="24" height="23" viewBox="0 0 24 23" fill="none" xmlns="http://www.w3.org/2000/svg">
<g clip-path="url(#clip0_98_404)">
<path d="M12.1228 2.19459e-05C14.1612 2.19459e-05 16.2093 -0.0097778 18.2477 2.19459e-05C21.3738 0.0196214 23.5983 2.25396 23.6081 5.38988C23.6179 8.06521 23.6179 10.7503 23.6081 13.4257C23.5983 16.5714 21.3542 18.8253 18.2085 18.8351C16.4445 18.8449 14.6805 18.8253 12.9166 18.8449C12.6128 18.8449 12.2698 18.9527 12.015 19.1095C10.2119 20.2855 8.41851 21.4811 6.63495 22.6864C6.23317 22.9608 5.82158 23.1078 5.36099 22.8726C4.8906 22.6276 4.7828 22.2062 4.7828 21.7163C4.7926 20.8539 4.773 19.9817 4.7926 19.1193C4.7926 18.8351 4.724 18.7077 4.42021 18.6097C2.08787 17.914 0.637511 15.9736 0.627711 13.5531C0.617911 10.7993 0.617911 8.03581 0.627711 5.28208C0.647311 2.27356 2.89145 0.0294212 5.89997 0.00982169C7.97752 -0.0097778 10.0551 2.19459e-05 12.1228 2.19459e-05ZM12.1424 6.28166C10.0845 6.28166 8.02652 6.29146 5.96857 6.28166C5.47858 6.28166 5.09639 6.44825 4.8906 6.88924C4.54761 7.61442 5.08659 8.3592 5.95877 8.3592C8.26171 8.369 10.5647 8.3592 12.8676 8.3592C14.6609 8.3592 16.4543 8.3592 18.2575 8.3592C18.7474 8.3592 19.1198 8.19261 19.3354 7.74182C19.6686 7.02644 19.159 6.28166 18.3163 6.28166C16.2583 6.27186 14.2004 6.28166 12.1424 6.28166ZM12.1228 10.4465C10.7704 10.4465 9.40828 10.4367 8.05592 10.4465C7.30134 10.4563 6.85055 10.9267 6.90935 11.6029C6.95835 12.1909 7.39933 12.5437 8.11472 12.5535C10.1041 12.5633 12.1032 12.5535 14.0926 12.5535C14.8079 12.5535 15.5331 12.5731 16.2485 12.5437C16.9933 12.5241 17.4441 11.9557 17.3167 11.2697C17.2187 10.7601 16.7875 10.4465 16.1407 10.4465C14.8079 10.4465 13.4654 10.4465 12.1228 10.4465Z" fill="#43505F"/>
<path d="M12.1424 6.28164C14.2004 6.28164 16.2583 6.27184 18.3163 6.28164C19.1591 6.28164 19.6686 7.02642 19.3354 7.7418C19.1297 8.19259 18.7475 8.35918 18.2575 8.35918C16.4641 8.34938 14.6708 8.35918 12.8676 8.35918C10.5647 8.35918 8.26174 8.35918 5.9588 8.35918C5.08662 8.35918 4.54763 7.6144 4.89062 6.88922C5.09642 6.43843 5.47861 6.27184 5.9686 6.28164C8.03634 6.29144 10.0943 6.28164 12.1424 6.28164Z" fill="#ECB6C3"/>
<path d="M12.1228 10.4466C13.4653 10.4466 14.7981 10.4466 16.1407 10.4466C16.7874 10.4466 17.2088 10.7601 17.3166 11.2697C17.4538 11.9557 16.9932 12.5143 16.2485 12.5437C15.5331 12.5633 14.8079 12.5535 14.0925 12.5535C12.1032 12.5535 10.104 12.5535 8.11467 12.5535C7.39929 12.5535 6.9485 12.1909 6.9093 11.6029C6.8505 10.9267 7.30129 10.4564 8.05587 10.4466C9.41804 10.4368 10.7704 10.4466 12.1228 10.4466Z" fill="#ECB6C3"/>
</g>
<defs>
<clipPath id="clip0_98_404">
<rect width="23" height="23" fill="white" transform="translate(0.61792)"/>
</clipPath>
</defs>
</svg>
