<svg width="25" height="23" viewBox="0 0 25 23" fill="none" xmlns="http://www.w3.org/2000/svg">
<path d="M4.71104 21.2025C4.87445 20.3037 5.03786 19.2416 5.24212 18.1794C5.40553 17.1989 5.56894 16.2185 5.7732 15.238C5.81406 14.952 5.7732 14.7069 5.52809 14.5027C4.22081 13.2362 2.91352 11.9698 1.60624 10.6625C1.52454 10.6217 1.48368 10.5808 1.44283 10.54C0.9526 10.0497 0.503222 9.4778 0.748337 8.7016C0.993453 7.9254 1.64709 7.68028 2.38244 7.55773C4.22081 7.27176 6.01832 7.02664 7.85669 6.78153C8.26521 6.74068 8.51033 6.61812 8.71459 6.20959C9.49079 4.57549 10.3078 2.94139 11.1249 1.30728C11.4109 0.612789 11.8194 0 12.6773 0C13.5352 0 13.9437 0.612789 14.2705 1.30728C15.0876 2.98224 15.9455 4.65719 16.7625 6.373C16.8851 6.61812 17.0485 6.74068 17.3345 6.78153C19.1728 7.02664 20.9704 7.31261 22.8087 7.55773C23.1764 7.59858 23.5849 7.68028 23.9117 7.8437C24.6879 8.21137 24.9331 8.98757 24.5245 9.72291C24.3611 10.0089 24.1569 10.2948 23.9117 10.54C22.6045 11.8472 21.2972 13.1137 19.949 14.421C19.6631 14.6661 19.5814 14.9112 19.6631 15.2789C19.9899 17.1581 20.3167 19.0373 20.6435 20.9165C20.6844 21.0799 20.6844 21.2842 20.6844 21.4885C20.6435 22.5915 19.7856 23.2451 18.7235 22.9183C18.4784 22.8366 18.2741 22.714 18.029 22.6323C16.3949 21.7744 14.7199 20.9165 13.0858 20.0178C12.7998 19.8544 12.5547 19.8544 12.2688 20.0178C10.6755 20.8757 9.08226 21.6927 7.44816 22.5506C7.2439 22.6732 6.99878 22.7957 6.75367 22.8774C5.60979 23.286 4.71104 22.5915 4.71104 21.2025Z" fill="#43505F"/>
</svg>
