<svg width="26" height="23" viewBox="0 0 26 23" fill="none" xmlns="http://www.w3.org/2000/svg">
<g clip-path="url(#clip0_98_396)">
<path d="M12.8059 5.04246C13.3719 4.27065 14.0408 3.6532 14.8641 3.24157C17.5397 1.85231 20.9871 3.08721 22.222 5.96864C23.3026 8.54134 22.788 10.8568 21.1929 13.0179C20.0609 14.51 18.6717 15.7449 17.231 16.9798C16.0475 18.0089 14.8641 19.038 13.6806 20.0156C13.1146 20.4787 12.5486 20.5302 12.0341 20.0671C10.0274 18.3176 7.96922 16.5167 5.96251 14.7158C4.88197 13.7382 4.00725 12.6062 3.3898 11.2684C2.25781 8.74716 2.92671 5.50555 4.93342 3.91047C7.35177 1.95521 10.5934 2.26394 12.5486 4.68228C12.6001 4.78519 12.703 4.8881 12.8059 5.04246Z" fill="#43505F"/>
<path d="M12.7544 23C12.2399 23 11.7768 22.7942 11.3137 22.434L10.3875 21.6107C8.27792 19.7584 6.06539 17.8546 3.95577 15.9508C2.51505 14.6644 1.43452 13.1722 0.662704 11.5257C-0.829466 8.18119 0.0452543 3.85904 2.72087 1.69797C5.91103 -0.823283 10.1303 -0.514559 12.8059 2.46978C13.4748 1.74942 14.1437 1.18343 14.967 0.771795C16.7164 -0.102925 18.7746 -0.257288 20.6269 0.411616C22.5307 1.08052 24.1258 2.57269 24.8976 4.47649C26.2354 7.66665 25.7723 10.8054 23.5598 13.7897C22.1705 15.642 20.4725 17.1342 18.826 18.5749L18.6717 18.7293C17.2309 19.9642 15.8417 21.1991 14.401 22.434C13.835 22.7942 13.3204 23 12.7544 23ZM7.45465 1.54361C6.1683 1.54361 4.88194 2.00669 3.74995 2.93287C1.58888 4.63086 0.919974 8.12974 2.15487 10.9083C2.82378 12.349 3.80141 13.6353 5.08776 14.8188C7.19738 16.7226 9.35845 18.6264 11.4681 20.4787L12.3942 21.302C12.6515 21.5078 12.8573 21.6622 13.3719 21.1991C14.8126 19.9642 16.2533 18.7807 17.6426 17.5458L17.7969 17.3915C19.4435 15.9508 21.0385 14.5615 22.3249 12.8635C24.2287 10.2908 24.6403 7.76956 23.5083 5.09394C22.8394 3.60177 21.6045 2.41833 20.0609 1.90379C18.5687 1.38924 17.0251 1.4407 15.6359 2.16106C14.8126 2.57269 14.0922 3.19014 13.4233 4.16777L12.8573 4.93958L11.8797 3.75614C10.6963 2.26397 9.04973 1.54361 7.45465 1.54361Z" fill="#ECB6C3"/>
</g>
<defs>
<clipPath id="clip0_98_396">
<rect width="25.6242" height="23" fill="white" transform="translate(-0.00622559)"/>
</clipPath>
</defs>
</svg>
