<svg width="21" height="23" viewBox="0 0 21 23" fill="none" xmlns="http://www.w3.org/2000/svg">
<g clip-path="url(#clip0_98_381)">
<path d="M10.459 20.4989C10.459 20.9403 10.459 21.3326 10.459 21.6759C10.41 22.1663 10.2629 22.6077 9.77246 22.8529C9.28205 23.0981 8.79165 22.9019 8.44836 22.5586C7.07523 21.1855 5.70209 19.8614 4.378 18.4392C3.64239 17.6546 3.64239 16.4776 4.378 15.693C5.70209 14.2708 7.07523 12.9467 8.44836 11.5736C8.79165 11.2303 9.28205 11.0341 9.77246 11.2793C10.2629 11.4755 10.459 11.9659 10.459 12.4563C10.459 12.8977 10.459 13.339 10.459 13.7804C11.9793 14.0746 13.4505 13.9765 14.8727 13.5352C16.8343 12.9467 18.4036 11.8188 19.6786 10.2495C19.8258 10.0533 20.071 9.85715 20.2671 9.8081C20.7085 9.71002 21.1008 10.1023 21.0027 10.6418C20.7085 12.7015 19.9238 14.565 18.6488 16.1834C16.5891 18.7335 13.9409 20.1066 10.7042 20.4499C10.6061 20.4499 10.5571 20.4989 10.459 20.4989Z" fill="#ECB6C3"/>
<path d="M11.5379 2.452C11.5379 2.05967 11.5379 1.66735 11.5379 1.27503C11.5379 0.735581 11.7341 0.294216 12.2245 0.098054C12.7149 -0.0981081 13.2053 0.0490135 13.5486 0.392297C14.9217 1.71639 16.2949 3.04048 17.619 4.46266C18.4036 5.29635 18.3546 6.47332 17.619 7.25797C16.2949 8.6311 14.9708 9.9552 13.5976 11.2793C13.2053 11.6716 12.7149 11.8678 12.2245 11.6226C11.7341 11.3774 11.5379 10.936 11.5379 10.3966C11.5379 10.0042 11.5379 9.61191 11.5379 9.07247C10.8023 9.02343 10.0667 8.92535 9.38016 8.97439C6.53581 9.17055 4.2309 10.3475 2.41641 12.5543C2.31832 12.6524 2.26928 12.7505 2.1712 12.8486C1.97504 13.1428 1.6808 13.2409 1.33751 13.0938C0.99423 12.9467 0.896149 12.6524 0.94519 12.3091C1.19039 10.5927 1.72984 9.02343 2.71065 7.60125C4.81939 4.5117 7.76182 2.84432 11.5379 2.452Z" fill="#43505F"/>
</g>
<defs>
<clipPath id="clip0_98_381">
<rect width="20.0576" height="23" fill="white" transform="translate(0.94519)"/>
</clipPath>
</defs>
</svg>
