<svg width="23" height="23" viewBox="0 0 23 23" fill="none" xmlns="http://www.w3.org/2000/svg">
<g clip-path="url(#clip0_373_30899)">
<path d="M8.21598 1.61681C8.21598 2.20477 8.21598 2.69989 8.21598 3.19501C8.22372 3.74429 8.56411 4.1079 9.04377 4.10016C9.52342 4.10016 9.84834 3.73655 9.85608 3.1718C9.85608 2.43686 9.85608 1.70191 9.85608 0.96696C9.85608 0.293903 10.1578 -7.62064e-05 10.8231 -0.0078125C11.2641 -0.0078125 11.7128 -0.0078125 12.1538 -0.0078125C12.8268 -0.0078125 13.1285 0.293903 13.1363 0.951488C13.1363 1.68644 13.1363 2.42138 13.1363 3.15633C13.1363 3.72108 13.4535 4.07695 13.9408 4.09242C14.4437 4.10016 14.7686 3.73655 14.7764 3.14086C14.7764 2.65347 14.7764 2.15835 14.7764 1.60134C16.6795 2.59158 17.9173 4.05374 18.5517 6.03423C18.6522 6.35142 18.7296 6.59898 19.0855 6.75371C19.5574 6.95485 19.774 7.51187 19.6889 8.00699C19.5961 8.50985 19.1628 8.93534 18.6522 9.01271C18.5517 9.02818 18.4511 9.02044 18.3428 9.02044C13.7784 9.02044 9.21396 9.02044 4.64181 9.02044C3.62836 9.02044 3.00946 8.16945 3.37306 7.31072C3.48137 7.0709 3.62836 6.83107 3.87592 6.75371C4.24726 6.63766 4.31689 6.35916 4.41746 6.04971C5.0441 4.06921 6.29738 2.60705 8.20051 1.60907L8.21598 1.61681Z" fill="#5A6B7C"/>
<path d="M11.5039 10.6758C13.2833 10.6758 15.0549 10.6835 16.8342 10.6758C17.1591 10.6758 17.252 10.7454 17.2597 11.0858C17.2984 12.695 16.8574 14.1184 15.7743 15.3253C15.4881 15.6502 15.6196 16.0061 15.6119 16.3465C15.6119 16.6405 15.5268 16.8029 15.256 16.9344C14.0878 17.4992 12.9351 18.0794 11.7824 18.6674C11.5581 18.7834 11.3801 18.7757 11.1635 18.6751C10.0185 18.1568 8.86583 17.6384 7.70539 17.1356C7.4733 17.035 7.34952 16.9112 7.3882 16.6482C7.48877 15.921 7.25668 15.3408 6.7925 14.7451C5.9183 13.6465 5.69395 12.3159 5.74037 10.9311C5.7481 10.6139 5.94151 10.6835 6.11171 10.6835C7.90653 10.6835 9.70135 10.6835 11.4962 10.6835L11.5039 10.6758Z" fill="#ECB6C3"/>
<path d="M16.4241 18.1728C16.4241 19.7278 16.4241 21.1977 16.4241 22.6676C16.4241 22.9461 16.339 23.008 16.0837 23.0002C13.0279 22.9925 9.96429 22.9925 6.90846 23.0002C6.66089 23.0002 6.55259 22.9615 6.56032 22.6676C6.5758 21.2828 6.56032 19.898 6.56032 18.5132C6.76147 18.4126 6.89298 18.5673 7.03224 18.6292C8.33967 19.2017 9.65484 19.7742 10.9545 20.3699C11.3491 20.5478 11.6817 20.5323 12.0686 20.3389C13.492 19.6117 14.9233 18.9077 16.4164 18.165L16.4241 18.1728Z" fill="#5A6B7C"/>
<path d="M18.0719 18.1572C20.0756 18.8147 21.6229 19.9442 22.7833 21.6075C22.9922 21.9093 23.0851 22.2187 22.8917 22.5591C22.7137 22.8763 22.4352 23.0001 22.0871 22.9923C20.857 22.9923 19.6269 22.9923 18.4046 22.9923C18.1957 22.9923 18.0642 22.9923 18.0642 22.7061C18.0797 21.2053 18.0642 19.7044 18.0642 18.1494L18.0719 18.1572Z" fill="#5A6B7C"/>
<path d="M4.92797 18.1572C4.92797 19.72 4.92797 21.2053 4.92797 22.6907C4.92797 22.9383 4.85834 23.0079 4.61078 23.0001C3.36524 22.9924 2.1197 23.0001 0.874152 22.9924C0.108259 22.9847 -0.255347 22.3039 0.170149 21.6772C1.32286 19.9675 2.9088 18.8225 4.92023 18.165L4.92797 18.1572Z" fill="#5A6B7C"/>
</g>
<defs>
<clipPath id="clip0_373_30899">
<rect width="23" height="23" fill="white"/>
</clipPath>
</defs>
</svg>
