<svg width="21" height="23" viewBox="0 0 21 23" fill="none" xmlns="http://www.w3.org/2000/svg">
<g clip-path="url(#clip0_373_30908)">
<path d="M7.33878 1.79164C7.52085 3.75079 7.69565 5.72451 7.87773 7.69823C7.89957 7.91672 7.92142 8.14249 7.94327 8.36099C7.97241 8.62318 8.11078 8.77612 8.38026 8.75428C8.68615 8.73243 8.77355 8.51393 8.7517 8.24446C8.65702 7.13743 8.55505 6.0304 8.45309 4.92337C8.35841 3.85275 8.24916 2.78214 8.16905 1.70424C8.09622 0.677327 8.72256 0.0145662 9.74948 0C10.3467 0 10.9439 0 11.5484 0C12.5826 0.00728309 13.2162 0.662761 13.1361 1.69696C12.9613 3.82362 12.7647 5.95028 12.5753 8.08423C12.5462 8.39012 12.5098 8.70329 12.9176 8.74699C13.3328 8.79069 13.3619 8.45567 13.391 8.15706C13.5877 6.0304 13.777 3.90374 13.9737 1.73338C14.8549 2.03927 15.6197 2.50538 16.3261 3.07346C18.2561 4.64661 19.3559 6.68588 19.6836 9.14756C19.7346 9.52628 19.6618 9.65009 19.2321 9.65009C13.5003 9.62825 7.77576 9.63553 2.04397 9.65009C1.67253 9.65009 1.58514 9.5627 1.62883 9.20583C2.09495 5.76821 3.87931 3.29924 7.04017 1.84262C7.12757 1.79892 7.21496 1.72609 7.34606 1.78436L7.33878 1.79164Z" fill="#5A6B7C"/>
<path d="M3.74098 14.2748C4.2508 14.2748 4.8116 14.151 5.27043 14.3112C5.75112 14.4787 5.66372 15.1415 5.90406 15.5566C7.04751 17.5594 8.80273 18.4917 11.0532 18.346C13.3328 18.2076 14.9132 16.9841 15.6925 14.821C15.8528 14.3694 16.0567 14.2165 16.5155 14.2602C16.9015 14.3039 17.3167 14.3403 17.6954 14.2602C18.7369 14.0344 19.5162 14.6025 20.3464 15.0395C20.6159 15.1852 20.6815 15.3891 20.5576 15.6804C20.2081 16.4961 19.873 17.3118 19.5453 18.1421C19.4069 18.4844 19.152 18.6082 18.8534 18.448C18.045 18.011 17.4915 18.2441 17.0181 18.9796C16.8214 19.2855 16.5155 19.555 16.2024 19.7517C15.7581 20.0284 15.7217 20.3416 15.9183 20.764C15.9839 20.9024 16.0203 21.0553 16.0713 21.201C16.1951 21.5506 16.115 21.7909 15.7435 21.9366C14.9351 22.257 14.1267 22.5848 13.3328 22.9344C12.9905 23.0873 12.7283 22.9926 12.6336 22.6649C12.3787 21.7618 11.8179 21.536 10.9585 21.7472C10.6672 21.82 10.3467 21.7618 10.0409 21.7327C9.21787 21.6598 9.21787 21.6525 8.83186 22.4027C8.46771 23.1092 8.46043 23.1092 7.74668 22.8178C7.04022 22.5265 6.32648 22.2279 5.61274 21.9439C5.23402 21.7982 5.08107 21.536 5.27043 21.1864C5.69285 20.4144 5.48892 19.89 4.7679 19.4312C4.41831 19.2054 4.1197 18.8558 3.89393 18.5062C3.6463 18.1275 3.40596 18.1494 3.04181 18.2732C1.97847 18.6228 1.97119 18.6155 1.54149 17.5667C1.29386 16.9695 1.06081 16.365 0.798614 15.7751C0.631103 15.3964 0.733066 15.1852 1.08265 14.9885C1.42496 14.7919 1.86923 14.7482 2.08044 14.333C2.10957 14.2748 2.29893 14.2893 2.41546 14.2821C2.85973 14.2821 3.304 14.2821 3.74827 14.2821L3.74098 14.2748Z" fill="#ECB6C3"/>
<path d="M10.6599 10.4661C13.5149 10.4661 16.3699 10.4661 19.2321 10.4661C19.8949 10.4661 20.3829 10.7575 20.6596 11.3619C20.9073 11.9082 20.7907 12.5491 20.3756 12.9788C20.0187 13.3502 19.5744 13.4522 19.0719 13.4522C13.9082 13.4522 8.74449 13.4522 3.5735 13.4522C3.06368 13.4522 2.54658 13.4595 2.03677 13.4522C1.14095 13.4231 0.478187 12.7603 0.500037 11.9227C0.521886 11.0998 1.1628 10.4734 2.04405 10.4661C4.92087 10.4588 7.79041 10.4661 10.6672 10.4661H10.6599Z" fill="#5A6B7C"/>
</g>
<defs>
<clipPath id="clip0_373_30908">
<rect width="20.2834" height="23" fill="white" transform="translate(0.5)"/>
</clipPath>
</defs>
</svg>
