<svg width="20" height="23" viewBox="0 0 20 23" fill="none" xmlns="http://www.w3.org/2000/svg">
<g clip-path="url(#clip0_98_409)">
<path d="M10.209 19.1822C7.60167 19.1822 4.99438 19.1822 2.3871 19.1822C1.17657 19.1822 0.338514 18.1579 0.710984 17.0405C0.804101 16.7146 1.03689 16.4352 1.26969 16.2024C2.80613 14.8057 3.55106 13.083 3.50451 11.0344C3.50451 9.82389 3.45795 8.5668 3.64418 7.35628C4.10977 4.65587 6.20491 2.60729 8.8122 2.09514C9.13811 2.04858 9.27778 1.90891 9.23123 1.583C9.18467 1.3502 9.23123 1.11741 9.23123 0.884615C9.27778 0.37247 9.69681 0.0465587 10.1624 0C10.6745 0 11.047 0.325911 11.1401 0.884615V0.931174C10.9073 1.86235 11.466 2.04858 12.2575 2.28138C15.0511 3.11943 16.8669 5.68016 16.9134 8.65992C16.9134 9.49798 16.9134 10.2895 16.9134 11.1275C16.8669 13.1296 17.6118 14.8057 19.1017 16.2024C20.0328 17.0405 19.9863 18.3441 18.962 18.9494C18.6361 19.1356 18.2171 19.1822 17.8446 19.1822C15.3304 19.1822 12.7697 19.1822 10.209 19.1822Z" fill="#43505F"/>
<path d="M6.71704 20.1599C9.04498 20.1599 11.3264 20.1599 13.6543 20.1599C13.6077 21.5101 12.0247 22.9069 10.4417 23C8.62595 23.0931 6.99639 21.836 6.71704 20.1599Z" fill="#ECB6C3"/>
</g>
<defs>
<clipPath id="clip0_98_409">
<rect width="19.1822" height="23" fill="white" transform="translate(0.61792)"/>
</clipPath>
</defs>
</svg>
