<svg width="23" height="23" viewBox="0 0 23 23" fill="none" xmlns="http://www.w3.org/2000/svg">
<g clip-path="url(#clip0_98_385)">
<path d="M22.9758 10.5218C22.9397 9.86358 22.7594 9.69227 22.0832 9.63818C21.0103 9.54802 20.2259 9.0341 19.8292 8.03332C19.4324 7.0145 19.6578 6.09486 20.3972 5.28341C20.5324 5.13916 20.6136 4.9408 20.7398 4.74245C20.6316 4.5441 20.5595 4.35476 20.4332 4.21952C19.9373 3.69659 19.4505 3.16464 18.9185 2.67777C18.4497 2.23598 18.1882 2.25401 17.7104 2.67777C17.0522 3.26381 16.2768 3.49823 15.4203 3.33594C14.2843 3.12857 13.4638 2.13681 13.3917 0.946684C13.3466 0.189334 13.2564 0.0540929 12.4991 0.00901255C11.7778 -0.0360678 11.0565 -3.52198e-06 10.3442 0.0180286C9.89344 0.0270447 9.68607 0.297527 9.65902 0.74833C9.64099 1.01881 9.60493 1.28929 9.52378 1.54174C8.95577 3.33594 6.7829 3.89494 5.35836 2.61466C4.86247 2.17287 4.63707 2.14582 4.15922 2.57859C3.63629 3.04743 3.13139 3.55233 2.65354 4.06624C2.22076 4.53508 2.24781 4.78753 2.68058 5.2744C3.40187 6.07683 3.60022 6.99647 3.1945 7.98824C2.76173 9.05213 1.87815 9.49392 0.778193 9.57506C0.228212 9.62015 0.0478909 9.75539 0.0208426 10.3144C-0.0152216 11.0807 0.0028105 11.8471 0.0118266 12.6045C0.0118266 13.0463 0.282309 13.2446 0.688032 13.3077C0.958514 13.3528 1.229 13.3618 1.49046 13.4339C3.29368 13.9479 3.9248 16.1388 2.69862 17.5633C2.16667 18.1764 2.15765 18.3297 2.69862 18.9337C3.12237 19.4026 3.57318 19.8444 4.03299 20.2771C4.54691 20.755 4.77231 20.737 5.30426 20.2681C6.21488 19.4657 7.5132 19.3665 8.4689 20.0247C9.21724 20.5386 9.55985 21.2779 9.5869 22.1705C9.60493 22.7025 9.78525 22.9279 10.3082 22.9459C11.0565 22.982 11.8048 22.991 12.5532 22.9549C13.1302 22.9279 13.2745 22.7295 13.3195 22.1705C13.3466 21.9181 13.3736 21.6566 13.4548 21.4222C14.0318 19.628 16.1867 19.078 17.6202 20.3583C18.1071 20.8001 18.3415 20.8181 18.8284 20.3853C19.3603 19.8985 19.8742 19.3936 20.3611 18.8616C20.7488 18.4469 20.7217 18.1494 20.325 17.7256C19.9103 17.2838 19.6488 16.7699 19.6038 16.1658C19.4956 14.6331 20.5865 13.452 22.1463 13.3889C22.7413 13.3618 22.9307 13.2176 22.9667 12.6225C23.0028 11.9373 23.0118 11.225 22.9758 10.5218ZM17.1874 14.8765C17.1784 14.8675 17.1784 14.8675 17.1694 14.8585C16.7457 15.6699 16.0604 16.5806 15.0236 17.0584L15.0326 17.0674C13.0491 18.5551 9.32543 18.7354 6.79191 16.2199C4.30348 13.7495 4.18627 9.73735 6.51241 7.11368C8.85659 4.46295 12.8327 4.10231 15.6186 6.31125C18.4317 8.52018 18.7833 12.37 17.1874 14.8765Z" fill="#43505F"/>
<path d="M17.1694 14.8585C16.7456 15.6699 16.0604 16.5805 15.0235 17.0584C14.3113 16.3461 13.59 15.6429 12.8867 14.9306C12.7515 14.7954 12.6163 14.6601 12.481 14.5159C12.2286 14.2634 12.0212 14.2003 11.6696 14.3085C8.7123 15.1921 5.89026 12.5684 6.55745 9.55702C6.60253 9.35867 6.75581 9.0972 6.9181 9.05212C7.07137 9.00704 7.34185 9.14228 7.48611 9.27752C8.02707 9.77341 8.53197 10.3144 9.06392 10.8283C9.17212 10.9275 9.30736 11.0898 9.41555 11.0807C9.92045 11.0357 10.4524 11.0266 10.9032 10.8283C11.0835 10.7562 11.0835 10.2422 11.1557 9.92668C11.1737 9.83652 11.1827 9.74636 11.2007 9.6562C11.2548 9.36768 11.1917 9.14228 10.9663 8.93491C10.4163 8.42099 9.8934 7.88003 9.37047 7.33907C8.96475 6.92433 9.07294 6.55467 9.62292 6.43746C11.1196 6.1219 12.4359 6.49156 13.4908 7.60955C14.5727 8.75459 14.8522 10.116 14.4105 11.6217C14.3203 11.9373 14.3834 12.1086 14.5908 12.3159C15.0957 12.8028 15.5916 13.3077 16.0874 13.8036C16.3399 14.0651 16.6014 14.3175 16.8538 14.57C16.962 14.6691 17.0612 14.7593 17.1694 14.8585Z" fill="#ECB6C3"/>
</g>
<defs>
<clipPath id="clip0_98_385">
<rect width="22.991" height="23" fill="white" transform="translate(0.00280762)"/>
</clipPath>
</defs>
</svg>
