<svg width="23" height="23" viewBox="0 0 23 23" fill="none" xmlns="http://www.w3.org/2000/svg">
<path d="M15.3208 10.5779C12.0458 10.2015 8.99672 11.632 7.34042 14.4552C7.22749 14.6434 7.15221 14.8316 7.03928 14.9822C6.85106 15.2457 6.54991 15.3963 6.24877 15.2457C6.02291 15.1328 5.75941 14.8693 5.75941 14.6434C5.42062 10.3521 7.11456 6.81362 10.9165 4.81853C12.1211 4.1786 13.401 3.87745 14.7561 3.83981C14.9067 3.83981 15.0949 3.83981 15.2831 3.83981C15.2831 3.65159 15.3208 3.50102 15.3208 3.3128C15.3208 2.48465 15.3208 1.6565 15.3208 0.828351C15.3208 0.489562 15.3961 0.188417 15.7725 0.0378439C16.1489 -0.112729 16.4124 0.0378439 16.6383 0.301346C18.6334 2.40937 20.6661 4.47974 22.6612 6.58776C23.0753 7.00184 23.0753 7.37827 22.6612 7.79235C20.6661 9.86272 18.671 11.9707 16.6383 14.0411C16.4124 14.3046 16.1489 14.4552 15.8101 14.3046C15.4337 14.154 15.3584 13.8529 15.3584 13.4765C15.3208 12.5354 15.3208 11.5567 15.3208 10.5779Z" fill="#ECB6C3"/>
<path d="M11.4812 23.0002C8.69558 23.0002 5.87234 23.0002 3.08674 23.0002C1.20458 23.0002 0 21.7957 0 19.9135C0 15.5845 0 11.2556 0 6.92659C0 5.04443 1.20458 3.83984 3.08674 3.83984C3.95254 3.83984 4.78069 3.83984 5.64648 3.83984C6.28642 3.83984 6.73813 4.25392 6.70049 4.78092C6.70049 5.34557 6.24877 5.722 5.60884 5.722C4.74304 5.722 3.83961 5.722 2.97381 5.722C2.29624 5.722 1.9198 6.09844 1.9198 6.77601C1.9198 11.1803 1.9198 15.5845 1.9198 19.9888C1.9198 20.704 2.29624 21.0804 3.01146 21.0804C8.65794 21.0804 14.3044 21.0804 19.9885 21.0804C20.7414 21.0804 21.0802 20.704 21.0802 19.9135C21.0802 17.542 21.0802 15.1704 21.0802 12.8366C21.0802 12.686 21.0802 12.5354 21.0802 12.3849C21.1178 11.8955 21.4943 11.5191 21.9836 11.5191C22.473 11.5191 22.8871 11.8578 22.9624 12.3472C23 12.4978 22.9624 12.6107 22.9624 12.7613C22.9624 15.1705 22.9624 17.5796 22.9624 19.9888C22.9624 21.7957 21.7578 23.0379 19.9133 23.0379C17.1277 23.0002 14.3044 23.0002 11.4812 23.0002Z" fill="#43505F"/>
</svg>
