<svg width="24" height="23" viewBox="0 0 24 23" fill="none" xmlns="http://www.w3.org/2000/svg">
<g clip-path="url(#clip0_373_31402)">
<path d="M12 23C5.65772 23 0.5 17.849 0.5 11.5168C0.5 5.15773 5.66778 -0.0100524 12.0268 1.46835e-05C18.3591 0.0100818 23.5034 5.17115 23.4966 11.5168C23.4899 17.8658 18.349 23 12 23ZM20.4329 11.5168C20.4396 6.8725 16.6779 3.08055 12.0403 3.06042C7.38255 3.04028 3.56711 6.83223 3.56376 11.4832C3.55705 16.1309 7.31208 19.9061 11.9631 19.9262C16.6342 19.9497 20.4262 16.1846 20.4362 11.5134L20.4329 11.5168Z" fill="#5A6B7C"/>
<path d="M11.9597 18.3925C8.12082 18.3724 5.07048 15.2717 5.10069 11.4194C5.13089 7.62744 8.25169 4.57039 12.0738 4.59388C15.8725 4.61737 18.9295 7.73482 18.8993 11.557C18.8691 15.3825 15.792 18.4127 11.9597 18.3925ZM12.7651 9.20127C12.7651 8.46972 12.7651 7.73482 12.7651 7.00328C12.7651 6.79187 12.7483 6.58717 12.6108 6.41603C12.3993 6.15764 12.1175 6.05026 11.802 6.14758C11.4027 6.27174 11.2316 6.57375 11.2316 6.9865C11.2316 8.24489 11.2248 9.50328 11.2383 10.7617C11.2383 11.0503 11.1779 11.265 10.9597 11.4764C10.1007 12.3087 9.26512 13.1576 8.42619 14.01C8.06377 14.3791 8.04364 14.8389 8.35572 15.1509C8.68458 15.4798 9.11746 15.4664 9.49666 15.0905C10.4933 14.104 11.4765 13.1073 12.4732 12.1207C12.6779 11.916 12.7752 11.6912 12.7718 11.3993C12.7618 10.6677 12.7718 9.93281 12.7718 9.20127H12.7651Z" fill="#5A6B7C"/>
<path d="M12.7651 9.20149C12.7651 9.93303 12.7584 10.6679 12.7651 11.3995C12.7684 11.6914 12.6711 11.9163 12.4664 12.1209C11.4731 13.1075 10.4866 14.1042 9.48991 15.0907C9.11072 15.4666 8.67783 15.48 8.34897 15.1512C8.03689 14.8391 8.05702 14.376 8.41944 14.0102C9.25837 13.1612 10.0973 12.3089 10.953 11.4767C11.1711 11.2652 11.2349 11.0505 11.2315 10.7619C11.2181 9.5035 11.2282 8.24511 11.2248 6.98672C11.2248 6.57397 11.3959 6.27196 11.7953 6.14779C12.1107 6.05048 12.3926 6.16122 12.604 6.41625C12.7449 6.58739 12.7617 6.78873 12.7584 7.0035C12.755 7.73504 12.7584 8.46994 12.7584 9.20149H12.7651Z" fill="#ECB6C3"/>
</g>
<defs>
<clipPath id="clip0_373_31402">
<rect width="22.9966" height="23" fill="white" transform="translate(0.5)"/>
</clipPath>
</defs>
</svg>
