<svg width="21" height="23" viewBox="0 0 21 23" fill="none" xmlns="http://www.w3.org/2000/svg">
<g clip-path="url(#clip0_373_31394)">
<path d="M10.8884 20.5991C10.8884 20.197 10.9167 19.7894 10.8828 19.3873C10.8488 18.974 10.9394 18.8324 11.4037 18.8494C12.7003 18.906 13.7762 17.8585 13.8101 16.5902C13.8441 15.1746 12.7173 14.0818 11.2904 14.1781C10.9734 14.2007 10.8658 14.1328 10.8828 13.81C10.9054 13.391 10.9111 12.972 10.8828 12.553C10.8601 12.202 10.996 12.1283 11.3188 12.134C12.0492 12.1567 12.7853 12.1453 13.5157 12.1397C14.4953 12.1397 14.8293 11.6018 14.4047 10.7185C14.2065 10.3108 14.2461 9.9314 14.5236 9.586C14.7954 9.24627 15.1747 9.167 15.5768 9.26892C15.9731 9.37084 16.1996 9.66527 16.2845 10.0616C16.3468 10.3221 16.2562 10.5599 16.1373 10.7921C15.7579 11.5451 16.1203 12.1283 16.9753 12.134C17.768 12.134 18.5608 12.1453 19.3535 12.134C19.6196 12.1283 19.7555 12.2303 19.8801 12.4454C21.3466 15.067 19.7328 18.4701 16.7715 18.9513C16.3978 19.0136 16.2449 19.0702 16.2675 19.5346C16.3242 20.8369 15.7353 21.8504 14.6085 22.5016C13.4704 23.164 12.3096 23.1584 11.1602 22.4902C10.9564 22.3713 10.8714 22.2185 10.8828 21.9806C10.8997 21.5163 10.8828 21.052 10.8828 20.5934L10.8884 20.5991Z" fill="#ECB6C3"/>
<path d="M10.8885 2.89325C10.8885 2.26474 10.8998 1.63624 10.8885 1.00773C10.8885 0.769914 10.9678 0.617033 11.1716 0.503789C12.338 -0.153031 13.5158 -0.181342 14.6595 0.515113C15.7977 1.21157 16.3469 2.27041 16.2676 3.60669C16.2506 3.94077 16.3073 4.0257 16.6413 4.06533C19.6027 4.42772 21.3466 7.84205 19.9311 10.4693C19.8009 10.7128 19.6536 10.8204 19.3762 10.8034C18.9006 10.7807 18.4193 10.7864 17.9436 10.8034C17.7058 10.8091 17.6209 10.7751 17.6435 10.4863C17.7738 9.05943 16.7093 7.89867 15.305 7.89301C13.8838 7.89301 12.8363 9.05376 12.9665 10.5203C12.9892 10.7524 12.9326 10.8034 12.7174 10.8034C12.2248 10.7921 11.7322 10.7864 11.2396 10.8034C10.9564 10.8147 10.8828 10.7015 10.8885 10.4353C10.8998 9.67095 10.8998 8.91221 10.8885 8.14781C10.8772 7.2645 10.294 6.90778 9.51823 7.29847C9.00297 7.55327 8.50469 7.46268 8.18761 7.06632C7.89883 6.69827 7.9045 6.18301 8.18761 5.82063C8.49903 5.42427 9.01429 5.33368 9.51823 5.58848C10.2826 5.96785 10.8658 5.62811 10.8828 4.77878C10.8942 4.15027 10.8828 3.52176 10.8828 2.89325H10.8885Z" fill="#5A6B7C"/>
<path d="M9.54085 20.1011C9.54085 20.7296 9.52953 21.3581 9.54085 21.9866C9.54651 22.2471 9.44459 22.4 9.22943 22.5189C8.05735 23.1587 6.87394 23.1813 5.74149 22.4679C4.60905 21.7601 4.08246 20.6956 4.16739 19.3593C4.18438 19.0706 4.14474 18.9856 3.84464 18.946C0.815348 18.5779 -0.922958 15.1863 0.515249 12.4967C0.651143 12.2476 0.798361 12.1173 1.10412 12.14C1.53445 12.1683 1.97044 12.1683 2.40644 12.14C2.74051 12.1173 2.81978 12.2079 2.79147 12.559C2.68955 13.7707 3.5219 14.8069 4.72795 15.039C5.86606 15.2542 6.99851 14.5804 7.37222 13.4649C7.4798 13.1365 7.55341 12.7968 7.47414 12.4514C7.41751 12.1909 7.51943 12.1456 7.74592 12.1513C8.21023 12.1626 8.67453 12.1683 9.13883 12.1513C9.44459 12.1343 9.55784 12.2362 9.55218 12.5533C9.53519 13.3007 9.54085 14.0482 9.55218 14.7956C9.5635 15.7129 10.1241 16.0582 10.9507 15.6562C11.432 15.4184 11.936 15.5147 12.2474 15.894C12.5475 16.2621 12.5475 16.8113 12.2361 17.1737C11.9133 17.5587 11.432 17.6323 10.9338 17.3832C10.1524 16.9925 9.5635 17.3436 9.55218 18.2269C9.54085 18.8554 9.55218 19.4839 9.55218 20.1124L9.54085 20.1011Z" fill="#5A6B7C"/>
<path d="M9.54083 2.38364C9.54083 2.85927 9.54083 3.34056 9.54083 3.81619C9.54083 4.03135 9.50686 4.12761 9.24073 4.10496C7.77987 3.99172 6.63044 5.01658 6.61912 6.40949C6.60779 7.80807 7.74024 8.87257 9.18977 8.78197C9.48421 8.76498 9.55215 8.83859 9.54083 9.11038C9.52384 9.54071 9.51818 9.9767 9.54083 10.4127C9.56348 10.7468 9.42192 10.8091 9.12182 10.8034C8.35742 10.7864 7.59868 10.7921 6.83428 10.8034C5.95663 10.8091 5.59991 11.3979 5.98495 12.185C6.23975 12.6946 6.14915 13.1985 5.74713 13.5156C5.37909 13.8044 4.86948 13.8044 4.50144 13.5156C4.09942 13.1929 4.01449 12.7059 4.26929 12.185C4.65432 11.4092 4.28627 10.8147 3.41429 10.8091C2.63856 10.8034 1.85718 10.7921 1.08145 10.8147C0.775689 10.826 0.628471 10.7071 0.492577 10.4523C-0.894671 7.84204 0.713404 4.53529 3.62379 4.054C4.00316 3.99172 4.17303 3.9351 4.15038 3.44814C4.09376 2.14583 4.69962 1.13795 5.8264 0.492458C6.95319 -0.153037 8.10262 -0.141713 9.23507 0.509444C9.43891 0.622689 9.53517 0.769907 9.5295 1.01338C9.51252 1.47769 9.5295 1.94199 9.5295 2.40629L9.54083 2.38364Z" fill="#ECB6C3"/>
</g>
<defs>
<clipPath id="clip0_373_31394">
<rect width="20.4293" height="23" fill="white"/>
</clipPath>
</defs>
</svg>
