<svg width="23" height="23" viewBox="0 0 23 23" fill="none" xmlns="http://www.w3.org/2000/svg">
<path d="M16.6476 16.7846C16.2916 16.5929 15.9905 16.456 15.7166 16.2643C15.4976 16.1274 15.3607 16.1274 15.1143 16.2643C14.7035 16.5655 14.2655 16.8119 13.8 17.031C13.5535 17.1405 13.4714 17.25 13.4714 17.5238C13.444 18.8655 13.444 18.8929 12.075 18.8929C11.4726 18.8929 10.8702 18.8929 10.2678 18.8929C9.66545 18.8929 9.39164 18.6465 9.4464 18.0988C9.50117 17.4417 9.33688 17.031 8.65236 16.8393C8.40593 16.7846 8.18688 16.6203 7.99521 16.456C7.61188 16.1 7.31069 16.1822 6.89997 16.4286C6.18807 16.8941 5.94164 16.8119 5.50355 16.0727C5.14759 15.4429 4.76426 14.8131 4.40831 14.156C4.10712 13.6357 4.18926 13.2798 4.7095 13.0607C5.31188 12.7869 5.55831 12.4036 5.39402 11.7738C5.33926 11.5274 5.33926 11.2536 5.4214 11.0072C5.55831 10.5143 5.33926 10.2679 4.90116 10.0488C4.1345 9.66551 4.07974 9.3917 4.51783 8.6798C4.87378 8.05003 5.22974 7.44765 5.58569 6.81789C5.91426 6.27027 6.24283 6.13337 6.76307 6.48932C7.28331 6.87265 7.69402 6.84527 8.1595 6.43456C8.43331 6.21551 8.76188 6.07861 9.11783 5.9417C9.36426 5.85956 9.41902 5.72265 9.41902 5.47623C9.4464 4.10718 9.4464 4.10718 10.8428 4.10718C11.4178 4.10718 12.0202 4.10718 12.5952 4.10718C13.225 4.10718 13.4988 4.32623 13.444 4.92861C13.3893 5.55837 13.5535 5.96908 14.2107 6.16075C14.5393 6.27027 14.8405 6.5167 15.1143 6.73575C15.3059 6.90003 15.4702 6.87265 15.6619 6.76313C16.8393 6.10599 16.8393 6.10599 17.5238 7.28337C17.825 7.80361 18.1535 8.35123 18.4274 8.87146C18.7012 9.36432 18.6464 9.72027 18.1262 9.93932C17.4964 10.2131 17.2774 10.5965 17.4143 11.281C17.4964 11.6096 17.4416 11.9655 17.3869 12.2941C17.3321 12.5405 17.4416 12.65 17.6333 12.7869C18.8107 13.4715 18.8107 13.4988 18.1262 14.6762C17.825 15.2238 17.5238 15.7715 17.1678 16.2917C17.0857 16.4834 16.8666 16.6203 16.6476 16.7846ZM13.4714 11.5C13.4714 10.3774 12.5678 9.47384 11.4452 9.50123C10.35 9.50123 9.47378 10.4048 9.4464 11.5C9.4464 12.6227 10.3226 13.5262 11.4452 13.5262C12.5678 13.5262 13.4714 12.6227 13.4714 11.5Z" fill="#43505F"/>
<path d="M18.4821 2.38224C18.4547 2.21795 18.4274 2.13581 18.4274 2.08105C18.4 1.69771 18.5643 1.42391 18.9202 1.34176C19.3036 1.25962 19.5774 1.39652 19.7143 1.75248C20.0428 2.71081 20.3714 3.66914 20.6726 4.65486C20.8369 5.1751 20.3714 5.64057 19.8512 5.47629C18.8655 5.1751 17.9071 4.87391 16.9762 4.49057C16.7845 4.40843 16.5655 4.07986 16.5381 3.86081C16.5107 3.50486 16.7845 3.28581 17.1952 3.20367C17.0857 3.12152 17.0309 3.03938 16.9488 2.98462C10.7607 -0.985619 2.49165 2.73819 1.42379 10.0215C1.17737 11.7191 1.36903 13.362 1.97141 14.9501C2.02617 15.0596 2.08094 15.1691 2.10832 15.2787C2.21784 15.6894 2.05356 16.0453 1.72498 16.1549C1.36903 16.2918 0.985699 16.1549 0.848794 15.7441C0.547603 14.7858 0.191651 13.8549 0.0821271 12.8691C-0.602397 6.81795 3.25832 1.47867 9.19998 0.246524C12.3762 -0.410618 15.3333 0.301286 18.044 2.08105C18.1536 2.16319 18.2631 2.24533 18.4821 2.38224Z" fill="#ECB6C3"/>
<path d="M4.46308 20.6178C4.49047 20.8095 4.54523 20.9464 4.51785 21.0286C4.38094 21.2476 4.24404 21.5214 4.02499 21.6309C3.7238 21.7678 3.39523 21.6309 3.2857 21.3297C2.92975 20.3167 2.5738 19.3036 2.27261 18.2631C2.1357 17.7976 2.60118 17.3595 3.09404 17.5238C4.07975 17.825 5.06547 18.1536 6.0238 18.5095C6.21547 18.5917 6.40713 18.8928 6.43451 19.1119C6.48928 19.4952 6.1607 19.6869 5.77737 19.7964C5.88689 19.8786 5.94166 19.9333 6.0238 19.9881C12.2393 24.0952 20.7 20.0976 21.5214 12.65C21.6857 11.0619 21.4667 9.52856 20.919 8.02261C20.8917 7.91308 20.8369 7.83094 20.8095 7.72142C20.6726 7.3107 20.8369 6.95475 21.1655 6.81784C21.5488 6.68094 21.9048 6.84522 22.069 7.25594C22.5619 8.4607 22.8631 9.69284 22.9178 11.0071C23.1369 16.894 18.8928 22.0417 13.0607 22.8631C10.0488 23.3012 7.3107 22.5619 4.81904 20.8643C4.73689 20.8095 4.62737 20.7547 4.46308 20.6178Z" fill="#43505F"/>
</svg>
