<svg width="18" height="23" viewBox="0 0 18 23" fill="none" xmlns="http://www.w3.org/2000/svg">
<g clip-path="url(#clip0_373_31277)">
<path d="M-5.25205e-05 12.9607C-5.25205e-05 10.1618 -5.25205e-05 7.36677 -5.25205e-05 4.5678C-5.25205e-05 3.44265 0.552584 2.88604 1.67773 2.89001C2.06339 2.89001 2.57229 2.76677 2.79891 2.96158C3.04143 3.16435 2.85457 3.68915 2.87047 4.0748C2.8824 4.41672 2.86252 4.76262 2.87843 5.10851C2.93011 6.25752 3.79684 7.17593 4.94187 7.18785C7.39494 7.21568 9.848 7.21966 12.3011 7.18785C13.4421 7.17195 14.3128 6.25354 14.3566 5.10454C14.3804 4.47636 14.3725 3.84818 14.3566 3.22001C14.3526 2.98146 14.3923 2.87014 14.6667 2.88604C15.0245 2.90989 15.3863 2.88604 15.7441 2.89399C16.6426 2.91387 17.2271 3.49434 17.235 4.39287C17.243 6.24957 17.235 8.10229 17.235 9.95899C17.235 13.728 17.235 17.5011 17.235 21.2701C17.235 22.4907 16.7142 23.0036 15.4857 23.0036C10.9056 23.0036 6.32942 23.0036 1.7493 23.0036C0.516802 23.0036 -0.00402832 22.4867 -0.00402832 21.2701C-0.00402832 18.503 -0.00402832 15.7358 -0.00402832 12.9647L-5.25205e-05 12.9607ZM5.04524 12.9408C5.30366 12.9329 5.48655 12.7858 5.65751 12.6108C6.53219 11.7322 7.41481 10.8575 8.28949 9.97489C8.68707 9.57731 8.72285 9.15588 8.39684 8.83781C8.0748 8.52372 7.66529 8.56746 7.25976 8.96504C6.59978 9.61707 5.93582 10.2651 5.29969 10.937C5.07704 11.1716 4.94187 11.1597 4.74308 10.9251C4.56019 10.7064 4.34947 10.5156 4.14273 10.3208C3.78093 9.98682 3.36347 9.97887 3.06926 10.289C2.78698 10.5872 2.79493 10.9927 3.12095 11.3306C3.56624 11.7958 4.02743 12.2451 4.48465 12.6983C4.63971 12.8494 4.81862 12.9448 5.04524 12.9408ZM5.04524 18.6859C5.30366 18.6779 5.48655 18.5308 5.65751 18.3559C6.53219 17.4772 7.41481 16.6025 8.28949 15.7199C8.68707 15.3223 8.72285 14.9009 8.39684 14.5828C8.0748 14.2688 7.66529 14.3125 7.25976 14.714C6.59978 15.3661 5.93582 16.0141 5.29969 16.686C5.07704 16.9206 4.94187 16.9087 4.74308 16.6741C4.56019 16.4554 4.34947 16.2646 4.14273 16.0698C3.78093 15.7358 3.36347 15.7279 3.06926 16.038C2.78698 16.3362 2.79493 16.7417 3.12095 17.0796C3.56624 17.5448 4.02743 17.9941 4.48465 18.4473C4.63971 18.5984 4.81862 18.6938 5.04524 18.6898V18.6859ZM12.2096 10.0663C11.7604 10.0663 11.3151 10.0624 10.8658 10.0663C10.3728 10.0743 10.0627 10.3526 10.0587 10.774C10.0508 11.1955 10.3649 11.4976 10.8459 11.5016C11.7564 11.5095 12.6668 11.5095 13.5773 11.5016C14.0584 11.4976 14.3725 11.1955 14.3645 10.774C14.3566 10.3526 14.0464 10.0783 13.5534 10.0703C13.1042 10.0624 12.6589 10.0703 12.2096 10.0703V10.0663ZM12.2414 15.8153C11.7643 15.8153 11.2872 15.8074 10.8101 15.8153C10.3569 15.8273 10.0587 16.1255 10.0587 16.535C10.0587 16.9405 10.3609 17.2427 10.8141 17.2466C11.7405 17.2586 12.6629 17.2546 13.5892 17.2466C14.0504 17.2427 14.3526 16.9564 14.3605 16.5509C14.3725 16.1294 14.0624 15.8273 13.5813 15.8153C13.132 15.8074 12.6867 15.8153 12.2375 15.8153H12.2414Z" fill="#5A6B7C"/>
<path d="M8.60765 5.76104C7.48648 5.76104 6.36133 5.76104 5.24015 5.76104C4.56029 5.76104 4.31379 5.51852 4.30981 4.85456C4.30981 4.01567 4.30981 3.17677 4.30981 2.34186C4.30981 1.70175 4.56427 1.45923 5.21232 1.45525C5.33159 1.45525 5.45087 1.4473 5.57014 1.45525C6.15856 1.50296 6.58 1.41152 6.99348 0.827076C7.86816 -0.409398 9.74871 -0.206632 10.4803 1.12526C10.6274 1.39561 10.7784 1.47513 11.0607 1.45923C11.4344 1.43537 11.8082 1.44332 12.1819 1.45923C12.6312 1.47513 12.9134 1.74549 12.9214 2.19078C12.9333 3.13304 12.9333 4.0753 12.9214 5.01757C12.9134 5.50262 12.6232 5.76104 12.1064 5.76104C10.9375 5.76899 9.77256 5.76104 8.60368 5.76104H8.60765Z" fill="#5A6B7C"/>
<path d="M5.0453 12.9449C4.82265 12.9529 4.63977 12.8574 4.48471 12.7024C4.02749 12.2491 3.5663 11.7999 3.12101 11.3347C2.79897 10.9968 2.78704 10.5912 3.06933 10.2931C3.36353 9.98294 3.78099 9.99089 4.14279 10.3249C4.34953 10.5197 4.56025 10.7105 4.74314 10.9292C4.93795 11.1638 5.07313 11.1757 5.29975 10.9411C5.93985 10.2692 6.60381 9.62114 7.25982 8.96911C7.66535 8.56756 8.07486 8.52382 8.3969 8.84189C8.71894 9.15995 8.68316 9.58139 8.28955 9.97897C7.41488 10.8576 6.53225 11.7363 5.65757 12.6149C5.48661 12.7899 5.30373 12.937 5.0453 12.9449Z" fill="#ECB6C3"/>
<path d="M5.04524 18.6898C4.8226 18.6977 4.63971 18.6023 4.48466 18.4472C4.02744 17.994 3.56625 17.5447 3.12096 17.0796C2.79494 16.7416 2.78699 16.3361 3.06927 16.0379C3.36348 15.7278 3.78094 15.7357 4.14274 16.0697C4.34948 16.2645 4.5602 16.4554 4.74308 16.674C4.9379 16.9086 5.07308 16.9205 5.2997 16.6859C5.9398 16.014 6.60376 15.366 7.25977 14.714C7.6653 14.3124 8.0748 14.2687 8.39684 14.5828C8.71888 14.9008 8.68708 15.3223 8.2895 15.7198C7.41482 16.5985 6.53219 17.4771 5.65752 18.3558C5.48656 18.5307 5.30367 18.6778 5.04524 18.6858V18.6898Z" fill="#ECB6C3"/>
</g>
<defs>
<clipPath id="clip0_373_31277">
<rect width="17.243" height="23" fill="white"/>
</clipPath>
</defs>
</svg>
