<svg width="17" height="23" viewBox="0 0 17 23" fill="none" xmlns="http://www.w3.org/2000/svg">
<g clip-path="url(#clip0_296_15929)">
<path d="M9.54818 12.4179C9.51126 10.8142 9.8225 9.09977 10.6085 7.48028C10.8301 7.02133 11.1308 6.61514 11.4789 6.2406C12.7397 4.87431 15.2665 5.1117 16.0051 7.10573C16.5115 8.46674 16.6328 9.87523 16.5009 11.2995C16.348 12.9243 15.9365 14.5016 15.2771 15.9998C14.6388 17.4557 14.5755 17.4768 13.072 17.1023C12.2913 16.9071 11.5106 16.7172 10.7193 16.5484C10.3711 16.4745 10.1865 16.3005 10.0757 15.9576C9.72227 14.8656 9.61676 13.7367 9.54291 12.4179H9.54818Z" fill="#5A6B7C"/>
<path d="M7.00021 6.97385C6.93163 8.40872 6.82085 9.53234 6.46214 10.619C6.35663 10.9303 6.1931 11.1096 5.85549 11.1835C4.75296 11.4314 3.65044 11.6952 2.55847 11.9906C2.27361 12.0644 2.11007 11.9906 1.94654 11.7954C1.49287 11.2468 1.21329 10.6032 0.981176 9.94381C0.179341 7.68073 -0.284879 5.37546 0.189891 2.96468C0.263744 2.58486 0.353423 2.20505 0.495855 1.84633C1.30296 -0.174082 3.59769 -0.627752 5.11168 0.944266C5.92407 1.7883 6.31443 2.84862 6.60985 3.95115C6.90526 5.03784 7.03186 6.14564 7.00021 6.97385Z" fill="#5A6B7C"/>
<path d="M8.95209 20.5787C8.96791 19.339 9.41103 18.3578 9.99658 17.4241C10.0915 17.2764 10.1812 17.2869 10.3289 17.3344C11.4684 17.6826 12.6078 18.0149 13.7525 18.3631C13.8844 18.4053 14.0374 18.4158 14.0058 18.6479C13.8686 19.6872 13.6734 20.7106 13.1195 21.6232C12.7714 22.1982 12.3177 22.6677 11.6688 22.8945C10.4661 23.3165 9.2475 22.4883 9.01539 21.1009C8.97846 20.8952 8.97319 20.6842 8.96264 20.5839L8.95209 20.5787Z" fill="#ECB6C3"/>
<path d="M7.59634 15.2665C7.58052 15.3931 7.58052 15.6252 7.52777 15.8415C7.32731 16.675 6.89474 17.3397 6.02433 17.5771C5.15391 17.8144 4.44176 17.4768 3.86148 16.8333C3.0913 15.9787 2.80644 14.9131 2.62708 13.8106C2.6007 13.6628 2.59543 13.5099 2.56905 13.3674C2.52685 13.1722 2.57433 13.0826 2.79061 13.0193C3.93534 12.6869 5.07478 12.3335 6.21423 11.9853C6.37777 11.9326 6.48327 11.9589 6.5835 12.1172C7.16905 13.0562 7.60162 14.0427 7.60162 15.2718L7.59634 15.2665Z" fill="#ECB6C3"/>
</g>
<defs>
<clipPath id="clip0_296_15929">
<rect width="16.5537" height="23" fill="white"/>
</clipPath>
</defs>
</svg>
