<svg width="26" height="23" viewBox="0 0 26 23" fill="none" xmlns="http://www.w3.org/2000/svg">
<path d="M12.6468 23C11.2939 21.4268 9.97238 19.9166 8.68237 18.3434C7.80138 17.2736 7.07772 16.078 6.82601 14.6621C6.2282 11.6102 8.11602 8.65256 11.1365 7.80304C14.0627 7.01644 17.1776 8.65256 18.2473 11.5472C18.8137 13.0575 18.7193 14.5677 18.0586 16.0151C17.7439 16.6758 17.3978 17.3366 16.9573 17.9029C15.5415 19.6334 14.0627 21.301 12.6468 23ZM12.6468 17.1478C14.5661 17.1478 16.2022 15.5117 16.2022 13.5924C16.2022 11.6416 14.5976 10.0055 12.6468 10.0055C10.696 10.0055 9.05993 11.6416 9.05993 13.5924C9.05993 15.5431 10.696 17.1478 12.6468 17.1478Z" fill="#43505F"/>
<path d="M12.6154 0C13.6537 0 14.5347 0.849521 14.5347 1.85636C14.5661 2.89466 13.6851 3.80711 12.6154 3.80711C11.5771 3.80711 10.7275 2.95759 10.7275 1.91929C10.7275 0.880985 11.5771 0 12.6154 0Z" fill="#ECB6C3"/>
<path d="M4.05717 12.3967C4.05717 13.435 3.20765 14.2845 2.16935 14.316C1.13104 14.316 0.218594 13.435 0.250058 12.3967C0.250058 11.3584 1.13104 10.5089 2.16935 10.5089C3.20765 10.4774 4.05717 11.3584 4.05717 12.3967Z" fill="#ECB6C3"/>
<path d="M23.1557 14.2847C22.1174 14.2847 21.2364 13.4666 21.2364 12.4283C21.2049 11.39 22.0859 10.4775 23.1557 10.4775C24.194 10.4775 25.0435 11.3271 25.0435 12.3654C25.0121 13.4037 24.1625 14.2847 23.1557 14.2847Z" fill="#ECB6C3"/>
<path d="M3.3335 4.93983C3.3335 3.90152 4.18302 3.052 5.22132 3.052C6.25962 3.052 7.10915 3.90152 7.14061 4.93983C7.14061 5.97813 6.22816 6.89058 5.18986 6.85912C4.15155 6.85912 3.3335 6.00959 3.3335 4.93983Z" fill="#ECB6C3"/>
<path d="M20.0093 3.0835C21.0476 3.0835 21.9286 3.90155 21.9286 4.93986C21.96 6.00962 21.0791 6.89061 20.0407 6.89061C19.0339 6.89061 18.1529 6.00962 18.1215 5.00278C18.1215 3.96448 18.971 3.0835 20.0093 3.0835Z" fill="#ECB6C3"/>
</svg>
