<svg width="23" height="23" viewBox="0 0 23 23" fill="none" xmlns="http://www.w3.org/2000/svg">
<g clip-path="url(#clip0_373_31513)">
<path d="M0.406018 20.674C-0.253784 19.1344 -0.101522 17.7387 0.871262 16.4783C1.85251 15.1926 3.18903 14.685 4.78778 14.9388C5.06692 14.9811 5.21918 14.9134 5.40528 14.7358C8.50973 11.6144 11.6142 8.50149 14.7186 5.38858C14.8963 5.21094 14.9809 5.06714 14.9301 4.77954C14.6594 3.18079 15.1839 1.85272 16.4612 0.863022C17.7216 -0.109762 19.1258 -0.262024 20.6822 0.406237C20.0478 1.0322 19.4641 1.64971 18.8382 2.208C18.5083 2.50407 18.5252 2.75784 18.5844 3.17233C18.7367 4.15357 19.481 4.272 20.2001 4.49193C20.4115 4.5596 20.4961 4.39042 20.6061 4.28046C21.249 3.63757 21.8834 2.98623 22.5347 2.32643C23.4906 4.03514 22.8223 6.33599 21.0967 7.4695C20.1916 8.06162 19.1934 8.23926 18.1445 8.03625C17.9415 7.99395 17.8146 8.03625 17.6793 8.17159C14.5241 11.3437 11.3689 14.5074 8.20521 17.671C8.04449 17.8318 8.03603 17.9671 8.07832 18.1786C8.34055 19.7435 7.85839 21.0546 6.63184 22.0528C5.45604 23.0087 4.11952 23.2455 2.67303 22.7211C2.61381 22.7041 2.56306 22.6788 2.51231 22.6534C2.47847 22.6365 2.44463 22.6111 2.36004 22.5688C3.01985 21.909 3.65427 21.2661 4.30561 20.6317C4.50017 20.4456 4.50863 20.2764 4.46633 20.0142C4.32253 19.1514 3.84037 18.7115 2.99447 18.5508C2.71532 18.5 2.56306 18.5339 2.37696 18.7284C1.751 19.3713 1.11657 19.9973 0.431395 20.6824L0.406018 20.674Z" fill="#5A6B7C"/>
<path d="M14.8878 18.9396C14.8878 18.8212 14.854 18.6858 14.8878 18.5843C15.1078 17.9922 14.7948 17.6284 14.3888 17.2562C13.7966 16.7064 13.2468 16.1143 12.6631 15.556C12.5024 15.3953 12.4347 15.3022 12.6377 15.1077C13.4667 14.3041 14.2788 13.492 15.0824 12.663C15.2685 12.4685 15.37 12.5023 15.5392 12.6799C16.2159 13.3736 16.918 14.0587 17.5947 14.7524C17.7723 14.9385 17.9246 15.0146 18.2122 14.9554C20.3862 14.5409 22.5094 16.0043 22.8816 18.136C23.2961 20.5299 21.875 22.5685 19.5572 22.9238C17.0787 23.3044 14.8878 21.435 14.8878 18.948V18.9396ZM17.5101 19.1257C17.4847 19.3456 18.3983 20.403 18.5844 20.3692C19.0327 20.2761 19.5572 20.2507 19.904 19.9885C20.2593 19.7263 20.1916 19.1426 20.3354 18.7112C20.3946 18.5336 19.4726 17.4762 19.2611 17.5185C18.8043 17.5946 18.2883 17.6369 17.9415 17.8907C17.5863 18.1529 17.6793 18.745 17.5017 19.1257H17.5101Z" fill="#ECB6C3"/>
<path d="M0.0422636 4.06873C0.0338046 1.641 1.99629 -0.186141 4.41556 0.0168746C6.76716 0.211431 8.46742 2.44461 8.04447 4.81312C8.00218 5.05843 8.04447 5.19378 8.21365 5.3545C8.90729 6.03122 9.58401 6.73331 10.2861 7.41003C10.506 7.62151 10.4807 7.73147 10.2861 7.92603C9.49096 8.6958 8.70427 9.48249 7.94296 10.2776C7.71457 10.5145 7.6046 10.4806 7.40159 10.2607C6.72487 9.55862 6.03123 8.8819 5.34605 8.18826C5.19379 8.036 5.06691 7.98524 4.83851 8.036C2.2839 8.52662 0.0422636 6.66564 0.0422636 4.06873ZM3.82343 5.48984C4.21255 5.37142 4.74546 5.3545 5.06691 5.08381C5.38835 4.80466 5.36297 4.23791 5.4814 3.79804C5.53215 3.61195 4.55091 2.57995 4.37327 2.6307C3.91648 2.75759 3.33281 2.73221 3.04521 3.06211C2.77452 3.37509 2.74914 3.91647 2.64763 4.3648C2.60534 4.52552 3.59504 5.48138 3.83189 5.48984H3.82343Z" fill="#ECB6C3"/>
</g>
<defs>
<clipPath id="clip0_373_31513">
<rect width="22.9577" height="23" fill="white"/>
</clipPath>
</defs>
</svg>
