<svg width="24" height="23" viewBox="0 0 24 23" fill="none" xmlns="http://www.w3.org/2000/svg">
<g clip-path="url(#clip0_299_24193)">
<path d="M0.249971 11.8051C0.249971 8.49793 0.249971 5.19958 0.249971 1.8924C0.249971 0.539454 1.11656 -0.167966 2.45182 0.0354169C5.74132 0.548297 9.03082 1.04349 12.3292 1.52984C13.7617 1.74207 14.2569 2.28148 14.2569 3.74053C14.2569 10.0012 14.2569 16.2619 14.2569 22.5225C14.2569 22.8851 14.195 23.0089 13.7971 23C12.7006 22.9735 11.5952 22.9824 10.4899 23C10.1892 23 10.1096 22.9205 10.1185 22.6287C10.1362 21.1165 10.1273 19.6133 10.1185 18.1012C10.1185 16.8985 9.44643 16.2353 8.23498 16.2265C7.55408 16.2265 6.87319 16.2265 6.20114 16.2265C5.01621 16.2265 4.32648 16.9251 4.32648 18.1188C4.32648 19.6133 4.31764 21.1077 4.32648 22.6021C4.32648 22.9116 4.26458 23.0089 3.9374 23C3.07965 22.9735 2.21306 23 1.35531 22.9912C0.577152 22.9912 0.2146 22.6375 0.2146 21.8593C0.2146 18.5079 0.2146 15.1565 0.2146 11.814L0.249971 11.8051ZM9.67634 5.34991C9.9151 5.34991 10.1539 5.35875 10.4015 5.34991C10.8082 5.33223 11.0912 5.0581 11.1177 4.68671C11.1442 4.31531 10.8878 3.9616 10.4987 3.93507C9.94163 3.8997 9.38453 3.8997 8.83628 3.93507C8.4472 3.9616 8.18192 4.333 8.23498 4.70439C8.28803 5.09347 8.51794 5.33223 8.91587 5.34991C9.17231 5.3676 9.42875 5.34991 9.68519 5.34991H9.67634ZM9.67634 8.25033C9.9151 8.25033 10.1539 8.25918 10.4015 8.25033C10.8082 8.22381 11.0912 7.94968 11.1089 7.57828C11.1266 7.20689 10.8701 6.85318 10.481 6.82665C9.94163 6.79128 9.40222 6.79128 8.86281 6.82665C8.46489 6.85318 8.20845 7.19805 8.21729 7.56944C8.23498 7.94084 8.5091 8.23265 8.91587 8.25033C9.17231 8.26802 9.42875 8.25033 9.68519 8.25033H9.67634ZM9.6675 11.1419C9.92394 11.1419 10.1804 11.1596 10.4368 11.1419C10.8436 11.1154 11.0735 10.8766 11.1089 10.4787C11.1442 10.0808 10.9232 9.78897 10.5341 9.73592C9.95931 9.65633 9.35801 9.64749 8.78323 9.73592C8.39415 9.79782 8.19076 10.0896 8.22613 10.4876C8.26151 10.8766 8.50026 11.1154 8.90703 11.1419C9.16347 11.1596 9.4199 11.1419 9.67634 11.1419H9.6675ZM9.64097 14.0423C9.89741 14.0423 10.1539 14.0512 10.4103 14.0423C10.8082 14.0158 11.0912 13.7328 11.1089 13.3614C11.1266 12.99 10.8613 12.6452 10.4634 12.6187C9.92394 12.5833 9.38453 12.5833 8.84513 12.6187C8.4472 12.6452 8.19076 12.9989 8.21729 13.3703C8.23498 13.7417 8.51794 14.0247 8.92471 14.0423C9.16347 14.06 9.40222 14.0423 9.64982 14.0423H9.64097ZM4.81283 5.35875C5.08696 5.35875 5.35224 5.37644 5.62636 5.35875C6.03313 5.33223 6.26304 5.07579 6.28957 4.68671C6.3161 4.29762 6.10387 3.98813 5.70595 3.95276C5.14001 3.8997 4.56523 3.8997 3.9993 3.95276C3.60137 3.97928 3.37146 4.33299 3.41568 4.72208C3.45989 5.12 3.69864 5.34107 4.09657 5.3676C4.33532 5.38528 4.57408 5.3676 4.82167 5.3676L4.81283 5.35875ZM4.83936 8.25918C5.0958 8.25918 5.35224 8.26802 5.60868 8.25918C6.01545 8.24149 6.2542 7.98505 6.28073 7.60481C6.3161 7.21573 6.11272 6.91508 5.71479 6.85318C5.14001 6.76475 4.54755 6.77359 3.96393 6.85318C3.57485 6.90624 3.37146 7.19805 3.40683 7.60481C3.43336 8.00274 3.67212 8.23265 4.07004 8.25918C4.32648 8.27686 4.58292 8.25918 4.83936 8.25918ZM4.7863 11.1596C5.02506 11.1596 5.26381 11.1596 5.51141 11.1596C5.53794 11.1596 5.57331 11.1596 5.59984 11.1596C5.99776 11.1242 6.29841 10.8413 6.29841 10.4699C6.29841 10.0808 6.08619 9.78013 5.69711 9.74476C5.13117 9.70055 4.55639 9.70055 3.99045 9.74476C3.60137 9.78013 3.38915 10.0808 3.41568 10.4787C3.4422 10.8766 3.67212 11.1065 4.07004 11.1508C4.30879 11.1684 4.54755 11.1508 4.79515 11.1508L4.7863 11.1596ZM4.85704 14.06C5.11348 14.06 5.36992 14.0777 5.62636 14.06C6.03313 14.0335 6.26304 13.7771 6.28957 13.3968C6.3161 13.0077 6.10387 12.6982 5.71479 12.654C5.14886 12.601 4.57408 12.601 4.00814 12.6452C3.61022 12.6717 3.37146 13.0254 3.41568 13.4145C3.45989 13.8124 3.69864 14.0335 4.09657 14.06C4.35301 14.0777 4.60945 14.06 4.86589 14.06H4.85704Z" fill="#5A6B7C"/>
<path d="M15.2119 15.8995C15.2119 13.6799 15.2119 11.4604 15.2119 9.2497C15.2119 8.93136 15.2561 8.84294 15.6098 8.92252C17.6967 9.38234 19.7925 9.8068 21.8882 10.2401C22.9405 10.4612 23.4357 11.0625 23.4357 12.1413C23.4357 15.1301 23.4357 18.119 23.4357 21.099C23.4357 22.3281 22.7636 23.0002 21.5345 23.0002C19.5714 23.0002 17.6083 22.9913 15.6541 23.009C15.2915 23.009 15.2119 22.9029 15.2119 22.558C15.2296 20.3385 15.2119 18.119 15.2119 15.9083V15.8995ZM19.0585 14.2989C19.3326 14.2989 19.5979 14.3166 19.872 14.2989C20.2611 14.2635 20.5353 13.954 20.5353 13.5738C20.5353 13.2024 20.2523 12.8752 19.8632 12.8575C19.3503 12.8399 18.8374 12.8399 18.3246 12.8575C17.9266 12.8752 17.6437 13.1847 17.6348 13.5561C17.626 13.9452 17.9178 14.2635 18.3334 14.2901C18.5722 14.3078 18.8109 14.2901 19.0585 14.2901V14.2989ZM19.085 15.7491C18.8463 15.7491 18.5987 15.7403 18.3599 15.7491C17.9355 15.7668 17.6437 16.0586 17.6348 16.4565C17.6348 16.8456 17.9178 17.1728 18.3334 17.1905C18.8286 17.2082 19.3238 17.2082 19.819 17.1905C20.2346 17.1728 20.5264 16.8545 20.5264 16.4654C20.5264 16.0763 20.2258 15.7757 19.8013 15.7491C19.5625 15.7403 19.3238 15.7491 19.0762 15.7491H19.085ZM19.085 20.0909C19.315 20.0909 19.536 20.0909 19.7659 20.0909C19.7925 20.0909 19.8278 20.0909 19.8544 20.0909C20.2434 20.0467 20.5264 19.746 20.5264 19.3747C20.5264 19.0033 20.2523 18.6761 19.8632 18.6584C19.3503 18.6319 18.8374 18.6407 18.3246 18.6584C17.909 18.6761 17.6171 19.0033 17.626 19.3923C17.6348 19.7637 17.9178 20.0644 18.3157 20.0909C18.5722 20.1086 18.8286 20.0909 19.085 20.0909Z" fill="#ECB6C3"/>
</g>
<defs>
<clipPath id="clip0_299_24193">
<rect width="23.1857" height="23" fill="white" transform="translate(0.25)"/>
</clipPath>
</defs>
</svg>
