<svg width="13" height="23" viewBox="0 0 13 23" fill="none" xmlns="http://www.w3.org/2000/svg">
<g clip-path="url(#clip0_296_15923)">
<path d="M9.93207 3.64297C10.5272 3.64297 11.1103 3.62493 11.6874 3.64297C12.2525 3.661 12.6132 4.02771 12.6132 4.53868C12.6132 5.04966 12.2585 5.41035 11.6874 5.42838C11.1223 5.44642 10.5573 5.42838 9.96213 5.42838V6.82305C10.4972 6.82305 11.0262 6.82305 11.5612 6.82305C12.2164 6.82305 12.6132 7.17172 12.6132 7.72478C12.6132 8.27784 12.2104 8.61448 11.5552 8.62049C11.0322 8.62049 10.5152 8.62049 9.96213 8.62049V9.96707C10.5212 9.96707 11.0803 9.96707 11.6453 9.96707C12.0962 9.96707 12.4329 10.1594 12.5771 10.5983C12.7635 11.1754 12.3727 11.7405 11.7475 11.7585C10.8338 11.7825 9.92005 11.7765 9.0063 11.7585C8.52538 11.7465 8.20677 11.4279 8.14665 10.9409C8.12862 10.7786 8.12862 10.6103 8.12862 10.448C8.12862 8.34997 8.13463 6.25797 8.12862 4.15996C8.12261 2.78934 7.16077 1.79143 5.89234 1.79143C4.78021 1.79143 3.80635 2.63905 3.6741 3.74516C3.64404 3.96759 3.64404 4.19603 3.64404 4.41845C3.64404 7.62258 3.63803 10.8267 3.64404 14.0308C3.64404 14.5058 3.5178 14.8845 3.19318 15.2452C1.95481 16.6398 2.0029 18.7078 3.27133 20.0604C4.52172 21.3889 6.5476 21.5753 8.00839 20.4932C9.49924 19.3871 9.90802 17.3672 8.95821 15.7622C8.5374 15.0528 8.57948 14.5478 9.07242 14.2352C9.5834 13.9166 10.0824 14.127 10.5152 14.8544C11.6874 16.8262 11.471 19.345 9.98016 21.0944C8.47729 22.8617 6.02459 23.4689 3.86647 22.6032C1.74441 21.7676 0.385807 19.6155 0.506037 17.3191C0.566152 16.195 0.950888 15.1971 1.61816 14.2953C1.75643 14.109 1.82256 13.8325 1.82256 13.598C1.83458 10.4841 1.82256 7.3701 1.83458 4.25614C1.83458 2.38055 2.79041 0.919759 4.37744 0.288551C6.6558 -0.619185 9.20468 0.697333 9.79381 3.0839C9.83589 3.2402 9.86594 3.40251 9.92005 3.64297H9.93207Z" fill="#5A6B7C"/>
<path d="M6.78204 9.93701C6.78204 11.8246 6.78204 13.7062 6.78204 15.5938C6.78204 15.8764 6.83615 16.0808 7.0706 16.2912C7.8581 16.9765 7.87614 18.1607 7.15476 18.8881C6.45141 19.5975 5.32125 19.5915 4.6179 18.8881C3.89652 18.1607 3.92658 16.9825 4.70808 16.2912C4.92449 16.0988 4.99663 15.9124 4.99663 15.6419C4.99062 11.9148 4.99663 8.19367 4.99663 4.46654C4.99663 4.25614 4.99663 4.04573 5.03871 3.84134C5.12287 3.42655 5.5016 3.15002 5.9224 3.16204C6.32517 3.17407 6.67384 3.4506 6.758 3.84736C6.79407 4.03371 6.80008 4.23209 6.80008 4.42446C6.80008 6.26398 6.80008 8.1035 6.80008 9.94302L6.78204 9.93701Z" fill="#ECB6C3"/>
</g>
<defs>
<clipPath id="clip0_296_15923">
<rect width="12.1132" height="23" fill="white" transform="translate(0.5)"/>
</clipPath>
</defs>
</svg>
