<svg width="23" height="23" viewBox="0 0 23 23" fill="none" xmlns="http://www.w3.org/2000/svg">
<path d="M11.5001 18.901C7.40107 18.901 4.09909 15.561 4.13704 11.462C4.13704 7.40098 7.47698 4.099 11.538 4.099C15.637 4.099 18.939 7.43893 18.9011 11.5379C18.8631 15.599 15.5611 18.901 11.5001 18.901ZM12.3351 9.1089C12.3351 8.57755 12.3351 8.04619 12.3351 7.51484C12.3351 6.94553 12.0314 6.60395 11.538 6.566C11.0446 6.566 10.703 6.90758 10.703 7.51484C10.703 8.80527 10.703 10.0577 10.703 11.3482C10.703 11.7277 10.8549 12.0313 11.1964 12.2591C11.9555 12.7525 12.6766 13.2459 13.3978 13.7393C13.8912 14.0808 14.3846 14.0049 14.6502 13.5874C14.9159 13.17 14.8021 12.7145 14.3087 12.3729C13.7394 11.9934 13.17 11.6139 12.6007 11.2343C12.4489 11.1205 12.3351 10.9307 12.3351 10.7409C12.2971 10.2096 12.3351 9.64025 12.3351 9.1089Z" fill="#43505F"/>
<path d="M6.11056 3.22609C7.0594 3.33995 7.40099 3.60563 7.36303 4.13698C7.36303 4.70629 6.98349 4.93401 6.11056 4.93401C5.46534 4.93401 4.82013 4.93401 4.17491 4.93401C3.56765 4.93401 3.26402 4.59243 3.26402 3.98517C3.26402 3.26404 3.26402 2.50497 3.26402 1.78385C3.26402 1.21454 3.56765 0.835001 4.06105 0.835001C4.55445 0.797047 4.89604 1.17659 4.93399 1.74589C4.93399 1.8218 4.93399 1.89771 4.93399 2.04952C5.12376 1.93566 5.23762 1.85975 5.38943 1.78385C12.4109 -2.58084 21.5957 1.63203 22.8482 9.7921C23.9868 17.231 17.6865 23.797 10.2096 22.9241C4.44059 22.2409 -0.0379585 17.3449 -4.69616e-06 11.6518C-4.69616e-06 11.2723 0.0759029 10.8928 0.455441 10.7789C0.683164 10.703 1.10066 10.703 1.25247 10.8548C1.48019 11.0446 1.59405 11.4241 1.63201 11.7277C1.82178 15.1815 3.30198 17.9142 6.18646 19.7739C9.5264 21.9753 13.8531 21.8614 17.1551 19.5842C20.3812 17.3449 21.9752 13.3218 21.1782 9.56437C20.3432 5.57923 17.3449 2.58088 13.3597 1.8218C10.8168 1.3284 8.46369 1.8218 6.11056 3.22609Z" fill="#ECB6C3"/>
</svg>
