<svg width="21" height="24" viewBox="0 0 21 24" fill="none" xmlns="http://www.w3.org/2000/svg">
<path d="M5.17048 23.1041C3.60066 23.1041 2.07405 23.1113 0.547436 23.1041C0.230591 23.1041 0.00736038 22.8521 0.000159376 22.5569C-0.00704163 22.2472 0.230591 21.9952 0.547436 21.9736C0.734662 21.9592 0.921888 21.9736 1.13792 21.9736C1.13792 21.8368 1.13792 21.7215 1.13792 21.6063C1.13792 14.9382 1.13792 8.27006 1.13792 1.60194C1.13792 1.51552 1.13792 1.42191 1.13792 1.3355C1.15952 0.586594 1.62038 0.118529 2.36209 0.111328C3.23341 0.111328 4.10473 0.111328 4.97605 0.111328C7.4748 0.111328 9.97355 0.111328 12.4723 0.111328C13.358 0.111328 13.7973 0.550589 13.7973 1.42911C13.7973 2.11321 13.7973 2.7973 13.8045 3.4814C13.8045 3.4958 13.8189 3.5174 13.8333 3.56781C13.9197 3.56781 14.0133 3.56781 14.1069 3.56781C15.4895 3.56781 16.8721 3.56781 18.2547 3.56781C19.0972 3.56781 19.5509 4.02147 19.5509 4.87119C19.5509 10.4448 19.5509 16.0183 19.5509 21.5847C19.5509 21.6999 19.5509 21.8151 19.5509 21.9664C19.7381 21.9664 19.9037 21.9664 20.0694 21.9664C20.4366 21.9736 20.6886 22.2112 20.6958 22.5352C20.6958 22.8593 20.451 23.1041 20.0838 23.1113C19.3132 23.1185 18.5355 23.1113 17.765 23.1113C15.2159 23.1113 12.6595 23.1113 10.1104 23.1113C10.0024 23.1113 9.90154 23.1113 9.76472 23.1113C9.76472 22.9817 9.76472 22.8809 9.76472 22.7873C9.76472 21.7791 9.76472 20.771 9.76472 19.7701C9.76472 18.978 9.29665 18.5171 8.50454 18.5171C7.79164 18.5171 7.08595 18.5171 6.37305 18.5171C5.65295 18.5243 5.17048 18.9996 5.17048 19.7197C5.16328 20.7422 5.17048 21.7719 5.17048 22.7945C5.17048 22.8881 5.17048 22.9817 5.17048 23.1041ZM5.71775 5.85053C5.92658 5.85053 6.12821 5.85773 6.33704 5.85053C6.66829 5.83612 6.89152 5.61289 6.89872 5.28165C6.90592 4.9072 6.90592 4.52554 6.89872 4.15109C6.89152 3.79824 6.66829 3.57501 6.32264 3.56781C5.94819 3.56061 5.56653 3.56061 5.19208 3.56781C4.84643 3.57501 4.6232 3.76944 4.6088 4.10788C4.5872 4.51114 4.5872 4.9144 4.6088 5.31765C4.6232 5.6417 4.85363 5.83612 5.17768 5.85053C5.3577 5.85773 5.53773 5.85053 5.71775 5.85053ZM9.18864 3.56781C9.00861 3.56781 8.82859 3.56061 8.64856 3.56781C8.28131 3.58221 8.06528 3.78384 8.05088 4.15829C8.03648 4.52554 8.03648 4.89279 8.05088 5.26004C8.06528 5.6273 8.28131 5.84333 8.64856 5.85053C9.02301 5.85773 9.40467 5.85773 9.77912 5.85053C10.1176 5.84333 10.3408 5.6201 10.348 5.28885C10.3624 4.89999 10.3624 4.51834 10.348 4.12949C10.3408 3.79824 10.1176 3.58221 9.78632 3.56781C9.58469 3.56061 9.38306 3.56781 9.18864 3.56781ZM5.73936 9.30701C5.92658 9.30701 6.11381 9.31421 6.30824 9.30701C6.67549 9.29261 6.89152 9.07658 6.89872 8.70933C6.90592 8.34207 6.90592 7.97482 6.89872 7.60757C6.89152 7.24752 6.66829 7.03149 6.30104 7.02429C5.93378 7.01709 5.56653 7.01709 5.19928 7.02429C4.84643 7.03149 4.6232 7.24032 4.6088 7.59317C4.5944 7.98202 4.5944 8.36368 4.6088 8.75253C4.6232 9.10538 4.85363 9.29981 5.20648 9.31421C5.37931 9.31421 5.55933 9.30701 5.73936 9.30701ZM9.19584 9.30701C9.39027 9.30701 9.59189 9.31421 9.78632 9.30701C10.1176 9.29261 10.3336 9.06938 10.348 8.73813C10.3552 8.36368 10.3552 7.98202 10.348 7.60757C10.3408 7.25472 10.1176 7.03869 9.77192 7.02429C9.39747 7.01709 9.01581 7.01709 8.64136 7.02429C8.29571 7.03149 8.07248 7.23312 8.05808 7.56437C8.03648 7.96762 8.03648 8.37088 8.05808 8.77413C8.07968 9.09818 8.30291 9.28541 8.62696 9.29981C8.81419 9.31421 9.00141 9.30701 9.19584 9.30701ZM16.116 7.01709C15.9288 7.01709 15.7415 7.00989 15.5471 7.01709C15.1943 7.03149 14.9638 7.22592 14.9494 7.57877C14.935 7.96762 14.935 8.34928 14.9494 8.73813C14.9638 9.09098 15.1871 9.29261 15.5399 9.30701C15.9144 9.31421 16.296 9.31421 16.6705 9.30701C17.0089 9.29981 17.2322 9.07658 17.2394 8.74533C17.2538 8.35648 17.2538 7.97482 17.2394 7.58597C17.2322 7.25472 17.0089 7.03869 16.6777 7.02429C16.4905 7.00989 16.3032 7.01709 16.116 7.01709ZM5.74656 12.7563C5.93379 12.7563 6.12101 12.7635 6.31544 12.7563C6.66829 12.7419 6.89152 12.5259 6.89872 12.1802C6.90592 11.8058 6.90592 11.4241 6.89872 11.0497C6.89152 10.704 6.66829 10.4808 6.32264 10.4736C5.94819 10.4664 5.56653 10.4664 5.19208 10.4736C4.85363 10.4808 4.6232 10.6824 4.6088 11.0208C4.5872 11.4169 4.5872 11.813 4.6088 12.209C4.6232 12.5475 4.84643 12.7491 5.18488 12.7635C5.36491 12.7635 5.55933 12.7563 5.74656 12.7563ZM10.348 11.6113C10.348 11.4313 10.3552 11.2513 10.348 11.0713C10.3336 10.704 10.1248 10.4808 9.76472 10.4736C9.39747 10.4664 9.03022 10.4664 8.66296 10.4736C8.29571 10.4808 8.07248 10.6896 8.05808 11.0569C8.04368 11.4313 8.04368 11.813 8.05808 12.1874C8.07248 12.5403 8.29571 12.7491 8.64136 12.7635C9.01581 12.7707 9.39747 12.7707 9.77192 12.7635C10.1176 12.7563 10.3336 12.5331 10.348 12.1874C10.3552 11.9858 10.348 11.7986 10.348 11.6113ZM16.1304 10.4664C15.936 10.4664 15.7343 10.4592 15.5399 10.4664C15.2015 10.4808 14.9782 10.6752 14.9566 11.0136C14.935 11.4097 14.935 11.8058 14.9566 12.2018C14.971 12.5403 15.1943 12.7419 15.5327 12.7563C15.9216 12.7635 16.3032 12.7635 16.6921 12.7563C17.0089 12.7491 17.2322 12.5259 17.2466 12.209C17.261 11.813 17.261 11.4169 17.2466 11.0208C17.2394 10.704 17.0161 10.488 16.6921 10.4736C16.5049 10.4592 16.3176 10.4664 16.1304 10.4664ZM5.73936 16.2056C5.92658 16.2056 6.11381 16.2128 6.30824 16.2056C6.67549 16.1912 6.89152 15.9751 6.89872 15.6151C6.90592 15.2478 6.90592 14.8806 6.89872 14.5133C6.89152 14.1533 6.66829 13.9373 6.30104 13.9229C5.93378 13.9157 5.56653 13.9157 5.19928 13.9229C4.84643 13.9301 4.6232 14.1389 4.6088 14.4917C4.5944 14.8806 4.5944 15.2622 4.6088 15.6511C4.6232 16.0039 4.85363 16.1984 5.20648 16.2128C5.37931 16.2128 5.55933 16.2056 5.73936 16.2056ZM10.348 15.0678C10.348 14.8806 10.3552 14.6934 10.348 14.4989C10.3336 14.1533 10.1176 13.9301 9.76472 13.9229C9.39027 13.9157 9.00861 13.9157 8.63416 13.9229C8.29571 13.9301 8.07248 14.1317 8.05088 14.4701C8.02928 14.8662 8.02928 15.2622 8.05088 15.6583C8.06528 15.9967 8.28851 16.1984 8.62696 16.2128C9.00141 16.22 9.38306 16.22 9.75752 16.2128C10.1176 16.2056 10.3336 15.9751 10.3408 15.6151C10.3552 15.4279 10.348 15.2478 10.348 15.0678ZM16.1088 16.2056C16.296 16.2056 16.4833 16.2128 16.6777 16.2056C17.0233 16.1912 17.2466 15.9751 17.2538 15.6223C17.261 15.255 17.261 14.8878 17.2538 14.5205C17.2466 14.1533 17.0305 13.9301 16.6633 13.9229C16.2888 13.9157 15.9072 13.9157 15.5327 13.9229C15.1943 13.9301 14.971 14.1389 14.9566 14.4773C14.9422 14.8734 14.935 15.2694 14.9566 15.6655C14.971 16.0039 15.2015 16.1984 15.5399 16.2128C15.7271 16.2128 15.9144 16.2056 16.1088 16.2056ZM16.08 19.6548C16.2744 19.6548 16.4761 19.662 16.6705 19.6548C17.0161 19.6404 17.2394 19.4244 17.2466 19.0716C17.2538 18.7043 17.2538 18.3371 17.2466 17.9698C17.2394 17.6026 17.0233 17.3793 16.6561 17.3721C16.2888 17.3649 15.9216 17.3649 15.5543 17.3721C15.1871 17.3793 14.9638 17.5882 14.9494 17.9554C14.935 18.3299 14.935 18.7115 14.9494 19.086C14.9638 19.4388 15.1871 19.6476 15.5399 19.6621C15.7199 19.6621 15.9 19.6548 16.08 19.6548Z" fill="#ECB6C3"/>
</svg>
