<svg width="23" height="24" viewBox="0 0 23 24" fill="none" xmlns="http://www.w3.org/2000/svg">
<g clip-path="url(#clip0_31_264)">
<path d="M21.6016 6.12526C23.8464 9.95246 23.6256 16.1717 19.0992 20.1829C14.6096 24.0837 7.8384 23.9365 3.5328 19.7781C-0.809604 15.6565 -1.2144 8.88526 2.6128 4.21166C6.4032 -0.388343 12.696 -1.01394 16.8912 1.41486C16.3392 1.93006 15.824 2.48206 15.3088 2.96046C15.2352 3.03406 15.0144 2.99726 14.8672 2.92366C11.224 1.52526 7.176 2.44526 4.6368 5.38926C2.2816 8.11246 1.656 11.2405 2.8704 14.5893C4.0848 17.9381 6.5504 19.9621 10.0832 20.5141C16.0816 21.5445 21.2704 16.5765 20.6448 10.5045C20.5712 9.69486 20.3136 8.92206 20.056 8.14926C19.9824 7.85486 19.9824 7.70766 20.2032 7.48686C20.6816 7.08206 21.1232 6.60366 21.6016 6.12526Z" fill="#ECB6C3"/>
<path d="M14.2784 3.99132C13.6528 4.61692 13.8736 5.42652 13.8 6.19932C12.0704 5.53692 10.3776 5.57372 8.75842 6.42012C7.65442 7.00892 6.84482 7.85532 6.29282 8.95932C5.18882 11.2041 5.66722 13.8905 7.47042 15.6201C9.23682 17.3497 11.96 17.7545 14.168 16.5769C15.4928 15.8777 16.4128 14.8105 16.928 13.4121C17.4432 12.0137 17.3328 10.6153 16.7808 9.18012C17.5904 9.10652 18.3632 9.32732 18.9888 8.70172C20.1296 11.3513 19.5776 15.5097 16.3024 17.9385C13.1008 20.3305 8.64802 20.0361 5.81442 17.2761C2.98082 14.4793 2.57602 10.0265 4.89442 6.82492C7.28642 3.51292 11.4816 2.81372 14.2784 3.99132Z" fill="#ECB6C3"/>
<path d="M13.2848 7.3032C12.2912 8.2968 11.3344 9.2536 10.3776 10.2104C9.86237 10.6888 9.67837 11.2776 9.86237 11.9768C10.2304 13.2648 11.7392 13.6696 12.7328 12.7128C13.616 11.8664 14.4992 10.9832 15.3824 10.0632C15.4928 9.9528 15.5296 9.7688 15.64 9.5848C16.6336 11.3512 15.9712 13.8536 14.352 15.1048C12.5488 16.5032 10.0096 16.356 8.35357 14.8104C6.69757 13.2648 6.43997 10.7256 7.72797 8.8856C8.97917 7.1192 11.4448 6.3832 13.2848 7.3032Z" fill="#ECB6C3"/>
<path d="M19.5408 3.43849C20.0928 3.43849 20.5712 3.43849 21.0496 3.43849C21.3808 3.43849 21.6752 3.47529 21.7856 3.80649C21.896 4.10089 21.7488 4.35849 21.528 4.54249C20.4608 5.60969 19.4304 6.67689 18.3264 7.70729C18.1424 7.89129 17.8848 7.96489 17.6272 8.00169C17.1856 8.03849 16.7072 8.03849 16.2288 8.00169C15.8608 7.96489 15.6032 8.11209 15.3824 8.36969C14.2784 9.51049 13.1376 10.6145 12.0336 11.7185C11.6656 12.0865 11.2976 12.1233 11.0768 11.7921C10.8192 11.4609 10.9664 11.1665 11.224 10.8721C12.3648 9.73129 13.5056 8.59049 14.6464 7.44969C14.7936 7.26569 14.9776 6.97129 14.9408 6.75049C14.72 5.38889 15.2352 4.35849 16.3024 3.47529C17.0752 2.84969 17.7376 2.07689 18.4368 1.37769C18.6576 1.15689 18.9152 0.936088 19.1728 1.15689C19.3568 1.30409 19.504 1.59849 19.5408 1.85609C19.5776 2.40809 19.5408 2.88649 19.5408 3.43849Z" fill="#ECB6C3"/>
</g>
<defs>
<clipPath id="clip0_31_264">
<rect width="23" height="23" fill="white" transform="translate(0 0.0166016)"/>
</clipPath>
</defs>
</svg>
