<svg width="19" height="23" viewBox="0 0 19 23" fill="none" xmlns="http://www.w3.org/2000/svg">
<g clip-path="url(#clip0_31_223)">
<path d="M4.58445 19.2701C3.49662 19.1147 2.33107 18.8816 1.24324 18.4154C0.0776964 17.8715 -0.233114 17.0944 0.155399 15.9289C0.310805 15.5404 0.388507 15.1519 0.621615 14.841C1.32094 13.3647 2.40878 12.51 4.04053 12.4323C4.27364 12.4323 4.42905 12.3546 4.66216 12.3546C5.12837 12.2769 5.59459 12.2769 5.9831 12.7431C6.52702 13.3647 7.38175 13.4424 8.15878 13.5201C9.24661 13.6755 10.4122 13.5978 11.4223 13.2093C11.7331 13.0539 12.1216 12.8985 12.3547 12.6654C12.6655 12.2769 12.9763 12.2769 13.3649 12.2769C13.7534 12.3546 14.2196 12.3546 14.6081 12.3546C15.8513 12.51 16.7061 13.1316 17.3277 14.1417C17.6385 14.7633 17.9493 15.385 18.1047 16.0066C18.4155 16.939 18.1047 17.6383 17.25 18.1046C16.2399 18.6485 15.152 18.8816 14.0642 19.1147C13.9088 19.1147 13.6757 19.1924 13.6757 19.1924C13.3649 18.7262 13.1318 18.4154 12.8986 18.0269C12.8209 17.9492 12.8209 17.8714 12.8209 17.716C12.8209 16.6282 11.8885 15.7735 10.8007 15.7735C10.723 15.7735 10.5676 15.6958 10.4899 15.6181C9.86824 14.9187 8.39189 14.9187 7.77026 15.6181C7.69256 15.6958 7.53716 15.7735 7.38175 15.7735C6.52702 15.7735 5.43918 16.7836 5.43918 17.5606C5.43918 17.8715 5.36148 18.0269 5.20607 18.1823C4.89526 18.4931 4.73986 18.8816 4.58445 19.2701Z" fill="white"/>
<path d="M9.09124 0C11.8108 0 13.5203 1.63176 13.6757 4.50676C13.6757 4.89527 13.7534 5.28378 13.9088 5.6723C14.2196 6.52703 13.9865 7.30405 13.4426 8.08108C13.2872 8.23649 13.1318 8.4696 13.0541 8.625C12.5879 9.63514 11.9662 10.5676 11.1115 11.3446C9.79056 12.4324 8.23651 12.5101 6.91556 11.4223C5.98313 10.723 5.36151 9.71284 4.89529 8.7027C4.81759 8.5473 4.66219 8.31419 4.50678 8.15878C3.88516 7.45946 3.80746 6.06081 4.19597 5.28378C4.35138 4.97297 4.35138 4.50676 4.42908 4.11824C4.81759 1.39865 6.37165 0 9.09124 0ZM11.8885 4.66216C11.2669 4.27365 10.6453 4.11824 9.94597 4.19595C9.16894 4.27365 8.39192 4.27365 7.61489 4.19595C6.44935 4.04054 5.67232 4.35135 5.28381 5.51689C5.28381 5.59459 5.20611 5.8277 5.1284 5.90541C4.66219 6.29392 4.66219 7.45946 5.28381 7.77027C5.43921 7.84797 5.59462 8.00338 5.67232 8.15878C6.06084 9.01351 6.52705 9.86824 7.30408 10.4899C8.46962 11.5 9.79056 11.5 10.9561 10.4122C11.6554 9.79054 12.1216 9.01351 12.5102 8.15878C12.5879 8.00338 12.5879 7.84797 12.7433 7.77027C13.2095 7.38176 13.5203 6.76014 13.3649 6.21622C13.3649 6.13851 13.2872 5.90541 13.2095 5.90541C12.821 5.8277 12.821 5.43919 12.7433 5.20608C12.5879 4.89527 12.3548 4.50676 12.1993 4.19595C12.1993 4.19595 12.1216 4.19595 12.0439 4.11824C11.8885 4.35135 11.8885 4.42905 11.8885 4.66216Z" fill="white"/>
<path d="M6.60475 18.3378C6.52704 18.1824 6.44934 18.1047 6.44934 18.027C6.37164 17.8716 6.21623 17.5608 6.29394 17.4054C6.52704 17.0946 6.76015 16.8615 7.07096 16.7061C7.14867 16.6284 7.38177 16.7838 7.53718 16.8615C7.92569 17.0946 8.2365 16.9392 8.31421 16.5507C8.39191 16.0068 8.70272 16.0068 9.09123 16.0068C9.47975 16.0068 9.79056 15.9291 9.86826 16.473C9.94596 16.9392 10.2568 17.0946 10.6453 16.7838C11.1115 16.3953 11.2669 16.7838 11.5777 17.0169C11.8108 17.25 12.0439 17.4831 11.7331 17.8716C11.4223 18.2601 11.5777 18.571 12.0439 18.6487C12.6656 18.7264 12.5102 19.1149 12.5102 19.5034C12.5102 19.8919 12.5102 20.2027 11.9662 20.2027C11.5 20.2804 11.3446 20.5912 11.6554 20.9797C11.9662 21.3683 11.7331 21.6014 11.4223 21.8345C11.1892 22.0676 10.9561 22.4561 10.4899 22.0676C10.1014 21.7568 9.79056 21.9122 9.71285 22.3784C9.63515 22.7669 9.47975 22.9223 9.09123 22.9223C8.54731 22.9223 8.0811 23 8.0811 22.223C8.0811 21.9899 7.69258 21.8345 7.38177 22.0676C6.91556 22.4561 6.68245 22.1453 6.37164 21.8345C6.06083 21.6014 5.90542 21.3683 6.21623 20.9797C6.44934 20.6689 6.37164 20.2804 5.90542 20.2027C5.43921 20.125 5.3615 19.8919 5.3615 19.5034C5.3615 19.1149 5.2838 18.7264 5.82772 18.6487C6.29394 18.7264 6.44934 18.4933 6.60475 18.3378ZM9.09123 20.902C9.86826 20.902 10.4899 20.2804 10.4899 19.5034C10.4899 18.7264 9.86826 18.1824 9.16894 18.1047C8.39191 18.1047 7.77029 18.7264 7.77029 19.5034C7.69258 20.2804 8.31421 20.902 9.09123 20.902Z" fill="white"/>
</g>
<defs>
<clipPath id="clip0_31_223">
<rect width="18.1047" height="23" fill="white"/>
</clipPath>
</defs>
</svg>
