<svg width="27" height="23" viewBox="0 0 27 23" fill="none" xmlns="http://www.w3.org/2000/svg">
<g clip-path="url(#clip0_31_214)">
<path d="M6.87251 22.9083C4.76494 22.9083 2.65737 22.9083 0.549801 22.9083C0.0916335 22.9083 0 22.725 0 22.3585C0 19.7011 0 16.9521 0 14.2947C0 12.8286 0.824701 11.6374 2.10757 11.2708C2.38247 11.1792 2.65737 11.1792 2.84064 11.1792C5.49801 11.1792 8.15538 11.1792 10.9044 11.1792C12.3705 11.1792 13.4701 12.0955 13.745 13.5617C13.745 13.8366 13.8367 14.1115 13.8367 14.2947C13.8367 16.9521 13.8367 19.6095 13.8367 22.2668C13.8367 22.725 13.745 22.8166 13.2869 22.8166C11.0876 22.9083 8.98008 22.9083 6.87251 22.9083Z" fill="white"/>
<path d="M21.1673 17.0437C21.4422 17.0437 21.7171 17.0437 22.0836 17.0437C22.0836 17.5018 22.0836 18.0516 22.0836 18.5098C21.9004 18.5098 21.8087 18.5098 21.6255 18.5098C21.5338 18.5098 21.3506 18.5098 21.1673 18.5098C21.1673 18.968 21.1673 19.3345 21.1673 19.7927C21.4422 19.7927 21.7171 19.8843 22.0836 19.8843C22.0836 20.2508 22.0836 20.709 22.0836 21.0755C22.0836 21.1672 21.992 21.3504 21.8087 21.4421C21.2589 21.8086 20.8008 22.1751 20.251 22.5417C20.1593 22.6333 19.8844 22.6333 19.7012 22.5417C19.243 22.2668 18.7848 21.9002 18.3267 21.5337C18.0518 21.3504 17.9601 21.0755 17.9601 20.8006C17.9601 17.5935 17.9601 14.3863 17.9601 11.2708C17.9601 10.9042 17.8685 10.721 17.502 10.5377C15.1195 9.62136 13.6534 7.51379 13.8366 5.13132C13.9283 3.48192 14.753 2.19905 16.0358 1.28271C18.4183 -0.458321 21.9004 -0.366688 24.1912 1.46598C26.9402 3.66518 26.8486 7.51379 24.0996 9.62136C23.5498 9.98789 23 10.2628 22.4502 10.5377C22.1753 10.6293 22.0836 10.8126 22.0836 11.0875C22.0836 11.6373 22.0836 12.1871 22.0836 12.8285C21.8087 12.8285 21.4422 12.8285 21.1673 12.9202C21.1673 13.3783 21.1673 13.7449 21.1673 14.203C21.4422 14.203 21.7171 14.203 22.0836 14.2947C22.0836 14.7528 22.0836 15.211 22.0836 15.6692C21.8087 15.6692 21.5338 15.6692 21.1673 15.6692C21.1673 16.1273 21.1673 16.4939 21.1673 17.0437ZM19.9761 5.22295C20.7091 5.22295 21.3506 4.58152 21.3506 3.84845C21.3506 3.11538 20.7091 2.47395 19.9761 2.47395C19.1514 2.47395 18.6016 3.02375 18.6016 3.84845C18.6016 4.58152 19.1514 5.22295 19.9761 5.22295Z" fill="white"/>
<path d="M12.0956 5.22311C12.0956 8.06374 9.71313 10.4462 6.8725 10.4462C4.03186 10.4462 1.64939 8.06374 1.74102 5.22311C1.74102 2.29084 4.03186 0 6.96413 0C9.80477 0 12.0956 2.38247 12.0956 5.22311Z" fill="white"/>
</g>
<defs>
<clipPath id="clip0_31_214">
<rect width="26.2072" height="23" fill="white"/>
</clipPath>
</defs>
</svg>
