<svg width="28" height="23" viewBox="0 0 28 23" fill="none" xmlns="http://www.w3.org/2000/svg">
<g clip-path="url(#clip0_31_219)">
<path d="M13.8663 18.6295C12.962 18.4185 12.0577 18.2074 11.1534 18.0266C10.9423 17.9964 10.7012 17.9964 10.5203 18.0869C9.97773 18.328 9.49543 18.6897 8.95283 18.9309C8.71168 19.0515 8.28966 19.1118 8.16908 18.9912C7.98822 18.8405 7.92793 18.4486 7.95807 18.1773C8.01836 17.6347 8.13894 17.1223 8.28966 16.6098C8.38009 16.3385 8.3198 16.1576 8.13894 15.9466C5.42596 12.7513 5.75755 7.92828 8.98298 5.21531C11.1835 3.37651 13.7156 2.95449 16.3984 3.85882C19.1114 4.76314 20.7693 6.72252 21.3119 9.52592C22.156 13.8365 19.3827 17.7553 15.042 18.4486C14.6501 18.5089 14.2582 18.5089 13.8663 18.5089C13.8965 18.539 13.8663 18.5692 13.8663 18.6295ZM11.4849 10.9427C11.4849 10.159 10.8519 9.52592 10.038 9.52592C9.28442 9.52592 8.62125 10.159 8.62125 10.9126C8.5911 11.6662 9.28442 12.3595 10.038 12.3595C10.8218 12.3896 11.4849 11.7264 11.4849 10.9427ZM17.7549 12.3896C18.5387 12.3896 19.2018 11.7264 19.2018 10.9728C19.2018 10.1891 18.5387 9.55607 17.7549 9.55607C16.9712 9.55607 16.3683 10.1891 16.3382 10.9427C16.308 11.7264 16.9712 12.3595 17.7549 12.3896ZM12.5098 10.9126C12.5098 11.6963 13.1127 12.3595 13.8965 12.3595C14.6802 12.3595 15.3133 11.7264 15.3133 10.9427C15.3133 10.159 14.7104 9.52592 13.9568 9.52592C13.1429 9.49578 12.5098 10.1288 12.5098 10.9126Z" fill="white"/>
<path d="M13.5046 20.227C17.6042 20.1968 20.6488 18.4485 22.367 14.6804C22.789 13.7158 22.8794 12.6005 23 11.5454C23.5727 7.47597 20.8296 3.37637 16.7602 2.11031C11.2136 0.392094 5.51638 3.94911 4.73263 9.70664C4.61206 10.5507 4.82307 11.455 4.94364 12.3292C5.09436 13.5048 5.30537 14.6804 5.48624 15.8561C5.57667 16.3986 5.33552 16.7604 4.82307 16.9714C3.25557 17.6346 1.98952 17.2728 1.08519 15.8561C-0.15072 13.957 -0.271297 11.9072 0.602884 9.82722C1.08519 8.74203 1.95937 8.04871 3.16514 7.8377C3.31586 7.80756 3.46658 7.62669 3.52687 7.50612C4.97379 3.52709 7.74705 1.05527 11.9069 0.211228C17.2425 -0.873961 22.5478 2.29118 24.2962 7.47597C24.3565 7.62669 24.5374 7.86785 24.6579 7.86785C26.2556 8.01857 27.0695 9.04347 27.4915 10.4301C28.0341 12.2689 27.8834 14.0474 26.8886 15.7053C26.3159 16.6398 25.5623 17.3331 24.3565 17.2728C24.0249 17.2427 23.6933 17.1221 23.3617 17.0618C23.211 17.0317 22.9699 17.092 22.8794 17.2125C21.3421 19.3226 19.3224 20.7394 16.8204 21.4629C16.5793 21.5232 16.4889 21.6437 16.4889 21.8849C16.4587 22.5481 16.0367 22.9399 15.3735 22.9399C14.4089 22.9399 13.4443 22.9701 12.4797 22.9399C11.8165 22.9399 11.3945 22.4878 11.3644 21.8246C11.3644 21.5533 11.3644 21.2519 11.3945 20.9806C11.4548 20.5585 11.8467 20.1968 12.2988 20.1667C12.6907 20.1968 13.0826 20.227 13.5046 20.227Z" fill="white"/>
</g>
<defs>
<clipPath id="clip0_31_219">
<rect width="27.7929" height="23" fill="white"/>
</clipPath>
</defs>
</svg>
