<svg width="23" height="23" viewBox="0 0 23 23" fill="none" xmlns="http://www.w3.org/2000/svg">
<path d="M11.4901 23.0001C5.13768 23.0001 -0.00994229 17.8325 1.44196e-05 11.4801C0.00997113 5.12776 5.1775 -0.0198558 11.5299 5.75816e-05C17.8624 0.019971 23 5.16759 22.9901 11.5001C22.9901 17.8524 17.8325 23.01 11.4801 23.0001H11.4901ZM11.6195 4.67971C11.032 4.79919 10.4346 4.83902 9.87707 5.03815C8.41343 5.54594 7.37794 6.50179 7.08919 8.09486C6.9498 8.85157 7.29828 9.38924 7.94547 9.54854C8.5827 9.70785 9.05066 9.40915 9.34937 8.68231C9.51863 8.26413 9.68789 7.84594 9.9169 7.46759C10.3849 6.68101 11.1515 6.57149 11.958 6.67105C12.6749 6.76066 13.2225 7.14898 13.4316 7.86586C13.6606 8.64248 13.2922 9.21997 12.7446 9.72776C12.2069 10.2256 11.6593 10.7135 11.1416 11.2312C10.4247 11.9581 10.126 12.8442 10.2455 13.8498C10.3052 14.3975 10.6935 14.736 11.2411 14.7559C11.8485 14.7858 12.2169 14.5568 12.3264 13.9295C12.4857 13.0135 12.9736 12.3464 13.6706 11.7788C14.0987 11.4204 14.497 11.042 14.8953 10.6537C16.4485 9.15027 16.2892 6.87019 14.5269 5.60569C13.6706 4.98837 12.6948 4.75936 11.6394 4.67971H11.6195ZM11.3706 18.2407C12.1472 18.2407 12.7147 17.6931 12.7147 16.9265C12.7147 16.1698 12.1472 15.5923 11.3905 15.5823C10.6238 15.5823 10.0463 16.1498 10.0463 16.8966C10.0463 17.6633 10.594 18.2208 11.3606 18.2308L11.3706 18.2407Z" fill="#ECB6C3"/>
</svg>
