<svg width="27" height="23" viewBox="0 0 27 23" fill="none" xmlns="http://www.w3.org/2000/svg">
<g clip-path="url(#clip0_225_21654)">
<path d="M6.87251 22.9088C4.76494 22.9088 2.65737 22.9088 0.549801 22.9088C0.0916335 22.9088 0 22.7255 0 22.359C0 19.7016 0 16.9526 0 14.2952C0 12.8291 0.824701 11.6379 2.10757 11.2713C2.38247 11.1797 2.65737 11.1797 2.84064 11.1797C5.49801 11.1797 8.15538 11.1797 10.9044 11.1797C12.3705 11.1797 13.4701 12.096 13.745 13.5622C13.745 13.8371 13.8367 14.112 13.8367 14.2952C13.8367 16.9526 13.8367 19.61 13.8367 22.2673C13.8367 22.7255 13.745 22.8171 13.2869 22.8171C11.0876 22.9088 8.98008 22.9088 6.87251 22.9088Z" fill="#ECB6C3"/>
<path d="M21.1664 17.0437C21.4413 17.0437 21.7162 17.0437 22.0827 17.0437C22.0827 17.5018 22.0827 18.0516 22.0827 18.5098C21.8995 18.5098 21.8078 18.5098 21.6246 18.5098C21.5329 18.5098 21.3497 18.5098 21.1664 18.5098C21.1664 18.968 21.1664 19.3345 21.1664 19.7927C21.4413 19.7927 21.7162 19.8843 22.0827 19.8843C22.0827 20.2508 22.0827 20.709 22.0827 21.0755C22.0827 21.1672 21.9911 21.3504 21.8078 21.4421C21.258 21.8086 20.7999 22.1751 20.2501 22.5417C20.1584 22.6333 19.8835 22.6333 19.7003 22.5417C19.2421 22.2668 18.7839 21.9002 18.3258 21.5337C18.0509 21.3504 17.9592 21.0755 17.9592 20.8006C17.9592 17.5935 17.9592 14.3863 17.9592 11.2708C17.9592 10.9042 17.8676 10.721 17.5011 10.5377C15.1186 9.62136 13.6524 7.51379 13.8357 5.13132C13.9273 3.48192 14.752 2.19905 16.0349 1.28271C18.4174 -0.458321 21.8995 -0.366688 24.1903 1.46598C26.9393 3.66518 26.8477 7.51379 24.0987 9.62136C23.5489 9.98789 22.9991 10.2628 22.4493 10.5377C22.1744 10.6293 22.0827 10.8126 22.0827 11.0875C22.0827 11.6373 22.0827 12.1871 22.0827 12.8285C21.8078 12.8285 21.4413 12.8285 21.1664 12.9202C21.1664 13.3783 21.1664 13.7449 21.1664 14.203C21.4413 14.203 21.7162 14.203 22.0827 14.2947C22.0827 14.7528 22.0827 15.211 22.0827 15.6692C21.8078 15.6692 21.5329 15.6692 21.1664 15.6692C21.1664 16.1273 21.1664 16.4939 21.1664 17.0437ZM19.9752 5.22295C20.7082 5.22295 21.3497 4.58152 21.3497 3.84845C21.3497 3.11538 20.7082 2.47395 19.9752 2.47395C19.1505 2.47395 18.6007 3.02375 18.6007 3.84845C18.6007 4.58152 19.1505 5.22295 19.9752 5.22295Z" fill="#ECB6C3"/>
<path d="M12.0954 5.22311C12.0954 8.06374 9.71295 10.4462 6.87231 10.4462C4.03168 10.4462 1.64921 8.06374 1.74084 5.22311C1.74084 2.29084 4.03168 0 6.96395 0C9.80458 0 12.0954 2.38247 12.0954 5.22311Z" fill="#ECB6C3"/>
</g>
<defs>
<clipPath id="clip0_225_21654">
<rect width="26.2072" height="23" fill="white"/>
</clipPath>
</defs>
</svg>
