<svg width="21" height="23" viewBox="0 0 21 23" fill="none" xmlns="http://www.w3.org/2000/svg">
<path d="M0.0123126 7.29382C0.123126 5.9025 0.23394 4.62198 0.332441 3.35378C0.369379 2.89821 0.615632 2.65196 1.03426 2.54115C4.03854 1.70389 7.04283 0.866629 10.0471 0.0416826C10.2564 -0.0198806 10.5027 -0.00756792 10.6997 0.0416826C13.6793 0.854316 16.6467 1.69158 19.6263 2.50421C20.0819 2.62734 20.3405 2.8859 20.3897 3.37841C20.7714 7.01063 20.8207 10.6305 19.8726 14.2012C19.1461 16.9223 17.4347 18.9416 15.2554 20.6161C13.9379 21.6257 12.485 22.4014 10.8967 22.8939C10.6381 22.9801 10.318 23.0417 10.0717 22.9678C6.53801 21.872 3.73073 19.7911 1.80996 16.6145C0.837259 15.0138 0.46788 13.1793 0.270878 11.3447C0.123126 9.95335 0.0861884 8.56203 0 7.29382H0.0123126ZM9.50535 11.7141C9.36991 11.5909 9.2591 11.4924 9.1606 11.3939C8.42184 10.6675 7.6954 9.92873 6.95664 9.20228C6.53801 8.78365 6.16863 8.79596 5.73769 9.20228C5.553 9.37466 5.38062 9.55935 5.19593 9.74404C4.69111 10.2612 4.69111 10.6182 5.19593 11.1231C6.37794 12.3174 7.57227 13.4994 8.75428 14.6937C9.29604 15.2355 9.64079 15.2355 10.1949 14.6937C12.0664 12.8222 13.9256 10.963 15.7971 9.09147C16.8067 8.08183 16.8067 7.98333 15.7971 6.98601C15.1569 6.34575 14.8613 6.34575 14.2334 6.98601C12.6574 8.56203 11.0814 10.1504 9.48073 11.751L9.50535 11.7141Z" fill="#ECB6C3"/>
</svg>
