<svg width="22" height="23" viewBox="0 0 22 23" fill="none" xmlns="http://www.w3.org/2000/svg">
<g clip-path="url(#clip0_225_21630)">
<path d="M10.6786 5.61249C10.4048 6.16011 10.2679 6.57082 9.99405 6.98154C9.99405 7.11844 9.85714 7.11844 9.72024 7.25535C7.66667 7.80297 6.70833 9.17201 6.70833 11.3625C6.70833 12.047 6.70833 12.7315 6.29762 13.2792C5.8869 13.8268 6.16071 14.6482 6.57143 15.0589C7.11905 15.4696 7.80357 15.6065 8.4881 15.1958C9.03571 14.922 9.44643 14.7851 9.99405 14.7851C10.5417 14.7851 11.0893 14.7851 11.6369 14.6482C13.1429 14.2375 13.9643 13.2792 14.375 11.7732C14.375 11.4994 14.5119 11.3625 14.7857 11.3625C15.4702 11.0887 16.1548 10.678 16.5655 10.1303C17.25 9.30892 17.7976 8.6244 18.4821 7.80297C18.619 7.66606 18.619 7.52916 18.756 7.39225C18.756 10.4042 18.756 13.2792 18.756 16.1542C12.5952 16.1542 6.29762 16.1542 0 16.1542C0 16.0173 0 15.8803 0 15.6065C0 12.8684 0 10.2673 0 7.52916C0 6.16011 0.684524 5.47559 2.19048 5.47559C4.92857 5.61249 7.80357 5.61249 10.6786 5.61249Z" fill="#ECB6C3"/>
<path d="M11.9101 20.1243C11.9101 20.6719 11.9101 21.0826 11.9101 21.6302C12.3208 21.6302 12.5946 21.6302 12.8684 21.6302C13.2791 21.6302 13.6898 21.904 13.6898 22.3147C13.6898 22.7254 13.416 22.9993 13.0053 22.9993C10.6779 22.9993 8.35055 22.9993 6.02317 22.9993C5.61245 22.9993 5.33864 22.7254 5.33864 22.3147C5.33864 21.904 5.61245 21.6302 6.02317 21.6302C6.29698 21.6302 6.70769 21.6302 7.1184 21.6302C7.1184 21.0826 7.1184 20.6719 7.1184 20.1243C6.9815 20.1243 6.84459 20.1243 6.57078 20.1243C5.06483 20.1243 3.69578 20.1243 2.18983 20.1243C0.820785 20.1243 -0.000644036 19.1659 0.273165 17.7969C6.43388 17.7969 12.7315 17.7969 18.8922 17.7969C19.166 19.029 18.3446 20.1243 17.1125 20.1243C15.6065 20.1243 14.1005 20.1243 12.5946 20.1243C12.1839 20.1243 12.047 20.1243 11.9101 20.1243Z" fill="#ECB6C3"/>
<path d="M14.375 4.38052C15.744 3.28528 17.1131 2.19005 18.3452 1.09481C18.756 0.820997 19.0298 0.547188 19.4405 0.273378C19.9881 -0.137336 20.6726 -0.000431224 21.2202 0.410283C21.631 0.820997 21.7679 1.64243 21.3571 2.19005C21.3571 2.32695 21.2202 2.32695 21.0833 2.46385C19.7143 4.10671 18.4821 5.74957 17.1131 7.25552C16.2917 6.29719 15.3333 5.33886 14.375 4.38052Z" fill="#ECB6C3"/>
<path d="M10.1305 13.5532C9.30906 13.5532 8.48763 13.6901 7.80311 14.1008C7.6662 14.1008 7.5293 14.1008 7.5293 14.1008C7.5293 13.9639 7.5293 13.827 7.5293 13.827C8.07692 13.1425 8.07692 12.1841 8.07692 11.3627C8.07692 10.4044 8.35073 9.44604 9.30906 8.89842C10.2674 8.3508 11.3626 8.4877 12.1841 9.03532C13.0055 9.71985 13.2793 10.8151 13.0055 11.7734C12.5948 12.8687 11.7733 13.5532 10.6781 13.5532C10.5412 13.5532 10.2674 13.5532 10.1305 13.5532Z" fill="#ECB6C3"/>
<path d="M13.143 5.33887C14.2383 6.43411 15.1966 7.39244 16.1549 8.35077C15.4704 9.44601 14.9228 9.85672 14.2383 10.1305C13.8276 8.62458 12.8692 7.66625 11.3633 7.25553C11.6371 6.2972 12.5954 5.88649 13.143 5.33887Z" fill="#ECB6C3"/>
</g>
<defs>
<clipPath id="clip0_225_21630">
<rect width="21.631" height="23" fill="white"/>
</clipPath>
</defs>
</svg>
