<svg width="28" height="23" viewBox="0 0 28 23" fill="none" xmlns="http://www.w3.org/2000/svg">
<g clip-path="url(#clip0_225_21598)">
<path d="M13.8666 18.629C12.9622 18.418 12.0579 18.207 11.1536 18.0261C10.9426 17.9959 10.7014 17.9959 10.5206 18.0864C9.97798 18.3275 9.49567 18.6893 8.95308 18.9304C8.71192 19.051 8.2899 19.1113 8.16933 18.9907C7.98846 18.84 7.92817 18.4481 7.95832 18.1768C8.01861 17.6342 8.13918 17.1218 8.2899 16.6093C8.38034 16.338 8.32005 16.1572 8.13918 15.9461C5.42621 12.7509 5.75779 7.92779 8.98322 5.21482C11.1837 3.37602 13.7159 2.95401 16.3987 3.85833C19.1117 4.76266 20.7696 6.72203 21.3122 9.52543C22.1562 13.8361 19.383 17.7548 15.0422 18.4481C14.6503 18.5084 14.2584 18.5084 13.8666 18.5084C13.8967 18.5385 13.8666 18.5687 13.8666 18.629ZM11.4852 10.9422C11.4852 10.1585 10.8522 9.52543 10.0383 9.52543C9.28466 9.52543 8.62149 10.1585 8.62149 10.9121C8.59135 11.6657 9.28466 12.359 10.0383 12.359C10.822 12.3891 11.4852 11.726 11.4852 10.9422ZM17.7552 12.3891C18.5389 12.3891 19.2021 11.726 19.2021 10.9724C19.2021 10.1886 18.5389 9.55558 17.7552 9.55558C16.9714 9.55558 16.3685 10.1886 16.3384 10.9422C16.3083 11.726 16.9714 12.359 17.7552 12.3891ZM12.5101 10.9121C12.5101 11.6958 13.113 12.359 13.8967 12.359C14.6805 12.359 15.3135 11.726 15.3135 10.9422C15.3135 10.1585 14.7106 9.52543 13.957 9.52543C13.1431 9.49529 12.5101 10.1283 12.5101 10.9121Z" fill="#ECB6C3"/>
<path d="M13.5051 20.2265C17.6047 20.1963 20.6493 18.448 22.3675 14.6799C22.7895 13.7153 22.88 12.6 23.0005 11.5449C23.5733 7.47548 20.8302 3.37588 16.7607 2.10982C11.2142 0.391605 5.51693 3.94862 4.73318 9.70615C4.61261 10.5502 4.82362 11.4545 4.94419 12.3287C5.09491 13.5043 5.30592 14.6799 5.48679 15.8556C5.57722 16.3982 5.33607 16.7599 4.82362 16.9709C3.25612 17.6341 1.99006 17.2723 1.08574 15.8556C-0.150171 13.9565 -0.270748 11.9067 0.603433 9.82673C1.08574 8.74154 1.95992 8.04822 3.16569 7.83721C3.31641 7.80707 3.46713 7.62621 3.52742 7.50563C4.97434 3.5266 7.7476 1.05478 11.9075 0.21074C17.243 -0.87445 22.5484 2.29069 24.2967 7.47548C24.357 7.6262 24.5379 7.86736 24.6585 7.86736C26.2561 8.01808 27.07 9.04298 27.492 10.4296C28.0346 12.2684 27.8839 14.0469 26.8891 15.7048C26.3164 16.6393 25.5628 17.3326 24.357 17.2723C24.0255 17.2422 23.6939 17.1216 23.3623 17.0613C23.2116 17.0312 22.9704 17.0915 22.88 17.2121C21.3426 19.3221 19.323 20.7389 16.821 21.4624C16.5798 21.5227 16.4894 21.6432 16.4894 21.8844C16.4593 22.5476 16.0372 22.9394 15.3741 22.9394C14.4095 22.9394 13.4448 22.9696 12.4802 22.9394C11.8171 22.9394 11.395 22.4873 11.3649 21.8241C11.3649 21.5528 11.3649 21.2514 11.395 20.9801C11.4553 20.5581 11.8472 20.1963 12.2994 20.1662C12.6912 20.1963 13.0831 20.2265 13.5051 20.2265Z" fill="#ECB6C3"/>
</g>
<defs>
<clipPath id="clip0_225_21598">
<rect width="27.7929" height="23" fill="white"/>
</clipPath>
</defs>
</svg>
