<svg width="22" height="23" viewBox="0 0 22 23" fill="none" xmlns="http://www.w3.org/2000/svg">
<path d="M6.71113 17.998C5.33449 17.998 4.025 17.998 2.7323 17.998C2.39653 17.998 2.06077 17.9644 1.74179 17.8805C0.751277 17.5951 0.0125912 16.7053 0.0125912 15.6812C-0.00419708 12.2228 -0.00419708 8.78121 0.0125912 5.32281C0.0125912 4.0469 1.08704 3.05639 2.39653 3.0396C4.10894 3.02281 5.80456 3.0396 7.51697 3.0396C7.71843 3.0396 7.91989 3.0396 8.17172 3.0396C8.13814 2.0323 8.23887 1.05858 9.12865 0.504563C9.58193 0.202373 10.1695 0.000913519 10.69 0.000913519C12.1002 -0.0326631 12.7717 0.857118 13.0571 3.0396C13.2418 3.0396 13.4432 3.0396 13.6279 3.0396C15.2732 3.0396 16.9184 3.0396 18.5805 3.0396C20.1754 3.0396 21.1827 4.03011 21.1827 5.625C21.1827 8.86515 21.1827 12.1053 21.1827 15.3454C21.1827 16.9907 20.1586 17.9812 18.4965 17.998C17.187 17.998 15.8776 17.998 14.4841 17.998C14.5681 18.1995 14.6184 18.3506 14.6856 18.4849C15.1892 19.4754 15.6929 20.4491 16.1797 21.4396C16.4987 22.0776 16.3476 22.6316 15.8272 22.8834C15.3068 23.1352 14.7863 22.917 14.4505 22.279C13.7958 20.9863 13.1243 19.6768 12.4863 18.3673C12.3352 18.0651 12.1673 17.9644 11.8316 17.9812C10.9922 17.998 10.1359 18.0148 9.29653 17.9812C8.96077 17.9812 8.79288 18.0987 8.65858 18.3841C8.02062 19.6768 7.38266 20.9695 6.71113 22.2454C6.56004 22.5141 6.29142 22.8498 6.02281 22.9002C5.72062 22.9506 5.21697 22.833 5.04909 22.598C4.86442 22.3462 4.83084 21.8257 4.96515 21.5235C5.40164 20.5162 5.93887 19.5425 6.42573 18.552C6.50967 18.3841 6.57682 18.2162 6.67755 17.9812L6.71113 17.998ZM8.44033 10.3425C8.44033 10.8965 8.44033 11.4673 8.44033 12.0214C8.47391 13.0622 9.49799 13.6162 10.3542 13.0454C11.1768 12.4914 11.9659 11.887 12.7549 11.2827C13.4265 10.7622 13.4265 9.87245 12.7549 9.35201C11.9827 8.74763 11.1936 8.19361 10.4046 7.62281C9.98485 7.32062 9.54836 7.27026 9.07828 7.50529C8.60821 7.74033 8.42354 8.14325 8.42354 8.66369C8.42354 9.2177 8.42354 9.7885 8.42354 10.3425H8.44033Z" fill="#ECB6C3"/>
</svg>
