<svg width="21" height="24" viewBox="0 0 21 24" fill="none" xmlns="http://www.w3.org/2000/svg">
<g clip-path="url(#clip0_532_4851)">
<path d="M5.77716 9.07885C5.77716 7.01558 5.77716 4.95231 5.77716 2.88905C5.77716 1.34703 6.62419 0.5 8.16621 0.5C9.03495 0.5 9.9037 0.5 10.7724 0.5C12.1081 0.5 12.9877 1.3796 13.0095 2.72616C13.0203 3.60576 13.0095 4.49622 13.0095 5.37583C13.0095 6.75496 13.8673 7.61284 15.2573 7.61284C16.1261 7.61284 16.9948 7.61284 17.8636 7.61284C19.2536 7.61284 20.1223 8.51416 20.1332 9.90415C20.1332 11.7611 20.1332 13.618 20.1332 15.4641C20.1332 16.8215 19.2427 17.7229 17.8961 17.7229C14.6058 17.7229 11.3154 17.7229 8.02504 17.7229C6.7002 17.7229 5.79888 16.8215 5.79888 15.4858C5.78802 13.3466 5.79888 11.2073 5.79888 9.06799L5.77716 9.07885ZM12.2384 12.9448C11.9344 12.4995 11.6738 12.0977 11.4131 11.7068C11.1417 11.3159 10.7399 11.2181 10.4141 11.457C10.0992 11.6742 10.0449 12.076 10.2946 12.4561C10.729 13.1185 11.1634 13.7809 11.6086 14.4325C11.9778 14.9754 12.4991 14.9754 12.8683 14.4325C13.2809 13.8244 13.6827 13.2162 14.0954 12.6081C14.6058 11.8371 15.127 11.0661 15.6374 10.2951C15.9306 9.839 15.7677 9.33947 15.3116 9.22002C14.9316 9.12228 14.6926 9.30689 14.4863 9.61095C13.7587 10.7077 13.0312 11.8045 12.2493 12.9773L12.2384 12.9448Z" fill="#ECB6C3"/>
<path d="M14.2148 21.9579C14.0194 22.8266 13.2375 23.4782 12.347 23.4782C8.90463 23.4999 5.46223 23.4999 2.01983 23.4782C0.85789 23.4782 0.0108643 22.5008 0.0108643 21.2629C0.0108643 17.8965 0.0108643 14.5301 0.0108643 11.1637C0.0108643 10.2407 0.0108643 9.30678 0.0108643 8.38374C0.0217236 7.42812 0.608126 6.65711 1.54203 6.39648C1.54203 6.57023 1.54203 6.72226 1.54203 6.87429C1.54203 10.6642 1.54203 14.4432 1.54203 18.2331C1.54203 20.5027 3.00803 21.9579 5.28848 21.9579C8.09018 21.9579 10.8919 21.9579 13.6827 21.9579C13.8456 21.9579 14.0085 21.9579 14.2148 21.9579Z" fill="#ECB6C3"/>
<path d="M17.0925 19.0799C16.9079 19.9487 16.1152 20.6002 15.1813 20.6111C11.7715 20.6328 8.36164 20.6328 4.94096 20.6111C3.72472 20.6111 2.87769 19.6338 2.87769 18.3524C2.87769 14.8665 2.87769 11.3807 2.87769 7.89485C2.87769 7.10212 2.86683 6.3094 2.87769 5.51667C2.89941 4.55019 3.46409 3.79004 4.40885 3.51855C4.40885 3.70316 4.40885 3.87691 4.40885 4.0398C4.40885 7.79712 4.40885 11.5544 4.40885 15.3009C4.40885 17.6356 5.85314 19.0799 8.18789 19.0799C10.9896 19.0799 13.7804 19.0799 16.5821 19.0799H17.0708H17.0925Z" fill="#ECB6C3"/>
<path d="M14.0519 0.803711C16.1369 2.56292 18.0373 4.48501 19.7422 6.6243C18.4825 6.05961 17.1794 6.29852 15.9089 6.2768C14.3669 6.24422 14.3451 6.25508 14.3451 4.73478C14.3451 4.21353 14.3777 3.68143 14.3451 3.17104C14.28 2.42175 14.1714 1.68331 14.0519 0.81457V0.803711Z" fill="#ECB6C3"/>
</g>
<defs>
<clipPath id="clip0_532_4851">
<rect width="20.1223" height="23" fill="white" transform="translate(0 0.5)"/>
</clipPath>
</defs>
</svg>
