<svg width="23" height="23" viewBox="0 0 23 23" fill="none" xmlns="http://www.w3.org/2000/svg">
<g clip-path="url(#clip0_31_325)">
<path d="M22.578 2.33377C23.2334 3.87787 23.0718 5.27834 22.0933 6.53517C21.1147 7.80098 19.7861 8.30371 18.2061 8.05235C17.9278 8.00746 17.7752 8.06133 17.5866 8.24985C14.4805 11.374 11.3743 14.4891 8.25916 17.5953C8.05268 17.8018 8.00779 17.9723 8.05268 18.2596C8.30404 19.8127 7.79233 21.1054 6.58039 22.075C5.39538 23.0266 4.05775 23.242 2.6124 22.7214C2.56751 22.7034 2.5316 22.6854 2.48671 22.6675C2.4508 22.6495 2.40592 22.6226 2.31614 22.5687C2.96251 21.9224 3.59093 21.285 4.2373 20.6745C4.46173 20.4591 4.56048 20.2616 4.39889 19.9743C4.38991 19.9653 4.38991 19.9474 4.38991 19.9294C4.3181 18.9598 3.61786 18.6815 2.82785 18.5289C2.70217 18.502 2.51365 18.5918 2.41489 18.6815C1.84932 19.2202 1.31068 19.7768 0.754083 20.3244C0.646354 20.4321 0.538626 20.5219 0.430898 20.6296C-0.439906 19.1394 0.0538487 16.9669 1.53511 15.7819C2.50467 15.0008 3.59991 14.7495 4.82083 14.929C4.9914 14.9559 5.23379 14.8841 5.35049 14.7674C8.48359 11.6433 11.6077 8.50122 14.7408 5.36812C14.9204 5.18857 14.9652 5.04493 14.9204 4.78459C14.651 3.14173 15.1987 1.79513 16.5273 0.816594C17.7841 -0.108074 19.1577 -0.242734 20.6659 0.412613C20.0015 1.07694 19.3731 1.71433 18.7268 2.33377C18.5023 2.54923 18.4036 2.74673 18.5652 3.02503C18.5741 3.034 18.5741 3.05196 18.5741 3.06991C18.646 4.03049 19.3462 4.31777 20.1362 4.47038C20.2619 4.49731 20.4504 4.41652 20.5492 4.31777C21.1147 3.77912 21.6534 3.22253 22.21 2.67491C22.3177 2.56718 22.4254 2.46843 22.578 2.33377Z" fill="#ECB6C3"/>
<path d="M12.4247 15.2882C13.3404 14.3905 14.2112 13.5286 15.082 12.6668C15.1448 12.604 15.2077 12.5411 15.3244 12.4424C15.9079 13.0259 16.4825 13.6094 17.057 14.193C17.2276 14.3635 17.4071 14.5251 17.5597 14.7047C17.7483 14.9201 17.9368 15.0009 18.251 14.9471C20.3068 14.588 22.2549 15.8179 22.7935 17.7839C23.3591 19.8487 22.3896 21.9315 20.4953 22.6676C19.0141 23.2421 17.6046 23.0985 16.3657 22.0661C15.1628 21.0517 14.687 19.741 14.9294 18.1789C14.9563 18.0083 14.8665 17.7749 14.7498 17.6493C14.0137 16.8592 13.2416 16.1051 12.4247 15.2882ZM19.3103 17.4517C18.7537 17.6313 18.1971 17.6493 17.9188 17.9365C17.6405 18.2328 17.4251 18.8702 17.5597 19.2113C17.7303 19.6692 18.2061 20.136 18.6639 20.3066C19.0141 20.4322 19.6604 20.2258 19.9387 19.9385C20.226 19.6332 20.4415 18.9959 20.3158 18.6188C20.1721 18.161 19.6515 17.8198 19.3103 17.4517Z" fill="#ECB6C3"/>
<path d="M10.5214 7.63935C9.54289 8.6089 8.60027 9.54255 7.63072 10.5031C6.8856 9.758 6.12252 9.00391 5.36842 8.24083C5.19785 8.06128 5.04524 8.00742 4.78489 8.0523C2.5226 8.46526 0.368031 6.92116 0.0807557 4.71273C-0.242429 2.18111 1.39145 0.170182 3.90511 0.0175668C6.12252 -0.117094 8.09754 1.75918 8.12447 4.03942C8.12447 4.11124 8.14243 4.19204 8.11549 4.26386C7.86413 4.96409 8.19629 5.41296 8.708 5.86183C9.34539 6.41843 9.91994 7.04684 10.5214 7.63935ZM5.46717 3.9317C5.4941 3.62647 4.57841 2.59407 4.38091 2.63896C3.93204 2.73771 3.36647 2.75566 3.07919 3.03396C2.79192 3.31226 2.57646 3.94965 2.70215 4.29977C2.87271 4.76659 3.33954 5.25137 3.79738 5.43092C4.13852 5.56558 4.77592 5.35012 5.07217 5.07182C5.35047 4.81148 5.36842 4.26386 5.46717 3.9317Z" fill="#ECB6C3"/>
<path d="M19.3103 17.4512C19.6515 17.8192 20.1721 18.1694 20.3158 18.6272C20.4325 19.0043 20.226 19.6416 19.9387 19.9469C19.6604 20.2342 19.0141 20.4406 18.6639 20.315C18.2061 20.1444 17.7303 19.6686 17.5597 19.2197C17.4251 18.8696 17.6405 18.2322 17.9188 17.9449C18.1971 17.6487 18.7537 17.6217 19.3103 17.4512Z" fill="#ECB6C3"/>
<path d="M5.46719 3.93185C5.36844 4.26402 5.35048 4.81164 5.06321 5.07198C4.76695 5.35028 4.12956 5.56573 3.78842 5.43107C3.33058 5.25153 2.86375 4.75777 2.69318 4.29993C2.5675 3.94981 2.78296 3.31242 3.07023 3.03412C3.35751 2.75582 3.92308 2.72889 4.37195 2.63911C4.57843 2.59423 5.49412 3.62662 5.46719 3.93185Z" fill="#ECB6C3"/>
</g>
<defs>
<clipPath id="clip0_31_325">
<rect width="22.9731" height="23" fill="white"/>
</clipPath>
</defs>
</svg>
