<svg width="23" height="23" viewBox="0 0 23 23" fill="none" xmlns="http://www.w3.org/2000/svg">
<g clip-path="url(#clip0_31_317)">
<path d="M15.4037 0C17.5138 0 19.7294 0 21.8395 0C22.6835 0 23 0.316514 23 1.16055C23 2.3211 23 3.48165 23 4.5367C23 5.27523 22.6835 5.69725 21.8395 5.69725C17.5138 5.69725 13.0826 5.69725 8.75689 5.69725C8.01836 5.69725 7.70184 5.27523 7.70184 4.5367C7.70184 3.37615 7.70184 2.2156 7.70184 1.05505C7.70184 0.316514 8.01836 0 8.86239 0C10.9725 0 13.1881 0 15.4037 0Z" fill="#ECB6C3"/>
<path d="M15.4037 14.3486C13.1881 14.3486 11.078 14.3486 8.86239 14.3486C8.01836 14.3486 7.70184 14.0321 7.70184 13.1881C7.70184 12.0275 7.70184 10.867 7.70184 9.81192C7.70184 8.96788 8.01836 8.65137 8.86239 8.65137C13.1881 8.65137 17.5138 8.65137 21.945 8.65137C22.789 8.65137 23.1055 8.96788 23.1055 9.81192C23.1055 10.9725 23.1055 12.133 23.1055 13.1881C23.1055 14.0321 22.789 14.3486 21.945 14.3486C19.7294 14.3486 17.5138 14.3486 15.4037 14.3486Z" fill="#ECB6C3"/>
<path d="M15.2981 17.3028C17.5137 17.3028 19.6238 17.3028 21.8394 17.3028C22.6835 17.3028 23 17.6193 23 18.4633C23 19.6239 23 20.7844 23 21.8395C23 22.6835 22.6835 23 21.8394 23C17.5137 23 13.0826 23 8.75686 23C8.01833 23 7.59631 22.6835 7.59631 21.8395C7.59631 20.6789 7.59631 19.5184 7.59631 18.3578C7.59631 17.6193 8.01833 17.1973 8.75686 17.1973C10.9725 17.3028 13.1881 17.3028 15.2981 17.3028Z" fill="#ECB6C3"/>
<path d="M0 2.84862C0 2.2156 0 1.68807 0 1.05505C0 0.422018 0.422018 0 1.05505 0C2.3211 0 3.48165 0 4.74771 0C5.38073 0 5.80275 0.422018 5.80275 1.05505C5.80275 2.3211 5.80275 3.48165 5.80275 4.74771C5.80275 5.38073 5.38073 5.80275 4.74771 5.80275C3.48165 5.80275 2.3211 5.80275 1.05505 5.80275C0.422018 5.80275 0 5.38073 0 4.74771C0 4.11468 0 3.48165 0 2.84862Z" fill="#ECB6C3"/>
<path d="M0 11.5C0 10.867 0 10.2339 0 9.70641C0 9.07339 0.422018 8.65137 1.05505 8.65137C2.3211 8.65137 3.48165 8.65137 4.74771 8.65137C5.38073 8.65137 5.80275 9.07339 5.80275 9.70641C5.80275 10.9725 5.80275 12.133 5.80275 13.3991C5.80275 14.0321 5.38073 14.4541 4.74771 14.4541C3.48165 14.4541 2.3211 14.4541 1.05505 14.4541C0.422018 14.4541 0 14.0321 0 13.3991C0 12.766 0 12.133 0 11.5Z" fill="#ECB6C3"/>
<path d="M5.80275 20.1514C5.80275 20.7844 5.80275 21.4174 5.80275 21.945C5.80275 22.578 5.38073 23 4.74771 23C3.48165 23 2.3211 23 1.05505 23C0.422018 23 0 22.578 0 21.945C0 20.6789 0 19.5184 0 18.2523C0 17.6193 0.422018 17.1973 1.05505 17.1973C2.3211 17.1973 3.48165 17.1973 4.74771 17.1973C5.38073 17.1973 5.80275 17.6193 5.80275 18.2523C5.80275 18.8853 5.80275 19.5184 5.80275 20.1514Z" fill="#ECB6C3"/>
</g>
<defs>
<clipPath id="clip0_31_317">
<rect width="23" height="23" fill="white"/>
</clipPath>
</defs>
</svg>
