<svg width="23" height="23" viewBox="0 0 23 23" fill="none" xmlns="http://www.w3.org/2000/svg">
<g clip-path="url(#clip0_319_17659)">
<path d="M6.34975 19.702C6.16653 19.6848 6.01194 19.7593 5.86307 19.8623C5.60541 20.0456 5.34203 20.2288 5.08438 20.4063C4.73511 20.6467 4.39157 20.6296 4.08811 20.3376C3.60716 19.8738 3.13765 19.3986 2.66815 18.9233C2.37614 18.6199 2.30743 18.242 2.59944 17.9385C3.37813 17.1255 3.41821 16.3239 2.77693 15.402C2.51355 15.0241 2.41622 14.526 2.2788 14.0737C2.15856 13.6672 1.91808 13.4725 1.51156 13.4095C-0.022917 13.1576 -0.0171914 13.2148 -1.43563e-05 11.6002C-1.43563e-05 11.2509 -1.43563e-05 10.9017 -1.43563e-05 10.5524C-1.43563e-05 10.0829 0.229012 9.81379 0.692791 9.73363C0.956172 9.68783 1.22528 9.62484 1.48866 9.59622C1.92381 9.54468 2.16429 9.31566 2.2788 8.89768C2.4792 8.15907 2.77121 7.46054 3.15483 6.79637C3.3495 6.45855 3.34377 6.13791 3.1033 5.823C2.92008 5.58252 2.75976 5.33059 2.58799 5.07867C2.34751 4.7294 2.35896 4.38586 2.65669 4.0824C3.12047 3.60144 3.5957 3.13194 4.07093 2.66243C4.37439 2.37043 4.75229 2.29599 5.05575 2.588C5.86879 3.36097 6.67039 3.40677 7.59795 2.77122C7.97584 2.50784 8.47397 2.41051 8.9263 2.27309C9.3271 2.15285 9.52177 1.90665 9.59048 1.50012C9.84813 0 9.85386 0 11.4055 0C11.772 0 12.1384 0 12.5048 0C12.9285 0.0114513 13.2549 0.223301 13.2549 0.647C13.2549 1.82649 13.8847 2.35897 14.9726 2.58228C15.4078 2.67389 15.8085 2.94872 16.2151 3.16629C16.5586 3.34951 16.8735 3.34951 17.1942 3.10904C17.4346 2.92582 17.6923 2.7655 17.9385 2.59373C18.3107 2.33607 18.6542 2.38188 18.9691 2.69106C19.4214 3.13766 19.868 3.58999 20.3204 4.03659C20.6525 4.36868 20.7212 4.76375 20.4005 5.09584C19.6333 5.88026 19.6276 6.65322 20.223 7.55215C20.4979 7.9644 20.6067 8.48544 20.7612 8.97212C20.8758 9.33856 21.1048 9.52751 21.4712 9.58476C21.769 9.63057 22.0667 9.68783 22.3644 9.73936C22.811 9.81952 23.0172 10.0943 23.0229 10.5352C23.0229 11.1708 23.0229 11.8063 23.0229 12.4419C23.0229 12.8827 22.8282 13.232 22.3759 13.2377C21.2021 13.2435 20.6639 13.8676 20.4406 14.9554C20.349 15.3906 20.0742 15.7914 19.8623 16.1979C19.6791 16.5414 19.6734 16.8564 19.9196 17.1713C20.1028 17.4117 20.2631 17.6637 20.4349 17.9156C20.6925 18.2878 20.6467 18.6313 20.3376 18.9462C19.8909 19.3986 19.4386 19.8452 18.9863 20.2975C18.6714 20.6124 18.2935 20.704 17.9671 20.4005C17.1541 19.6333 16.3525 19.5761 15.4249 20.2231C15.047 20.4864 14.5489 20.5838 14.0966 20.7212C13.6958 20.8414 13.4954 21.0819 13.4324 21.4884C13.1805 22.9943 13.1747 22.9943 11.6288 22.9943C11.2452 22.9943 10.8673 23 10.4837 22.9828C10.1058 22.9656 9.85958 22.771 9.78515 22.3931C9.72789 22.1125 9.65918 21.832 9.63056 21.5514C9.58475 21.0991 9.36718 20.83 8.9263 20.7097C8.18769 20.5093 7.48916 20.2173 6.82498 19.8394C6.68756 19.7593 6.54442 19.6848 6.37838 19.702H6.34975ZM17.4518 11.4971C17.4461 8.03311 14.6119 5.37067 11.0849 5.58252C8.84614 5.71994 7.17425 6.86507 6.18371 8.86333C5.19317 10.8616 5.34776 12.8541 6.52152 14.7608C6.67039 15.0012 6.74482 15.0127 6.94522 14.7894C9.51604 11.9094 13.4782 11.9208 16.0777 14.8123C16.2838 15.0413 16.341 14.9783 16.4727 14.7779C17.1197 13.776 17.4633 12.6881 17.4518 11.4971Z" fill="#ECB6C3"/>
<path d="M11.5143 7.29443C12.751 7.29443 13.7588 8.30788 13.7473 9.54462C13.7416 10.7814 12.7224 11.7834 11.4914 11.7834C10.2604 11.7834 9.25266 10.7585 9.25839 9.52744C9.26411 8.28497 10.2661 7.29443 11.5086 7.30016L11.5143 7.29443Z" fill="#ECB6C3"/>
</g>
<defs>
<clipPath id="clip0_319_17659">
<rect width="23.0057" height="23" fill="white"/>
</clipPath>
</defs>
</svg>
