<svg width="23" height="23" viewBox="0 0 23 23" fill="none" xmlns="http://www.w3.org/2000/svg">
<g clip-path="url(#clip0_297_19666)">
<path d="M11.5177 0C17.8463 0 22.9941 5.14784 23 11.4705C23 17.8699 17.8758 23.0059 11.4823 23C5.11833 22.9941 0 17.8581 0 11.4823C0 5.12423 5.14194 0 11.5177 0ZM10.4492 8.36525C10.4492 9.34523 10.4138 10.3252 10.4669 11.3052C10.4905 11.6594 10.6499 12.0844 10.8919 12.3383C11.8247 13.3419 12.8106 14.2924 13.7847 15.2605C14.3219 15.7918 14.9358 15.8273 15.3845 15.3668C15.8332 14.9063 15.7859 14.3101 15.2487 13.7669C14.4695 12.9759 13.6902 12.1907 12.8873 11.4174C12.6453 11.1812 12.5449 10.9451 12.5449 10.6086C12.5626 8.87885 12.5567 7.14913 12.5449 5.4194C12.5449 4.66966 12.1317 4.19148 11.5118 4.17967C10.8742 4.16786 10.4492 4.66376 10.4433 5.43121C10.4433 6.41119 10.4433 7.39117 10.4433 8.37115L10.4492 8.36525Z" fill="#ECB6C3"/>
</g>
<defs>
<clipPath id="clip0_297_19666">
<rect width="23" height="23" fill="white"/>
</clipPath>
</defs>
</svg>
