<svg width="25" height="24" viewBox="0 0 25 24" fill="none" xmlns="http://www.w3.org/2000/svg">
<g clip-path="url(#clip0_30_116)">
<mask id="mask0_30_116" style="mask-type:luminance" maskUnits="userSpaceOnUse" x="0" y="0" width="25" height="24">
<path d="M24.0455 0.5H0V23.5H24.0455V0.5Z" fill="white"/>
</mask>
<g mask="url(#mask0_30_116)">
<path d="M16.5851 15.1418C13.5023 15.1418 10.4812 15.1418 7.46013 15.1418C7.15186 13.7996 7.0902 10.8712 7.39848 8.85791C10.4196 8.85791 13.5023 8.85791 16.5234 8.85791C16.8934 10.2001 16.8934 13.1285 16.5851 15.1418Z" fill="#ECB6C3"/>
<path d="M16.2768 7.21115C13.4407 7.21115 10.6045 7.21115 7.70679 7.21115C8.13837 5.44192 8.69327 3.7337 9.80306 2.26951C11.2211 0.378261 12.8241 0.378261 14.3038 2.26951C15.167 3.48966 16.0918 5.68595 16.2768 7.21115Z" fill="#ECB6C3"/>
<path d="M16.3385 16.7891C15.9069 18.6193 15.352 20.3886 14.1189 21.9138C12.7625 23.561 11.3444 23.561 9.92637 21.9138C8.69327 20.4496 8.13837 18.6803 7.70679 16.7891C10.6045 16.7891 13.4407 16.7891 16.3385 16.7891Z" fill="#ECB6C3"/>
<path d="M5.73385 15.1418C4.00751 15.1418 2.28117 15.1418 0.493174 15.1418C-0.123376 13.0065 -0.123376 10.9322 0.493174 8.85791C2.28117 8.85791 4.06917 8.85791 5.73385 8.85791C5.73385 10.9322 5.73385 13.0065 5.73385 15.1418Z" fill="#ECB6C3"/>
<path d="M18.373 8.85791C20.0993 8.85791 21.8257 8.85791 23.6136 8.85791C24.2302 10.9932 24.2302 13.0675 23.6136 15.1418C21.8257 15.1418 20.0377 15.1418 18.373 15.1418C18.373 13.0675 18.373 10.9932 18.373 8.85791Z" fill="#ECB6C3"/>
<path d="M1.0481 7.21087C2.40451 3.91645 5.9805 1.04907 9.24821 0.5C7.39856 2.39125 6.59705 4.77056 6.04215 7.21087C4.37747 7.21087 2.77444 7.21087 1.0481 7.21087Z" fill="#ECB6C3"/>
<path d="M22.9972 16.7891C21.7641 20.0225 18.1881 22.9509 14.7971 23.5C16.6467 21.6087 17.4482 19.2294 18.0031 16.7891C19.6678 16.7891 21.2709 16.7891 22.9972 16.7891Z" fill="#ECB6C3"/>
<path d="M14.7971 0.5C17.4482 0.5 22.2573 4.46552 22.9355 7.21087C21.2709 7.21087 19.6678 7.21087 17.9415 7.21087C17.4482 4.77056 16.6467 2.39125 14.7971 0.5Z" fill="#ECB6C3"/>
<path d="M1.10962 16.7891C2.77431 16.7891 4.37734 16.7891 6.10368 16.7891C6.65857 19.2294 7.39843 21.6087 9.24808 23.439C6.72023 23.561 1.84948 19.5955 1.10962 16.7891Z" fill="#ECB6C3"/>
</g>
</g>
<defs>
<clipPath id="clip0_30_116">
<rect width="25" height="23" fill="white" transform="translate(0 0.5)"/>
</clipPath>
</defs>
</svg>
