<svg width="18" height="24" viewBox="0 0 18 24" fill="none" xmlns="http://www.w3.org/2000/svg">
<g clip-path="url(#clip0_30_130)">
<path d="M8.66935 0.5C13.8116 0.5 17.8319 5.0813 17.2242 10.1768C16.897 12.7947 15.775 15.0386 14.3726 17.189C12.9234 19.3862 11.2405 21.3496 9.32382 23.126C8.85634 23.5467 8.5291 23.5935 8.10837 23.2195C5.21 20.5081 2.63886 17.4695 1.04943 13.7764C0.0677199 11.5325 -0.353012 9.19512 0.348208 6.71748C1.42341 3.07114 4.83601 0.5 8.66935 0.5ZM3.85431 9.14837C3.85431 11.813 6.00471 13.9167 8.66935 13.9167C11.2872 13.9167 13.4376 11.813 13.4376 9.14837C13.4376 6.48374 11.334 4.33333 8.66935 4.33333C6.00471 4.33333 3.85431 6.48374 3.85431 9.14837Z" fill="#ECB6C3"/>
</g>
<defs>
<clipPath id="clip0_30_130">
<rect width="18" height="23" fill="white" transform="translate(0 0.5)"/>
</clipPath>
</defs>
</svg>
