<svg width="11" height="25" viewBox="0 0 11 25" fill="none" xmlns="http://www.w3.org/2000/svg">
<g clip-path="url(#clip0_30_142)">
<path d="M4.04462 13.607C3.56168 13.607 3.13911 13.607 2.65617 13.607C2.65617 12.7015 2.65617 11.8563 2.65617 10.9508C1.75066 10.9508 0.905512 10.9508 0 10.9508C0 10.4679 0 10.1057 0 9.62275C0.422572 9.62275 0.845144 9.62275 1.26772 9.62275C1.32808 8.89834 1.26772 8.2343 1.38845 7.63062C1.69029 5.94034 2.71654 4.85372 4.34646 4.37078C4.64829 4.25005 4.76903 4.12931 4.70866 3.82748C4.70866 3.0427 4.70866 2.25792 4.70866 1.47314C5.1916 1.47314 5.55381 1.47314 6.03675 1.47314C6.03675 2.19755 6.03675 2.8616 6.03675 3.58601C6.03675 4.06894 6.09711 4.31041 6.64042 4.43115C8.27034 4.91409 9.35696 6.42328 9.41732 8.11356C9.41732 8.5965 9.41732 9.01908 9.41732 9.56238C9.90026 9.56238 10.3228 9.56238 10.7454 9.56238C10.7454 10.0453 10.7454 10.4679 10.7454 10.8905C9.8399 10.8905 8.99475 10.8905 8.08924 10.8905C8.08924 11.796 8.08924 12.6411 8.08924 13.5466C7.6063 13.5466 7.18373 13.5466 6.70079 13.5466C6.70079 12.7015 6.70079 11.796 6.70079 10.9508C5.79528 10.9508 4.88976 10.9508 3.98425 10.9508C4.04462 11.8563 4.04462 12.7015 4.04462 13.607Z" fill="#ECB6C3"/>
<path d="M6.09711 24.4733C5.61417 24.4733 5.1916 24.4733 4.76903 24.4733C4.76903 23.6885 4.76903 22.9037 4.76903 22.1189C4.76903 21.8171 4.70866 21.636 4.34646 21.5756C2.53543 21.0927 1.38845 19.5231 1.32808 17.6518C1.32808 17.2292 1.32808 16.8066 1.32808 16.3237C0.845144 16.3237 0.422572 16.3237 0 16.3237C0 15.8407 0 15.4182 0 14.9956C3.56168 14.9956 7.12336 14.9956 10.7454 14.9956C10.7454 15.4182 10.7454 15.8407 10.7454 16.3237C10.3228 16.3237 9.90026 16.3237 9.41732 16.3237C9.41732 16.7462 9.41732 17.1688 9.41732 17.5914C9.41732 19.5835 8.27034 21.0927 6.39895 21.5756C6.15748 21.636 6.09711 21.7567 6.09711 21.9982C6.09711 22.8434 6.09711 23.6281 6.09711 24.4733Z" fill="#ECB6C3"/>
</g>
<defs>
<clipPath id="clip0_30_142">
<rect width="11" height="24" fill="white" transform="translate(0 0.5)"/>
</clipPath>
</defs>
</svg>
