<svg width="24" height="21" viewBox="0 0 24 21" fill="none" xmlns="http://www.w3.org/2000/svg">
<mask id="mask0_30_80" style="mask-type:luminance" maskUnits="userSpaceOnUse" x="0" y="1" width="24" height="19">
<path d="M24 1H0V20H24V1Z" fill="white"/>
</mask>
<g mask="url(#mask0_30_80)">
<path d="M0 14.1291C0.958631 14.1291 1.91726 14.1291 2.84165 14.1291C2.94437 14.7339 3.04708 15.3388 3.18402 15.9437C3.21826 16.1216 3.28673 16.3351 3.35521 16.513C3.49215 16.9044 3.86876 17.1178 4.21113 17.0111C4.58773 16.9044 4.79315 16.513 4.69044 16.086C4.55349 15.4811 4.38231 14.8407 4.31384 14.2358C3.83452 10.2508 6.36805 6.51483 10.1683 5.55415C14.3452 4.52232 18.5906 7.19086 19.5835 11.5317C19.9258 13.0261 19.8573 14.4493 19.4123 15.9081C19.3438 16.1216 19.3438 16.4774 19.4465 16.6553C19.5492 16.8332 19.8573 16.9755 20.097 17.0111C20.4051 17.0467 20.6448 16.7976 20.7133 16.513C20.8845 15.8725 21.0214 15.1965 21.0899 14.5205C21.1241 14.2002 21.2268 14.0935 21.535 14.0935C22.3566 14.1291 23.1783 14.0935 24.0342 14.0935C24 15.2321 23.7603 16.2995 23.418 17.3313C23.281 17.6871 23.1441 18.0429 23.0071 18.3987C22.5963 19.5017 21.8088 19.9287 20.7475 19.9287C17.8031 19.9287 14.8588 19.9287 11.8802 19.9287C9.07275 19.9287 6.26534 19.8931 3.49215 19.9287C2.25963 19.9287 1.47218 19.4306 0.992867 18.2208C0.445078 16.9755 0.0684736 15.6235 0 14.1291ZM12.0171 17.0467C12.7019 17.0467 13.2154 16.7265 13.6605 16.2283C15.2696 14.3781 16.8445 12.528 18.4536 10.7133C18.7618 10.3575 18.796 10.0017 18.5563 9.68149C18.3167 9.36127 18.0086 9.29011 17.5977 9.50359C16.913 9.8594 16.2625 10.1796 15.5777 10.5354C14.0713 11.3182 12.5649 12.101 11.0585 12.8838C10.1341 13.3819 9.72325 14.3781 9.96291 15.41C10.2026 16.3707 11.0585 17.0467 12.0171 17.0467Z" fill="#ECB6C3"/>
<path d="M6.02572 6.1236C5.37522 5.44757 4.72472 4.77154 4.07422 4.05993C6.12843 2.20974 8.525 1.1779 11.2982 1C11.2982 1.99625 11.2982 2.92135 11.2982 3.88202C9.10703 4.23783 8.01145 4.59363 6.02572 6.1236Z" fill="#ECB6C3"/>
<path d="M12.7019 3.91778C12.7019 2.92152 12.7019 1.99643 12.7019 1.07134C14.7904 0.929016 18.488 2.53014 19.8917 4.09568C19.2412 4.77171 18.5907 5.44774 17.9402 6.15935C16.4338 4.84287 14.6877 4.13126 12.7019 3.91778Z" fill="#ECB6C3"/>
<path d="M2.73894 12.635C1.88302 12.635 0.958631 12.635 0 12.635C0.205421 9.78856 1.23253 7.29793 3.01284 5.16309C3.66334 5.8747 4.31384 6.51515 4.9301 7.1556C4.48502 8.00954 3.93723 8.82789 3.56063 9.75298C3.18402 10.6425 3.01284 11.6387 2.73894 12.635Z" fill="#ECB6C3"/>
<path d="M19.0015 7.2624C19.6862 6.55079 20.3025 5.87476 20.9872 5.19873C22.7676 7.33356 23.7947 9.78861 24.0001 12.6706C23.0414 12.6706 22.1171 12.6706 21.1584 12.6706C20.9872 10.6069 20.2683 8.79236 19.0015 7.2624Z" fill="#ECB6C3"/>
<path d="M14.8247 12.6703C14.0714 13.5598 13.3182 14.4138 12.565 15.3033C12.3596 15.5523 12.0857 15.6235 11.7776 15.5167C11.5037 15.41 11.3325 15.2321 11.2983 14.9119C11.264 14.5561 11.4352 14.3426 11.7091 14.2003C12.7362 13.6666 13.7633 13.1329 14.7562 12.5991C14.7904 12.5991 14.8247 12.6347 14.8247 12.6703Z" fill="#ECB6C3"/>
</g>
</svg>
