<svg width="23" height="25" viewBox="0 0 23 25" fill="none" xmlns="http://www.w3.org/2000/svg">
<g clip-path="url(#clip0_30_134)">
<mask id="mask0_30_134" style="mask-type:luminance" maskUnits="userSpaceOnUse" x="0" y="1" width="23" height="24">
<path d="M23 1.47314H0V24.4731H23V1.47314Z" fill="white"/>
</mask>
<g mask="url(#mask0_30_134)">
<path d="M1.92814 19.5151C2.20359 19.1019 2.68563 18.6887 2.75449 18.2755C2.75449 17.7935 2.34132 17.3115 2.13473 16.8294C1.99701 16.4851 1.85928 16.0719 1.72156 15.6588C1.65269 15.521 1.44611 15.3145 1.30838 15.3145C0.895209 15.2456 0.413174 15.1767 0 15.1079C0 13.6618 0 12.2845 0 10.8384C0.413174 10.7696 0.895209 10.7007 1.30838 10.6318C1.51497 10.6318 1.65269 10.4941 1.72156 10.2875C1.99701 9.53003 2.34132 8.77255 2.68563 8.01506C2.75449 7.87734 2.75449 7.67075 2.68563 7.53303C2.41018 7.11985 2.13473 6.70668 1.85928 6.36237C2.89222 5.32943 3.85629 4.36536 4.88922 3.33243C5.23353 3.53901 5.57784 3.81446 5.92216 4.08991C6.05988 4.15877 6.26647 4.15877 6.40419 4.08991C7.16168 3.81446 7.91916 3.47015 8.67665 3.12584C8.81437 3.05698 9.02096 2.85039 9.02096 2.71267C9.15868 2.29949 9.15868 1.88632 9.22754 1.47314C10.6737 1.47314 12.0509 1.47314 13.497 1.47314C13.5659 1.81746 13.6347 2.23063 13.7036 2.57494C13.7725 2.91925 13.8413 3.05698 14.1856 3.1947C14.8743 3.40129 15.5629 3.7456 16.2515 4.02105C16.5269 4.15877 16.7335 4.15877 16.9401 3.95219C17.2844 3.67674 17.5599 3.47015 17.9042 3.26356C18.9371 4.2965 19.9012 5.26057 20.9341 6.2935C20.7275 6.63782 20.4521 6.98213 20.1766 7.32644C20.0389 7.53302 20.0389 7.67075 20.1078 7.9462C20.4521 8.63482 20.7275 9.39231 21.003 10.1498C21.1407 10.4252 21.2784 10.563 21.5539 10.563C21.9671 10.6318 22.3802 10.7007 22.7246 10.7696C22.7246 12.2157 22.7246 13.5929 22.7246 15.039C22.3114 15.1079 21.8982 15.1767 21.485 15.2456C21.2096 15.3145 21.1407 15.3833 21.003 15.6588C20.7275 16.4163 20.3832 17.1737 20.0389 17.8624C19.9701 18.069 19.9012 18.2067 20.0389 18.4133C20.3144 18.7576 20.521 19.1019 20.7964 19.4462C19.7635 20.4791 18.7994 21.5121 17.7665 22.4761C17.4222 22.2007 17.0778 21.9252 16.6647 21.7187C16.5269 21.6498 16.3204 21.6498 16.1826 21.7187C15.4251 21.9941 14.5988 22.3384 13.8413 22.6827C13.7036 22.7516 13.5659 22.8893 13.497 23.0959C13.3593 23.5091 13.3593 23.9222 13.2904 24.4043C11.8443 24.4043 10.4671 24.4043 9.02096 24.4043C8.9521 23.9911 8.88323 23.5779 8.81437 23.1648C8.74551 22.8893 8.67665 22.7516 8.4012 22.6827C7.64371 22.4073 6.95509 22.1318 6.1976 21.7875C5.99102 21.6498 5.78443 21.6498 5.57784 21.8564C5.23353 22.1318 4.88922 22.3384 4.61377 22.545C3.92515 21.5121 2.96108 20.548 1.92814 19.5151ZM19.6257 12.9731C19.6257 8.4971 16.0449 4.8474 11.5 4.8474C7.09281 4.77853 3.37425 8.42824 3.37425 12.9731C3.37425 17.4492 6.95509 21.0989 11.5 21.0989C15.9072 21.1678 19.6257 17.4492 19.6257 12.9731Z" fill="#ECB6C3"/>
<path d="M16.2514 12.2844C15.7694 12.2844 15.3562 12.2844 14.8742 12.2844C14.8742 12.7665 14.8742 13.1796 14.8742 13.6617C14.8742 13.8683 14.8053 14.0749 14.6676 14.2126C13.6347 14.9012 13.3592 15.9341 13.4969 17.1048C13.5658 17.7246 13.4969 18.4132 13.4969 19.0329C13.4969 19.3772 13.4281 19.515 13.0838 19.515C12.8083 19.5838 12.5329 19.6527 12.1885 19.7216C12.1885 19.515 12.1885 19.3772 12.1885 19.2395C12.1885 17.2425 12.1885 15.2455 12.1885 13.1796C12.1885 12.8353 12.3263 12.6976 12.6017 12.6287C13.7724 12.1467 14.3921 10.8383 14.1856 9.66765C13.9101 8.35926 12.8083 7.46405 11.4999 7.46405C10.1915 7.46405 9.15865 8.35926 8.8832 9.66765C8.60775 10.8383 9.29637 12.1467 10.467 12.6287C10.6736 12.6976 10.8802 12.7665 10.8802 13.1108C10.8802 15.2455 10.8802 17.3114 10.8802 19.4461C10.8802 19.515 10.8802 19.5838 10.8802 19.7216C10.467 19.6527 10.1227 19.5838 9.77841 19.4461C9.70955 19.4461 9.57182 19.1707 9.57182 19.0329C9.57182 17.9311 9.57182 16.7605 9.57182 15.6587C9.57182 15.4521 9.50296 15.2455 9.36524 15.1078C8.47003 14.4192 7.98799 13.5928 8.19458 12.4222C8.19458 12.3533 8.19458 12.2844 8.19458 12.2156C7.7814 12.2156 7.36823 12.2156 6.88619 12.2156C6.88619 12.9731 6.88619 13.6617 6.88619 14.4192C6.88619 14.5569 7.02392 14.6946 7.16164 14.7635C8.12571 15.3832 8.47003 16.2784 8.3323 17.4491C8.26344 17.8623 8.3323 18.2755 8.3323 18.6886C6.47302 18.2755 4.75146 14.9701 4.95805 12.2156C5.16464 9.11675 7.91913 6.36226 10.949 6.15567C14.461 5.88022 17.4909 8.01495 18.3173 11.3892C19.0059 14.2126 17.4221 17.7246 15.0808 18.7575C15.0808 17.7934 15.0808 16.8982 15.0808 16.003C15.0808 15.8653 15.2874 15.6587 15.4251 15.5898C16.3203 14.9701 16.6646 14.1437 16.5269 13.0419C16.2514 12.8353 16.2514 12.6287 16.2514 12.2844Z" fill="#ECB6C3"/>
<path d="M11.5001 11.527C10.7426 11.527 10.1917 10.9072 10.1917 10.1497C10.1917 9.39221 10.8114 8.84131 11.5689 8.84131C12.3264 8.84131 12.8773 9.46107 12.8773 10.2186C12.8085 10.9761 12.1887 11.5958 11.5001 11.527Z" fill="#ECB6C3"/>
</g>
</g>
<defs>
<clipPath id="clip0_30_134">
<rect width="23" height="24" fill="white" transform="translate(0 0.5)"/>
</clipPath>
</defs>
</svg>
