<svg width="14" height="25" viewBox="0 0 14 25" fill="none" xmlns="http://www.w3.org/2000/svg">
<g clip-path="url(#clip0_30_132)">
<path d="M0 12.9731C0 9.79635 0 6.61955 0 3.44276C0 2.42618 0.444751 1.72729 1.33425 1.53668C1.52486 1.47314 1.71547 1.47314 1.90608 1.47314C5.01934 1.47314 8.06906 1.47314 11.1823 1.47314C12.3895 1.47314 13.0884 2.1085 13.0884 3.31569C13.0884 9.73281 13.0884 16.2135 13.0884 22.6306C13.0884 23.8378 12.3895 24.4731 11.1823 24.4731C8.1326 24.4731 5.01934 24.4731 1.96961 24.4731C0.698895 24.4731 0.0635359 23.8378 0.0635359 22.5671C0 19.3267 0 16.1499 0 12.9731ZM1.27072 19.1361C4.76519 19.1361 8.25967 19.1361 11.6906 19.1361C11.6906 14.1803 11.6906 9.28806 11.6906 4.33226C8.19613 4.33226 4.70166 4.33226 1.27072 4.33226C1.27072 9.28806 1.27072 14.1803 1.27072 19.1361ZM6.5442 3.31569C7.24309 3.31569 8.00552 3.31569 8.70442 3.31569C9.0221 3.31569 9.14917 3.25215 9.14917 2.93447C9.14917 2.61679 9.0221 2.55326 8.70442 2.55326C7.24309 2.55326 5.8453 2.55326 4.38398 2.55326C4.0663 2.55326 3.93923 2.68033 3.93923 2.93447C3.93923 3.25215 4.12983 3.31569 4.38398 3.31569C5.08287 3.25215 5.78177 3.31569 6.5442 3.31569ZM7.56077 21.7411C7.56077 21.1693 7.11602 20.661 6.48066 20.661C5.90884 20.661 5.40055 21.1057 5.40055 21.6776C5.40055 22.2494 5.90884 22.7577 6.48066 22.7577C7.11602 22.8212 7.56077 22.3129 7.56077 21.7411Z" fill="#ECB6C3"/>
</g>
<defs>
<clipPath id="clip0_30_132">
<rect width="14" height="24" fill="white" transform="translate(0 0.5)"/>
</clipPath>
</defs>
</svg>
