<svg width="20" height="24" viewBox="0 0 20 24" fill="none" xmlns="http://www.w3.org/2000/svg">
<g clip-path="url(#clip0_30_99)">
<mask id="mask0_30_99" style="mask-type:luminance" maskUnits="userSpaceOnUse" x="0" y="0" width="20" height="24">
<path d="M19.6586 0.5H0V23.5H19.6586V0.5Z" fill="white"/>
</mask>
<g mask="url(#mask0_30_99)">
<path d="M9.85719 0.5C10.3584 0.72276 10.9153 0.77845 11.3609 1.0569C13.7555 2.56053 16.1502 4.06416 18.5449 5.5678C19.603 6.23608 19.9928 7.34988 19.4916 8.3523C19.3245 8.63075 19.1018 8.96489 18.8233 9.13196C16.1502 10.8584 13.4214 12.5291 10.7483 14.1998C10.1357 14.5896 9.52304 14.5896 8.91045 14.1998C6.29302 12.5291 3.67559 10.914 1.00246 9.24334C-0.111337 8.51937 -0.334097 7.12712 0.501254 6.1247C0.668324 5.90194 0.946775 5.67918 1.16953 5.5678C3.56421 4.06416 5.90319 2.56053 8.29786 1.11259C8.74338 0.83414 9.30029 0.72276 9.85719 0.5ZM15.3149 7.57264C15.0921 7.29419 14.9807 6.90436 14.758 6.79298C14.5352 6.6816 14.1454 6.6816 13.8669 6.84867C12.6417 7.57264 11.4165 8.3523 10.1914 9.13196C9.91288 9.29903 9.7458 9.29903 9.46735 9.13196C8.24217 8.3523 7.01699 7.57264 5.79181 6.84867C5.2906 6.57022 4.90077 6.62591 4.62232 7.07143C4.34387 7.51695 4.45525 7.96247 4.90077 8.24092C6.34871 9.18765 7.85234 10.0787 9.35597 11.0254C9.69011 11.2482 10.0243 11.2482 10.3584 11.0254C11.8621 10.0787 13.31 9.18765 14.8136 8.24092C14.9807 8.12954 15.0921 7.85109 15.3149 7.57264Z" fill="#ECB6C3"/>
<path d="M19.269 10.8584C19.9929 11.9165 19.7145 13.2531 18.545 13.977C16.206 15.425 13.9227 16.8729 11.5837 18.3766C11.2496 18.5993 10.9155 18.7664 10.5813 18.9891C10.0801 19.3233 9.52324 19.3233 9.02203 18.9891C6.34891 17.3184 3.67578 15.6477 1.05835 13.977C0.000241041 13.3088 -0.278209 12.0279 0.390071 10.9141C0.557142 11.0255 0.724212 11.0812 0.891282 11.1925C3.23026 12.6405 5.62493 14.1441 7.96392 15.6477C9.24479 16.4831 10.5256 16.4831 11.8065 15.6477C14.2569 13.977 16.7629 12.4177 19.269 10.8584Z" fill="#ECB6C3"/>
<path d="M0.334254 15.4805C2.78461 17.0398 5.23498 18.5434 7.62965 20.0471C7.74103 20.1028 7.9081 20.2141 8.01948 20.3255C9.18897 21.0495 10.4141 21.0495 11.5836 20.3255C13.9783 18.8219 16.373 17.3183 18.7676 15.8146C18.9347 15.7033 19.1018 15.5919 19.2689 15.5362C19.8258 16.2045 19.7701 17.2069 19.2132 17.9309C18.9904 18.2093 18.712 18.4321 18.3778 18.6548C16.0945 20.1028 13.7555 21.5507 11.4722 22.9987C10.3584 23.6669 9.30035 23.6669 8.24224 22.9987C5.90326 21.495 3.56428 20.0471 1.1696 18.5434C0.00011313 17.8195 -0.334027 16.5943 0.334254 15.4805Z" fill="#ECB6C3"/>
</g>
</g>
<defs>
<clipPath id="clip0_30_99">
<rect width="20" height="23" fill="white" transform="translate(0 0.5)"/>
</clipPath>
</defs>
</svg>
