<svg width="24" height="23" viewBox="0 0 24 23" fill="none" xmlns="http://www.w3.org/2000/svg">
<g clip-path="url(#clip0_319_18104)">
<path d="M0.00592041 7.1333H23.0119V7.63304C23.0119 11.8392 23.0119 16.0513 23.0119 20.2575C23.0119 21.9828 22.0064 23.0001 20.2871 23.0001C14.433 23.0001 8.57886 23.0001 2.72475 23.0001C1.0292 23.0001 0.0118697 21.9828 0.0118697 20.2932C0.0118697 16.0692 0.0118697 11.8451 0.0118697 7.62709C0.0118697 7.47836 0.0118697 7.32963 0.0118697 7.13925L0.00592041 7.1333ZM7.47824 11.5179C7.47824 11.0539 7.48419 10.5898 7.47824 10.1258C7.46634 9.64391 7.24622 9.39404 6.77028 9.38809C5.84218 9.37024 4.91409 9.37024 3.99195 9.38809C3.52196 9.39404 3.26614 9.6558 3.26019 10.1139C3.24829 11.042 3.24829 11.9701 3.26019 12.8922C3.26614 13.3325 3.51601 13.6002 3.95626 13.6121C4.89625 13.6299 5.84218 13.6299 6.78217 13.6121C7.25812 13.6002 7.47229 13.3503 7.48419 12.8625C7.49609 12.4163 7.48419 11.9641 7.48419 11.5179H7.47824ZM15.5336 11.4525C15.5336 11.9165 15.5276 12.3806 15.5336 12.8446C15.5395 13.3563 15.7597 13.6061 16.2594 13.618C17.1875 13.6359 18.1156 13.6359 19.0377 13.618C19.5018 13.6121 19.7517 13.3444 19.7576 12.8744C19.7695 11.9641 19.7695 11.0479 19.7576 10.1377C19.7576 9.6677 19.5077 9.39998 19.0437 9.38809C18.1037 9.37024 17.1578 9.37024 16.2178 9.38809C15.7656 9.39998 15.5455 9.64986 15.5336 10.108C15.5217 10.5541 15.5336 11.0063 15.5336 11.4525ZM11.5238 15.1649C11.0597 15.1649 10.5957 15.1589 10.1316 15.1649C9.64974 15.1768 9.40582 15.3969 9.39392 15.8788C9.37607 16.8069 9.37607 17.735 9.39392 18.6571C9.39987 19.1211 9.66164 19.3829 10.1257 19.3889C11.0538 19.4008 11.9819 19.4008 12.904 19.3889C13.3443 19.3829 13.612 19.1271 13.6179 18.6868C13.6358 17.7469 13.6358 16.8009 13.6179 15.8609C13.606 15.385 13.3562 15.1708 12.8683 15.1649C12.4221 15.153 11.97 15.1649 11.5238 15.1649ZM7.48419 17.259C7.48419 16.8426 7.48419 16.4202 7.48419 16.0037C7.48419 15.974 7.48419 15.9442 7.48419 15.9145C7.46634 15.4088 7.24027 15.1768 6.73458 15.1708C5.82434 15.1649 4.90814 15.1589 3.9979 15.1708C3.50411 15.1708 3.26019 15.4266 3.25424 15.9264C3.24234 16.8247 3.24234 17.7231 3.25424 18.6155C3.25424 19.133 3.51601 19.3889 4.0336 19.3948C4.93194 19.4067 5.83029 19.4067 6.72268 19.3948C7.23432 19.3889 7.47229 19.133 7.47824 18.6036C7.48419 18.1574 7.47824 17.7052 7.47824 17.259H7.48419ZM15.5395 17.2769C15.5395 17.7231 15.5336 18.1752 15.5395 18.6214C15.5514 19.139 15.7894 19.3889 16.313 19.3889C17.2113 19.4008 18.1096 19.4008 19.002 19.3889C19.4899 19.3829 19.7517 19.1211 19.7576 18.6393C19.7695 17.729 19.7695 16.8128 19.7576 15.9026C19.7517 15.4266 19.5018 15.1768 19.0377 15.1708C18.1096 15.1589 17.1816 15.1589 16.2594 15.1708C15.7835 15.1708 15.5455 15.4147 15.5336 15.8907C15.5217 16.3547 15.5336 16.8188 15.5336 17.2828L15.5395 17.2769ZM10.9526 11.6488C10.7682 11.4108 10.6433 11.2205 10.4886 11.0658C10.1852 10.7743 9.79252 10.7624 9.5248 11.0122C9.24518 11.274 9.24518 11.6905 9.5486 12.0058C9.83417 12.3092 10.1316 12.6007 10.435 12.8922C10.8515 13.2908 11.1728 13.2908 11.5892 12.8803C12.2079 12.2735 12.8207 11.6607 13.4275 11.042C13.7726 10.691 13.8023 10.2983 13.5287 10.0128C13.2312 9.7034 12.8445 9.7272 12.4697 10.102C11.9938 10.5779 11.5297 11.0598 10.9526 11.6429V11.6488Z" fill="#ECB6C3"/>
<path d="M0.0178411 5.73494C0.0178411 5.02697 -0.023804 4.34875 0.0237904 3.68243C0.11303 2.45093 1.16606 1.48119 2.42136 1.44549C3.03414 1.42765 3.64692 1.44549 4.33109 1.44549C4.33109 1.20752 4.32514 0.987399 4.33109 0.773224C4.34893 0.29133 4.62855 -0.0120841 5.02715 -0.000185484C5.41386 0.0117131 5.66968 0.303229 5.67563 0.761325C5.68158 1.67157 5.67563 2.58776 5.67563 3.498C5.67563 3.86686 5.85411 4.13458 6.22891 4.21192C6.56207 4.27736 6.81789 4.12863 6.95473 3.81927C7.01422 3.68838 7.00827 3.52775 7.00827 3.37902C7.00827 2.75434 7.00827 2.12372 7.00827 1.45144H8.64433C8.64433 1.19562 8.63838 0.993348 8.64433 0.791072C8.68002 0.303229 8.93584 -0.000185484 9.3404 -0.000185484C9.74495 -0.000185484 10.0067 0.29133 10.0127 0.785122C10.0186 1.62397 10.0127 2.46283 10.0186 3.30168C10.0186 3.48016 10.0246 3.67053 10.09 3.83117C10.2209 4.14648 10.4886 4.28331 10.8158 4.21787C11.149 4.15243 11.3394 3.92635 11.3453 3.58724C11.3572 3.04586 11.3513 2.51042 11.3513 1.96903C11.3513 1.8084 11.3513 1.64777 11.3513 1.45144H12.9992C12.9992 1.18967 12.9933 0.957652 12.9992 0.725629C13.0171 0.29133 13.2669 0.0176624 13.6417 -0.000185484C14.0284 -0.0180334 14.3319 0.267533 14.3438 0.713731C14.3616 1.58233 14.3438 2.45093 14.3557 3.31953C14.3557 3.48016 14.3497 3.65864 14.4092 3.80737C14.5341 4.11673 14.79 4.27141 15.1291 4.21787C15.492 4.15838 15.6824 3.90851 15.6943 3.56345C15.7121 2.96257 15.7002 2.36764 15.7061 1.76676C15.7061 1.67752 15.718 1.58828 15.7299 1.45144H17.3422C17.3422 1.18373 17.3422 0.963601 17.3422 0.743477C17.3541 0.29728 17.6159 -0.000185484 18.0026 -0.000185484C18.3893 -0.000185484 18.6749 0.29133 18.6808 0.737528C18.6927 1.52879 18.6808 2.32599 18.6808 3.11725C18.6808 3.25408 18.6808 3.38497 18.6808 3.5218C18.7046 3.9442 18.9604 4.21787 19.3412 4.22382C19.7219 4.22382 20.0015 3.96205 20.0194 3.5337C20.0372 2.98041 20.0194 2.42713 20.0253 1.87384C20.0253 1.74296 20.0372 1.61208 20.0432 1.48714C21.6376 1.23727 22.9702 2.34384 23 3.91446C23.0119 4.50939 23 5.10432 23 5.73494H0.0178411Z" fill="#ECB6C3"/>
<path d="M4.61664 10.7505H6.10396V12.2497H4.61664V10.7505Z" fill="#ECB6C3"/>
<path d="M18.3953 12.2496H16.9139V10.7563H18.3953V12.2496Z" fill="#ECB6C3"/>
<path d="M10.7623 18.0146V16.5332H12.2436V18.0146H10.7623Z" fill="#ECB6C3"/>
<path d="M6.10992 16.5391V18.0145H4.62854V16.5391H6.10992Z" fill="#ECB6C3"/>
<path d="M16.9079 18.0203V16.5508H18.3833V18.0203H16.9079Z" fill="#ECB6C3"/>
</g>
<defs>
<clipPath id="clip0_319_18104">
<rect width="23.0119" height="23" fill="white"/>
</clipPath>
</defs>
</svg>
