<svg width="23" height="24" viewBox="0 0 23 24" fill="none" xmlns="http://www.w3.org/2000/svg">
<g clip-path="url(#clip0_30_107)">
<mask id="mask0_30_107" style="mask-type:luminance" maskUnits="userSpaceOnUse" x="0" y="0" width="23" height="24">
<path d="M23 0.5H0V23.5H23V0.5Z" fill="white"/>
</mask>
<g mask="url(#mask0_30_107)">
<path d="M2.44051 11.7333C3.32797 11.7333 4.28939 11.7333 5.17685 11.7333C6.06431 11.7333 6.95177 11.7333 7.83923 11.7333C9.39228 11.7333 10.3537 10.6979 10.4277 9.21885C10.4277 7.44393 10.4277 5.66901 10.4277 3.82013C10.4277 2.34103 9.39228 1.30566 7.91318 1.30566C6.13826 1.30566 4.28939 1.30566 2.51447 1.30566C1.03537 1.30566 0 2.26708 0 3.74618C0 5.59505 0 7.36997 0 9.21885C0 10.624 1.03537 11.6594 2.44051 11.7333Z" fill="#ECB6C3"/>
<path d="M8.06109 13.0723C6.13826 13.0723 4.28939 13.0723 2.36656 13.0723C1.03537 13.0723 0 14.1076 0 15.5128C0 17.3617 0 19.2845 0 21.1334C0 22.5385 1.03537 23.5739 2.44051 23.5739C4.28939 23.5739 6.13826 23.5739 7.98714 23.5739C9.39228 23.5739 10.4277 22.5385 10.4277 21.1334C10.4277 20.2459 10.4277 19.2845 10.4277 18.397C10.4277 17.5096 10.4277 16.5482 10.4277 15.6607V15.5867C10.4277 14.1076 9.39228 13.0723 8.06109 13.0723Z" fill="#ECB6C3"/>
<path d="M20.0577 13.0723C18.2088 13.0723 16.3599 13.0723 14.5111 13.0723C13.1059 13.0723 12.0706 14.1077 12.0706 15.5128C12.0706 17.3617 12.0706 19.2106 12.0706 21.0594C12.0706 22.4646 13.1059 23.4999 14.5111 23.4999C15.3985 23.4999 16.3599 23.4999 17.2474 23.4999C18.1349 23.4999 19.0223 23.4999 19.9837 23.4999C21.4628 23.4999 22.4982 22.4646 22.4982 20.9855C22.4982 19.1366 22.4982 17.3617 22.4982 15.5128C22.4982 14.1077 21.4628 13.0723 20.0577 13.0723Z" fill="#ECB6C3"/>
<path d="M15.2983 11.5116C15.742 11.9553 16.3336 12.2511 16.9992 12.2511C17.6648 12.2511 18.2565 12.0293 18.7742 11.5116C19.8835 10.4023 20.9928 9.29294 22.1021 8.18361C23.0636 7.14824 23.0636 5.7431 22.1021 4.70773C20.9928 3.5984 19.8835 2.48908 18.7742 1.37975C17.7388 0.418338 16.3337 0.418338 15.2983 1.37975C14.189 2.48908 13.0796 3.5984 11.9703 4.70773C11.0089 5.7431 11.0089 7.14824 11.9703 8.18361C13.0796 9.29294 14.189 10.4023 15.2983 11.5116Z" fill="#ECB6C3"/>
</g>
</g>
<defs>
<clipPath id="clip0_30_107">
<rect width="23" height="23" fill="white" transform="translate(0 0.5)"/>
</clipPath>
</defs>
</svg>
