<svg width="24" height="24" viewBox="0 0 24 24" fill="none" xmlns="http://www.w3.org/2000/svg">
<g clip-path="url(#clip0_30_162)">
<mask id="mask0_30_162" style="mask-type:luminance" maskUnits="userSpaceOnUse" x="0" y="0" width="24" height="24">
<path d="M23.0722 0.5H0V23.5H23.0722V0.5Z" fill="white"/>
</mask>
<g mask="url(#mask0_30_162)">
<path d="M10.8685 0.5C10.8685 0.698431 10.8685 0.860784 10.8685 1.01412C10.8685 4.44157 10.8685 7.86 10.8776 11.2874C10.8776 11.6302 10.7783 11.8827 10.5619 12.1353C8.45126 14.7329 6.34969 17.3396 4.2391 19.9463C4.10381 20.1176 3.95949 20.289 3.81518 20.4604C0.865765 17.989 -0.929137 13.2898 0.504981 8.64471C1.91204 4.06275 6.25949 0.626274 10.8685 0.5Z" fill="#ECB6C3"/>
<path d="M12.2485 23.4638C12.2485 19.8921 12.2485 16.3203 12.2485 12.7124C15.8383 12.7124 19.4371 12.7124 23.0269 12.7124C22.8916 18.2956 17.8496 23.3195 12.2485 23.4638Z" fill="#ECB6C3"/>
<path d="M10.8325 13.939C10.8325 17.2041 10.8325 20.3249 10.8325 23.4998C8.62271 23.3645 6.65643 22.6429 4.83447 21.3531C6.82781 18.8998 8.79408 16.4735 10.8325 13.939Z" fill="#ECB6C3"/>
<path d="M16.9296 11.2873C16.3885 11.2873 15.8473 11.2873 15.2881 11.2873C15.2881 8.30178 15.2881 5.32531 15.2881 2.32178C15.8383 2.32178 16.3794 2.32178 16.9296 2.32178C16.9296 5.32531 16.9296 8.29276 16.9296 11.2873Z" fill="#ECB6C3"/>
<path d="M12.2576 5.57812C12.7898 5.57812 13.3129 5.57812 13.8721 5.57812C13.8721 7.47224 13.8721 9.36637 13.8721 11.2875C13.34 11.2875 12.8259 11.2875 12.2576 11.2875C12.2576 9.39343 12.2576 7.49931 12.2576 5.57812Z" fill="#ECB6C3"/>
<path d="M19.9511 11.2966C19.3919 11.2966 18.8688 11.2966 18.3276 11.2966C18.3276 9.84448 18.3276 8.41036 18.3276 6.93115C18.8508 6.93115 19.3829 6.93115 19.9511 6.93115C19.9511 8.36527 19.9511 9.8084 19.9511 11.2966Z" fill="#ECB6C3"/>
<path d="M23.0719 8.73486C23.0719 9.59173 23.0719 10.4125 23.0719 11.2784C22.5127 11.2784 21.9535 11.2784 21.3672 11.2784C21.3672 10.4396 21.3672 9.60075 21.3672 8.73486C21.9355 8.73486 22.4857 8.73486 23.0719 8.73486Z" fill="#ECB6C3"/>
</g>
</g>
<defs>
<clipPath id="clip0_30_162">
<rect width="24" height="23" fill="white" transform="translate(0 0.5)"/>
</clipPath>
</defs>
</svg>
