<svg width="24" height="21" viewBox="0 0 24 21" fill="none" xmlns="http://www.w3.org/2000/svg">
<g clip-path="url(#clip0_30_145)">
<mask id="mask0_30_145" style="mask-type:luminance" maskUnits="userSpaceOnUse" x="0" y="0" width="24" height="21">
<path d="M24 0.5H0V20.5H24V0.5Z" fill="white"/>
</mask>
<g mask="url(#mask0_30_145)">
<path d="M6.25304 10.6014C4.94991 11.8881 3.68429 13.1381 2.41866 14.3789C1.77179 15.0131 1.08741 15.0039 0.449913 14.3697C-0.159462 13.7631 -0.159462 13.1014 0.478038 12.4764C2.06241 10.9139 3.65616 9.3514 5.24991 7.79809C5.96241 7.10875 6.59054 7.10875 7.31241 7.81647C8.48429 8.96537 9.65616 10.1143 10.8281 11.2539C10.8468 11.2723 10.875 11.2907 10.8562 11.2723C13.6687 8.52419 16.4718 5.77603 19.3687 2.95434C19.0875 2.70618 18.7406 2.40287 18.4031 2.09037C18.15 1.8514 17.925 1.60324 18.0656 1.20802C18.2156 0.803608 18.5531 0.720888 18.9281 0.693314C20.3156 0.619785 21.7031 0.546256 23.0906 0.5003C23.7187 0.481917 24.0187 0.785226 24 1.40104C23.9531 2.75213 23.8781 4.09405 23.8125 5.43596C23.7937 5.8128 23.6156 6.1161 23.2406 6.25397C22.875 6.39184 22.6125 6.19883 22.3687 5.95986C22.0406 5.62897 21.7312 5.2889 21.3937 4.93044C21.2156 5.09588 21.0937 5.19699 20.9812 5.31647C18.0093 8.23008 15.0375 11.1436 12.0656 14.0572C11.2312 14.8753 10.6593 14.8753 9.83429 14.0664C8.77491 13.0278 7.71554 11.9892 6.65616 10.9506C6.53429 10.8495 6.42179 10.7484 6.25304 10.6014Z" fill="#ECB6C3"/>
<path d="M21.4032 6.88818C21.5063 7.15472 21.6282 7.33855 21.6282 7.52237C21.6375 11.6216 21.6375 15.7301 21.6375 19.8293C21.6375 20.3532 21.4969 20.4911 20.9813 20.5003C20.1188 20.5095 19.2657 20.5095 18.4032 20.5003C17.8969 20.5003 17.7469 20.3624 17.7469 19.8753C17.7375 16.8422 17.7469 13.8091 17.7469 10.7852C17.7469 10.6565 17.7657 10.4819 17.85 10.4084C19.0032 9.25031 20.1563 8.11061 21.4032 6.88818Z" fill="#ECB6C3"/>
<path d="M16.247 12.0352C16.247 13.4966 16.247 14.8937 16.247 16.2815C16.247 17.458 16.247 18.6437 16.247 19.8201C16.247 20.3808 16.1251 20.4911 15.5626 20.4911C14.7188 20.5003 13.8751 20.5003 13.0313 20.4911C12.5251 20.4911 12.3845 20.344 12.3845 19.8661C12.3751 18.5609 12.3845 17.265 12.3845 15.9598C12.3845 15.8312 12.4126 15.6657 12.497 15.5922C13.6782 14.4341 14.8782 13.2944 16.0688 12.1455C16.097 12.1179 16.1345 12.0996 16.247 12.0352Z" fill="#ECB6C3"/>
<path d="M5.52203 13.4965C5.52203 14.6821 5.52203 15.877 5.52203 17.0626C5.52203 17.9818 5.52203 18.9009 5.52203 19.8108C5.52203 20.3531 5.3814 20.4818 4.82828 20.491C3.98453 20.5001 3.14078 20.5001 2.29703 20.491C1.7814 20.491 1.6314 20.3531 1.6314 19.8751C1.62203 18.7722 1.62203 17.6693 1.64078 16.5755C1.64078 16.4468 1.80015 16.2354 1.91265 16.2079C2.5314 16.0884 3.03765 15.7759 3.4689 15.3439C4.11578 14.7005 4.76265 14.0663 5.40953 13.4321C5.44703 13.4597 5.48453 13.4781 5.52203 13.4965Z" fill="#ECB6C3"/>
<path d="M7.14375 13.3774C7.64062 13.8829 8.1375 14.3792 8.625 14.8847C9.23438 15.5281 9.9 16.0612 10.8844 16.0796C10.8844 17.4123 10.8844 18.7174 10.8844 20.0134C10.8844 20.3351 10.6781 20.4913 10.3781 20.4913C9.43125 20.5005 8.475 20.5005 7.52813 20.4913C7.21875 20.4913 7.03125 20.3259 7.03125 20.0042C7.03125 17.8167 7.03125 15.6384 7.03125 13.4509C7.05938 13.4233 7.09687 13.4049 7.14375 13.3774Z" fill="#ECB6C3"/>
</g>
</g>
<defs>
<clipPath id="clip0_30_145">
<rect width="24" height="20" fill="white" transform="translate(0 0.5)"/>
</clipPath>
</defs>
</svg>
