<svg width="24" height="23" viewBox="0 0 24 23" fill="none" xmlns="http://www.w3.org/2000/svg">
<g clip-path="url(#clip0_31_203)">
<mask id="mask0_31_203" style="mask-type:luminance" maskUnits="userSpaceOnUse" x="0" y="0" width="24" height="23">
<path d="M23.5 0H0.5V23H23.5V0Z" fill="white"/>
</mask>
<g mask="url(#mask0_31_203)">
<path d="M8.71176 11.5C8.71176 8.06797 8.71176 4.64492 8.71176 1.21289C8.71176 0.224609 8.93637 0 9.92465 0C11.3802 0 12.8266 0 14.2821 0C14.9919 0 15.2973 0.296484 15.2973 1.01523C15.2973 8.00508 15.2973 14.9949 15.2973 21.9848C15.2973 22.7215 14.9919 23 14.2372 23C12.7548 23 11.2723 23 9.78988 23C8.99027 23 8.71176 22.7215 8.71176 21.9219C8.70277 18.4449 8.71176 14.977 8.71176 11.5Z" fill="#ECB6C3"/>
<path d="M23.5 14.8152C23.5 17.1961 23.5 19.577 23.5 21.9488C23.5 22.7215 23.2215 23 22.4399 23C20.9574 23 19.475 23 17.9926 23C17.202 23 16.9235 22.7305 16.9235 21.9578C16.9235 17.1691 16.9235 12.3805 16.9235 7.5918C16.9235 6.84609 17.202 6.55859 17.9567 6.55859C19.466 6.55859 20.9754 6.55859 22.4938 6.55859C23.2035 6.55859 23.5 6.86406 23.5 7.58281C23.5 9.99063 23.5 12.3984 23.5 14.8152Z" fill="#ECB6C3"/>
<path d="M7.06758 16.037C7.06758 18.0136 7.06758 19.9902 7.06758 21.9577C7.06758 22.7124 6.78906 22.9909 6.04336 22.9909C4.53398 22.9909 3.02461 22.9909 1.50625 22.9909C0.7875 22.9909 0.5 22.6945 0.5 21.9757C0.5 17.9956 0.5 14.0155 0.5 10.0355C0.5 9.32569 0.7875 9.0292 1.50625 9.0292C3.03359 9.02022 4.56094 9.02022 6.08828 9.0292C6.78008 9.0292 7.06758 9.32569 7.06758 10.0175C7.06758 12.03 7.06758 14.0335 7.06758 16.037Z" fill="#ECB6C3"/>
</g>
</g>
<defs>
<clipPath id="clip0_31_203">
<rect width="23" height="23" fill="white" transform="translate(0.5)"/>
</clipPath>
</defs>
</svg>
