<svg width="23" height="24" viewBox="0 0 23 24" fill="none" xmlns="http://www.w3.org/2000/svg">
<g clip-path="url(#clip0_30_155)">
<mask id="mask0_30_155" style="mask-type:luminance" maskUnits="userSpaceOnUse" x="0" y="0" width="23" height="24">
<path d="M23 0.5H0V23.5H23V0.5Z" fill="white"/>
</mask>
<g mask="url(#mask0_30_155)">
<path d="M1.3896 22.1226C1.3896 21.9224 1.3896 21.7457 1.3896 21.5809C1.3896 19.3786 1.3896 17.1764 1.3896 14.9741C1.3896 14.1497 1.57803 13.9731 2.39062 13.9731C3.10901 13.9731 3.82739 13.9731 4.54577 13.9731C5.20527 13.9731 5.42903 14.1968 5.42903 14.8681C5.42903 17.0939 5.42903 19.3315 5.42903 21.5573C5.42903 21.734 5.42903 21.9106 5.42903 22.1226C5.87654 22.1226 6.28873 22.1226 6.74802 22.1226C6.7598 21.9695 6.77158 21.8046 6.77158 21.6515C6.77158 20.309 6.77158 18.9546 6.77158 17.6121C6.77158 16.8819 6.98356 16.6817 7.70194 16.6817C8.45565 16.6817 9.19759 16.6817 9.9513 16.6817C10.5872 16.6817 10.811 16.9055 10.811 17.5532C10.8227 18.884 10.811 20.2148 10.811 21.5455C10.811 21.7222 10.811 21.8988 10.811 22.1226C11.2585 22.1226 11.6824 22.1226 12.1535 22.1226C12.1535 21.9342 12.1535 21.7693 12.1535 21.5926C12.1535 18.4953 12.1535 15.3981 12.1535 12.289C12.1535 11.4646 12.3419 11.288 13.1545 11.288C13.8729 11.288 14.5913 11.288 15.3097 11.288C15.9692 11.288 16.1929 11.5117 16.1929 12.183C16.1929 15.1979 16.1929 18.2009 16.1929 21.2158C16.1929 21.5102 16.1929 21.8164 16.1929 22.1344C16.6405 22.1344 17.0526 22.1344 17.5355 22.1344C17.5355 21.9459 17.5355 21.7575 17.5355 21.5691C17.5355 17.1528 17.5355 12.7365 17.5355 8.32021C17.5355 7.40162 17.6886 7.24854 18.6072 7.24854C19.2784 7.24854 19.9497 7.24854 20.6328 7.24854C21.3865 7.24854 21.5867 7.44874 21.5867 8.20245C21.5867 12.6541 21.5867 17.0939 21.5867 21.5455C21.5867 21.734 21.5867 21.9224 21.5867 22.1579C21.8576 22.1579 22.0813 22.1461 22.3051 22.1579C22.7173 22.1815 22.9881 22.4759 22.9763 22.8527C22.9646 23.206 22.6937 23.4769 22.3051 23.5005C22.1873 23.5122 22.0695 23.5005 21.94 23.5005C14.9682 23.5005 7.98458 23.5005 1.01274 23.5005C0.317915 23.5005 -5.72605e-05 23.3003 -0.0236108 22.8527C-0.0353875 22.3817 0.282585 22.1697 1.01274 22.1579C1.13051 22.1461 1.2365 22.1344 1.3896 22.1226Z" fill="#ECB6C3"/>
<path d="M17.6769 2.74961C17.512 1.77213 18.0302 0.935989 18.8899 0.618017C19.7378 0.300045 20.68 0.582687 21.2099 1.31284C21.7399 2.03122 21.7281 3.03225 21.1864 3.73885C20.6211 4.46901 19.6672 4.7281 18.8192 4.36302C18.5484 4.24525 18.3717 4.25703 18.1362 4.43368C17.5827 4.8812 16.9821 5.29338 16.4286 5.7409C16.299 5.84689 16.1812 6.08243 16.193 6.2473C16.3226 7.83716 15.0978 8.87352 13.555 8.48488C13.4255 8.44955 13.2371 8.49666 13.1428 8.59087C12.3656 9.33281 11.6001 10.0983 10.8582 10.8755C10.7522 10.9815 10.7051 11.2171 10.7404 11.3701C10.9288 12.1827 10.7639 12.8893 10.1398 13.4546C9.52738 13.9964 8.809 14.1259 8.04351 13.8197C7.26625 13.5017 6.84228 12.9011 6.80695 12.0532C6.79518 11.7941 6.72451 11.6528 6.48898 11.5468C6.04146 11.3466 5.59395 11.1228 5.16998 10.8873C4.93445 10.7578 4.76957 10.7695 4.53404 10.9344C3.56834 11.5939 2.28468 11.2995 1.68406 10.2985C1.107 9.32103 1.44853 8.06092 2.44955 7.50741C3.47413 6.94213 4.73424 7.34254 5.22887 8.40245C5.33486 8.62621 5.4173 8.88529 5.40552 9.13261C5.39374 9.46236 5.54684 9.60368 5.81771 9.72144C6.26522 9.92165 6.68918 10.1807 7.14848 10.3692C7.27802 10.4281 7.50178 10.4163 7.61955 10.3338C8.19661 9.95698 8.79722 9.85099 9.45672 10.0394C9.57449 10.0748 9.77469 10.0276 9.86891 9.93342C10.6462 9.17971 11.3999 8.426 12.1536 7.64873C12.2478 7.54274 12.3067 7.33076 12.2831 7.18944C12.0712 6.36507 12.236 5.63491 12.8838 5.06963C13.5433 4.49256 14.297 4.41013 15.1096 4.75165C15.2391 4.81054 15.4629 4.78698 15.5689 4.70455C16.2048 4.25703 16.829 3.79774 17.4296 3.30311C17.5591 3.17357 17.5945 2.93803 17.6769 2.74961Z" fill="#ECB6C3"/>
</g>
</g>
<defs>
<clipPath id="clip0_30_155">
<rect width="23" height="23" fill="white" transform="translate(0 0.5)"/>
</clipPath>
</defs>
</svg>
