<svg width="23" height="24" viewBox="0 0 23 24" fill="none" xmlns="http://www.w3.org/2000/svg">
<g clip-path="url(#clip0_30_91)">
<mask id="mask0_30_91" style="mask-type:luminance" maskUnits="userSpaceOnUse" x="0" y="0" width="23" height="24">
<path d="M23 0.5H0V23.5H23V0.5Z" fill="white"/>
</mask>
<g mask="url(#mask0_30_91)">
<path d="M8.21176 12C8.21176 8.56797 8.21176 5.14492 8.21176 1.71289C8.21176 0.724609 8.43637 0.5 9.42465 0.5C10.8802 0.5 12.3266 0.5 13.7821 0.5C14.4919 0.5 14.7973 0.796484 14.7973 1.51523C14.7973 8.50508 14.7973 15.4949 14.7973 22.4848C14.7973 23.2215 14.4919 23.5 13.7372 23.5C12.2548 23.5 10.7723 23.5 9.28988 23.5C8.49027 23.5 8.21176 23.2215 8.21176 22.4219C8.20277 18.9449 8.21176 15.477 8.21176 12Z" fill="#ECB6C3"/>
<path d="M23.0001 15.3152C23.0001 17.6961 23.0001 20.077 23.0001 22.4488C23.0001 23.2215 22.7216 23.5 21.94 23.5C20.4575 23.5 18.9751 23.5 17.4927 23.5C16.7021 23.5 16.4236 23.2305 16.4236 22.4578C16.4236 17.6691 16.4236 12.8805 16.4236 8.0918C16.4236 7.34609 16.7021 7.05859 17.4568 7.05859C18.9661 7.05859 20.4755 7.05859 21.9939 7.05859C22.7036 7.05859 23.0001 7.36406 23.0001 8.08281C23.0001 10.4906 23.0001 12.8984 23.0001 15.3152Z" fill="#ECB6C3"/>
<path d="M6.56758 16.537C6.56758 18.5136 6.56758 20.4902 6.56758 22.4577C6.56758 23.2124 6.28906 23.4909 5.54336 23.4909C4.03398 23.4909 2.52461 23.4909 1.00625 23.4909C0.2875 23.4909 0 23.1945 0 22.4757C0 18.4956 0 14.5155 0 10.5355C0 9.82569 0.2875 9.5292 1.00625 9.5292C2.53359 9.52022 4.06094 9.52022 5.58828 9.5292C6.28008 9.5292 6.56758 9.82569 6.56758 10.5175C6.56758 12.53 6.56758 14.5335 6.56758 16.537Z" fill="#ECB6C3"/>
</g>
</g>
<defs>
<clipPath id="clip0_30_91">
<rect width="23" height="23" fill="white" transform="translate(0 0.5)"/>
</clipPath>
</defs>
</svg>
