<svg width="23" height="23" viewBox="0 0 23 23" fill="none" xmlns="http://www.w3.org/2000/svg">
<g clip-path="url(#clip0_31_211)">
<path d="M17.8969 21.0595C17.6094 20.9157 17.25 20.772 17.0344 20.5563C16.3156 19.8376 15.525 19.622 14.6625 20.2688C14.5187 20.4126 14.3031 20.5563 14.3031 20.772C14.1594 21.2032 14.1594 21.6345 14.0875 22.0657C13.9438 22.7845 13.5844 23.072 12.9375 23.072C12.075 23.072 11.2125 23.072 10.35 23.072C9.70312 23.072 9.27188 22.7126 9.2 22.0657C9.12813 21.6345 9.05625 21.2032 8.98438 20.772C8.98438 20.4126 8.76875 20.3407 8.55312 20.197C7.69062 19.622 6.97187 19.9095 6.25312 20.4845C5.4625 21.2032 5.03125 21.1313 4.3125 20.3407C3.7375 19.7657 3.23438 19.2626 2.65938 18.6876C2.15625 18.1845 2.15625 17.6813 2.51562 17.1782C2.5875 17.1063 2.65937 16.9626 2.73125 16.8907C3.52187 15.7407 3.52187 15.7407 2.94687 14.447C2.875 14.3032 2.73125 14.2313 2.5875 14.1595C2.15625 14.0876 1.65313 14.0157 1.22188 13.9438C0.359375 13.872 0 13.5126 0 12.7938C0 11.9313 0 11.0688 0 10.2063C0 9.4876 0.359375 9.12822 1.00625 8.98447C1.07812 8.98447 1.15 8.98447 1.22188 8.98447C2.65938 8.76885 2.65937 8.76885 3.23438 7.40322C3.30625 7.25947 3.23438 7.11572 3.1625 6.97197C2.875 6.54072 2.5875 6.18135 2.3 5.82197C1.94063 5.24697 2.0125 4.74385 2.44375 4.3126C3.09063 3.66572 3.66563 3.01885 4.3125 2.44385C4.74375 2.0126 5.24688 2.0126 5.82188 2.3001C5.89375 2.37197 5.96562 2.37197 6.0375 2.44385C6.75625 3.23447 7.61875 3.30635 8.48125 2.73135C8.625 2.65947 8.76875 2.44385 8.76875 2.3001C8.84062 1.86885 8.9125 1.4376 8.98438 1.00635C9.12813 0.287598 9.4875 -0.0717773 10.2062 -0.0717773C11.0687 -0.0717773 11.9312 -0.0717773 12.7937 -0.0717773C13.4406 -0.0717773 13.8 0.215723 13.9437 0.862598C13.9437 1.00635 13.9437 1.07822 14.0156 1.22197C14.2313 2.65947 14.2313 2.65947 15.5969 3.1626C15.7406 3.23447 15.8844 3.1626 15.9563 3.09072C16.4594 2.8751 16.8187 2.5876 17.25 2.3001C17.7531 1.94072 18.2563 1.94072 18.7594 2.44385C19.4063 3.09072 20.0531 3.66572 20.6281 4.3126C21.0594 4.74385 21.1312 5.24697 20.7719 5.82197C20.7 5.89385 20.6281 6.0376 20.5563 6.10947C19.7656 7.25947 19.7656 7.25947 20.3406 8.55322C20.4125 8.69697 20.5562 8.84072 20.7 8.84072C21.1312 8.9126 21.6344 8.98447 22.0656 9.05635C22.7125 9.2001 23 9.55947 23 10.2063C23 11.1407 23 12.0032 23 12.9376C23 13.5126 22.7125 13.872 22.1375 14.0157C21.9937 14.0157 21.9219 14.0876 21.7781 14.0876C20.3406 14.3032 20.3406 14.3032 19.8375 15.6688C19.7656 15.8126 19.8375 15.9563 19.9094 16.1001C20.1969 16.4595 20.4844 16.8907 20.7 17.2501C21.0594 17.7532 21.0594 18.2563 20.6281 18.7595C19.9813 19.4063 19.4062 20.0532 18.6875 20.6282C18.4719 20.772 18.1844 20.9157 17.8969 21.0595ZM5.67813 14.6626C6.25313 14.447 6.75625 14.1595 7.33125 14.0157C8.05 13.8001 8.76875 13.6563 9.41563 13.4407C9.91875 13.297 10.0625 12.7938 9.84687 12.2907C9.4875 11.572 9.12812 10.9251 8.76875 10.2063C8.625 9.84697 8.625 9.4876 8.55312 9.12822C8.55312 8.84072 8.625 8.55322 8.625 8.26572C8.69688 6.82822 9.70312 5.7501 11.1406 5.67822C12.65 5.53447 13.9438 6.46885 14.1594 7.90635C14.2313 8.40947 14.375 8.9126 14.3031 9.41572C14.3031 9.84697 14.0875 10.2063 13.8719 10.6376C13.8 10.7095 13.7281 10.8532 13.6562 10.9251C13.4406 11.4282 13.225 11.9313 13.0094 12.3626C12.7219 12.8657 12.8656 13.3688 13.3688 13.5845C13.8 13.7282 14.2313 13.872 14.7344 13.9438C15.525 14.1595 16.4594 14.2313 17.1062 14.8782C18.4719 12.722 18.4719 9.05635 15.8125 6.68447C13.5125 4.3126 9.775 4.24072 7.1875 6.46885C4.74375 8.55322 4.09688 12.2907 5.67813 14.6626Z" fill="#ECB6C3"/>
</g>
<defs>
<clipPath id="clip0_31_211">
<rect width="23" height="23" fill="white"/>
</clipPath>
</defs>
</svg>
