<svg width="26" height="23" viewBox="0 0 26 23" fill="none" xmlns="http://www.w3.org/2000/svg">
<g clip-path="url(#clip0_30_68)">
<path d="M17.5137 11.5352C17.5137 11.4649 17.5137 11.4649 17.5137 11.5352ZM16.8104 11.3242C16.74 11.3242 16.6697 11.3242 16.5994 11.3242L16.8104 11.3946C16.8104 11.3946 16.8104 11.3946 16.8104 11.3242C16.8104 11.3946 16.8104 11.3946 16.8104 11.3242Z" fill="#ECB6C3"/>
<path d="M11.2538 0C5.06422 0 0 4.99388 0 11.1835C0 17.3731 4.99388 22.4373 11.1835 22.4373C12.3089 22.4373 13.3639 22.2966 14.3486 22.0153C13.7859 21.7339 13.3639 21.1009 13.0826 20.4679C12.8716 20.1162 12.7309 19.7645 12.5902 19.4832V19.4128C10.2691 19.7645 7.87767 19.2018 5.97859 17.6544C5.27523 17.0917 5.27523 16.3884 5.4159 15.6147C5.76758 13.9266 7.17431 12.7309 8.86238 12.6606C9.70642 12.6606 10.4801 12.6606 11.3242 12.6606C11.9572 12.6606 12.5902 12.6606 13.2232 12.6606C13.2936 12.5902 13.3639 12.4495 13.4342 12.3792C13.5046 12.3089 13.5749 12.1682 13.6453 12.0275C13.8563 11.6758 14.208 11.3945 14.5596 11.2538C14.7706 11.1131 15.052 11.1131 15.3333 11.1131C15.6147 11.1131 15.896 11.1835 16.107 11.2538C16.2477 11.3242 16.4587 11.3945 16.5994 11.4648C16.6697 11.5352 16.7401 11.5352 16.8104 11.6055L16.5994 11.5352C16.6697 11.5352 16.7401 11.5352 16.8104 11.5352V11.1835C16.8104 11.1131 16.8104 10.9725 16.8104 10.8318V10.7615C16.9511 9.63609 17.7248 8.93272 18.8502 8.86239C19.4128 8.86239 19.9052 8.86239 20.4679 8.86239C21.3823 8.93272 22.0856 9.42508 22.367 10.1988C21.8746 4.50153 17.0917 0 11.2538 0ZM11.2538 10.7615C9.21407 10.7615 7.52599 9.14373 7.52599 7.03364C7.52599 4.99388 9.14373 3.30581 11.2538 3.30581C13.2936 3.30581 14.9816 4.92355 14.9816 7.03364C14.9113 9.14373 13.2936 10.7615 11.2538 10.7615Z" fill="#ECB6C3"/>
<path d="M24.6881 17.7247C24.3364 17.5137 24.0551 17.0917 24.0551 16.5994C24.0551 16.107 24.2661 15.685 24.6178 15.4036C25.7431 14.7003 25.6025 14.4893 24.9694 13.2936C24.4068 12.3088 24.1957 12.3088 24.0551 12.3088C23.8441 12.3088 23.5627 12.4495 23.1407 12.6605C23 12.7309 22.8594 12.8012 22.7187 12.8012C22.6483 12.8012 22.5077 12.8012 22.5077 12.8012C22.4373 12.8012 22.367 12.8012 22.2967 12.8012C21.734 12.7309 21.2416 12.2385 21.1713 11.6055C21.1713 11.4648 21.1713 11.2538 21.1009 11.1131C21.1009 11.0428 21.1009 10.9021 21.1009 10.8318C21.0306 10.4098 20.8196 10.1988 20.3976 10.1284C19.9052 10.1284 19.4129 10.1284 18.9205 10.1284C18.4985 10.1284 18.2875 10.3394 18.2171 10.8318L18.1468 11.3945C18.1468 11.4648 18.1468 11.5351 18.1468 11.6055C18.0061 12.5902 17.1621 13.1529 16.1774 12.7309C16.0367 12.6605 15.9664 12.6605 15.896 12.5902C15.7554 12.5199 15.685 12.4495 15.5444 12.4495C15.263 12.3792 14.9113 12.3792 14.7707 12.7309C14.7707 12.8012 14.7003 12.8715 14.7003 12.8715C14.7003 12.9419 14.63 12.9419 14.63 13.0122C14.419 13.3639 14.208 13.7859 13.997 14.1376C13.8563 14.4189 13.8563 14.6299 14.0673 14.841C14.1376 14.9113 14.1376 14.9113 14.208 14.9816L14.2783 15.052C14.419 15.1223 14.4893 15.1926 14.5597 15.263C15.263 15.6147 15.3334 16.318 15.3334 16.529C15.3334 16.5994 15.3334 16.6697 15.3334 16.74C15.3334 17.5137 14.7707 17.7951 14.5597 17.9358C14.4893 17.9358 14.4893 18.0061 14.419 18.0061C14.1376 18.2171 13.9266 18.4281 13.9266 18.7798C13.9266 18.8501 13.997 18.9205 14.0673 18.9908C14.208 19.2018 14.3486 19.4832 14.4893 19.8348C14.9817 20.8195 15.1927 20.8195 15.3334 20.8195C15.5444 20.8195 15.896 20.6789 16.3181 20.4679C16.5291 20.3272 16.7401 20.3272 16.9511 20.3272C17.2324 20.3272 17.4434 20.3975 17.6545 20.5382C18.0061 20.7492 18.2171 21.1009 18.2875 21.5229L18.3578 22.3669C18.4282 22.789 18.6392 23 19.0612 23H19.8349H20.6086C21.0306 23 21.2416 22.789 21.3119 22.3669C21.3119 22.2966 21.3119 22.1559 21.3119 22.0856C21.3119 21.8746 21.3823 21.6636 21.3823 21.4526C21.4526 21.1712 21.6636 20.8899 21.8043 20.7492C22.2263 20.3272 22.7187 20.2569 23.3517 20.5382C23.7034 20.6789 24.1254 20.8899 24.3364 20.8899C24.4771 20.8899 24.6178 20.7492 25.0398 19.9755C25.0398 19.9052 25.1101 19.8348 25.1805 19.8348C25.7431 18.7095 25.8135 18.4984 24.6881 17.7247ZM21.1713 18.0061C20.7493 18.4281 20.2569 18.6391 19.6942 18.6391C18.5688 18.6391 17.6545 17.7247 17.6545 16.5994C17.6545 16.2477 17.7248 15.896 17.8655 15.6147C18.2171 14.9816 18.9205 14.5596 19.6239 14.5596C20.3976 14.5596 21.1009 15.052 21.4526 15.7553C21.5933 16.0367 21.6636 16.318 21.6636 16.5994C21.734 17.0917 21.523 17.5841 21.1713 18.0061Z" fill="#ECB6C3"/>
<path d="M16.8104 11.3242C16.8104 11.3946 16.8104 11.3946 16.8104 11.3242ZM17.5138 11.5352C17.5138 11.4649 17.5138 11.4649 17.5138 11.5352ZM14.3486 22.0153L14.4893 21.945C14.419 22.0154 14.419 22.0153 14.3486 22.0153Z" fill="#ECB6C3"/>
<path d="M16.8104 11.3242C16.7401 11.3242 16.6698 11.3242 16.5994 11.3242L16.8104 11.3946C16.8104 11.3946 16.8104 11.3946 16.8104 11.3242C16.8104 11.3946 16.8104 11.3946 16.8104 11.3242Z" fill="#ECB6C3"/>
<path d="M16.8104 11.3242C16.7401 11.3242 16.6698 11.3242 16.5994 11.3242L16.8104 11.3946C16.8104 11.3946 16.8104 11.3946 16.8104 11.3242C16.8104 11.3946 16.8104 11.3946 16.8104 11.3242Z" fill="#ECB6C3"/>
</g>
<defs>
<clipPath id="clip0_30_68">
<rect width="25.5321" height="23" fill="white"/>
</clipPath>
</defs>
</svg>
