<svg width="25" height="23" viewBox="0 0 25 23" fill="none" xmlns="http://www.w3.org/2000/svg">
<g clip-path="url(#clip0_31_191)">
<mask id="mask0_31_191" style="mask-type:luminance" maskUnits="userSpaceOnUse" x="0" y="0" width="24" height="23">
<path d="M23.5722 0H0.5V23H23.5722V0Z" fill="white"/>
</mask>
<g mask="url(#mask0_31_191)">
<path d="M11.3685 0C11.3685 0.198431 11.3685 0.360784 11.3685 0.514118C11.3685 3.94157 11.3685 7.36 11.3776 10.7874C11.3776 11.1302 11.2783 11.3827 11.0619 11.6353C8.95126 14.2329 6.84969 16.8396 4.7391 19.4463C4.60381 19.6176 4.45949 19.789 4.31518 19.9604C1.36577 17.489 -0.429137 12.7898 1.00498 8.14471C2.41204 3.56275 6.75949 0.126274 11.3685 0Z" fill="#ECB6C3"/>
<path d="M12.7485 22.9638C12.7485 19.3921 12.7485 15.8203 12.7485 12.2124C16.3383 12.2124 19.9371 12.2124 23.5269 12.2124C23.3916 17.7956 18.3496 22.8195 12.7485 22.9638Z" fill="#ECB6C3"/>
<path d="M11.3325 13.439C11.3325 16.7041 11.3325 19.8249 11.3325 22.9998C9.12271 22.8645 7.15643 22.1429 5.33447 20.8531C7.32781 18.3998 9.29408 15.9735 11.3325 13.439Z" fill="#ECB6C3"/>
<path d="M17.4296 10.7873C16.8885 10.7873 16.3473 10.7873 15.7881 10.7873C15.7881 7.80178 15.7881 4.82531 15.7881 1.82178C16.3383 1.82178 16.8794 1.82178 17.4296 1.82178C17.4296 4.82531 17.4296 7.79276 17.4296 10.7873Z" fill="#ECB6C3"/>
<path d="M12.7576 5.07812C13.2898 5.07812 13.8129 5.07812 14.3721 5.07812C14.3721 6.97224 14.3721 8.86637 14.3721 10.7875C13.84 10.7875 13.3259 10.7875 12.7576 10.7875C12.7576 8.89343 12.7576 6.99931 12.7576 5.07812Z" fill="#ECB6C3"/>
<path d="M20.4511 10.7966C19.8919 10.7966 19.3688 10.7966 18.8276 10.7966C18.8276 9.34448 18.8276 7.91036 18.8276 6.43115C19.3508 6.43115 19.8829 6.43115 20.4511 6.43115C20.4511 7.86527 20.4511 9.3084 20.4511 10.7966Z" fill="#ECB6C3"/>
<path d="M23.5719 8.23486C23.5719 9.09173 23.5719 9.91251 23.5719 10.7784C23.0127 10.7784 22.4535 10.7784 21.8672 10.7784C21.8672 9.93957 21.8672 9.10075 21.8672 8.23486C22.4355 8.23486 22.9857 8.23486 23.5719 8.23486Z" fill="#ECB6C3"/>
</g>
</g>
<defs>
<clipPath id="clip0_31_191">
<rect width="24" height="23" fill="white" transform="translate(0.5)"/>
</clipPath>
</defs>
</svg>
