<svg width="24" height="23" viewBox="0 0 24 23" fill="none" xmlns="http://www.w3.org/2000/svg">
<g clip-path="url(#clip0_31_174)">
<mask id="mask0_31_174" style="mask-type:luminance" maskUnits="userSpaceOnUse" x="0" y="0" width="24" height="23">
<path d="M23.5 0H0.5V23H23.5V0Z" fill="white"/>
</mask>
<g mask="url(#mask0_31_174)">
<path d="M1.8896 21.6226C1.8896 21.4224 1.8896 21.2457 1.8896 21.0809C1.8896 18.8786 1.8896 16.6764 1.8896 14.4741C1.8896 13.6497 2.07803 13.4731 2.89062 13.4731C3.60901 13.4731 4.32739 13.4731 5.04577 13.4731C5.70527 13.4731 5.92903 13.6968 5.92903 14.3681C5.92903 16.5939 5.92903 18.8315 5.92903 21.0573C5.92903 21.234 5.92903 21.4106 5.92903 21.6226C6.37654 21.6226 6.78873 21.6226 7.24802 21.6226C7.2598 21.4695 7.27158 21.3046 7.27158 21.1515C7.27158 19.809 7.27158 18.4546 7.27158 17.1121C7.27158 16.3819 7.48356 16.1817 8.20194 16.1817C8.95565 16.1817 9.69759 16.1817 10.4513 16.1817C11.0872 16.1817 11.311 16.4055 11.311 17.0532C11.3227 18.384 11.311 19.7148 11.311 21.0455C11.311 21.2222 11.311 21.3988 11.311 21.6226C11.7585 21.6226 12.1824 21.6226 12.6535 21.6226C12.6535 21.4342 12.6535 21.2693 12.6535 21.0926C12.6535 17.9953 12.6535 14.8981 12.6535 11.789C12.6535 10.9646 12.8419 10.788 13.6545 10.788C14.3729 10.788 15.0913 10.788 15.8097 10.788C16.4692 10.788 16.6929 11.0117 16.6929 11.683C16.6929 14.6979 16.6929 17.7009 16.6929 20.7158C16.6929 21.0102 16.6929 21.3164 16.6929 21.6344C17.1405 21.6344 17.5526 21.6344 18.0355 21.6344C18.0355 21.4459 18.0355 21.2575 18.0355 21.0691C18.0355 16.6528 18.0355 12.2365 18.0355 7.82021C18.0355 6.90162 18.1886 6.74854 19.1072 6.74854C19.7784 6.74854 20.4497 6.74854 21.1328 6.74854C21.8865 6.74854 22.0867 6.94874 22.0867 7.70245C22.0867 12.1541 22.0867 16.5939 22.0867 21.0455C22.0867 21.234 22.0867 21.4224 22.0867 21.6579C22.3576 21.6579 22.5813 21.6461 22.8051 21.6579C23.2173 21.6815 23.4881 21.9759 23.4763 22.3527C23.4646 22.706 23.1937 22.9769 22.8051 23.0005C22.6873 23.0122 22.5695 23.0005 22.44 23.0005C15.4682 23.0005 8.48458 23.0005 1.51274 23.0005C0.817915 23.0005 0.499943 22.8003 0.476389 22.3527C0.464612 21.8817 0.782585 21.6697 1.51274 21.6579C1.63051 21.6461 1.7365 21.6344 1.8896 21.6226Z" fill="#ECB6C3"/>
<path d="M18.1769 2.24961C18.012 1.27213 18.5302 0.435989 19.3899 0.118017C20.2378 -0.199955 21.18 0.0826866 21.7099 0.812845C22.2399 1.53122 22.2281 2.53225 21.6864 3.23885C21.1211 3.96901 20.1672 4.2281 19.3192 3.86302C19.0484 3.74525 18.8717 3.75703 18.6362 3.93368C18.0827 4.3812 17.4821 4.79338 16.9286 5.2409C16.799 5.34689 16.6812 5.58243 16.693 5.7473C16.8226 7.33716 15.5978 8.37352 14.055 7.98488C13.9255 7.94955 13.7371 7.99666 13.6428 8.09087C12.8656 8.83281 12.1001 9.5983 11.3582 10.3755C11.2522 10.4815 11.2051 10.7171 11.2404 10.8701C11.4288 11.6827 11.2639 12.3893 10.6398 12.9546C10.0274 13.4964 9.309 13.6259 8.54351 13.3197C7.76625 13.0017 7.34228 12.4011 7.30695 11.5532C7.29518 11.2941 7.22451 11.1528 6.98898 11.0468C6.54146 10.8466 6.09395 10.6228 5.66998 10.3873C5.43445 10.2578 5.26957 10.2695 5.03404 10.4344C4.06834 11.0939 2.78468 10.7995 2.18406 9.7985C1.607 8.82103 1.94853 7.56092 2.94955 7.00741C3.97413 6.44213 5.23424 6.84254 5.72887 7.90245C5.83486 8.12621 5.9173 8.38529 5.90552 8.63261C5.89374 8.96236 6.04684 9.10368 6.31771 9.22144C6.76522 9.42165 7.18918 9.68074 7.64848 9.86917C7.77802 9.92805 8.00178 9.91627 8.11955 9.83383C8.69661 9.45698 9.29722 9.35099 9.95672 9.53942C10.0745 9.57475 10.2747 9.52764 10.3689 9.43342C11.1462 8.67971 11.8999 7.926 12.6536 7.14873C12.7478 7.04274 12.8067 6.83076 12.7831 6.68944C12.5712 5.86507 12.736 5.13491 13.3838 4.56963C14.0433 3.99256 14.797 3.91013 15.6096 4.25165C15.7391 4.31054 15.9629 4.28698 16.0689 4.20455C16.7048 3.75703 17.329 3.29774 17.9296 2.80311C18.0591 2.67357 18.0945 2.43803 18.1769 2.24961Z" fill="#ECB6C3"/>
</g>
</g>
<defs>
<clipPath id="clip0_31_174">
<rect width="23" height="23" fill="white" transform="translate(0.5)"/>
</clipPath>
</defs>
</svg>
