<svg width="25" height="20" viewBox="0 0 25 20" fill="none" xmlns="http://www.w3.org/2000/svg">
<g clip-path="url(#clip0_31_181)">
<mask id="mask0_31_181" style="mask-type:luminance" maskUnits="userSpaceOnUse" x="0" y="0" width="25" height="20">
<path d="M24.5 0H0.5V20H24.5V0Z" fill="white"/>
</mask>
<g mask="url(#mask0_31_181)">
<path d="M6.75304 10.1014C5.44991 11.3881 4.18429 12.6381 2.91866 13.8789C2.27179 14.5131 1.58741 14.5039 0.949913 13.8697C0.340538 13.2631 0.340538 12.6014 0.978038 11.9764C2.56241 10.4139 4.15616 8.8514 5.74991 7.29809C6.46241 6.60875 7.09054 6.60875 7.81241 7.31647C8.98429 8.46537 10.1562 9.61427 11.3281 10.7539C11.3468 10.7723 11.375 10.7907 11.3562 10.7723C14.1687 8.02419 16.9718 5.27603 19.8687 2.45434C19.5875 2.20618 19.2406 1.90287 18.9031 1.59037C18.65 1.3514 18.425 1.10324 18.5656 0.70802C18.7156 0.303608 19.0531 0.220888 19.4281 0.193314C20.8156 0.119785 22.2031 0.0462556 23.5906 0.000299745C24.2187 -0.0180826 24.5187 0.285226 24.5 0.901035C24.4531 2.25213 24.3781 3.59405 24.3125 4.93596C24.2937 5.3128 24.1156 5.6161 23.7406 5.75397C23.375 5.89184 23.1125 5.69883 22.8687 5.45986C22.5406 5.12897 22.2312 4.7889 21.8937 4.43044C21.7156 4.59588 21.5937 4.69699 21.4812 4.81647C18.5093 7.73008 15.5375 10.6436 12.5656 13.5572C11.7312 14.3753 11.1593 14.3753 10.3343 13.5664C9.27491 12.5278 8.21554 11.4892 7.15616 10.4506C7.03429 10.3495 6.92179 10.2484 6.75304 10.1014Z" fill="#ECB6C3"/>
<path d="M21.9033 6.38818C22.0064 6.65472 22.1283 6.83855 22.1283 7.02237C22.1376 11.1216 22.1376 15.2301 22.1376 19.3293C22.1376 19.8532 21.997 19.9911 21.4814 20.0003C20.6189 20.0095 19.7658 20.0095 18.9033 20.0003C18.397 20.0003 18.247 19.8624 18.247 19.3753C18.2376 16.3422 18.247 13.3091 18.247 10.2852C18.247 10.1565 18.2658 9.98193 18.3501 9.9084C19.5033 8.75031 20.6564 7.61061 21.9033 6.38818Z" fill="#ECB6C3"/>
<path d="M16.7469 11.5352C16.7469 12.9966 16.7469 14.3937 16.7469 15.7815C16.7469 16.958 16.7469 18.1437 16.7469 19.3201C16.7469 19.8808 16.625 19.9911 16.0625 19.9911C15.2187 20.0003 14.375 20.0003 13.5312 19.9911C13.025 19.9911 12.8844 19.844 12.8844 19.3661C12.875 18.0609 12.8844 16.765 12.8844 15.4598C12.8844 15.3312 12.9125 15.1657 12.9969 15.0922C14.1781 13.9341 15.3781 12.7944 16.5687 11.6455C16.5969 11.6179 16.6344 11.5996 16.7469 11.5352Z" fill="#ECB6C3"/>
<path d="M6.02203 12.9965C6.02203 14.1821 6.02203 15.377 6.02203 16.5626C6.02203 17.4818 6.02203 18.4009 6.02203 19.3108C6.02203 19.8531 5.8814 19.9818 5.32828 19.991C4.48453 20.0001 3.64078 20.0001 2.79703 19.991C2.2814 19.991 2.1314 19.8531 2.1314 19.3751C2.12203 18.2722 2.12203 17.1693 2.14078 16.0755C2.14078 15.9468 2.30015 15.7354 2.41265 15.7079C3.0314 15.5884 3.53765 15.2759 3.9689 14.8439C4.61578 14.2005 5.26265 13.5663 5.90953 12.9321C5.94703 12.9597 5.98453 12.9781 6.02203 12.9965Z" fill="#ECB6C3"/>
<path d="M7.64375 12.8774C8.14062 13.3829 8.6375 13.8792 9.125 14.3847C9.73438 15.0281 10.4 15.5612 11.3844 15.5796C11.3844 16.9123 11.3844 18.2174 11.3844 19.5134C11.3844 19.8351 11.1781 19.9913 10.8781 19.9913C9.93125 20.0005 8.975 20.0005 8.02813 19.9913C7.71875 19.9913 7.53125 19.8259 7.53125 19.5042C7.53125 17.3167 7.53125 15.1384 7.53125 12.9509C7.55938 12.9233 7.59687 12.9049 7.64375 12.8774Z" fill="#ECB6C3"/>
</g>
</g>
<defs>
<clipPath id="clip0_31_181">
<rect width="24" height="20" fill="white" transform="translate(0.5)"/>
</clipPath>
</defs>
</svg>
