<svg width="28" height="23" viewBox="0 0 28 23" fill="none" xmlns="http://www.w3.org/2000/svg">
<g clip-path="url(#clip0_21_50)">
<path d="M11.3762 12.7597C9.91333 10.8092 8.77552 8.96699 7.31262 7.42282C5.49754 5.49938 3.41156 3.81976 1.40685 2.03178C0.837943 1.54414 0.241948 0.893967 0.919215 0.270881C1.21721 -2.61813e-05 2.1383 0.216699 2.68011 0.406334C3.33029 0.650151 3.89919 1.16487 4.54937 1.48996C5.79554 2.16723 6.7979 2.87159 6.96044 4.52412C7.09589 5.93284 8.2337 6.74556 9.64242 7.01646C11.024 7.28737 12.1077 6.79974 13.0288 5.79738C13.2455 5.58066 13.408 5.28266 13.6518 4.95757C15.1147 5.52648 16.6047 6.0412 18.0405 6.63719C19.0971 7.07065 19.3951 7.96464 19.0971 8.96699C18.7178 10.2673 18.2844 11.5406 17.7967 12.8139C17.6884 13.1119 17.282 13.3015 17.0111 13.5453C16.8215 13.2473 16.5235 12.9493 16.4693 12.6242C16.388 12.1366 16.4693 11.649 16.4693 11.1342C16.5235 8.99408 15.6566 8.073 13.4622 7.96464C13.2726 7.96464 13.0829 8.10009 12.8933 8.18136C12.9746 8.39809 13.0558 8.64191 13.1642 8.83154C13.2184 8.91281 13.408 8.9399 13.5435 8.99409C15.6295 9.86099 15.6295 9.86099 15.494 12.1095C15.3856 13.8975 15.5211 14.06 17.3362 14.6019C17.6071 14.6831 17.8509 14.9269 18.0405 15.1437C19.666 17.2567 21.3185 19.3427 22.8627 21.51C23.1336 21.8893 23.0794 22.5123 23.1607 23.0271C22.6189 22.8916 21.9416 22.9458 21.5623 22.6207C19.4493 20.8327 17.4174 18.9906 15.3856 17.1484C13.7873 15.7126 12.5411 15.55 10.1301 16.5795C11.1595 17.6089 12.1348 18.5571 13.0558 19.5595C13.5977 20.1555 14.8438 20.6973 13.9227 21.7267C13.0288 22.702 12.4057 21.4829 11.7826 21.0765C10.2384 20.0742 8.72134 19.0176 7.28553 17.8257C6.74371 17.3651 6.12063 16.5253 6.2019 15.9022C6.25608 15.3062 7.04171 14.6289 7.69189 14.2768C8.69424 13.7079 9.85915 13.3557 11.3762 12.7597Z" fill="white"/>
<path d="M14.3291 4.14489C18.7449 2.70908 22.8085 1.57127 27.4139 1.32745C25.8968 3.57598 25.8968 5.90578 25.8968 8.26267C25.8968 11.2968 23.6212 14.3039 20.7496 15.2521C20.3162 15.3875 19.6389 15.3333 19.3138 15.0624C18.7991 14.6561 18.2844 14.1143 18.6907 13.2203C19.2325 12.0012 19.5847 10.6737 19.9911 9.37339C20.5329 7.5854 19.9098 6.28505 18.1489 5.58069C17.0111 5.14724 15.8191 4.71379 14.3291 4.14489Z" fill="white"/>
<path d="M12.8933 3.14252C12.8933 4.93051 11.8368 6.14959 10.2926 6.14959C8.69424 6.14959 7.71898 4.9576 7.71898 3.00707C7.74607 1.1649 8.74843 0 10.2926 0C11.8639 0 12.8933 1.24617 12.8933 3.14252Z" fill="white"/>
</g>
<defs>
<clipPath id="clip0_21_50">
<rect width="26.7927" height="23" fill="white" transform="translate(0.621216)"/>
</clipPath>
</defs>
</svg>
