<svg width="20" height="23" viewBox="0 0 20 23" fill="none" xmlns="http://www.w3.org/2000/svg">
<g clip-path="url(#clip0_21_33)">
<path d="M10.5417 1.9623C10.8611 2.05357 11.1805 2.09921 11.5 2.19048C14.3294 3.05754 16.246 5.56746 16.2917 8.57936C16.2917 9.40079 16.2917 10.2222 16.2917 11.0437C16.246 13.0972 17.0218 14.7857 18.5278 16.1548C19.3492 16.8849 19.4405 18.0258 18.6647 18.6647C18.3452 18.9385 17.8889 19.121 17.4782 19.121C12.2302 19.1667 6.98214 19.1667 1.73412 19.1667C0.958328 19.1667 0.365074 18.756 0.136899 18.0714C-0.0912754 17.3413 0.0456293 16.748 0.593248 16.246C2.23611 14.7857 2.96626 13.006 2.92063 10.8155C2.87499 9.62897 2.87499 8.44246 3.05753 7.30159C3.51388 4.7004 5.61309 2.60119 8.21428 2.09921C8.57936 2.00794 8.67063 1.87103 8.67063 1.55159C8.67063 1.36905 8.67063 1.18651 8.67063 1.00397C8.67063 0.410714 9.03571 0 9.58333 0C10.1309 0 10.496 0.410714 10.5417 0.958333C10.5873 1.27778 10.5417 1.64286 10.5417 1.9623Z" fill="white"/>
<path d="M6.11507 20.125C8.44245 20.125 10.7698 20.125 13.0972 20.125C12.9147 21.631 11.4087 22.9087 9.81149 23C7.9861 23.0456 6.43451 21.8591 6.11507 20.125Z" fill="white"/>
</g>
<defs>
<clipPath id="clip0_21_33">
<rect width="19.1667" height="23" fill="white"/>
</clipPath>
</defs>
</svg>
