<svg width="28" height="23" viewBox="0 0 28 23" fill="none" xmlns="http://www.w3.org/2000/svg">
<g clip-path="url(#clip0_21_55)">
<path d="M13.9384 23.0001C12.1951 23.0001 10.4518 23.0001 8.70853 23.0001C7.94936 23.0001 7.66819 22.747 7.66819 21.9878C7.66819 19.3448 7.64007 16.6736 7.69631 14.0306C7.72442 12.0905 9.41146 10.4316 11.3234 10.4035C13.0667 10.3754 14.81 10.3754 16.5533 10.4035C18.4934 10.4316 20.1804 12.0905 20.2085 14.0306C20.2366 16.7299 20.2366 19.401 20.2366 22.1003C20.2366 22.6908 19.9274 22.9719 19.3088 22.9719C17.5093 23 15.7379 23.0001 13.9384 23.0001Z" fill="white"/>
<path d="M13.9384 9.39123C11.3516 9.36311 9.24276 7.22619 9.27088 4.63939C9.27088 2.10883 11.4359 -0.0280871 14.0227 3.02167e-05C16.5533 0.0281476 18.6902 2.16507 18.6621 4.69563C18.6621 7.31054 16.497 9.44746 13.9384 9.39123Z" fill="white"/>
<path d="M6.43102 12.3998C6.03738 13.4401 6.09362 14.4805 6.09362 15.5208C6.09362 17.2922 6.09362 19.0636 6.09362 20.8631C6.09362 21.5379 6.09362 22.2409 6.09362 22.9719C6.03738 22.9719 5.92491 23 5.81244 23C4.85645 23 3.90046 23 2.94447 23C1.42613 23 0.442027 21.9878 0.442027 20.4695C0.442027 19.1198 0.442027 17.7702 0.442027 16.4206C0.470144 14.1431 2.12907 12.456 4.43469 12.4279C5.05327 12.3998 5.69997 12.3998 6.43102 12.3998Z" fill="white"/>
<path d="M21.53 12.3998C22.711 12.4841 23.8638 12.2311 24.9604 12.6528C26.4225 13.2152 27.4628 14.5648 27.4909 16.1394C27.519 17.6296 27.519 19.1198 27.4909 20.6101C27.4628 21.8472 26.6474 22.8313 25.4102 22.9157C24.2012 23 22.9921 22.9438 21.8393 22.9438C21.8393 21.1724 21.8675 19.4291 21.8393 17.6577C21.7831 15.9426 22.0362 14.1712 21.53 12.3998Z" fill="white"/>
<path d="M5.72809 11.4157C3.78799 11.4157 2.1853 9.86924 2.1853 7.92914C2.1853 5.98904 3.75988 4.38635 5.69997 4.38635C7.61195 4.38635 9.21464 5.96092 9.21464 7.8729C9.21464 9.813 7.64007 11.4157 5.72809 11.4157Z" fill="white"/>
<path d="M25.7195 7.901C25.7195 9.8411 24.145 11.4157 22.2049 11.4157C20.2648 11.4157 18.6902 9.81298 18.6902 7.87289C18.6902 5.9609 20.2929 4.38633 22.2049 4.35822C24.145 4.38633 25.7195 5.9609 25.7195 7.901Z" fill="white"/>
</g>
<defs>
<clipPath id="clip0_21_55">
<rect width="27.1051" height="23" fill="white" transform="translate(0.41391)"/>
</clipPath>
</defs>
</svg>
