<svg xmlns="http://www.w3.org/2000/svg" viewBox="0 0 22.25 22.25"><title>clear sky</title><g id="Layer_2" data-name="Layer 2"><g id="Layer_1-2" data-name="Layer 1"><path d="M11.12,16.69a5.57,5.57,0,1,1,5.58-5.57A5.56,5.56,0,0,1,11.12,16.69Z"/><path d="M20.3,12.2c-.32,0-.64,0-.95,0a1.06,1.06,0,0,1-1-1.06,1,1,0,0,1,1-1.08,16.67,16.67,0,0,1,2,0,1,1,0,0,1,.94,1.06,1,1,0,0,1-.95,1.06c-.33,0-.66,0-1,0Z"/><path d="M10.06,20.31a9,9,0,0,1,0-1,1,1,0,0,1,1.08-.93,1,1,0,0,1,1,.93,17.87,17.87,0,0,1,0,2.07,1,1,0,0,1-1,.91,1.05,1.05,0,0,1-1.06-.9,9,9,0,0,1,0-1Z"/><path d="M10.06,2c0-.33,0-.67,0-1A1,1,0,0,1,11.12,0a1,1,0,0,1,1.06.94,15.43,15.43,0,0,1,0,2,1,1,0,0,1-1.07.93,1,1,0,0,1-1-.92,9,9,0,0,1,0-1Z"/><path d="M2,12.2c-.34,0-.67,0-1,0a1.07,1.07,0,0,1,0-2.13,16.52,16.52,0,0,1,2,0,1,1,0,0,1,1,1,1,1,0,0,1-1,1.07c-.32,0-.66,0-1,0Z"/><path d="M4.17,2.94a2.38,2.38,0,0,1,.62.33c.43.38.84.8,1.23,1.22A1.08,1.08,0,0,1,4.51,6c-.45-.41-.87-.84-1.29-1.29a1,1,0,0,1-.17-1.17A1.12,1.12,0,0,1,4.17,2.94Z"/><path d="M19.31,4.2a2.79,2.79,0,0,1-.37.63c-.35.4-.74.77-1.13,1.14a1.08,1.08,0,1,1-1.55-1.51c.4-.42.81-.83,1.23-1.22A1,1,0,0,1,18.66,3,1.13,1.13,0,0,1,19.31,4.2Z"/><path d="M5.17,15.9a1.12,1.12,0,0,1,1.06.63,1,1,0,0,1-.13,1.13c-.45.49-.92,1-1.41,1.41A1,1,0,0,1,3.3,19a1,1,0,0,1-.17-1.37,19.14,19.14,0,0,1,1.56-1.56A1.23,1.23,0,0,1,5.17,15.9Z"/><path d="M19.31,18.09a1.13,1.13,0,0,1-.61,1.11,1,1,0,0,1-1.14-.13c-.49-.45-1-.92-1.41-1.41a1.07,1.07,0,0,1,1.49-1.52,19.56,19.56,0,0,1,1.44,1.44A1.37,1.37,0,0,1,19.31,18.09Z"/></g></g></svg>