<svg xmlns="http://www.w3.org/2000/svg" viewBox="0 0 24.77 19.45"><defs><style>.cls-1{fill:#a3a3a3;}</style></defs><title>thunderstorm</title><g id="Layer_2" data-name="Layer 2"><g id="Layer_1-2" data-name="Layer 1"><path d="M21.57,5.83a3,3,0,0,0-.79.1,3.3,3.3,0,0,0-4.62-2.74,3.72,3.72,0,0,0-7.4.54,3.3,3.3,0,0,0,.13.95H8.76a3.73,3.73,0,0,0,0,7.46H22.32A3.21,3.21,0,0,0,24.77,9,3.2,3.2,0,0,0,21.57,5.83Zm-2.76,4.78.21.31A1.3,1.3,0,0,1,18.81,10.61Z"/><path class="cls-1" d="M18.16,8.24a3.08,3.08,0,0,0-.86.12A3.63,3.63,0,0,0,13.69,5a3.58,3.58,0,0,0-1.47.31,4.09,4.09,0,0,0-8.13.59,4,4,0,0,0,.14,1H4.09a4.09,4.09,0,1,0,0,8.18H19a3.5,3.5,0,0,0,2.69-3.4A3.51,3.51,0,0,0,18.16,8.24Zm-3,5.26c.1.13.17.25.23.34A1.85,1.85,0,0,1,15.13,13.5Z"/><polygon points="8.52 7.89 12.71 7.89 10.07 12.34 13.04 12.34 6.2 19.45 8.07 14.47 5.17 14.47 8.52 7.89"/></g></g></svg>