<svg width="24" height="23" viewBox="0 0 24 23" fill="none" xmlns="http://www.w3.org/2000/svg">
<path d="M10.791 4.29186C11.3413 3.41148 11.8915 2.42105 12.4417 1.54067C12.4417 1.43062 12.6618 1.43062 12.7719 1.43062C15.0829 1.43062 17.2838 1.43062 19.5948 1.43062C19.5948 4.62201 19.5948 7.70334 19.5948 10.8947C17.3939 10.8947 15.1929 10.8947 12.992 10.8947C13.102 10.4545 13.2121 9.9043 13.3221 9.46411C13.5422 8.80382 13.6523 8.25358 13.7623 7.70335C13.8724 7.48325 13.7623 7.26315 13.6523 7.15311C12.7719 6.27272 12.0015 5.39234 11.1212 4.62201C11.0111 4.51196 11.0111 4.40191 10.791 4.29186Z" fill="#5A6B7C"/>
<path d="M11.5613 10.7847C9.25031 10.7847 6.9393 10.7847 4.6283 10.7847C4.6283 7.5933 4.6283 4.51196 4.6283 1.32057C6.71921 1.32057 8.70007 1.32057 10.791 1.32057C10.901 1.54067 10.791 1.65072 10.791 1.76076C10.2407 2.5311 9.80055 3.41148 9.36035 4.18182C9.14026 4.40191 9.25031 4.51196 9.36035 4.73206C10.2407 5.61244 11.2312 6.60287 12.1115 7.48325C12.3316 7.70335 12.3316 7.92344 12.3316 8.14354C12.1116 9.02392 11.8915 9.9043 11.5613 10.7847Z" fill="#5A6B7C"/>
<path d="M0.666626 0C1.54701 0 2.42739 0 3.30777 0C3.30777 4.07177 3.30777 8.03349 3.30777 12.1053C2.42739 12.1053 1.54701 12.1053 0.666626 12.1053C0.666626 8.14354 0.666626 4.07177 0.666626 0Z" fill="#5A6B7C"/>
<path d="M23.6667 12.1053C22.7863 12.1053 21.9059 12.1053 21.0255 12.1053C21.0255 8.03349 21.0255 4.07177 21.0255 0C21.9059 0 22.7863 0 23.6667 0C23.6667 4.07177 23.6667 8.03349 23.6667 12.1053Z" fill="#5A6B7C"/>
<path d="M14.4226 18.2679C14.9728 18.8182 15.5231 19.2584 15.9633 19.8086C16.7336 20.5789 16.6235 21.7895 15.7432 22.5598C14.9728 23.2201 13.7623 23.2201 12.992 22.4498C12.2216 21.6794 12.2216 20.4689 12.8819 19.6986C13.5422 19.1483 13.9824 18.7081 14.4226 18.2679Z" fill="#ECB6C3"/>
<path d="M9.91063 12.5455C10.3508 12.9856 10.9011 13.4258 11.3413 13.9761C12.1116 14.7464 12.0015 15.9569 11.3413 16.7273C10.5709 17.4976 9.36039 17.4976 8.59006 16.8373C7.81972 16.177 7.59963 14.9665 8.36996 14.0861C8.81016 13.5359 9.36039 12.9856 9.91063 12.5455Z" fill="#ECB6C3"/>
</svg>
