<svg width="17" height="23" viewBox="0 0 17 23" fill="none" xmlns="http://www.w3.org/2000/svg">
<path d="M6.66026 0C6.83786 0.0888031 6.92667 0.0888031 6.92667 0.0888031C9.41315 1.77606 10.834 3.99614 10.6564 7.10425C10.6564 7.72587 10.4788 8.34749 10.39 8.96911C10.2124 10.1236 11.1004 11.1004 12.166 11.1892C13.3205 11.278 14.2973 10.39 14.2973 9.23552C14.2973 9.05791 14.2973 8.88031 14.2973 8.7027C14.2973 8.7027 14.2973 8.7027 14.3861 8.6139C14.4749 8.7027 14.5637 8.79151 14.6525 8.88031C18.0271 13.5869 16.6062 20.0695 11.278 22.2896C6.39385 24.332 0.799254 21.0463 0.088829 15.8069C-0.266383 12.8764 0.621648 10.3012 2.66412 7.99228C3.46335 7.10425 4.26257 6.21622 5.0618 5.32819C6.12744 4.08494 6.83786 2.66409 6.74906 0.888031C6.66026 0.621622 6.66026 0.355212 6.66026 0ZM7.28188 11.3668C7.19308 11.3668 7.19308 11.278 7.10427 11.278C6.66026 11.8108 6.12744 12.2548 5.68342 12.7876C4.70659 13.9421 4.08497 15.3629 4.08497 16.9614C4.08497 19.0927 5.68342 20.9575 7.72589 21.1351C10.0348 21.3127 11.9884 19.8919 12.3437 17.6718C12.4325 16.8726 12.4325 16.0734 11.9884 15.3629C11.8108 15.4517 11.722 15.5405 11.6332 15.6293C9.94597 16.8726 7.63709 15.8958 7.37068 13.8533C7.28188 13.2317 7.37068 12.5212 7.28188 11.8996C7.28188 11.6332 7.28188 11.5444 7.28188 11.3668Z" fill="#5A6B7C"/>
<path d="M7.28187 11.3668C7.28187 11.5444 7.28187 11.722 7.28187 11.8996C7.28187 12.5212 7.28187 13.2317 7.37068 13.8533C7.63708 15.9845 9.94597 16.8726 11.6332 15.6293C11.722 15.5405 11.8108 15.4517 11.9884 15.3629C12.4325 16.1622 12.4325 16.8726 12.3436 17.6718C11.9884 19.8919 10.0348 21.3127 7.72589 21.1351C5.68342 20.9575 4.08496 19.0927 4.08496 16.9614C4.08496 15.3629 4.70658 14.0309 5.68342 12.7876C6.12743 12.2548 6.66025 11.722 7.10427 11.278C7.19307 11.278 7.28187 11.278 7.28187 11.3668Z" fill="#ECB6C3"/>
</svg>
