<svg width="27" height="23" viewBox="0 0 27 23" fill="none" xmlns="http://www.w3.org/2000/svg">
<path d="M13.4561 11.9939C9.50515 11.9939 5.55423 11.9939 1.60331 11.9939C1.46221 11.9939 1.3211 11.9939 1.18 11.9939C0.756687 11.9939 0.333374 11.5706 0.333374 11.1472C0.333374 10.5828 0.615583 10.3006 1.18 10.1595C1.60331 10.1595 2.02663 10.1595 2.44994 10.1595C3.01436 10.1595 3.15546 10.0184 3.29656 9.59509C3.86098 7.33742 4.4254 5.07975 4.98982 2.82209C5.41313 0.564417 7.38859 -0.564417 9.50515 0.282209C10.634 0.705522 11.6217 1.12883 12.7506 1.55215C13.315 1.69325 13.7383 1.69325 14.3027 1.55215C15.2904 1.12883 16.4193 0.705522 17.407 0.282209C19.6647 -0.564417 21.6401 0.423313 22.2045 2.68098C22.769 4.93865 23.3334 7.19632 23.8978 9.45399C24.0389 10.0184 24.18 10.1595 24.7444 10.0184C25.0266 10.0184 25.3088 10.0184 25.591 10.0184C26.2966 10.0184 26.7199 10.4417 26.7199 11.0061C26.7199 11.5706 26.2966 11.8528 25.591 11.8528C21.499 11.9939 17.5481 11.9939 13.4561 11.9939Z" fill="#5A6B7C"/>
<path d="M14.4438 16.227C13.7382 15.9448 13.0327 15.9448 12.4683 16.227C12.4683 17.0736 12.6094 17.9202 12.4683 18.7669C12.045 21.4478 9.50511 23.2822 6.68302 23C4.14314 22.7178 2.02658 20.319 2.16768 17.7791C2.30879 14.9571 4.42535 12.8405 7.10633 12.6994C8.65848 12.6994 10.0695 13.2638 11.1984 14.3926C11.4806 14.6748 11.6217 14.6748 11.9039 14.5337C12.8916 14.1104 13.8793 14.1104 14.8671 14.5337C15.1493 14.6748 15.4315 14.6748 15.5726 14.3926C17.1247 12.8405 18.9591 12.2761 21.0757 12.9816C23.1922 13.6871 24.3211 15.2393 24.6033 17.3558C24.8855 20.0368 22.91 22.5767 20.229 23C17.5481 23.4233 14.8671 21.589 14.3027 18.908C14.4438 18.0613 14.4438 17.2147 14.4438 16.227Z" fill="#ECB6C3"/>
</svg>
