<svg width="23" height="23" viewBox="0 0 23 23" fill="none" xmlns="http://www.w3.org/2000/svg">
<path d="M1.96711 18.0066C2.11842 17.7039 2.11842 17.5526 2.26974 17.4013C2.875 16.6447 3.02632 15.8882 2.57237 14.9803C2.26974 14.375 1.81579 13.9211 1.05921 13.7697C0 13.6184 0 13.6184 0 12.4079C0 11.6513 0 10.7434 0 9.98684C0 9.5329 0.151316 9.38158 0.605263 9.23026C1.05921 9.07895 1.66447 9.07895 2.11842 8.77632C2.42105 8.47368 2.57237 7.86842 2.72368 7.41447C3.02632 6.96053 3.02632 6.50658 2.57237 6.20395C2.42105 5.90132 2.26974 5.59868 2.11842 5.29605C1.96711 4.99342 1.96711 4.69079 2.26974 4.53947C3.02632 3.78289 3.78289 3.02632 4.53947 2.26974C4.84211 1.96711 5.14474 1.96711 5.44737 2.11842C5.75 2.42105 6.05263 2.57237 6.50658 2.875C6.65789 3.02632 6.96053 3.02632 7.11184 2.875C7.56579 2.72368 8.17105 2.42105 8.625 2.26974C8.77632 2.26974 8.92763 2.11842 8.92763 1.96711C9.07895 1.51316 9.07895 1.05921 9.23026 0.605263C9.38158 0.151316 9.53289 0 9.98684 0C11.0461 0 12.1053 0 13.0132 0C13.4671 0 13.6184 0.151316 13.7697 0.605263C13.9211 1.05921 13.9211 1.51316 14.0724 1.96711C14.0724 2.11842 14.2237 2.26974 14.5263 2.42105C14.9803 2.72368 15.4342 2.875 16.0395 3.02632C16.1908 3.02632 16.4934 3.02632 16.6447 3.02632C17.0987 2.875 17.4013 2.57237 17.7039 2.42105C18.0066 2.26974 18.3092 2.26974 18.6118 2.57237C19.3684 3.32895 20.125 4.08553 20.7303 4.69079C21.0329 4.99342 21.0329 5.29605 20.8816 5.59868C20.5789 6.05263 20.4276 6.35526 20.2763 6.80921C20.2763 6.96053 20.2763 7.26316 20.2763 7.41447C20.4276 7.86842 20.7303 8.32237 20.8816 8.77632C21.0329 9.07895 21.1842 9.23026 21.4868 9.23026C21.6382 9.07895 21.9408 9.07895 22.3947 9.23026C22.6974 9.38158 22.8487 9.5329 22.8487 9.83553C22.8487 10.8947 22.8487 11.9539 22.8487 13.0132C22.8487 13.4671 22.6974 13.6184 22.2434 13.7697C21.7895 13.9211 21.3355 13.9211 20.8816 14.0724C20.7303 14.0724 20.5789 14.375 20.4276 14.5263C20.2763 14.9803 20.125 15.4342 19.8224 15.7368C19.6711 16.0395 19.6711 16.3421 19.8224 16.6447C19.9737 16.9474 20.2763 17.25 20.4276 17.7039C20.5789 18.0066 20.5789 18.3092 20.2763 18.6118C19.5197 19.3684 18.7632 20.125 18.0066 20.8816C17.7039 21.1842 17.4013 21.1842 17.0987 21.0329C16.6447 20.7303 16.1908 20.2763 15.7368 20.2763C15.2829 20.2763 14.8289 20.7303 14.2237 20.8816C13.7697 21.0329 13.6184 21.1842 13.4671 21.6382C13.4671 21.9408 13.3158 22.2434 13.1645 22.6974C13.6184 22.6974 13.4671 23 13.0132 23C11.9539 23 10.8947 23 9.83553 23C9.53289 23 9.23026 22.8487 9.23026 22.5461C9.07895 21.9408 9.07895 21.1842 8.77632 20.8816C8.47368 20.5789 7.86842 20.4276 7.41447 20.2763C6.96053 20.125 6.65789 19.9737 6.35526 20.2763C6.05263 20.4276 5.75 20.5789 5.44737 20.8816C5.14474 21.0329 4.84211 21.0329 4.53947 20.7303C3.78289 19.9737 3.02632 19.2171 2.26974 18.4605C2.11842 18.3092 2.11842 18.1579 1.96711 18.0066ZM15.7368 6.50658C12.7105 3.93421 8.77632 4.53947 6.50658 7.11184C4.23684 9.68421 4.38816 13.4671 6.65789 15.8882C8.92763 18.3092 12.8618 18.6118 15.4342 16.6447C16.7961 15.5855 17.7039 14.2237 17.8553 12.4079C18.1579 10.4408 17.7039 8.625 16.3421 7.11184C16.6447 6.65789 16.9474 6.35526 17.25 5.90132C17.4013 5.75 17.5526 5.44737 17.25 5.29605C17.0987 5.14474 16.7961 5.29605 16.6447 5.29605C16.4934 5.75 16.1908 6.05263 15.7368 6.50658Z" fill="#5A6B7C"/>
<path d="M15.1316 6.96053C14.0724 7.71711 13.0132 8.625 11.954 9.38158C11.954 9.5329 11.6513 9.5329 11.5 9.5329C10.2895 9.5329 9.5329 10.4408 9.5329 11.5C9.5329 12.5592 10.4408 13.4671 11.5 13.4671C12.5592 13.4671 13.4671 12.5592 13.4671 11.5C13.4671 11.3487 13.4671 11.1974 13.6184 11.0461C14.375 9.98684 15.2829 8.92763 16.0395 7.86842C17.5526 9.23026 18.1579 12.7105 16.0395 15.2829C13.9211 17.8553 10.1382 18.0066 7.71711 15.8882C5.14474 13.6184 4.84211 9.83553 7.11185 7.56579C9.5329 4.99342 13.1645 5.14474 15.1316 6.96053Z" fill="#ECB6C3"/>
<path d="M14.6776 8.32237C14.0724 9.07895 13.4671 9.83553 12.8619 10.5921C12.7105 10.7434 12.7105 11.0461 12.7105 11.3487C12.7105 12.1053 12.2566 12.7105 11.5 12.7105C10.8948 12.7105 10.2895 12.1053 10.2895 11.3487C10.2895 10.5921 10.8948 10.1382 11.6513 10.1382C11.8026 10.1382 12.1053 10.1382 12.2566 9.98684C13.1645 9.38158 13.9211 8.77632 14.6776 8.32237ZM11.954 11.5C11.8026 11.3487 11.6513 11.1974 11.5 11.1974C11.3487 11.1974 11.1974 11.3487 11.1974 11.5C11.3487 11.6513 11.5 11.8026 11.6513 11.8026C11.6513 11.8026 11.8026 11.6513 11.954 11.5Z" fill="#5A6B7C"/>
</svg>
