<svg width="24" height="23" viewBox="0 0 24 23" fill="none" xmlns="http://www.w3.org/2000/svg">
<g clip-path="url(#clip0_2_1457)">
<path d="M11.9825 0C18.3382 0 23.5001 5.16183 23.4649 11.5176C23.4649 17.8733 18.3031 23 11.9474 23C5.62678 23 0.500061 17.8382 0.500061 11.4824C0.500061 5.12672 5.66189 0 11.9825 0ZM10.8588 13.1328C10.8588 14.0809 10.8588 14.9939 10.8588 15.942C10.8588 16.258 10.9993 16.4687 11.2451 16.6092C11.4558 16.7145 11.7016 16.7847 11.9123 16.7847C12.7199 16.855 13.1413 16.4336 13.1413 15.6611C13.1413 14.0107 13.1062 12.3603 13.1413 10.7099C13.1413 9.97252 13.0008 9.6916 12.1581 9.62137C11.9123 9.58626 11.6665 9.62137 11.4207 9.65649C10.9993 9.76183 10.8237 10.0076 10.8237 10.4641C10.8588 11.342 10.8588 12.255 10.8588 13.1328ZM12.0176 6.03969C11.3153 6.03969 10.7886 6.49618 10.7535 7.09313C10.7535 7.69008 11.3153 8.18168 11.9825 8.18168C12.6497 8.18168 13.2115 7.69008 13.2115 7.09313C13.2115 6.5313 12.6848 6.03969 12.0176 6.03969Z" fill="#9A9A9A"/>
</g>
<defs>
<clipPath id="clip0_2_1457">
<rect width="23" height="23" fill="white" transform="translate(0.500061)"/>
</clipPath>
</defs>
</svg>
