<svg xmlns="http://www.w3.org/2000/svg" viewBox="0 0 24.77 19.27"><defs><style>.cls-1{fill:#ab310d;}.cls-2{fill:#f2f2f1;}</style></defs><title>few clouds</title><g id="Layer_2" data-name="Layer 2"><g id="Layer_1-2" data-name="Layer 1"><circle class="cls-1" cx="16.79" cy="7.69" r="7.69"/><path class="cls-2" d="M20.76,11.36a3.59,3.59,0,0,0-1,.14,4.14,4.14,0,0,0-4.13-3.8A4,4,0,0,0,14,8.06a4.67,4.67,0,0,0-9.29.67,4.22,4.22,0,0,0,.16,1.19H4.68a4.68,4.68,0,1,0,0,9.36h17a4,4,0,0,0-.93-7.91Zm-3.47,6,.27.39A1.7,1.7,0,0,1,17.29,17.37Z"/></g></g></svg>