<svg xmlns="http://www.w3.org/2000/svg" viewBox="0 0 24.77 15.21"><defs><style>.cls-1{fill:#f2f2f1;}</style></defs><title>scattered ckouds</title><g id="Layer_2" data-name="Layer 2"><g id="Layer_1-2" data-name="Layer 1"><path class="cls-1" d="M20.76,7.31a3.58,3.58,0,0,0-1,.13,4.14,4.14,0,0,0-4.13-3.79A4.19,4.19,0,0,0,14,4a4.67,4.67,0,0,0-9.29.68,4.27,4.27,0,0,0,.16,1.19H4.68a4.68,4.68,0,1,0,0,9.35h17a4,4,0,0,0,3.08-3.88A4,4,0,0,0,20.76,7.31Zm-3.47,6,.27.39A2,2,0,0,1,17.29,13.32Z"/></g></g></svg>