<svg xmlns="http://www.w3.org/2000/svg" viewBox="0 0 21.24 13.5"><defs><style>.cls-1{fill:#ab310d;}</style></defs><title>mist</title><g id="Layer_2" data-name="Layer 2"><g id="Layer_1-2" data-name="Layer 1"><path d="M9.65,6h7.22c.55,0,.86.23.9.65a.72.72,0,0,1-.64.82,3,3,0,0,1-.42,0H2.52a2.84,2.84,0,0,1-.41,0A.74.74,0,0,1,2.1,6a3,3,0,0,1,.42,0Z"/><path class="cls-1" d="M12,10.49H5a2.77,2.77,0,0,1-.41,0,.71.71,0,0,1-.65-.7.69.69,0,0,1,.56-.72A2.74,2.74,0,0,1,5,9H19.41a.76.76,0,0,1,.81.76.75.75,0,0,1-.85.71Z"/><path class="cls-1" d="M13.13,3h7.09a3,3,0,0,1,.42,0,.69.69,0,0,1,.6.69.68.68,0,0,1-.55.73,2,2,0,0,1-.49,0H6.06a2,2,0,0,1-.49,0A.68.68,0,0,1,5,3.73.72.72,0,0,1,5.63,3a3,3,0,0,1,.42,0Z"/><path d="M7.09,1.45c-2,0-4,0-6,0a2.33,2.33,0,0,1-.46,0A.72.72,0,0,1,.59,0a4,4,0,0,1,.49,0h12a3.39,3.39,0,0,1,.45,0,.7.7,0,0,1,.62.71.69.69,0,0,1-.62.71,4.87,4.87,0,0,1-.54,0C11,1.46,9.06,1.46,7.09,1.45Z"/><path d="M7.39,13.5h-5a.72.72,0,0,1,0-1.44c.12,0,.24,0,.37,0H12c.11,0,.22,0,.33,0a.73.73,0,0,1,.71.71.71.71,0,0,1-.7.73,5.56,5.56,0,0,1-.58,0Z"/></g></g></svg>