<svg width="23" height="23" viewBox="0 0 23 23" fill="none" xmlns="http://www.w3.org/2000/svg">
<g clip-path="url(#clip0_225_21223)">
<path d="M10.5792 19.8948C10.5792 14.2598 10.5792 8.6248 10.5792 3.1048C9.19922 3.1048 7.81922 3.1048 6.55422 3.1048C5.86422 3.1048 5.40422 3.7948 5.40422 4.4848C5.40422 4.9448 5.40422 5.2898 5.40422 5.7498C5.40422 6.2098 4.94422 6.5548 4.48422 6.5548C4.02422 6.5548 3.56422 6.3248 3.56422 5.7498C3.56422 5.1748 3.44922 4.4848 3.56422 3.9098C3.90922 2.2998 5.28922 1.2648 6.89922 1.2648C8.16422 1.2648 9.54422 1.2648 10.8092 1.2648C11.0392 1.2648 11.3842 1.1498 11.4992 0.919802C12.6492 -0.115198 13.7992 -0.230198 15.1792 0.229802C17.0192 0.919802 18.9742 1.6098 20.8142 2.2998C22.1942 2.8748 22.9992 4.0248 22.9992 5.4048C22.9992 9.4298 22.9992 13.5698 22.9992 17.5948C22.9992 19.0898 22.1942 20.1248 20.8142 20.5848C18.9742 21.2748 17.1342 21.9648 15.2942 22.6548C13.7992 23.2298 12.5342 23.1148 11.3842 21.8498C11.2692 21.7348 11.0392 21.7348 10.8092 21.7348C9.54422 21.7348 8.27922 21.7348 6.89922 21.7348C4.82922 21.7348 3.44922 20.3548 3.44922 18.2848C3.44922 18.0548 3.44922 17.7098 3.44922 17.4798C3.44922 16.9048 3.79422 16.5598 4.25422 16.5598C4.82922 16.5598 5.17422 16.9048 5.28922 17.3648C5.28922 17.8248 5.28922 18.1698 5.28922 18.6298C5.28922 19.4348 5.86422 20.0098 6.55422 20.0098C7.93422 20.0098 9.31422 19.8948 10.5792 19.8948Z" fill="white"/>
<path d="M5.635 12.6501C4.255 12.6501 2.875 12.6501 1.495 12.6501C1.265 12.6501 1.035 12.6501 0.805 12.6501C0.23 12.5351 0 12.3051 0 11.7301C0 11.2701 0.23 10.9251 0.69 10.8101C0.92 10.8101 1.15 10.8101 1.38 10.6951C2.76 10.6951 4.255 10.6951 5.75 10.6951C5.405 10.4651 5.175 10.2351 5.06 10.0051C4.6 9.54506 4.6 9.08506 4.945 8.74006C5.29 8.39506 5.865 8.39506 6.325 8.85506C7.13 9.66006 7.935 10.3501 8.74 11.1551C8.97 11.3851 9.085 11.7301 8.74 12.0751C7.935 12.9951 7.015 13.8001 6.095 14.6051C5.75 14.9501 5.29 14.8351 4.945 14.4901C4.6 14.1451 4.715 13.5701 5.06 13.2251C5.29 13.1101 5.405 12.8801 5.635 12.7651V12.6501Z" fill="white"/>
</g>
<defs>
<clipPath id="clip0_225_21223">
<rect width="23" height="23" fill="white"/>
</clipPath>
</defs>
</svg>
