<svg width="22" height="23" viewBox="0 0 22 23" fill="none" xmlns="http://www.w3.org/2000/svg">
<g clip-path="url(#clip0_225_21560)">
<path d="M17.1868 8.34077C16.0494 8.34077 14.9121 8.34077 13.7747 8.34077C13.7747 11.6265 13.7747 14.7858 13.7747 18.0715C12.8901 18.0715 12.1319 18.0715 11.2473 18.0715C11.2473 17.6924 11.2473 17.1869 11.2473 16.8078C11.2473 16.0496 11.2473 15.2913 11.2473 14.4067C11.2473 14.0276 11.3736 13.5221 10.8681 13.5221C10.2363 13.5221 10.489 14.0276 10.489 14.4067C10.489 15.5441 10.489 16.8078 10.489 17.9452C9.73077 17.9452 8.84615 17.9452 8.08791 17.9452C8.08791 14.7858 8.08791 11.5001 8.08791 8.21439C6.95055 8.21439 5.81319 8.21439 4.67582 8.21439C4.8022 8.34077 4.8022 8.46714 4.92857 8.59351C5.68681 9.6045 6.44505 10.6155 7.2033 11.7529C7.32967 12.132 7.45604 12.3847 7.32967 12.6375C7.2033 14.6594 5.56044 16.0496 3.66483 16.0496C1.76923 16.0496 0.126374 14.5331 0 12.5111C0 12.2583 0.126374 12.0056 0.252747 11.8792C1.13736 10.6155 2.02198 9.47813 2.90659 8.21439C2.78022 8.21439 2.65385 8.08802 2.65385 8.08802C2.14835 7.58252 2.02198 7.07703 2.14835 6.57154C2.27473 5.93967 2.78022 5.68692 3.28571 5.56055C3.41209 5.56055 3.53846 5.56055 3.66483 5.56055C8.46703 5.56055 13.1429 5.56055 17.9451 5.56055C18.5769 5.56055 18.956 5.68692 19.3352 6.19241C19.8407 6.82428 19.5879 7.58252 18.7033 8.21439C18.956 8.59351 19.3352 8.97263 19.5879 9.47813C20.2198 10.11 20.5989 10.8682 21.1044 11.3737C21.8626 12.132 21.7363 12.8902 21.3571 13.7748C20.7253 15.2913 18.956 16.3023 17.4396 15.9232C15.6703 15.6704 14.4066 14.2803 14.2802 12.5111C14.2802 12.2583 14.4066 12.0056 14.533 11.8792C15.2912 10.8682 16.0494 9.85725 16.8077 8.84626C16.9341 8.71989 17.0604 8.59351 17.1868 8.34077ZM6.19231 11.8792C5.30769 10.7419 4.54945 9.73088 3.66483 8.59351C2.90659 9.73088 2.02198 10.7419 1.26374 11.8792C2.90659 11.8792 4.42308 11.8792 6.19231 11.8792ZM20.4725 11.8792C19.5879 10.7419 18.8297 9.73088 18.0714 8.59351C17.1868 9.73088 16.4286 10.7419 15.6703 11.8792C17.1868 11.8792 18.8297 11.8792 20.4725 11.8792Z" fill="white"/>
<path d="M10.868 22.9997C8.59326 22.9997 6.31853 22.9997 4.04381 22.9997C3.28557 22.9997 2.78007 22.6206 2.78007 21.9887C2.6537 21.3569 3.03282 20.8514 3.66469 20.5986C3.79106 20.5986 3.91744 20.5986 4.04381 20.5986C8.59326 20.5986 13.2691 20.5986 17.8185 20.5986C18.5768 20.5986 19.0823 21.1041 19.0823 21.736C19.0823 22.3679 18.5768 22.9997 17.9449 22.9997C17.8185 22.9997 17.6922 22.9997 17.4394 22.9997C15.2911 22.9997 13.0163 22.9997 10.868 22.9997Z" fill="white"/>
<path d="M10.8674 4.67582C9.60369 4.67582 8.5927 3.66483 8.5927 2.27472C8.46632 1.01099 9.47731 0 10.8674 0C12.1312 0 13.1421 1.01099 13.1421 2.4011C13.1421 3.66483 12.1312 4.8022 10.8674 4.67582Z" fill="white"/>
<path d="M15.6708 19.7143C12.5115 19.7143 9.22575 19.7143 6.06641 19.7143C6.06641 18.9561 6.06641 18.9561 6.82465 18.9561C9.47849 18.9561 12.2587 18.9561 14.9126 18.9561C15.5444 18.9561 15.6708 18.9561 15.6708 19.7143Z" fill="white"/>
</g>
<defs>
<clipPath id="clip0_225_21560">
<rect width="21.7363" height="23" fill="white"/>
</clipPath>
</defs>
</svg>
