<svg width="23" height="23" viewBox="0 0 23 23" fill="none" xmlns="http://www.w3.org/2000/svg">
<g clip-path="url(#clip0_225_21543)">
<path d="M11.5 0C17.94 0 23 5.21333 23 11.5C23 17.7867 17.7867 23 11.5 23C5.21333 23 0 17.7867 0 11.5C0 5.06 5.21333 0 11.5 0ZM8.12667 18.0933C8.12667 18.0933 8.28 18.0933 8.28 18.2467C8.28 18.7067 8.28 19.1667 8.28 19.6267C8.28 21.16 9.81333 22.08 11.1933 21.3133C11.3467 21.3133 11.5 21.16 11.6533 21.3133C13.34 22.08 14.72 21.3133 14.72 19.4733C14.72 19.1667 14.72 18.7067 14.72 18.4C14.72 18.4 14.8733 18.4 14.8733 18.2467C15.0267 18.5533 15.18 18.7067 15.4867 19.0133C16.1 19.6267 16.8667 19.78 17.6333 19.4733C19.1667 19.0133 19.6267 17.1733 18.4 15.9467C17.3267 14.8733 16.1 13.6467 15.0267 12.5733C14.72 12.1133 14.5667 11.8067 14.72 11.5C14.8733 11.5 15.0267 11.5 15.18 11.5C16.56 11.5 17.7867 11.5 19.1667 11.5C20.24 11.5 21.16 10.4267 21.16 9.35333C21.16 8.28 20.3933 7.36 19.32 7.20667C19.0133 7.20667 18.86 7.20667 18.5533 7.20667V7.05333C19.1667 6.28667 19.1667 4.90667 18.2467 4.14C17.3267 3.37333 16.2533 3.52667 15.3333 4.44667C14.8733 4.75333 14.72 5.06 14.4133 5.36667C13.8 3.68 12.88 2.91333 11.6533 2.91333C10.2733 2.91333 9.35333 3.52667 8.74 5.36667C8.28 4.90667 7.82 4.6 7.51333 4.14C6.9 3.52667 5.98 3.52667 5.21333 3.83333C4.44667 4.29333 3.98667 5.06 3.98667 5.98C3.98667 6.44 4.29333 6.74667 4.44667 7.20667C4.14 7.20667 3.68 7.20667 3.37333 7.36C2.45333 7.66667 1.68667 8.58667 1.84 9.50667C1.99333 10.58 2.76 11.3467 3.68 11.3467C4.90667 11.3467 6.13333 11.3467 7.36 11.3467C7.66667 11.3467 7.97333 11.3467 8.28 11.3467C8.43333 11.8067 8.28 11.96 8.12667 12.2667C6.9 13.4933 5.82667 14.5667 4.6 15.7933C3.83333 16.7133 3.83333 17.94 4.6 18.7067C5.36667 19.4733 6.74667 19.4733 7.51333 18.7067C7.82 18.5533 7.97333 18.2467 8.12667 18.0933Z" fill="white"/>
<path d="M11.5007 8.58691C13.8007 8.58691 16.2541 8.58691 18.5541 8.58691C18.7074 8.58691 18.8607 8.58691 19.014 8.58691C19.474 8.58691 19.7807 8.89358 19.7807 9.35358C19.7807 9.81358 19.474 10.1202 19.014 10.1202C17.7874 10.1202 16.5607 10.1202 15.334 10.1202C14.874 10.1202 14.5674 10.1202 14.1074 10.1202C13.494 10.1202 13.1874 10.2736 13.1874 11.0402C13.1874 11.6536 13.1874 12.1136 13.1874 12.7269C13.1874 14.8736 13.1874 17.1736 13.1874 19.3202C13.1874 19.4736 13.1874 19.6269 13.1874 19.7802C13.1874 20.0869 12.8807 20.2402 12.574 20.2402C12.4207 20.0869 12.2674 19.9336 12.2674 19.6269C12.2674 19.4736 12.2674 19.3202 12.2674 19.1669C12.2674 17.7869 12.2674 16.4069 12.2674 15.0269C12.2674 14.8736 12.2674 14.7202 12.2674 14.7202C12.2674 14.2602 11.9607 13.9536 11.654 13.9536C11.194 13.9536 11.0407 14.2602 11.0407 14.7202C11.0407 16.1002 11.0407 17.6336 11.0407 19.0136C11.0407 19.1669 11.0407 19.3202 11.0407 19.4736C11.0407 19.7802 10.8874 20.0869 10.4274 20.0869C10.1207 20.0869 9.81405 19.9336 9.81405 19.4736C9.81405 19.3202 9.81405 19.1669 9.81405 19.0136C9.81405 16.4069 9.81405 13.6469 9.81405 11.0402C9.81405 10.2736 9.66072 10.1202 8.89405 10.1202C7.36072 10.1202 5.98072 10.1202 4.44738 10.1202C4.29405 10.1202 4.14072 10.1202 3.98738 10.1202C3.37405 9.96691 3.06738 9.66025 3.22072 9.35358C3.22072 8.89358 3.37405 8.74025 3.83405 8.58691C3.98738 8.58691 4.14072 8.58691 4.29405 8.58691C6.74738 8.58691 9.20072 8.58691 11.5007 8.58691Z" fill="white"/>
<path d="M11.5001 4.29297C12.2668 4.29297 13.0335 4.9063 13.0335 5.8263C13.0335 6.59297 12.4201 7.35964 11.5001 7.35964C10.7335 7.35964 9.9668 6.7463 9.9668 5.8263C9.9668 4.9063 10.7335 4.29297 11.5001 4.29297Z" fill="white"/>
<path d="M8.27906 14.1064C8.27906 14.8731 8.27906 15.4864 8.27906 16.0998C8.27906 16.2531 8.27906 16.2531 8.12573 16.4064C7.66573 16.8664 7.20573 17.4798 6.5924 17.9398C6.28573 18.2464 5.82573 18.2464 5.51906 17.9398C5.2124 17.6331 5.2124 17.1731 5.51906 16.8664C6.28573 16.0998 7.20573 15.1798 7.9724 14.4131C8.12573 14.1064 8.12573 14.1064 8.27906 14.1064Z" fill="white"/>
<path d="M14.7207 13.9531C15.6407 14.8731 16.5607 15.7931 17.4807 16.7131C17.7874 17.0198 17.7874 17.4798 17.4807 17.7865C17.174 18.0931 16.714 18.0931 16.4074 17.7865C15.9474 17.3265 15.334 16.7131 14.874 16.2531C14.874 16.2531 14.7207 16.0998 14.7207 15.9465C14.7207 15.3331 14.7207 14.7198 14.7207 13.9531Z" fill="white"/>
<path d="M8.58747 7.20636C7.97414 7.20636 7.3608 7.20636 6.74747 7.20636C6.59414 7.20636 6.59414 7.20636 6.4408 7.05302C6.13414 6.89969 5.82747 6.59302 5.5208 6.28636C5.21414 5.97969 5.36747 5.51969 5.5208 5.36636C5.82747 5.05969 6.28747 5.05969 6.4408 5.21302C7.20747 5.82636 7.8208 6.43969 8.58747 7.20636Z" fill="white"/>
<path d="M14.4141 7.20652C15.1807 6.43985 15.7941 5.82652 16.4074 5.21319C16.7141 4.90652 17.1741 5.05985 17.3274 5.21319C17.6341 5.51985 17.6341 5.97985 17.4807 6.28652C17.1741 6.59319 16.8674 6.89985 16.5607 7.20652C16.5607 7.20652 16.4074 7.35985 16.2541 7.35985C15.6407 7.20652 15.0274 7.20652 14.4141 7.20652Z" fill="white"/>
</g>
<defs>
<clipPath id="clip0_225_21543">
<rect width="23" height="23" fill="white"/>
</clipPath>
</defs>
</svg>
