<svg width="22" height="23" viewBox="0 0 22 23" fill="none" xmlns="http://www.w3.org/2000/svg">
<g clip-path="url(#clip0_225_21572)">
<path d="M12.1879 11.4997C12.5322 10.9488 12.8765 10.3979 13.152 9.91589C13.4274 9.36499 13.634 8.8141 13.8406 8.19434C15.2178 8.19434 16.6639 8.19434 18.1101 8.19434C18.5921 8.19434 18.8675 8.53865 18.8675 9.02068C18.8675 9.02068 18.8675 9.02068 18.8675 9.08955C18.8675 13.7033 18.8675 18.3171 18.8675 22.9997C14.4604 22.9997 10.122 22.9997 5.71484 22.9997C5.71484 20.0386 5.71484 17.0087 5.71484 14.0476C6.54119 13.9788 7.29868 13.9099 8.12502 13.7722C8.40047 13.7033 8.67592 13.7033 8.88251 13.5656C9.63999 13.1524 10.5352 13.1524 11.3615 13.1524C12.6699 13.1524 13.9783 13.1524 15.2867 13.1524C15.9065 13.1524 16.3196 12.8081 16.3196 12.3261C16.3196 11.844 15.9753 11.4997 15.2867 11.4997C14.3915 11.4997 13.2897 11.4997 12.1879 11.4997ZM12.3256 14.8051C11.2927 14.8051 10.2598 14.8051 9.15796 14.8051C8.5382 14.8051 8.19389 15.1494 8.19389 15.6315C8.19389 16.1135 8.5382 16.4578 9.15796 16.4578C11.2238 16.4578 13.3586 16.4578 15.4244 16.4578C16.0442 16.4578 16.3885 16.1135 16.3885 15.6315C16.3885 15.1494 16.0442 14.8051 15.4244 14.8051C14.4604 14.8051 13.3586 14.8051 12.3256 14.8051ZM12.3256 19.7632C13.3586 19.7632 14.3915 19.7632 15.4933 19.7632C16.113 19.7632 16.4574 19.4189 16.4574 18.9369C16.4574 18.4548 16.113 18.1105 15.4933 18.1105C13.4274 18.1105 11.2927 18.1105 9.22682 18.1105C8.60706 18.1105 8.26275 18.4548 8.26275 18.9369C8.26275 19.4189 8.60706 19.7632 9.22682 19.7632C10.2598 19.7632 11.2927 19.7632 12.3256 19.7632Z" fill="white"/>
<path d="M3.92465 2.47896C3.99351 2.96099 4.13123 3.37417 3.99351 3.64962C3.85578 4.13165 3.44261 4.13165 2.96057 4.13165C2.5474 4.13165 2.13423 4.13165 1.72105 4.13165C1.17016 4.13165 0.825844 3.78734 0.825844 3.23644C0.825844 2.82327 0.825844 2.41009 0.825844 1.99692C0.825844 1.51489 0.825844 1.03285 1.37674 0.826262C1.92764 0.688538 2.20309 1.03285 2.47854 1.44602C3.78692 0.481951 5.16417 -0.0689472 6.81686 -8.49274e-05C10.1223 0.0687773 12.9456 2.75441 13.1522 6.12866C13.3588 9.57177 10.9486 12.6017 7.64321 13.0837C3.85578 13.6346 0.412671 11.0179 0.0683594 7.16159C0.0683594 6.955 0.0683594 6.74842 0.0683594 6.54183C0.0683594 6.0598 0.412671 5.78435 0.825844 5.71548C1.23902 5.71548 1.65219 5.99093 1.65219 6.47297C1.72105 6.955 1.72105 7.36818 1.85878 7.85021C2.5474 10.3981 5.0953 11.9131 7.71207 11.3622C10.1223 10.8113 11.8438 8.40111 11.4995 5.92207C11.0863 3.3053 8.81387 1.44602 6.1971 1.65261C5.30189 1.72147 4.47554 1.99692 3.92465 2.47896Z" fill="white"/>
<path d="M21.4156 22.9997C20.8647 22.9997 20.3138 22.9997 19.7629 22.9997C19.7629 22.7932 19.7629 22.5866 19.7629 22.38C19.7629 17.7662 19.7629 13.1524 19.7629 8.53867C19.7629 7.64346 19.4875 7.36801 18.5923 7.36801C17.0773 7.36801 15.5623 7.36801 13.9785 7.36801C13.9785 6.81711 13.9785 6.33508 13.9785 5.78418C14.1162 5.78418 14.254 5.78418 14.3917 5.78418C16.3887 5.78418 18.3857 5.78418 20.3827 5.78418C21.0713 5.78418 21.4156 6.05963 21.4156 6.74825C21.4156 12.0506 21.4156 17.4219 21.4156 22.7243C21.4156 22.7932 21.4156 22.9309 21.4156 22.9997Z" fill="white"/>
<path d="M5.78373 5.78471C5.78373 5.23381 5.78373 4.68291 5.78373 4.20087C5.78373 3.64998 6.12804 3.30566 6.61008 3.30566C7.09211 3.30566 7.43642 3.64998 7.43642 4.20087C7.43642 4.95836 7.43642 5.78471 7.43642 6.54219C7.43642 7.09309 7.09211 7.36854 6.54121 7.36854C5.78373 7.36854 4.95738 7.36854 4.1999 7.36854C3.649 7.36854 3.30469 7.02423 3.30469 6.54219C3.30469 6.06015 3.649 5.71584 4.1999 5.71584C4.68193 5.78471 5.16397 5.78471 5.78373 5.78471Z" fill="white"/>
</g>
<defs>
<clipPath id="clip0_225_21572">
<rect width="21.4162" height="23" fill="white"/>
</clipPath>
</defs>
</svg>
