<svg width="27" height="23" viewBox="0 0 27 23" fill="none" xmlns="http://www.w3.org/2000/svg">
<g clip-path="url(#clip0_225_21218)">
<path d="M5.75 5.75C5.75 2.43939 8.36364 0 11.5 0C14.6364 0 17.25 2.61364 17.25 5.75C17.25 8.88636 14.6364 11.5 11.5 11.5C8.36364 11.5 5.75 8.88636 5.75 5.75Z" fill="white"/>
<path d="M12.8939 22.826C8.53785 22.826 4.35603 22.826 0.174213 22.826C-2.95281e-05 19.5154 -0.348514 18.1214 2.96209 16.379C5.74997 14.9851 8.71209 14.2881 11.6742 14.2881C12.0227 14.2881 12.3712 14.2881 12.8939 14.4623C11.5 15.682 10.4545 16.9017 10.4545 18.6441C10.4545 20.5608 11.5 21.6063 12.8939 22.826Z" fill="white"/>
<path d="M17.9466 19.5147C20.0375 17.4238 22.1284 15.5071 24.0451 13.4162C24.2193 13.242 24.5678 12.8935 24.9163 12.8935C25.439 12.7192 26.136 12.8935 26.4845 13.4162C26.833 13.9389 26.833 14.6359 26.4845 15.1586C26.3102 15.3329 26.136 15.5071 26.136 15.6813C23.8708 17.9465 21.6057 20.2116 19.3405 22.4768C18.2951 23.5223 17.5981 23.5223 16.5526 22.4768C15.6814 21.6056 14.9845 20.9086 14.1133 20.0374C13.4163 19.3404 13.4163 18.4692 13.939 17.9465C14.4617 17.2495 15.333 17.4238 16.2042 18.1207C16.7269 18.295 17.2496 18.8177 17.9466 19.5147C17.7723 19.5147 17.7723 19.5147 17.9466 19.5147Z" fill="white"/>
</g>
<defs>
<clipPath id="clip0_225_21218">
<rect width="26.6591" height="23" fill="white"/>
</clipPath>
</defs>
</svg>
