<svg width="24" height="23" viewBox="0 0 24 23" fill="none" xmlns="http://www.w3.org/2000/svg">
<g clip-path="url(#clip0_225_21235)">
<path d="M22.0536 20.1644C22.0536 21.1096 22.0536 21.7397 22.0536 22.3699C19.8481 22.3699 17.3276 22.3699 15.1221 22.3699C15.1221 20.1644 15.1221 17.6438 15.1221 15.4384C15.7522 15.7534 16.6975 15.7534 17.3276 15.7534C17.3276 16.6986 17.3276 17.6438 17.3276 18.9041C17.6427 18.589 17.6427 18.589 17.9577 18.589C20.7933 15.7534 21.7385 12.6027 20.4783 9.13699C19.5331 5.35616 17.0125 3.15068 13.2317 2.52055C12.9166 2.52055 12.6016 2.20548 12.6016 1.89041C12.6016 1.26027 12.6016 0.630137 12.6016 0C17.0125 0.630137 19.8481 2.52055 22.0536 6.30137C22.9988 7.87671 23.3139 9.45205 23.3139 11.3425C23.3139 12.9178 22.9988 14.8082 22.3687 16.3836C21.7385 17.6438 20.7933 18.9041 19.218 20.1644C20.4783 20.1644 21.1084 20.1644 22.0536 20.1644Z" fill="white"/>
<path d="M1.25971 2.83536C1.25971 1.89016 1.25971 1.26002 1.25971 0.629883C3.46519 0.629883 5.98574 0.629883 8.19121 0.629883C8.19121 2.83536 8.19121 5.35591 8.19121 7.56139C7.56108 7.56139 6.61587 7.56139 5.98574 7.56139C5.98574 6.61618 5.98574 5.67098 5.98574 4.4107C5.67067 4.4107 5.3556 4.72577 5.3556 4.72577C2.51998 7.24632 1.57478 10.397 2.83505 14.1778C3.78026 17.6436 6.3008 19.8491 10.0816 20.7943C10.3967 20.7943 10.7118 21.1093 10.7118 21.4244C10.7118 22.0545 10.7118 22.3696 10.7118 22.9997C7.87615 22.9997 3.78026 20.7943 1.57478 17.0134C-0.945771 12.6025 -0.315633 6.93125 3.78026 2.83536C2.83505 2.83536 2.20491 2.83536 1.25971 2.83536Z" fill="white"/>
<path d="M10.0815 16.6988C8.50615 15.1234 6.93081 13.5481 5.35547 11.9727C5.67054 11.3426 6.30067 11.0275 6.61574 10.3974C7.56095 11.3426 8.82122 12.6029 9.76643 13.5481C11.9719 11.3426 14.1774 9.13712 16.3829 6.93164C17.013 7.56178 17.3281 8.19191 17.9582 8.50698C15.4377 11.3426 12.602 14.1782 10.0815 16.6988Z" fill="white"/>
</g>
<defs>
<clipPath id="clip0_225_21235">
<rect width="23.3151" height="23" fill="white"/>
</clipPath>
</defs>
</svg>
