<svg width="19" height="23" viewBox="0 0 19 23" fill="none" xmlns="http://www.w3.org/2000/svg">
<path d="M9.54422 19.2449C6.88435 19.2449 4.38095 19.2449 1.72109 19.2449C0.782313 19.2449 0 18.619 0 17.6803C0 17.0544 0.156463 16.585 0.62585 16.1156C2.03401 14.8639 2.81633 13.1429 2.81633 11.1088C2.81633 10.3265 2.81633 9.38776 2.81633 8.60544C2.81633 7.82313 2.97279 7.19728 3.12925 6.41497C3.91156 4.06803 5.63265 2.5034 8.13605 1.87755C8.44898 1.87755 8.60544 1.72109 8.60544 1.40816C8.60544 1.09524 8.60544 0.938776 8.60544 0.62585C8.7619 0.312925 9.07483 0 9.54422 0C10.0136 0 10.3265 0.312925 10.483 0.782313C10.483 1.09524 10.483 1.40816 10.483 1.56463C10.483 1.87755 10.6395 1.87755 10.7959 2.03401C13.2993 2.65986 15.0204 4.22449 15.8027 6.72789C15.9592 7.35374 16.1156 8.13605 16.1156 8.7619C16.1156 9.54422 16.1156 10.483 16.1156 11.2653C16.1156 13.2993 16.898 14.8639 18.3061 16.2721C18.7755 16.7415 19.0884 17.2109 18.932 17.8367C18.7755 18.7755 18.1497 19.4014 17.2109 19.4014C15.4898 19.4014 13.6122 19.4014 11.8912 19.4014C11.2653 19.2449 10.483 19.2449 9.54422 19.2449Z" fill="white"/>
<path d="M13.1422 20.1836C12.8292 21.7482 11.2646 22.9999 9.69999 22.9999C7.9789 22.9999 6.57074 21.7482 6.25781 20.1836C8.44829 20.1836 10.7952 20.1836 13.1422 20.1836Z" fill="white"/>
</svg>
