<svg width="21" height="23" viewBox="0 0 21 23" fill="none" xmlns="http://www.w3.org/2000/svg">
<path d="M4.54321 6.17803C4.54321 7.88174 4.54321 9.44346 4.54321 11.1472C4.54321 11.4311 4.68518 11.7151 4.96914 11.857C6.24691 12.4249 6.81481 13.5607 6.81481 14.8385C6.81481 16.2583 6.24691 17.2521 4.96914 17.962C4.68518 18.104 4.54321 18.2459 4.54321 18.5299C4.54321 19.5237 4.54321 20.6595 4.54321 21.6533C4.54321 22.5052 3.83333 23.0731 2.98148 22.7891C2.41358 22.6472 2.2716 22.0793 2.2716 21.6533C2.2716 20.6595 2.2716 19.6657 2.2716 18.5299C2.2716 18.2459 2.12963 17.962 1.84568 17.82C0.567901 17.2521 0 16.2583 0 14.8385C0 13.4188 0.567901 12.4249 1.84568 11.857C2.12963 11.7151 2.2716 11.4311 2.2716 11.1472C2.2716 7.88174 2.2716 4.6163 2.2716 1.35087C2.2716 0.357045 2.98148 -0.210856 3.83333 0.0730942C4.40123 0.215069 4.54321 0.640995 4.54321 1.35087C4.54321 2.9126 4.54321 4.6163 4.54321 6.17803Z" fill="white"/>
<path d="M9.08606 16.6844C9.08606 14.9807 9.08606 13.419 9.08606 11.7153C9.08606 11.4313 8.94408 11.2893 8.66013 11.1474C7.52433 10.4375 6.81445 9.30168 6.81445 8.0239C6.81445 6.60415 7.52433 5.61032 8.80211 5.04242C9.08606 4.90045 9.22803 4.75847 9.22803 4.47452C9.22803 3.48069 9.22803 2.34489 9.22803 1.35107C9.22803 0.357238 9.93791 -0.0686879 10.7898 0.215263C11.3577 0.357238 11.4996 0.783164 11.4996 1.49304C11.4996 2.48687 11.4996 3.48069 11.4996 4.6165C11.4996 4.90045 11.6416 5.1844 11.9256 5.32637C13.0614 5.61032 13.7712 6.60415 13.7712 7.88193C13.7712 9.30168 13.2033 10.2955 11.9256 10.8634C11.4996 11.1474 11.4996 11.4313 11.4996 11.7153C11.4996 14.9807 11.4996 18.2461 11.4996 21.5116C11.4996 22.3634 11.0737 22.9313 10.3638 22.9313C9.65396 22.9313 9.22803 22.5054 9.22803 21.6535C9.08606 19.9498 9.08606 18.2461 9.08606 16.6844Z" fill="white"/>
<path d="M18.3147 6.17803C18.3147 7.88174 18.3147 9.44346 18.3147 11.1472C18.3147 11.4311 18.4567 11.7151 18.7406 11.857C20.0184 12.4249 20.5863 13.5607 20.5863 14.8385C20.5863 16.2583 20.0184 17.2521 18.7406 17.962C18.4567 18.104 18.3147 18.2459 18.3147 18.5299C18.3147 19.5237 18.3147 20.6595 18.3147 21.6533C18.3147 22.5052 17.6048 23.0731 16.753 22.7891C16.1851 22.6472 16.0431 22.0793 16.0431 21.6533C16.0431 20.6595 16.0431 19.6657 16.0431 18.5299C16.0431 18.2459 15.9011 17.962 15.6172 17.82C14.3394 17.2521 13.7715 16.1163 13.7715 14.8385C13.7715 13.4188 14.3394 12.4249 15.6172 11.857C15.9011 11.7151 16.0431 11.4311 16.0431 11.1472C16.0431 7.88174 16.0431 4.6163 16.0431 1.35087C16.0431 0.357045 16.753 -0.210856 17.6048 0.0730942C18.1727 0.215069 18.3147 0.640995 18.3147 1.35087C18.3147 2.9126 18.3147 4.6163 18.3147 6.17803Z" fill="white"/>
</svg>
