<svg width="13" height="19" viewBox="0 0 13 19" fill="none" xmlns="http://www.w3.org/2000/svg">
<path d="M0 9.2C0 6.7 0 4.3 0 1.8C0 0.6 0.8 0 1.8 0C4.7 0 7.6 0 10.5 0C11.5 0 12.3 0.6 12.3 1.8C12.3 6.7 12.3 11.7 12.3 16.6C12.3 17.8 11.5 18.4 10.5 18.4C7.6 18.4 4.7 18.4 1.8 18.4C0.8 18.4 0 17.8 0 16.6C0 14.1 0 11.6 0 9.2ZM1.5 8C1.5 10.1 1.5 12.1 1.5 14.2C1.5 14.5 1.6 14.5 1.8 14.5C4.6 14.5 7.5 14.5 10.3 14.5C10.6 14.5 10.6 14.4 10.6 14.2C10.6 10.1 10.6 6 10.6 1.8C10.6 1.5 10.5 1.5 10.3 1.5C7.5 1.5 4.6 1.5 1.8 1.5C1.5 1.5 1.5 1.6 1.5 1.8C1.5 3.9 1.5 6 1.5 8ZM6.1 16.8C6.4 16.8 6.8 16.8 7.1 16.8C7.4 16.8 7.6 16.7 7.6 16.4C7.6 16.1 7.4 16 7.1 16C6.4 16 5.7 16 5 16C4.7 16 4.5 16.1 4.5 16.4C4.5 16.7 4.7 16.8 4.9 16.8C5.4 16.8 5.8 16.8 6.1 16.8Z" fill="white"/>
<path d="M5.29922 6.1C5.29922 6.4 5.29922 6.8 5.29922 7.1C5.29922 7.4 5.19922 7.6 4.79922 7.6C4.09922 7.6 3.39922 7.6 2.69922 7.6C2.39922 7.6 2.19922 7.5 2.19922 7.1C2.19922 6.4 2.19922 5.7 2.19922 5C2.19922 4.7 2.39922 4.5 2.69922 4.5C3.39922 4.5 4.09922 4.5 4.79922 4.5C5.09922 4.5 5.29922 4.6 5.29922 5C5.29922 5.4 5.29922 5.8 5.29922 6.1Z" fill="white"/>
<path d="M9.90078 6.1002C9.90078 6.5002 9.90078 6.8002 9.90078 7.2002C9.90078 7.5002 9.70078 7.7002 9.40078 7.7002C8.70078 7.7002 8.00078 7.7002 7.30078 7.7002C7.00078 7.7002 6.80078 7.6002 6.80078 7.2002C6.80078 6.5002 6.80078 5.8002 6.80078 5.1002C6.80078 4.8002 7.00078 4.7002 7.20078 4.7002C7.90078 4.7002 8.60078 4.7002 9.30078 4.7002C9.60078 4.7002 9.80078 4.9002 9.80078 5.2002C9.90078 5.4002 9.90078 5.8002 9.90078 6.1002Z" fill="white"/>
<path d="M5.29922 10.6998C5.29922 11.0998 5.29922 11.3998 5.29922 11.7998C5.29922 12.0998 5.09922 12.2998 4.79922 12.2998C4.09922 12.2998 3.39922 12.2998 2.69922 12.2998C2.39922 12.2998 2.19922 12.0998 2.19922 11.7998C2.19922 11.0998 2.19922 10.3998 2.19922 9.6998C2.19922 9.3998 2.39922 9.2998 2.59922 9.2998C3.29922 9.2998 3.99922 9.2998 4.69922 9.2998C4.99922 9.2998 5.19922 9.4998 5.19922 9.7998C5.29922 9.9998 5.29922 10.2998 5.29922 10.6998Z" fill="white"/>
<path d="M9.90039 10.7002C9.90039 11.1002 9.90039 11.4002 9.90039 11.8002C9.90039 12.1002 9.70039 12.2002 9.50039 12.3002C8.80039 12.3002 8.00039 12.3002 7.30039 12.3002C7.00039 12.3002 6.90039 12.1002 6.90039 11.8002C6.90039 11.1002 6.90039 10.4002 6.90039 9.7002C6.90039 9.4002 7.10039 9.2002 7.40039 9.2002C8.10039 9.2002 8.80039 9.2002 9.50039 9.2002C9.80039 9.2002 10.0004 9.3002 10.0004 9.7002C9.90039 10.0002 9.90039 10.4002 9.90039 10.7002Z" fill="white"/>
<path d="M6.10039 3.0998C6.00039 3.0998 5.80039 3.0998 5.70039 3.0998C5.50039 2.9998 5.40039 2.8998 5.40039 2.6998C5.40039 2.4998 5.60039 2.2998 5.80039 2.2998C6.00039 2.2998 6.30039 2.2998 6.50039 2.2998C6.70039 2.2998 6.90039 2.3998 6.90039 2.6998C6.90039 2.8998 6.70039 3.0998 6.50039 3.0998C6.40039 3.0998 6.30039 3.0998 6.10039 3.0998Z" fill="white"/>
<path d="M9.19922 2.5998C9.19922 2.3998 9.39922 2.2998 9.59922 2.2998C9.79922 2.2998 9.99922 2.4998 9.89922 2.6998C9.89922 2.8998 9.69922 2.9998 9.49922 2.9998C9.29922 2.9998 9.19922 2.8998 9.19922 2.5998Z" fill="white"/>
</svg>
