<svg width="25" height="25" viewBox="0 0 25 25" fill="none" xmlns="http://www.w3.org/2000/svg">
<path d="M5.6543 24.9997C5.80311 23.6684 5.6543 22.4849 5.95192 21.3015C6.54715 18.4909 8.92811 16.5678 11.7555 16.2719H11.9043C9.52334 15.2364 8.48168 13.7571 8.7793 11.834C9.07692 10.0589 10.565 8.72754 12.4995 8.72754C14.2852 8.72754 15.7733 9.91097 16.071 11.6861C16.5174 13.6092 15.4757 15.0885 13.0948 16.124C17.4102 16.7157 19.6424 19.9701 19.196 24.9997C14.7317 24.9997 10.2674 24.9997 5.6543 24.9997Z" fill="white"/>
<path d="M2.67857 11.6864C3.72024 11.6864 4.6131 11.6864 5.50595 11.6864C5.65476 11.6864 5.80357 11.5385 5.80357 11.3905C6.10119 10.355 6.54762 9.31953 7.14286 8.43195C6.39881 7.69231 5.65476 6.95266 4.91071 6.21302C4.91071 6.50888 4.91071 6.95266 4.91071 7.24852C4.31548 7.24852 3.86905 7.24852 3.42262 7.24852C3.42262 5.91716 3.42262 4.73373 3.42262 3.40237C4.7619 3.40237 6.10119 3.40237 7.29167 3.40237C7.29167 3.84615 7.29167 4.28994 7.29167 4.88166C6.84524 4.88166 6.39881 4.88166 6.10119 4.88166C6.84524 5.6213 7.58929 6.36095 8.33333 7.10059C9.22619 6.50888 10.4167 6.06509 11.756 5.91716C11.756 4.88166 11.756 3.84615 11.756 2.81065C11.3095 3.10651 11.0119 3.40237 10.7143 3.69822C10.4167 3.25444 10.119 2.95858 9.82143 2.66272C10.7143 1.77515 11.6071 0.887574 12.5 0C13.3929 0.887574 14.2857 1.77515 15.1786 2.66272C14.881 2.95858 14.5833 3.25444 14.1369 3.69822C13.8393 3.40237 13.5417 3.10651 13.244 2.66272C13.244 3.84615 13.244 4.73373 13.244 5.91716C14.4345 6.06509 15.625 6.50888 16.5179 7.24852C17.2619 6.50888 18.006 5.76923 18.75 5.02959C18.3036 5.02959 17.8571 5.02959 17.4107 5.02959C17.4107 4.43787 17.4107 3.99408 17.4107 3.5503C18.75 3.5503 19.9405 3.5503 21.2798 3.5503C21.2798 4.73373 21.2798 6.06509 21.2798 7.24852C20.8333 7.24852 20.3869 7.24852 19.7917 7.24852C19.7917 6.80473 19.7917 6.50888 19.7917 6.21302C19.0476 6.95266 18.3036 7.69231 17.5595 8.43195C18.1548 9.31953 18.6012 10.355 18.8988 11.3905C18.8988 11.5385 19.0476 11.6864 19.1964 11.6864C20.0893 11.6864 21.131 11.6864 22.0238 11.6864C22.0238 11.6864 22.0238 11.5385 22.1726 11.5385C21.875 11.2426 21.5774 11.0947 21.131 10.7988C21.5774 10.355 21.875 10.0592 22.1726 9.76331C23.0655 10.6509 23.9583 11.5385 24.8512 12.426C24.1071 13.1657 23.2143 14.0533 22.3214 14.9408C22.0238 14.645 21.7262 14.3491 21.4286 13.9053C21.5774 13.7574 21.875 13.4615 22.1726 13.0178C21.7262 13.0178 21.2798 13.0178 20.9821 13.0178C20.5357 13.0178 19.9405 13.0178 19.494 13.0178C19.1964 13.0178 19.0476 13.1657 19.0476 13.4615C18.8988 14.497 18.4524 15.5325 17.7083 16.4201C17.2619 16.1243 16.9643 15.8284 16.5179 15.6805C18.1548 12.574 17.8571 10.0592 15.625 8.28402C13.6905 6.80473 10.8631 6.80473 9.07738 8.43195C6.99405 10.355 6.69643 12.8698 8.33333 15.8284C8.18452 15.9763 7.8869 16.1243 7.7381 16.2722C7.58929 16.2722 7.44048 16.4201 7.29167 16.568C6.54762 15.6805 6.10119 14.7929 5.95238 13.6095C5.95238 13.4615 5.95238 13.1657 5.65476 13.1657C4.7619 13.1657 3.86905 13.1657 2.82738 13.1657C3.125 13.4615 3.42262 13.7574 3.72024 14.0533C3.27381 14.497 2.82738 14.7929 2.52976 15.0888C1.78571 14.2012 0.892857 13.3136 0 12.426C0.892857 11.5385 1.78571 10.6509 2.67857 9.76331C2.97619 10.0592 3.27381 10.503 3.57143 10.7988C3.42262 11.0947 3.125 11.3905 2.67857 11.6864Z" fill="white"/>
</svg>
