<svg width="23" height="19" viewBox="0 0 23 19" fill="none" xmlns="http://www.w3.org/2000/svg">
<g clip-path="url(#clip0_225_21232)">
<path d="M11.9104 18.0719C10.1307 18.0719 8.3509 18.0719 6.70804 18.0719C3.55923 18.0719 0.821139 15.8814 0.136615 12.7326C-0.547909 9.72069 1.09495 6.70878 4.10685 5.47664C4.24376 5.33973 4.51757 5.20283 4.51757 5.06593C5.74971 1.64331 8.76161 -0.273361 12.1842 0.000448638C15.6069 0.274258 18.3449 2.87545 18.8926 6.29807C18.8926 6.57188 19.0295 6.70878 19.3033 6.84569C22.0414 7.94093 23.4104 10.5421 22.8628 13.4171C22.3152 16.0183 19.9878 18.0719 17.1128 18.0719C15.4699 18.0719 13.6902 18.0719 11.9104 18.0719ZM14.6485 9.85759C14.5116 9.85759 14.2378 9.85759 14.1009 9.85759C13.6902 9.85759 13.4164 9.9945 13.2795 10.4052C13.1426 10.8159 13.2795 11.0897 13.5533 11.3635C13.964 11.9112 14.5116 12.3219 15.0592 12.8695C15.4699 13.2802 15.8807 13.2802 16.2914 12.8695C16.839 12.3219 17.3866 11.7743 17.9342 11.2266C18.208 10.9528 18.3449 10.5421 18.0711 10.2683C17.9342 9.9945 17.5235 9.85759 17.2497 9.72069C16.9759 9.58378 16.7021 9.72069 16.4283 9.72069C15.8807 7.80402 14.9223 6.57188 13.4164 6.02426C12.1842 5.61354 10.9521 5.61354 9.71995 6.16116C9.17233 6.29807 8.89852 6.84569 9.03542 7.2564C9.17233 7.66712 9.58304 7.94093 10.1307 7.66712C10.2676 7.66712 10.2676 7.53021 10.4045 7.53021C12.3211 6.98259 14.3747 8.07783 14.6485 9.85759ZM8.3509 11.5004C8.48781 11.5004 8.62471 11.5004 8.89852 11.5004C9.30923 11.5004 9.58304 11.3635 9.85685 10.9528C9.99376 10.5421 9.85685 10.2683 9.58304 9.9945C9.03542 9.58378 8.48781 9.03616 8.07709 8.48854C7.66638 8.21473 7.25566 8.07783 6.84495 8.48854C6.29733 9.03616 5.74971 9.58378 5.20209 10.1314C5.06519 10.4052 4.92828 10.8159 5.06519 10.9528C5.20209 11.2266 5.4759 11.3635 5.74971 11.5004C6.02352 11.6374 6.29733 11.5004 6.57114 11.5004C6.57114 11.6374 6.70804 11.9112 6.70804 12.0481C7.52947 14.7862 10.2676 16.2921 12.8688 15.4707C13.6902 15.1969 13.964 14.7862 13.8271 14.2385C13.6902 13.6909 13.2795 13.554 12.458 13.8278C10.6783 14.3755 8.76162 13.2802 8.3509 11.5004Z" fill="white"/>
</g>
<defs>
<clipPath id="clip0_225_21232">
<rect width="23" height="18.0714" fill="white"/>
</clipPath>
</defs>
</svg>
