<svg width="21" height="24" viewBox="0 0 21 24" fill="none" xmlns="http://www.w3.org/2000/svg">
<g clip-path="url(#clip0_532_7014)">
<path d="M5.7771 9.07885C5.7771 7.01558 5.7771 4.95231 5.7771 2.88905C5.7771 1.34703 6.62412 0.5 8.16615 0.5C9.03489 0.5 9.90363 0.5 10.7724 0.5C12.1081 0.5 12.9877 1.3796 13.0094 2.72616C13.0203 3.60576 13.0094 4.49622 13.0094 5.37583C13.0094 6.75496 13.8673 7.61284 15.2573 7.61284C16.126 7.61284 16.9948 7.61284 17.8635 7.61284C19.2535 7.61284 20.1222 8.51416 20.1331 9.90415C20.1331 11.7611 20.1331 13.618 20.1331 15.4641C20.1331 16.8215 19.2426 17.7229 17.8961 17.7229C14.6057 17.7229 11.3153 17.7229 8.02497 17.7229C6.70014 17.7229 5.79882 16.8215 5.79882 15.4858C5.78796 13.3466 5.79882 11.2073 5.79882 9.06799L5.7771 9.07885ZM12.2384 12.9448C11.9343 12.4995 11.6737 12.0977 11.4131 11.7068C11.1416 11.3159 10.7398 11.2181 10.414 11.457C10.0991 11.6742 10.0448 12.076 10.2946 12.4561C10.7289 13.1185 11.1633 13.7809 11.6085 14.4325C11.9778 14.9754 12.499 14.9754 12.8682 14.4325C13.2809 13.8244 13.6827 13.2162 14.0953 12.6081C14.6057 11.8371 15.127 11.0661 15.6373 10.2951C15.9305 9.839 15.7677 9.33947 15.3116 9.22002C14.9315 9.12228 14.6926 9.30689 14.4863 9.61095C13.7587 10.7077 13.0311 11.8045 12.2492 12.9773L12.2384 12.9448Z" fill="white"/>
<path d="M14.2147 21.9579C14.0192 22.8266 13.2374 23.4782 12.3469 23.4782C8.90451 23.4999 5.46211 23.4999 2.01971 23.4782C0.857768 23.4782 0.0107422 22.5008 0.0107422 21.2629C0.0107422 17.8965 0.0107422 14.5301 0.0107422 11.1637C0.0107422 10.2407 0.0107422 9.30678 0.0107422 8.38374C0.0216015 7.42812 0.608004 6.65711 1.5419 6.39648C1.5419 6.57023 1.5419 6.72226 1.5419 6.87429C1.5419 10.6642 1.5419 14.4432 1.5419 18.2331C1.5419 20.5027 3.00791 21.9579 5.28836 21.9579C8.09006 21.9579 10.8918 21.9579 13.6826 21.9579C13.8455 21.9579 14.0084 21.9579 14.2147 21.9579Z" fill="white"/>
<path d="M17.0925 19.0799C16.9078 19.9487 16.1151 20.6002 15.1812 20.6111C11.7714 20.6328 8.36158 20.6328 4.9409 20.6111C3.72465 20.6111 2.87763 19.6338 2.87763 18.3524C2.87763 14.8665 2.87763 11.3807 2.87763 7.89485C2.87763 7.10212 2.86677 6.3094 2.87763 5.51667C2.89935 4.55019 3.46403 3.79004 4.40879 3.51855C4.40879 3.70316 4.40879 3.87691 4.40879 4.0398C4.40879 7.79712 4.40879 11.5544 4.40879 15.3009C4.40879 17.6356 5.85308 19.0799 8.18783 19.0799C10.9895 19.0799 13.7804 19.0799 16.5821 19.0799H17.0707H17.0925Z" fill="white"/>
<path d="M14.052 0.803711C16.137 2.56292 18.0374 4.48501 19.7423 6.6243C18.4826 6.05961 17.1795 6.29852 15.9089 6.2768C14.3669 6.24422 14.3452 6.25508 14.3452 4.73478C14.3452 4.21353 14.3778 3.68143 14.3452 3.17104C14.28 2.42175 14.1715 1.68331 14.052 0.81457V0.803711Z" fill="white"/>
</g>
<defs>
<clipPath id="clip0_532_7014">
<rect width="20.1223" height="23" fill="white" transform="translate(0 0.5)"/>
</clipPath>
</defs>
</svg>
