<svg width="102" height="58" viewBox="0 0 102 58" fill="none" xmlns="http://www.w3.org/2000/svg">
<path fill-rule="evenodd" clip-rule="evenodd" d="M0 29.4467C0 14.1718 12.4368 1.75537 27.7368 1.75537H74.2632C89.5632 1.75537 102 14.1718 102 29.4467C102 44.7215 89.5632 57.138 74.2632 57.138H27.7368C12.4368 57.138 0 44.7215 0 29.4467Z" fill="white"/>
<mask id="mask0_452_22285" style="mask-type:luminance" maskUnits="userSpaceOnUse" x="0" y="0" width="102" height="58">
<path d="M102 0.862061H0V57.1379H102V0.862061Z" fill="white"/>
</mask>
<g mask="url(#mask0_452_22285)">
<path fill-rule="evenodd" clip-rule="evenodd" d="M7.15789 29C7.15789 17.3875 16.5526 8.00818 28.1842 8.00818C39.8158 8.00818 49.2105 17.3875 49.2105 29C49.2105 40.6124 39.8158 49.9918 28.1842 49.9918C16.5526 49.9918 7.15789 40.6124 7.15789 29Z" fill="#5A6B7C"/>
</g>
<path d="M21.1158 34.8063V24.5337H23.1737V34.8063H21.1158Z" fill="white"/>
<path d="M27.7368 34.8063L24.0684 24.5337H26.3053L28.9 32.1265L31.4053 24.5337H33.6421L29.9737 34.8063H27.7368Z" fill="white"/>
<path d="M34.6263 34.8063V24.5337H36.6842V34.8063H34.6263Z" fill="white"/>
<path d="M57.979 34.8063V24.5337H61.2895C62.5421 24.5337 63.3474 24.623 63.7947 24.7123C64.4211 24.891 64.8684 25.159 65.2263 25.6949C65.5842 26.2309 65.8526 26.8562 65.8526 27.6601C65.8526 28.2854 65.7632 28.8214 65.4947 29.268C65.2263 29.7146 64.9579 30.072 64.6 30.2506C64.2421 30.4293 63.8842 30.6972 63.5263 30.6972C62.9895 30.7866 62.2737 30.8759 61.3789 30.8759H60.0368V34.8063H57.979ZM60.0368 26.3202V29.268H61.2C62.0053 29.268 62.5421 29.1787 62.8105 29.0894C63.0789 29 63.2579 28.8214 63.4368 28.5534C63.6158 28.2854 63.7053 28.0174 63.7053 27.7495C63.7053 27.3921 63.6158 27.0348 63.3474 26.8562C63.079 26.6775 62.8105 26.4989 62.5421 26.4096C62.2737 26.3202 61.8263 26.3202 61.0211 26.3202H60.0368Z" fill="#5A6B7C"/>
<path d="M67.5526 34.8062V24.6229H69.6105V33.0196H74.8V34.8062H67.5526Z" fill="#5A6B7C"/>
<path d="M85.5368 34.8063H83.2105L82.3158 32.4838H78.2L77.3947 34.8063H75.1579L79.1842 24.5337H81.421L85.5368 34.8063ZM81.6895 30.7866L80.2579 26.9455L78.9158 30.7866H81.6895Z" fill="#5A6B7C"/>
<path d="M87.9526 34.8062V30.5185L84.1947 24.6229H86.6105L89.0263 28.6426L91.3526 24.6229H93.7684L90.0105 30.5185V34.8062H87.9526Z" fill="#5A6B7C"/>
</svg>
