<svg width="25" height="23" viewBox="0 0 25 23" fill="none" xmlns="http://www.w3.org/2000/svg">
<path d="M4.61903 19.726C4.70088 19.4804 4.78273 19.2349 4.86458 18.9893C5.60124 17.0249 4.53718 15.0605 2.49092 14.7331C1.34501 14.4875 0.935759 14.1601 0.935759 12.9324C0.853909 11.7865 0.935759 10.5587 1.01761 9.4128C1.09946 8.5943 1.59056 8.18505 2.32722 8.02134C4.53718 7.61209 5.60124 5.81138 4.94643 3.68327C4.70088 2.94661 4.86458 2.37366 5.43754 1.9644C6.41974 1.3096 7.4838 0.736646 8.62971 0.163693C9.28451 -0.16371 9.85747 -8.49692e-06 10.4304 0.572945C11.9037 2.20996 13.95 2.20996 15.4233 0.572945C15.9144 -8.49692e-06 16.4874 -0.0818591 17.224 0.163693C18.4518 0.654796 19.5977 1.22775 20.5799 2.12811C21.2347 2.61921 21.3165 3.19216 21.071 3.92882C20.4162 5.97508 21.4802 7.69394 23.5265 8.18505C24.345 8.34875 24.6724 8.758 24.8361 9.49465C25.0817 10.8043 25.0817 12.032 24.8361 13.3416C24.6724 14.3238 24.345 14.6512 23.281 14.8968C21.9713 15.1423 20.9891 16.1245 20.8254 17.4342C20.7436 18.0071 20.8254 18.5801 20.9891 19.153C21.2347 20.0534 21.1528 20.6263 20.4162 21.1174C19.5158 21.7722 18.5336 22.3452 17.5514 22.8363C16.8148 23.2455 16.16 23 15.587 22.3452C14.1955 20.6263 11.9037 20.7082 10.5123 22.427C9.93932 23.0818 9.36636 23.2455 8.62971 23C7.40195 22.5089 6.33789 21.9359 5.35569 21.1174C4.86458 20.6263 4.70088 20.2171 4.61903 19.726ZM12.8859 7.44839C10.676 7.44839 8.79341 9.2491 8.79341 11.4591C8.79341 13.669 10.5941 15.5516 12.8041 15.5516C15.0141 15.5516 16.8148 13.7509 16.8148 11.4591C16.8966 9.2491 15.0959 7.44839 12.8859 7.44839Z" fill="#5A6B7C"/>
</svg>
