<svg width="23" height="23" viewBox="0 0 23 23" fill="none" xmlns="http://www.w3.org/2000/svg">
<g clip-path="url(#clip0_31_332)">
<path d="M9.11636 0C11.2909 0 13.4655 0 15.64 0C16.3927 0 16.56 0.191667 16.56 1.05417C16.56 4.12083 16.56 7.1875 16.56 10.35C16.56 12.3625 15.4727 13.5125 13.7164 13.5125C11.2073 13.5125 8.69818 13.5125 6.18909 13.5125C5.52 13.5125 4.93455 13.7042 4.43273 14.1833C3.34545 15.1417 2.25818 16.0042 1.17091 16.8667C0.92 17.0583 0.585455 17.25 0.334545 17.0583C0.167273 16.7708 0 16.3875 0 16.1C0 11.7875 0 7.37917 0 3.06667C0 1.24583 1.08727 0 2.67636 0C4.85091 0 6.94182 0 9.11636 0ZM8.78182 4.21667C7.52727 4.21667 6.27273 4.21667 5.01818 4.21667C4.76727 4.21667 4.43273 4.40833 4.34909 4.6C3.93091 5.175 4.34909 5.75 5.01818 5.75C7.52727 5.75 9.95273 5.75 12.4618 5.75C12.9636 5.75 13.2982 5.4625 13.2982 4.98333C13.2982 4.50417 12.9636 4.21667 12.4618 4.21667C11.2073 4.21667 9.95273 4.21667 8.78182 4.21667ZM8.78182 7.7625C7.52727 7.7625 6.27273 7.7625 5.01818 7.7625C4.76727 7.7625 4.43273 7.95417 4.34909 8.14583C3.93091 8.72083 4.34909 9.29583 5.01818 9.29583C7.52727 9.29583 9.95273 9.29583 12.4618 9.29583C12.9636 9.29583 13.2982 9.00833 13.2982 8.52917C13.2982 8.05 12.9636 7.7625 12.4618 7.7625C11.2073 7.7625 9.95273 7.7625 8.78182 7.7625Z" fill="white"/>
<path d="M6.44002 15.0457C6.69093 15.0457 6.8582 15.0457 7.02547 15.0457C9.28366 15.0457 11.6255 15.0457 13.8837 15.0457C15.8909 15.0457 17.3964 13.6082 17.8146 11.4999C17.8982 11.1165 17.8982 10.6374 17.8982 10.1582C17.8982 8.81654 17.8982 7.37904 17.8982 5.8457C18.9855 5.94154 20.0727 5.8457 21.0764 6.03737C22.1637 6.22904 22.9164 7.47487 22.9164 8.7207C22.9164 13.2249 22.9164 17.6332 22.9164 22.1374C22.9164 22.4249 22.7491 22.7124 22.5818 22.904C22.4146 22.9999 21.9964 22.9999 21.8291 22.8082C20.6582 21.9457 19.5709 20.9874 18.4 20.029C17.8982 19.6457 17.3964 19.454 16.8109 19.454C14.3018 19.454 11.7927 19.454 9.28366 19.454C7.44366 19.454 6.35638 18.2082 6.35638 16.0999C6.44002 15.8124 6.44002 15.5249 6.44002 15.0457Z" fill="white"/>
</g>
<defs>
<clipPath id="clip0_31_332">
<rect width="23" height="23" fill="white"/>
</clipPath>
</defs>
</svg>
