<svg width="23" height="23" viewBox="0 0 23 23" fill="none" xmlns="http://www.w3.org/2000/svg">
<g clip-path="url(#clip0_319_17641)">
<path d="M16.8715 9.74224V23.0002H16.4137C11.5366 23.0002 6.65949 23.0002 1.78237 23.0002C0.6165 23.0002 -7.93685e-06 22.3898 -7.93685e-06 21.2422C-7.93685e-06 20.3877 -7.93685e-06 19.5392 -7.93685e-06 18.6847C-0.00611197 17.9705 0.280778 17.4455 0.940013 17.1403C1.28184 16.9816 1.49548 16.7253 1.48938 16.3407C1.48327 15.9806 1.27574 15.7364 0.952221 15.5838C0.292986 15.2786 -7.93685e-06 14.7537 -7.93685e-06 14.0395C0.0060961 13.13 -0.00611197 12.2144 -7.93685e-06 11.3049C0.0122001 10.4015 0.653124 9.72393 1.54431 9.71783C6.58624 9.70562 11.6282 9.71783 16.6701 9.71783C16.725 9.71783 16.7861 9.73004 16.8715 9.74224ZM4.76114 14.1799H14.845V12.8858H4.76724V14.1799H4.76114ZM14.8572 15.5899H4.78555V16.8779H14.8572V15.5899ZM4.76724 19.5758H14.8511V18.2879H4.76724V19.5758Z" fill="white"/>
<path d="M18.2693 22.9938V9.74195C19.4352 9.74195 20.5828 9.68701 21.7242 9.76026C22.4567 9.80909 22.9695 10.4866 22.9878 11.2313C23.0061 12.2202 23.0061 13.2029 22.9878 14.1918C22.9756 14.8144 22.6765 15.2783 22.1149 15.5469C21.7609 15.7178 21.5106 15.9497 21.5106 16.3526C21.5106 16.7616 21.7609 16.9874 22.1149 17.1583C22.6948 17.4391 22.9878 17.9152 22.9939 18.5562C23 19.5145 23.0061 20.4728 22.9939 21.4251C22.9817 22.2674 22.3713 22.9511 21.5533 22.9755C20.479 23.0121 19.3986 22.9816 18.2755 22.9816L18.2693 22.9938Z" fill="white"/>
<path d="M9.22321 3.04602C10.1022 2.15483 10.9568 1.25143 11.854 0.39687C12.4339 -0.152493 13.3007 -0.121973 13.8928 0.433494C14.6314 1.12935 15.3517 1.85573 16.0475 2.58822C16.4626 3.0216 16.5542 3.56486 16.3466 4.13254C16.2123 4.50488 16.2123 4.84061 16.5053 5.1275C16.7861 5.39607 17.1157 5.38997 17.4637 5.26789C18.0863 5.04814 18.6478 5.18243 19.1117 5.64023C19.7832 6.29947 20.4546 6.96481 21.1078 7.64236C21.2848 7.82548 21.4008 8.06964 21.6022 8.36263C20.9735 8.36263 20.4668 8.36263 19.9663 8.36263C18.2633 8.36263 16.5542 8.36263 14.8511 8.35653C14.6741 8.35653 14.4544 8.29549 14.3384 8.18562C12.6598 6.52532 10.9873 4.85281 9.32087 3.18031C9.27814 3.13758 9.25373 3.08875 9.22321 3.04602Z" fill="white"/>
<path d="M8.28319 4.12012C9.64439 5.48132 11.0605 6.89745 12.495 8.3319H4.06531C5.43261 6.9646 6.85485 5.54846 8.28319 4.12012Z" fill="white"/>
</g>
<defs>
<clipPath id="clip0_319_17641">
<rect width="22.9939" height="23" fill="white"/>
</clipPath>
</defs>
</svg>
