<svg width="25" height="24" viewBox="0 0 25 24" fill="none" xmlns="http://www.w3.org/2000/svg">
<g clip-path="url(#clip0_204_2360)">
<path d="M16.5851 15.1419C13.5023 15.1419 10.4812 15.1419 7.46013 15.1419C7.15186 13.7997 7.0902 10.8714 7.39848 8.85809C10.4196 8.85809 13.5023 8.85809 16.5234 8.85809C16.8933 10.2003 16.8933 13.1287 16.5851 15.1419Z" fill="black"/>
<path d="M16.2771 7.21085C13.4409 7.21085 10.6048 7.21085 7.70703 7.21085C8.13862 5.44162 8.69351 3.7334 9.8033 2.2692C11.2214 0.377957 12.8244 0.377957 14.3041 2.2692C15.1673 3.48936 16.0921 5.68565 16.2771 7.21085Z" fill="black"/>
<path d="M16.3387 16.7891C15.9071 18.6194 15.3523 20.3886 14.1192 21.9138C12.7627 23.561 11.3447 23.561 9.92661 21.9138C8.69351 20.4496 8.13862 18.6804 7.70703 16.7891C10.6048 16.7891 13.4409 16.7891 16.3387 16.7891Z" fill="black"/>
<path d="M5.73385 15.1419C4.00751 15.1419 2.28117 15.1419 0.493174 15.1419C-0.123376 13.0066 -0.123376 10.9324 0.493174 8.85809C2.28117 8.85809 4.06917 8.85809 5.73385 8.85809C5.73385 10.9324 5.73385 13.0066 5.73385 15.1419Z" fill="black"/>
<path d="M18.373 8.85809C20.0994 8.85809 21.8257 8.85809 23.6137 8.85809C24.2303 10.9934 24.2303 13.0676 23.6137 15.1419C21.8257 15.1419 20.0377 15.1419 18.373 15.1419C18.373 13.0676 18.373 10.9934 18.373 8.85809Z" fill="black"/>
<path d="M1.04785 7.21087C2.40426 3.91645 5.98025 1.04907 9.24797 0.5C7.39832 2.39125 6.5968 4.77056 6.04191 7.21087C4.37722 7.21087 2.77419 7.21087 1.04785 7.21087Z" fill="black"/>
<path d="M22.9975 16.7891C21.7644 20.0225 18.1884 22.9509 14.7974 23.5C16.647 21.6088 17.4485 19.2294 18.0034 16.7891C19.6681 16.7891 21.2711 16.7891 22.9975 16.7891Z" fill="black"/>
<path d="M14.7974 0.5C17.4485 0.5 22.2576 4.46552 22.9358 7.21087C21.2711 7.21087 19.6681 7.21087 17.9418 7.21087C17.4485 4.77056 16.647 2.39125 14.7974 0.5Z" fill="black"/>
<path d="M1.10986 16.7891C2.77455 16.7891 4.37758 16.7891 6.10392 16.7891C6.65881 19.2294 7.39867 21.6088 9.24833 23.439C6.72047 23.561 1.84972 19.5955 1.10986 16.7891Z" fill="black"/>
</g>
<defs>
<clipPath id="clip0_204_2360">
<rect width="24.0455" height="23" fill="white" transform="translate(0 0.5)"/>
</clipPath>
</defs>
</svg>
