<svg width="24" height="24" viewBox="0 0 24 24" fill="none" xmlns="http://www.w3.org/2000/svg">
<g clip-path="url(#clip0_204_2398)">
<path d="M0.321289 7.63C7.99752 7.63 15.6092 7.63 23.2782 7.63C23.2782 7.76657 23.2782 7.88876 23.2782 8.01813C23.2782 12.2947 23.2782 16.5713 23.2782 20.8478C23.2782 22.4578 22.2452 23.5072 20.6382 23.5072C14.7411 23.5072 8.85123 23.5072 2.95416 23.5072C1.3687 23.5072 0.321289 22.465 0.321289 20.8838C0.321289 16.5928 0.321289 12.3091 0.321289 8.01813C0.321289 7.89594 0.321289 7.77375 0.321289 7.63ZM17.9121 15.6584C17.4673 15.6584 17.0296 15.6584 16.5849 15.6584C16.0683 15.6584 15.8101 15.91 15.8101 16.4203C15.8029 17.3188 15.8101 18.2172 15.8101 19.1156C15.8101 19.6116 16.0612 19.8847 16.549 19.8919C17.4673 19.9063 18.3855 19.9063 19.311 19.8919C19.763 19.8847 20.0284 19.6259 20.0356 19.1803C20.0499 18.2459 20.0499 17.3116 20.0356 16.3772C20.0284 15.91 19.7558 15.6656 19.2823 15.6656C18.8232 15.6584 18.3712 15.6584 17.9121 15.6584ZM7.7823 17.7572C7.7823 17.3044 7.78947 16.8444 7.7823 16.3916C7.77513 15.9244 7.51686 15.6656 7.04337 15.6656C6.12509 15.6584 5.20682 15.6584 4.28136 15.6656C3.83657 15.6656 3.56396 15.9244 3.55679 16.3772C3.54244 17.3116 3.54244 18.2459 3.55679 19.1803C3.56396 19.6116 3.82222 19.8847 4.24549 19.8919C5.18529 19.9063 6.13227 19.9063 7.07924 19.8919C7.52403 19.8847 7.77513 19.6116 7.7823 19.1588C7.78947 18.6844 7.7823 18.2172 7.7823 17.7572ZM5.70183 9.89407C5.22116 9.89407 4.74768 9.88688 4.26702 9.89407C3.8294 9.90126 3.57113 10.1456 3.56396 10.5841C3.54961 11.5256 3.54961 12.4744 3.56396 13.4159C3.57113 13.8544 3.83657 14.0916 4.27419 14.0988C5.20682 14.1059 6.13944 14.1059 7.06489 14.0988C7.52403 14.0916 7.77513 13.84 7.7823 13.3944C7.78947 12.46 7.78947 11.5256 7.7823 10.5984C7.7823 10.1672 7.52403 9.90844 7.09359 9.90126C6.63445 9.88688 6.16814 9.89407 5.70183 9.89407ZM17.9049 9.89407C17.4529 9.89407 17.001 9.88688 16.5418 9.89407C16.0612 9.90126 15.8101 10.1528 15.8101 10.6272C15.8029 11.5472 15.8029 12.4672 15.8101 13.3872C15.8101 13.84 16.0683 14.0988 16.5203 14.0988C17.4529 14.1059 18.3855 14.1059 19.311 14.0988C19.7701 14.0916 20.0212 13.8472 20.0284 13.3872C20.0427 12.4672 20.0356 11.5472 20.0284 10.6272C20.0212 10.1456 19.7701 9.90126 19.2966 9.89407C18.8375 9.88688 18.3712 9.89407 17.9049 9.89407ZM11.7998 15.6584C11.3335 15.6584 10.8671 15.6513 10.4008 15.6584C9.97038 15.6656 9.70494 15.91 9.69777 16.3413C9.6906 17.2828 9.6906 18.2316 9.69777 19.1731C9.70494 19.6116 9.94169 19.8775 10.3793 19.8847C11.3191 19.8991 12.2661 19.8991 13.2059 19.8847C13.6435 19.8775 13.8874 19.6188 13.8946 19.1803C13.9018 18.2388 13.9018 17.29 13.8946 16.3484C13.8874 15.9172 13.6291 15.6728 13.1915 15.6656C12.7324 15.6513 12.2661 15.6584 11.7998 15.6584ZM11.2761 12.1078C11.0752 11.885 10.9245 11.6981 10.7524 11.54C10.4654 11.2741 10.0708 11.2741 9.81255 11.5184C9.53277 11.7844 9.51124 12.1725 9.79821 12.4744C10.121 12.8266 10.4654 13.1644 10.8097 13.4878C11.0967 13.7609 11.4626 13.7753 11.7424 13.5022C12.4383 12.8266 13.1198 12.1438 13.7942 11.4466C14.0811 11.1447 14.0596 10.7494 13.7726 10.4906C13.5 10.2391 13.1126 10.2463 12.8113 10.5409C12.3163 11.0369 11.8285 11.54 11.2761 12.1078Z" fill="black"/>
<path d="M11.6493 1.94468C12.2161 1.94468 12.7254 1.94468 13.2922 1.94468C13.2922 1.69312 13.285 1.45593 13.2922 1.21874C13.2994 0.801867 13.5576 0.514367 13.9379 0.499992C14.3253 0.485617 14.6194 0.773117 14.6194 1.21155C14.6266 2.07405 14.6194 2.93655 14.6266 3.79905C14.6266 3.92843 14.6266 4.06499 14.6553 4.19437C14.727 4.53218 15.0355 4.76937 15.3583 4.74062C15.6883 4.71187 15.9538 4.44593 15.9609 4.09374C15.9753 3.51874 15.9681 2.94374 15.9681 2.36874C15.9681 2.23937 15.9681 2.10999 15.9681 1.94468C16.5205 1.94468 17.0442 1.94468 17.611 1.94468C17.611 1.68593 17.6038 1.46312 17.611 1.2403C17.6181 0.809054 17.8908 0.507179 18.2782 0.499992C18.6584 0.492804 18.9525 0.787492 18.9597 1.22593C18.974 2.13874 18.9453 3.04437 18.974 3.95718C18.9812 4.1728 19.0817 4.44593 19.2323 4.58249C19.6269 4.94187 20.2295 4.67593 20.2869 4.1153C20.3299 3.62655 20.3012 3.1378 20.3084 2.64187C20.3084 2.42624 20.3084 2.21062 20.3084 2.00218C21.5065 1.65718 23.0059 2.57718 23.1924 3.84218C23.3072 4.62562 23.2139 5.43062 23.2139 6.24999C15.6238 6.24999 7.99775 6.24999 0.285645 6.24999C0.328689 5.40187 0.27847 4.53937 0.450648 3.71999C0.673043 2.65624 1.67024 1.95905 2.78221 1.93749C3.39201 1.92312 3.99463 1.93749 4.64747 1.93749C4.64747 1.68593 4.64029 1.46312 4.64747 1.2403C4.65464 0.801867 4.92008 0.507179 5.30748 0.499992C5.70205 0.492804 5.98901 0.801867 5.98901 1.25468C5.99619 2.13874 5.98901 3.02999 5.98901 3.91405C5.98901 4.40999 6.2401 4.72624 6.64185 4.73343C7.05077 4.74062 7.32339 4.41718 7.33056 3.89968C7.33056 3.25999 7.33056 2.61312 7.33056 1.94468C7.88296 1.94468 8.39232 1.94468 8.96624 1.94468C8.96624 1.68593 8.95907 1.45593 8.96624 1.21874C8.98059 0.780304 9.2532 0.485617 9.6406 0.492804C10.028 0.499992 10.2934 0.794679 10.3006 1.23312C10.3078 2.13155 10.3006 3.02999 10.3006 3.92843C10.3006 4.40999 10.5876 4.73343 10.9822 4.73343C11.3839 4.72624 11.6422 4.41718 11.6422 3.92124C11.6422 3.79187 11.6422 3.6553 11.6422 3.52593C11.6493 3.01562 11.6493 2.49812 11.6493 1.94468Z" fill="black"/>
<path d="M18.6585 18.5191C18.1635 18.5191 17.6828 18.5191 17.1807 18.5191C17.1807 18.0231 17.1807 17.5416 17.1807 17.0312C17.6685 17.0312 18.1492 17.0312 18.6585 17.0312C18.6585 17.52 18.6585 18.0087 18.6585 18.5191Z" fill="black"/>
<path d="M6.4196 18.5263C5.90307 18.5263 5.43675 18.5263 4.93457 18.5263C4.93457 18.0303 4.93457 17.5488 4.93457 17.0385C5.42241 17.0385 5.91024 17.0385 6.4196 17.0385C6.4196 17.5272 6.4196 18.0088 6.4196 18.5263Z" fill="black"/>
<path d="M6.4196 12.7547C5.92459 12.7547 5.44393 12.7547 4.93457 12.7547C4.93457 12.2443 4.93457 11.7556 4.93457 11.2381C5.42958 11.2381 5.91024 11.2381 6.4196 11.2381C6.4196 11.7484 6.4196 12.2443 6.4196 12.7547Z" fill="black"/>
<path d="M18.6654 11.2525C18.6654 11.7556 18.6654 12.2372 18.6654 12.7547C18.1775 12.7547 17.6969 12.7547 17.1875 12.7547C17.1875 12.2659 17.1875 11.7772 17.1875 11.2525C17.661 11.2525 18.1416 11.2525 18.6654 11.2525Z" fill="black"/>
<path d="M12.5319 18.5263C12.0441 18.5263 11.5562 18.5263 11.0469 18.5263C11.0469 18.0375 11.0469 17.556 11.0469 17.0385C11.5275 17.0385 12.0082 17.0385 12.5319 17.0385C12.5319 17.5056 12.5319 17.9944 12.5319 18.5263Z" fill="black"/>
</g>
<defs>
<clipPath id="clip0_204_2398">
<rect width="23" height="23" fill="white" transform="translate(0.27832 0.5)"/>
</clipPath>
</defs>
</svg>
