<svg width="24" height="20" viewBox="0 0 24 20" fill="none" xmlns="http://www.w3.org/2000/svg">
<g clip-path="url(#clip0_204_2352)">
<path d="M0 13.6292C0.95863 13.6292 1.91726 13.6292 2.84165 13.6292C2.94437 14.2341 3.04708 14.839 3.18402 15.4438C3.21826 15.6217 3.28673 15.8352 3.35521 16.0131C3.49215 16.4045 3.86876 16.618 4.21113 16.5113C4.58773 16.4045 4.79315 16.0131 4.69044 15.5862C4.55349 14.9813 4.38231 14.3409 4.31384 13.736C3.83452 9.75096 6.36805 6.01501 10.1683 5.05433C14.3452 4.0225 18.5906 6.69104 19.5835 11.0319C19.9258 12.5262 19.8573 13.9495 19.4123 15.4083C19.3438 15.6217 19.3438 15.9776 19.4465 16.1555C19.5492 16.3334 19.8573 16.4757 20.097 16.5113C20.4051 16.5468 20.6448 16.2978 20.7133 16.0131C20.8845 15.3727 21.0214 14.6967 21.0899 14.0206C21.1241 13.7004 21.2268 13.5937 21.535 13.5937C22.3566 13.6292 23.1783 13.5937 24.0342 13.5937C24 14.7322 23.7603 15.7997 23.418 16.8315C23.281 17.1873 23.1441 17.5431 23.0071 17.8989C22.5963 19.0019 21.8088 19.4289 20.7475 19.4289C17.8031 19.4289 14.8588 19.4289 11.8802 19.4289C9.07275 19.4289 6.26534 19.3933 3.49215 19.4289C2.25963 19.4289 1.47218 18.9307 0.992867 17.721C0.445078 16.4757 0.0684736 15.1236 0 13.6292ZM12.0171 16.5468C12.7019 16.5468 13.2154 16.2266 13.6605 15.7285C15.2696 13.8783 16.8445 12.0281 18.4536 10.2135C18.7618 9.8577 18.796 9.5019 18.5563 9.18167C18.3167 8.86145 18.0086 8.79029 17.5977 9.00377C16.913 9.35958 16.2625 9.6798 15.5777 10.0356C14.0713 10.8184 12.5649 11.6012 11.0585 12.3839C10.1341 12.882 9.72325 13.8783 9.96291 14.9101C10.2026 15.8708 11.0585 16.5468 12.0171 16.5468Z" fill="black"/>
<path d="M6.02572 5.6236C5.37522 4.94757 4.72472 4.27154 4.07422 3.55993C6.12843 1.70974 8.525 0.677903 11.2982 0.5C11.2982 1.49625 11.2982 2.42135 11.2982 3.38202C9.10703 3.73783 8.01145 4.09363 6.02572 5.6236Z" fill="black"/>
<path d="M12.7017 3.4176C12.7017 2.42134 12.7017 1.49625 12.7017 0.571155C14.7901 0.428833 18.4877 2.02996 19.8914 3.5955C19.2409 4.27153 18.5904 4.94756 17.9399 5.65917C16.4335 4.34269 14.6874 3.63108 12.7017 3.4176Z" fill="black"/>
<path d="M2.73894 12.1348C1.88302 12.1348 0.95863 12.1348 0 12.1348C0.205421 9.28837 1.23253 6.79773 3.01284 4.6629C3.66334 5.37451 4.31384 6.01496 4.9301 6.65541C4.48502 7.50934 3.93723 8.3277 3.56063 9.25279C3.18402 10.1423 3.01284 11.1386 2.73894 12.1348Z" fill="black"/>
<path d="M19.0015 6.76216C19.6862 6.05055 20.3025 5.37452 20.9872 4.69849C22.7675 6.83332 23.7946 9.28837 24 12.1704C23.0414 12.1704 22.117 12.1704 21.1584 12.1704C20.9872 10.1067 20.2682 8.29212 19.0015 6.76216Z" fill="black"/>
<path d="M14.8247 12.1704C14.0715 13.0599 13.3183 13.9139 12.565 14.8034C12.3596 15.0524 12.0857 15.1236 11.7776 15.0168C11.5037 14.9101 11.3325 14.7322 11.2983 14.412C11.264 14.0562 11.4352 13.8427 11.7091 13.7004C12.7362 13.1667 13.7633 12.633 14.7562 12.0992C14.7904 12.0992 14.8247 12.1348 14.8247 12.1704Z" fill="black"/>
</g>
<defs>
<clipPath id="clip0_204_2352">
<rect width="24" height="19" fill="white" transform="translate(0 0.5)"/>
</clipPath>
</defs>
</svg>
