<svg width="21" height="24" viewBox="0 0 21 24" fill="none" xmlns="http://www.w3.org/2000/svg">
<g clip-path="url(#clip0_204_2390)">
<path d="M10.3686 23.5C5.63713 23.5 1.61542 20.4246 0.511419 15.9823C-0.382296 12.3549 0.485133 9.14801 3.06113 6.41429C3.90228 5.52058 5.24285 5.49429 6.08399 6.30915C6.92513 7.12401 6.95142 8.46458 6.11028 9.33201C3.95485 11.54 3.8497 14.9309 5.76856 17.1651C7.34571 18.9789 9.34342 19.6623 11.6828 19.0577C14.1011 18.4269 15.5731 16.7709 15.9674 14.3C16.2828 12.4074 15.6783 10.7514 14.364 9.35829C13.444 8.38572 13.5228 6.99258 14.4954 6.17772C15.3366 5.49429 16.5457 5.54686 17.308 6.30915C18.78 7.75486 19.7263 9.51601 20.0943 11.54C20.988 16.4554 18.3594 21.0817 13.7068 22.8429C12.5766 23.316 11.42 23.5 10.3686 23.5Z" fill="black"/>
<path d="M12.3399 6.96628C12.3399 8.38571 12.3399 9.80513 12.3399 11.2246C12.3136 12.5651 11.3673 13.4326 10.0531 13.38C9.08048 13.3274 8.16048 12.46 8.1342 11.4874C8.10791 10.1731 8.10791 8.85885 8.10791 7.54456C8.10791 5.88856 8.10791 4.20628 8.10791 2.55028C8.10791 1.73542 8.52848 1.13085 9.2382 0.762849C9.94791 0.394849 10.6839 0.421135 11.3411 0.841706C11.9456 1.23599 12.2873 1.78799 12.3136 2.49771C12.3399 3.99599 12.3399 5.46799 12.3399 6.96628Z" fill="black"/>
</g>
<defs>
<clipPath id="clip0_204_2390">
<rect width="20.1086" height="23" fill="white" transform="translate(0.169922 0.5)"/>
</clipPath>
</defs>
</svg>
