<svg width="24" height="24" viewBox="0 0 24 24" fill="none" xmlns="http://www.w3.org/2000/svg">
<g clip-path="url(#clip0_204_2394)">
<path d="M8.07111 2.70549C8.4702 2.89453 8.84828 3.10457 9.24736 3.29361C10.7807 3.96576 11.6419 5.22603 12.209 6.73836C12.5871 7.76759 12.6921 8.85982 12.6921 9.95206C12.7131 12.6617 12.6921 15.3922 12.6921 18.1018C12.6921 18.2279 12.6921 18.3539 12.6921 18.4799C14.0784 18.5009 15.0866 17.9758 15.4647 16.9466C15.6538 16.4215 15.6958 15.8543 15.7798 15.2872C15.8638 14.6151 16.3679 14.216 17.0401 14.3C17.6072 14.363 17.9222 14.8461 17.8592 15.5183C17.7542 16.6105 17.5442 17.6397 16.851 18.5429C16.0108 19.6142 14.9606 20.3283 13.5743 20.4753C12.8602 20.5384 12.356 20.6854 12.293 21.5466C12.272 21.9037 12.02 22.2817 11.8099 22.5968C11.3058 23.353 10.5707 23.626 9.68846 23.416C7.39896 22.8279 5.23549 21.8617 3.21905 20.6224C2.75695 20.3493 2.35787 19.9292 2.02179 19.5091C0.99257 18.2489 0.48846 16.7996 0.383437 15.1612C0.278415 12.8507 0.215401 10.5192 0.362433 8.20868C0.425447 6.99042 0.48846 5.77215 0.76152 4.5959C1.24462 2.49544 2.967 1.10914 5.13047 0.79407C7.20992 0.500006 9.28937 0.415988 11.3688 0.605029C12.4401 0.689048 13.5323 0.815075 14.5195 1.19316C16.3259 1.90731 17.3761 3.31462 17.6072 5.26804C17.7332 6.29727 17.8172 7.34749 17.9012 8.37672C17.9433 9.02786 17.5652 9.44795 16.956 9.48996C16.3679 9.51097 15.8638 9.04886 15.8218 8.43973C15.7378 7.32649 15.6538 6.21325 15.5487 5.12101C15.4227 3.98676 14.5405 3.14658 13.4273 2.95754C11.8519 2.70549 10.2766 2.64247 8.70125 2.62147C8.4912 2.62147 8.30216 2.62147 8.09211 2.62147C8.07111 2.64247 8.07111 2.66348 8.07111 2.70549Z" fill="black"/>
<path d="M20.0015 12.9347C19.8755 12.9347 19.7495 12.9347 19.6235 12.9347C18.0691 12.9347 16.5358 12.9347 14.9814 12.9347C14.4353 12.9347 14.0152 12.5777 13.9312 12.0945C13.8472 11.6114 14.0572 11.1283 14.5193 10.9393C14.7294 10.8553 14.9604 10.8343 15.1915 10.8343C16.6618 10.8343 18.1321 10.8343 19.6024 10.8343C19.7285 10.8343 19.8335 10.8343 20.0225 10.8343C19.9385 10.7082 19.8755 10.6452 19.8125 10.5822C19.4974 10.2671 19.1824 9.95208 18.8673 9.63701C18.3422 9.1119 18.3002 8.48176 18.7623 8.01966C19.2034 7.57856 19.8545 7.62057 20.3586 8.12468C20.9257 8.6708 21.4719 9.23792 22.039 9.80505C22.249 10.0151 22.4801 10.2461 22.6901 10.4562C23.4673 11.2964 23.4883 12.5146 22.6691 13.3338C21.8919 14.132 21.0938 14.9092 20.3166 15.6863C19.8545 16.1274 19.1824 16.1274 18.7833 15.7073C18.3842 15.2872 18.3842 14.6571 18.8463 14.195C19.2454 13.7959 19.6445 13.4178 20.0435 13.0187C20.0225 12.9977 20.0225 12.9557 20.0015 12.9347Z" fill="black"/>
</g>
<defs>
<clipPath id="clip0_204_2394">
<rect width="23" height="23" fill="white" transform="translate(0.27832 0.5)"/>
</clipPath>
</defs>
</svg>
