<svg width="28" height="24" viewBox="0 0 28 24" fill="none" xmlns="http://www.w3.org/2000/svg">
<path d="M10.1066 14.7074C10.144 13.3963 10.5561 12.2351 11.3427 11.2237C13.9649 7.77745 19.359 8.30188 21.232 12.1976C21.3818 12.4973 21.5317 12.5722 21.8688 12.5722C24.7532 12.5722 27.188 14.8573 27.3004 17.7042C27.4502 20.626 25.2776 23.1732 22.3558 23.4729C22.0935 23.5104 21.8688 23.4729 21.6066 23.4729C17.9356 23.4729 14.2646 23.4729 10.5935 23.4729C7.82156 23.4729 5.7613 21.038 6.24827 18.2661C6.62287 16.468 8.00886 15.1569 10.1066 14.7074Z" fill="black"/>
<path d="M5.57413 15.6065C3.47641 13.4713 3.28912 9.35078 6.0611 6.84101C8.79563 4.3687 12.9162 4.89313 14.939 7.4029C14.4894 7.51528 14.0399 7.62766 13.6279 7.77749C11.0432 8.67652 9.39498 10.512 8.72071 13.1716C8.68325 13.3215 8.60834 13.4713 8.4585 13.5462C7.97153 13.8459 7.40964 14.1081 6.92267 14.4452C6.47316 14.7824 6.0611 15.1944 5.57413 15.6065Z" fill="black"/>
<path d="M9.46959 2.08367C9.46959 1.82145 9.46959 1.55924 9.46959 1.29702C9.50705 0.847509 9.80672 0.547835 10.2188 0.510376C10.6683 0.510376 11.0054 0.772591 11.0054 1.25956C11.0429 1.82145 11.0429 2.38334 11.0054 2.90777C10.968 3.35728 10.6308 3.6195 10.1813 3.6195C9.76926 3.6195 9.46959 3.28236 9.43213 2.87031C9.46959 2.6081 9.46959 2.34588 9.46959 2.08367Z" fill="black"/>
<path d="M2.68962 7.9273C2.65216 7.9273 2.50232 7.88984 2.38994 7.81493C1.94043 7.55271 1.49092 7.32795 1.04141 7.02828C0.629357 6.76606 0.516979 6.31655 0.741735 5.94196C0.966491 5.60483 1.416 5.45499 1.79059 5.67975C2.27757 5.94196 2.72708 6.20418 3.17659 6.50385C3.51372 6.72861 3.6261 7.02828 3.47626 7.40287C3.40134 7.77747 3.13913 7.9273 2.68962 7.9273Z" fill="black"/>
<path d="M17.7484 7.92732C17.3738 7.92732 17.149 7.74002 16.9992 7.44035C16.8493 7.10321 16.9617 6.76608 17.2614 6.54132C17.7484 6.20419 18.2728 5.94197 18.7972 5.6423C19.1718 5.455 19.4715 5.60484 19.6963 5.90451C19.921 6.20419 19.9585 6.61624 19.6588 6.841C19.0969 7.25305 18.4976 7.55272 17.8982 7.88986C17.8607 7.96478 17.8233 7.92732 17.7484 7.92732Z" fill="black"/>
<path d="M1.56594 17.3671C1.07897 17.3671 0.816756 17.1798 0.704379 16.8426C0.592001 16.5055 0.666919 16.1684 0.929134 15.9811C1.45356 15.6439 1.97799 15.3443 2.50242 15.082C2.83956 14.8947 3.13923 15.0446 3.36399 15.3068C3.6262 15.569 3.66366 15.9811 3.43891 16.2058C2.87702 16.7677 2.16529 17.1048 1.56594 17.3671Z" fill="black"/>
</svg>
