<svg width="24" height="24" viewBox="0 0 24 24" fill="none" xmlns="http://www.w3.org/2000/svg">
<g clip-path="url(#clip0_204_2371)">
<path d="M2.48592 11.7333C3.37338 11.7333 4.3348 11.7333 5.22226 11.7333C6.10972 11.7333 6.99718 11.7333 7.88464 11.7333C9.43769 11.7333 10.3991 10.6979 10.4731 9.21885C10.4731 7.44393 10.4731 5.66901 10.4731 3.82013C10.4731 2.34103 9.43769 1.30566 7.95859 1.30566C6.18367 1.30566 4.3348 1.30566 2.55988 1.30566C1.08078 1.30566 0.0454102 2.26708 0.0454102 3.74618C0.0454102 5.59505 0.0454102 7.36997 0.0454102 9.21885C0.0454102 10.624 1.08078 11.6594 2.48592 11.7333Z" fill="black"/>
<path d="M8.1065 13.0723C6.18367 13.0723 4.3348 13.0723 2.41197 13.0723C1.08078 13.0723 0.0454102 14.1077 0.0454102 15.5128C0.0454102 17.3617 0.0454102 19.2845 0.0454102 21.1334C0.0454102 22.5386 1.08078 23.5739 2.48592 23.5739C4.3348 23.5739 6.18367 23.5739 8.03255 23.5739C9.43769 23.5739 10.4731 22.5386 10.4731 21.1334C10.4731 20.246 10.4731 19.2845 10.4731 18.3971C10.4731 17.5096 10.4731 16.5482 10.4731 15.6608V15.5868C10.4731 14.1077 9.43769 13.0723 8.1065 13.0723Z" fill="black"/>
<path d="M20.1029 13.0724C18.254 13.0724 16.4051 13.0724 14.5562 13.0724C13.1511 13.0724 12.1157 14.1078 12.1157 15.5129C12.1157 17.3618 12.1157 19.2107 12.1157 21.0595C12.1157 22.4647 13.1511 23.5 14.5562 23.5C15.4437 23.5 16.4051 23.5 17.2926 23.5C18.18 23.5 19.0675 23.5 20.0289 23.5C21.508 23.5 22.5434 22.4647 22.5434 20.9856C22.5434 19.1367 22.5434 17.3618 22.5434 15.5129C22.5434 14.1078 21.508 13.0724 20.1029 13.0724Z" fill="black"/>
<path d="M15.3435 11.5116C15.7872 11.9553 16.3788 12.2511 17.0444 12.2511C17.71 12.2511 18.3017 12.0293 18.8194 11.5116C19.9287 10.4023 21.038 9.29294 22.1473 8.18361C23.1087 7.14824 23.1087 5.7431 22.1473 4.70773C21.038 3.5984 19.9287 2.48908 18.8194 1.37975C17.784 0.418338 16.3788 0.418338 15.3435 1.37975C14.2341 2.48908 13.1248 3.5984 12.0155 4.70773C11.0541 5.7431 11.0541 7.14824 12.0155 8.18361C13.1248 9.29294 14.2341 10.4023 15.3435 11.5116Z" fill="black"/>
</g>
<defs>
<clipPath id="clip0_204_2371">
<rect width="23" height="23" fill="white" transform="translate(0.0454102 0.5)"/>
</clipPath>
</defs>
</svg>
