<svg width="23" height="23" viewBox="0 0 23 23" fill="none" xmlns="http://www.w3.org/2000/svg">
<path d="M18.1427 18.8936C13.6215 18.8936 9.16257 18.8936 4.64138 18.8936C4.64138 18.7692 4.64138 18.6447 4.64138 18.5203C4.64138 16.4671 4.64138 14.3932 4.64138 12.34C4.64138 8.87647 6.8605 6.11813 10.2618 5.49595C13.7875 4.87377 17.0643 7.11362 17.9146 10.4734C18.0805 11.0956 18.122 11.78 18.1427 12.4229C18.1635 14.4346 18.1427 16.4464 18.1427 18.4581C18.1427 18.5825 18.1427 18.7277 18.1427 18.8936Z" fill="black"/>
<path d="M20.1752 20.2831C20.1752 20.9883 20.1959 21.6519 20.1752 22.3363C20.1545 22.7304 19.8849 22.9585 19.4908 23C19.4078 23 19.3249 23 19.2419 23C14.0156 23 8.81001 23 3.58368 23C2.8578 23 2.65041 22.7719 2.65041 22.046C2.65041 21.486 2.65041 20.9261 2.65041 20.3661C2.65041 20.3454 2.67115 20.3246 2.69188 20.2831C8.47818 20.2831 14.306 20.2831 20.1752 20.2831Z" fill="black"/>
<path d="M10.6766 1.99098C10.6766 1.57619 10.6766 1.16141 10.6766 0.725879C10.6973 0.290352 10.9669 0 11.3402 0C11.7135 0 12.0246 0.290352 12.0246 0.725879C12.0454 1.57619 12.0454 2.44725 12.0246 3.29757C12.0246 3.75383 11.7343 4.04418 11.3195 4.02344C10.9254 4.0027 10.6766 3.73309 10.6766 3.27683C10.6766 2.8413 10.6766 2.42651 10.6766 1.99098Z" fill="black"/>
<path d="M3.85329 8.00543C3.85329 8.62761 3.35555 8.98018 2.89928 8.73131C2.0697 8.29578 1.2816 7.81877 0.472768 7.34177C0.161677 7.15511 0.0787194 6.76106 0.265374 6.44997C0.431289 6.13888 0.804598 6.01444 1.13643 6.18036C1.94527 6.63663 2.7541 7.09289 3.56294 7.59064C3.72885 7.69434 3.79107 7.92247 3.85329 8.00543Z" fill="black"/>
<path d="M21.9173 6.1181C22.2284 6.13884 22.4773 6.26328 22.581 6.55363C22.6847 6.84398 22.6225 7.15507 22.3529 7.32099C21.544 7.81873 20.7144 8.29574 19.8641 8.75201C19.5738 8.91792 19.1797 8.75201 19.0346 8.46166C18.8686 8.19204 18.9101 7.79799 19.2005 7.63208C20.03 7.11359 20.9011 6.65733 21.7514 6.15958C21.7929 6.1181 21.8551 6.1181 21.9173 6.1181Z" fill="black"/>
<path d="M5.42949 1.63843C5.53319 1.72139 5.76133 1.82508 5.88576 2.01174C6.34203 2.75836 6.77756 3.50497 7.19234 4.27233C7.39974 4.64564 7.29604 5.03969 6.94347 5.22635C6.61164 5.413 6.23833 5.3093 6.03094 4.93599C5.59541 4.18937 5.13914 3.42202 4.72436 2.6754C4.45474 2.19839 4.76583 1.65917 5.42949 1.63843Z" fill="black"/>
<path d="M18.1635 2.42651C18.1427 2.46799 18.1013 2.61317 18.039 2.7376C17.6243 3.46348 17.2095 4.18936 16.7947 4.91524C16.5458 5.33003 16.1725 5.45447 15.8407 5.24707C15.4881 5.03968 15.4051 4.66637 15.6333 4.25158C16.0688 3.50496 16.4836 2.75834 16.9191 2.01172C17.085 1.72137 17.3546 1.5762 17.6865 1.67989C17.9976 1.76285 18.1842 1.99099 18.1635 2.42651Z" fill="black"/>
</svg>
