<svg width="24" height="23" viewBox="0 0 24 23" fill="none" xmlns="http://www.w3.org/2000/svg">
<g clip-path="url(#clip0_21_27)">
<path d="M15.1577 3.68975C15.0142 3.8405 14.9352 3.93382 14.8419 4.01996C12.9396 5.92227 11.0301 7.8174 9.14212 9.74124C8.8478 10.0427 8.61809 10.4519 8.46016 10.8539C8.12277 11.7225 7.84999 12.6127 7.56284 13.4956C7.30442 14.2853 7.46235 14.9959 8.05098 15.5774C8.63245 16.1588 9.3503 16.3096 10.1328 16.0583C11.0516 15.7568 11.9776 15.4769 12.8821 15.1323C13.2482 14.9959 13.6072 14.7519 13.8871 14.4791C15.8038 12.5911 17.6989 10.6816 19.6012 8.77932C19.6874 8.69318 19.752 8.59268 19.8238 8.49936C19.8525 8.51372 19.8812 8.52807 19.9027 8.53525C19.9099 8.62139 19.9314 8.70036 19.9314 8.7865C19.9314 12.6629 19.9386 16.5393 19.9314 20.4157C19.9314 21.9304 18.8618 23 17.3544 23C12.6309 23.0072 7.90024 23.0072 3.17676 23C1.68363 23 0.628387 21.9376 0.628387 20.4444C0.628387 15.7066 0.628387 10.9831 0.628387 6.25966C0.628387 4.82395 1.6621 3.7041 3.07627 3.69693C7.0747 3.67539 11.0731 3.68975 15.1577 3.68975Z" fill="black"/>
<path d="M18.345 2.45508C19.2926 3.40264 20.2258 4.32867 21.1733 5.27624C21.1159 5.34085 21.0513 5.41981 20.9795 5.49877C18.3019 8.17636 15.6243 10.8611 12.9396 13.5315C12.7673 13.7038 12.5376 13.833 12.315 13.9192C11.4967 14.2135 10.664 14.4719 9.83843 14.7519C9.53694 14.8524 9.24979 14.8811 9.00572 14.637C8.76165 14.393 8.78319 14.1058 8.88369 13.8043C9.17801 12.9357 9.46515 12.0599 9.75947 11.1913C9.80972 11.0478 9.88868 10.9042 9.98918 10.7965C12.7386 8.03997 15.4951 5.28342 18.2517 2.53404C18.2732 2.49815 18.3091 2.48379 18.345 2.45508Z" fill="black"/>
<path d="M22.1568 4.25687C21.2164 3.32366 20.2904 2.39763 19.3643 1.47878C19.7592 1.0696 20.1396 0.624533 20.5703 0.236893C20.9149 -0.0717839 21.482 -0.0789625 21.8338 0.236893C22.3793 0.717854 22.8962 1.23471 23.3771 1.78028C23.7002 2.1392 23.693 2.71348 23.3771 3.07241C23.0039 3.48877 22.566 3.86205 22.1568 4.25687Z" fill="black"/>
</g>
<defs>
<clipPath id="clip0_21_27">
<rect width="22.9928" height="23" fill="white" transform="translate(0.628387)"/>
</clipPath>
</defs>
</svg>
